<?xml version="1.0" encoding="UTF-8" standalone="yes"?>
<!DOCTYPE svg PUBLIC "-//W3C//DTD SVG 1.0//EN" "http://www.w3.org/TR/2001/REC-SVG-20010904/DTD/svg10.dtd">
<svg width="141.421401" height="141.421401" xmlns="http://www.w3.org/2000/svg" xmlns:svg="http://www.w3.org/2000/svg" xmlns:xlink="http://www.w3.org/1999/xlink" xmlns:slic3r="http://slic3r.org/namespaces/slic3r">
  <!-- 
  Generated using Slic3r 1.3.0
  http://slic3r.org/
   -->
  <g id="layer0" slic3r:z="2e-007">
    <polygon slic3r:type="contour" points="70.797808,0.087106 70.80016,0.08946 70.914271,0.203565 70.955688,0.244988 71.019759,0.309055 71.02492,0.314214 71.039504,0.328804 71.06072,0.350018 71.09608,0.385374 71.155576,0.44487 71.159711,0.449011 71.224919,0.514213 71.226895,0.516187 71.252247,0.541543 71.368743,0.658037 71.37892,0.668216 71.393063,0.682357 71.409039,0.698337 71.465472,0.754766 71.46904,0.758338 71.553719,0.843013 71.571087,0.860383 71.62492,0.914214 75.054919,4.344213 137.476792,66.766088 137.496432,66.785728 137.534496,66.823788 137.595423,66.884723 137.604271,66.893559 137.623712,66.913008 137.771408,67.060704 137.883023,67.172311 137.991408,67.280704 141.421408,70.710704 141.21784,70.914271 141.192847,70.939272 141.164991,70.967128 141.092608,71.039503 141.085952,71.046151 141.071391,71.06072 141.034272,71.097839 141.025424,71.106679 140.976528,71.155575 140.972399,71.159712 140.926432,71.205679 140.879855,71.252248 140.872784,71.259319 140.867583,71.264528 140.806656,71.325455 140.761951,71.370152 140.742576,71.389527 140.689551,71.44256 140.665231,71.46688 140.654992,71.477111 140.637552,71.494551 140.578399,71.55372 140.548735,71.583376 140.537519,71.594584 140.502159,71.629944 140.464112,71.667999 140.394336,71.737775 140.392559,71.739544 74.52608,137.606031 74.449759,137.682352 74.385688,137.746415 74.344272,137.787839 70.710704,141.421408 69.862175,140.572879 60.104099,130.814807 59.538411,130.249119 53.032999,123.743695 52.509743,123.220439 46.492299,117.202999 46.242063,116.952767 46.185967,116.896663 46.130791,116.841495 46.085712,116.796408 39.244448,109.955152 39.200551,109.911247 39.148592,109.859288 39.096979,109.807671 39.080963,109.791663 38.8909,109.6016 38.74948,109.460168 38.325211,109.035911 31.961219,102.671919 31.932935,102.643639 31.819799,102.530503 31.466249,102.176951 24.69888,95.409496 24.590916,95.301528 24.300499,95.011103 23.99177,94.702384 18.582319,89.293023 17.294504,88.005208 5.931484,76.642184 5.378595,76.089295 0,70.710704 3.22,67.490703 4.144214,66.566487 4.145875,66.564828 69.977083,0.733622 69.977083,0.733623 70.196488,0.514213 70.210703,0.5 70.396488,0.314213 70.410703,0.3 70.590703,0.119999 70.623591,0.087106 70.710704,0" style="fill: white" />
    <polygon slic3r:type="hole" points="70.370343,128.740496 70.3634,128.741103 70.033335,128.829496 70.026599,128.831296 69.717023,128.975664 69.710704,128.978608 69.425103,129.178608 69.183528,129.420167 69.1786,129.425095 68.978599,129.710696 68.834239,130.02028 68.831295,130.0266 68.742895,130.356664 68.741096,130.363399 68.711311,130.703752 68.710704,130.710695 68.740488,131.051056 68.741095,131.057999 68.829487,131.387959 68.831296,131.394696 68.975655,131.704375 68.9786,131.710696 69.174599,131.990591 69.178599,131.996303 69.420176,132.237872 69.425104,132.2428 69.704991,132.438703 69.710703,132.442703 70.020279,132.587151 70.0266,132.590104 70.356664,132.678496 70.363399,132.680296 70.703759,132.710087 70.710704,132.710696 71.051056,132.680903 71.057999,132.680296 71.38796,132.591903 71.394695,132.590104 71.704384,132.445647 71.710703,132.442704 71.990583,132.2468 71.996295,132.2428 72.237872,132.001231 72.242799,131.996304 72.438703,131.716408 72.442704,131.710695 72.587152,131.401015 72.590104,131.394695 72.678496,131.064735 72.680296,131.058 72.710096,130.717639 72.710704,130.710696 72.680903,130.370343 72.680296,130.3634 72.591903,130.033335 72.590104,130.0266 72.445648,129.717016 72.442704,129.710696 72.2468,129.430808 72.242799,129.425095 72.001224,129.183536 71.996296,129.178608 71.716416,128.982608 71.710704,128.978608 71.401015,128.834239 71.394695,128.831296 71.064735,128.742903 71.058,128.741104 70.717647,128.711303 70.710704,128.710696" style="fill: black" />
    <polygon slic3r:type="hole" points="69.852615,65.785708 69.842399,65.7866 69.010503,66.009544 69.0006,66.012199 68.219999,66.376264 68.210704,66.380599 67.505199,66.87462 67.4968,66.880499 67.170384,67.206815 67.163127,67.214072 66.8805,67.496799 66.386479,68.202304 66.3806,68.210703 66.016535,68.991304 66.0122,69.0006 65.789255,69.832496 65.7866,69.842399 65.711591,70.700488 65.7107,70.710704 65.785708,71.568688 65.7866,71.578904 66.009544,72.410896 66.0122,72.4208 66.376264,73.201408 66.3806,73.210704 66.874619,73.916199 66.880499,73.924599 67.489551,74.533655 67.496799,74.540903 68.202304,75.03492 68.210703,75.0408 68.991303,75.404767 69.0006,75.409104 69.832495,75.632039 69.842399,75.634696 70.700487,75.709807 70.710704,75.710704 71.568687,75.635592 71.578904,75.634695 72.410896,75.411759 72.4208,75.409103 73.201407,75.045136 73.210704,75.040799 73.9162,74.546783 73.924599,74.540904 74.540903,73.9246 75.03492,73.219103 75.0408,73.210704 75.404767,72.430096 75.409104,72.420799 75.632039,71.588808 75.634696,71.578904 75.709807,70.72092 75.710704,70.710704 75.635592,69.852616 75.634695,69.842399 75.41176,69.010504 75.409103,69.000599 75.045136,68.22 75.040799,68.210704 74.546783,67.505199 74.540904,67.4968 74.258168,67.214072 74.214591,67.170383 74.207336,67.163128 73.924599,66.880499 73.219103,66.386479 73.210704,66.3806 72.430095,66.016535 72.420799,66.0122 71.588807,65.789255 71.578904,65.7866 70.72092,65.711592 70.710703,65.7107" style="fill: black" />
    <polygon slic3r:type="hole" points="10.370345,68.740488 10.3634,68.741095 10.033336,68.829487 10.026599,68.831296 9.717018,68.975655 9.7107,68.978599 9.425099,69.1786 9.183529,69.420176 9.1786,69.425103 8.978599,69.710704 8.834245,70.02028 8.8313,70.026599 8.741099,70.3634 8.711308,70.703759 8.7107,70.710704 8.740492,71.051056 8.741099,71.057999 8.829496,71.38796 8.831299,71.394695 8.975653,71.704383 8.978599,71.710703 9.174599,71.990583 9.1786,71.996296 9.420169,72.237871 9.4251,72.2428 9.704988,72.438704 9.7107,72.442704 10.020281,72.587151 10.0266,72.590104 10.356664,72.678496 10.363399,72.680296 10.703754,72.710096 10.710699,72.710704 11.051054,72.680903 11.057999,72.680296 11.387965,72.591904 11.3947,72.590104 11.704379,72.445648 11.7107,72.442703 11.990587,72.2468 11.9963,72.242799 12.237869,72.001224 12.242799,71.996296 12.438702,71.716415 12.4427,71.710703 12.587151,71.401016 12.5901,71.394695 12.678495,71.064736 12.6803,71.057999 12.710091,70.717648 12.7107,70.710703 12.680908,70.370344 12.6803,70.3634 12.5901,70.0266 12.445647,69.717023 12.4427,69.710704 12.242799,69.425103 12.00123,69.183528 11.9963,69.1786 11.710699,68.978599 11.40102,68.83424 11.3947,68.831296 11.064734,68.742896 11.057999,68.741096 10.717645,68.711311 10.710699,68.710704" style="fill: black" />
    <polygon slic3r:type="hole" points="130.370343,68.740488 130.3634,68.741096 130.033336,68.829487 130.026599,68.831296 129.717015,68.975656 129.710696,68.978599 129.425095,69.1786 129.183536,69.420175 129.178608,69.425103 128.978607,69.710704 128.834239,70.02028 128.831296,70.026599 128.742903,70.356664 128.741104,70.363399 128.711303,70.70376 128.710695,70.710703 128.740495,71.051055 128.741103,71.057999 128.829496,71.38796 128.831295,71.394695 128.975664,71.704384 128.978608,71.710704 129.174608,71.990584 129.178608,71.996296 129.420167,72.237871 129.425095,72.242799 129.704983,72.438703 129.710696,72.442704 130.02028,72.587152 130.0266,72.590104 130.356664,72.678496 130.363399,72.680295 130.703752,72.710096 130.710696,72.710703 131.051056,72.680903 131.057999,72.680296 131.38796,72.591903 131.394696,72.590103 131.704375,72.445648 131.710696,72.442703 131.990591,72.2468 131.996303,72.2428 132.237872,72.001223 132.2428,71.996295 132.438704,71.716415 132.442704,71.710704 132.587151,71.401016 132.590104,71.394696 132.678496,71.064735 132.680296,71.057999 132.710087,70.717648 132.710696,70.710703 132.680904,70.370344 132.680296,70.3634 132.591903,70.033335 132.590104,70.0266 132.445647,69.717023 132.442704,69.710704 132.2468,69.430816 132.2428,69.425104 132.001231,69.183527 131.996304,69.1786 131.716408,68.9826 131.710695,68.978599 131.401016,68.83424 131.394696,68.831296 131.064735,68.742895 131.058,68.741096 130.717639,68.711311 130.710696,68.710704" style="fill: black" />
    <polygon slic3r:type="hole" points="70.370344,8.740491 70.3634,8.741099 70.026599,8.8313 69.717024,8.975653 69.710704,8.978599 69.425103,9.1786 69.183528,9.420169 69.1786,9.425099 68.9786,9.7107 68.834239,10.020282 68.831296,10.0266 68.742895,10.356664 68.741096,10.363399 68.711311,10.703754 68.710704,10.7107 68.740488,11.051054 68.741096,11.058 68.829487,11.387965 68.831295,11.394699 68.975655,11.704379 68.978599,11.710699 69.1786,11.9963 69.420175,12.237869 69.425103,12.242799 69.710704,12.442699 70.02028,12.587152 70.026599,12.590099 70.3634,12.6803 70.703759,12.710091 70.710704,12.7107 71.051056,12.680907 71.057999,12.6803 71.38796,12.591903 71.394696,12.590099 71.704383,12.445648 71.710703,12.4427 71.990584,12.246797 71.996296,12.242799 72.237871,12.00123 72.242799,11.9963 72.438703,11.716412 72.442704,11.710699 72.587151,11.40102 72.590104,11.394699 72.678495,11.064734 72.680296,11.057999 72.710096,10.717645 72.710704,10.710699 72.680904,10.370346 72.680296,10.3634 72.591903,10.033335 72.590104,10.0266 72.445648,9.717018 72.442704,9.7107 72.2468,9.430812 72.242799,9.425099 72.001224,9.18353 71.996296,9.1786 71.716416,8.9826 71.710703,8.978599 71.401015,8.834245 71.394695,8.831299 71.064736,8.742904 71.058,8.7411 70.717648,8.711308 70.710703,8.7107" style="fill: black" />
  </g>
</svg>
