<svg width="304.8" height="203.2" xmlns="http://www.w3.org/2000/svg" 
    xmlns:svg="http://www.w3.org/2000/svg" xmlns:xlink="http://www.w3.org/1999/xlink" 
    viewport-fill="black">

    <!-- Generated using Drew's Slicer -->

    
<polygon style="fill: black" points="74.2023910522461,3.491690063476563 74.48453063964844,3.773830032348633 74.5023910522461,3.7916900634765627 74.92577056884765,4.215069961547852 75.01262054443359,4.301919937133789 75.28177108764649,4.571070098876952 78.43177108764648,7.72107009887695 135.77140197753906,65.06070098876953 135.7965217590332,65.08582077026367 135.98681182861327,65.27612075805663 136.29150161743163,65.58080101013184 136.3356918334961,65.62499084472657 136.43292160034179,65.72222099304199 137.17140197753906,66.46070098876953 137.72945251464844,67.01876068115234 138.27140197753906,67.56070098876953 141.42140197753906,70.71070098876953 140.97409210205078,71.15800094604492 140.40357208251953,71.72853088378906 140.27857208251953,71.85353088378906 140.13929138183593,71.9928108215332 139.77737197875976,72.35472106933594 139.7441619873047,72.38793106079102 139.6713119506836,72.460791015625 139.5829216003418,72.54918060302734 139.49453201293946,72.63756103515625 139.4856918334961,72.6464012145996 139.44150161743164,72.6906005859375 139.19704208374023,72.93505096435547 139.17633209228515,72.95576095581055 139.13681182861328,72.99528121948242 138.9465217590332,73.18557052612304 138.71368179321288,73.41841125488281 138.6783218383789,73.45377120971679 138.65225143432616,73.47984085083007 138.56540145874024,73.5667007446289 138.3476318359375,73.78447113037109 138.12416152954103,74.00793075561523 138.02728195190429,74.10481109619141 137.76212158203126,74.36998062133789 137.69141159057617,74.44069061279296 137.6475616455078,74.48453063964844 137.64052200317383,74.49158096313477 137.58935165405273,74.54274063110351 137.50213165283202,74.62996063232421 137.2063316345215,74.92577056884765 137.05804214477538,75.07405090332031 137.00198211669922,75.13012084960937 136.93127212524413,75.20083084106446 136.82520141601563,75.30689086914063 136.634912109375,75.4971809387207 136.59539184570312,75.53670120239258 136.57468185424804,75.55741119384766 136.56420211791993,75.56789093017578 136.2860321044922,75.84606094360352 136.27719192504884,75.85490112304687 75.78756103515624,136.34453201293945 75.76989059448242,136.36221160888672 75.69918060302734,136.43292160034179 75.610791015625,136.52131195068358 75.50472106933594,136.62737197875975 75.40598068237304,136.7261215209961 75.08563079833985,137.0464614868164 74.87853088378907,137.25357208251953 74.30800094604493,137.82409210205077 72.81070098876953,139.32140197753907 70.71070098876953,141.42140197753906 66.46806030273437,137.17876281738282 60.10409927368164,130.81480407714844 57.27565994262695,127.98636169433594 53.03300094604492,123.74369812011719 50.41671981811523,121.1274200439453 46.4922981262207,117.2030029296875 45.24112223795294,115.95182545321991 44.96063838359338,115.67134143792124 44.684760760843986,115.39546369948023 44.45934867858887,115.17005157470703 40.65864944458008,111.36935043334961 40.43914911845123,111.14985010722076 40.179359123766844,110.89005836339744 39.92129194654001,110.63195164211386 39.84122009277344,110.55192108154297 38.890899658203125,109.60160064697266 38.183799743652344,108.89445114135742 36.06245040893555,106.77315139770508 32.52690029144287,103.23760223388672 32.385480117797854,103.09618225097657 31.819799423217773,102.53050231933594 30.05204963684082,100.76275253295898 26.292400360107422,97.0030517578125 25.752580642700195,96.46322174072266 24.300500869750977,95.01110076904297 22.756850242614746,93.46749877929688 19.75160026550293,90.46229934692383 19.377640533447266,90.08834228515624 18.290000915527344,89.00070190429688 13.312520599365234,84.02322082519531 5.84630012512207,76.55699920654297 3.507780075073242,74.21847991943359 0.0,70.71070098876953 2.0999999999999996,68.61070098876954 6.721070098876954,63.98963088989258 6.729380035400389,63.98132095336914 67.21901092529296,3.491690063476563 68.13963088989257,2.57106990814209 68.21070098876953,2.5 69.13963088989257,1.5710700035095215 69.21070098876953,1.5 70.11070098876954,0.6000000000000001 70.27516098022461,0.43552999496459965 70.71070098876953,0.0 71.14623107910157,0.43552999496459965 71.15800094604492,0.4473000049591065 71.72853088378906,1.017829990386963 71.93563079833984,1.2249400138854982 72.25598068237305,1.5452799797058105 72.28177108764649,1.5710700035095215 72.35472106933594,1.6440200805664062 72.460791015625,1.7500900268554689 72.63756103515625,1.9268699645996095 72.93505096435547,2.2243499755859375 72.95576095581055,2.2450599670410156 73.28177108764649,2.57106990814209 73.29164123535156,2.5809400558471682 73.41841125488281,2.7077199935913088 74.00089111328126,3.290190124511719 74.0517807006836,3.3410800933837894 74.12249069213867,3.4117900848388674 "></polygon>
<polygon style="fill: white" points="65.71070098876953,70.71070098876953 65.78213366340188,71.52783248003792 65.7865982055664,71.57890319824219 65.99892874325023,72.37127595789292 66.01219940185547,72.4207992553711 66.3589293536018,73.16423618092256 66.38059997558594,73.21070098876953 66.85109486299403,73.882604711196 66.88050079345703,73.92459869384766 67.46055019603057,74.50464809642119 67.4968032836914,74.54090118408203 68.16870700611787,75.01139607149013 68.21070098876953,75.04080200195312 68.954137914321,75.38743860581341 69.00060272216797,75.40910339355469 69.79288213393268,75.6214267506319 69.84239959716797,75.63469696044922 70.65962443632237,75.70623016357422 70.71070098876953,75.71070098876953 71.52783248003792,75.63916778564453 71.57890319824219,75.63469696044922 72.37127595789292,75.42237360337201 72.4207992553711,75.40910339355469 73.16423618092256,75.0624667896944 73.21070098876953,75.04080200195312 73.882604711196,74.57030711454503 73.92459869384766,74.54090118408203 74.19387144200942,74.27162843592026 74.23012452967026,74.23537534825942 74.54090118408203,73.92459869384766 75.01139607149013,73.25269497142119 75.04080200195312,73.21070098876953 75.38743860581341,72.46726406321807 75.40910339355469,72.4207992553711 75.6214267506319,71.62842649572036 75.63469696044922,71.57890319824219 75.70623016357422,70.7617717069738 75.71070098876953,70.71070098876953 75.63916778564453,69.89347614961513 75.63469696044922,69.84239959716797 75.42237360337201,69.05012018540326 75.40910339355469,69.00060272216797 75.0624667896944,68.2571657966165 75.04080200195312,68.21070098876953 74.57030711454503,67.53879726634307 74.54090118408203,67.4968032836914 74.27162843592026,67.22753053552964 74.23012452967026,67.185926100787 74.19387144200942,67.14967301312615 73.92459869384766,66.88050079345703 73.25269497142119,66.41000590604894 73.21070098876953,66.38059997558594 72.46726406321807,66.03387002383961 72.4207992553711,66.01219940185547 71.62842649572036,65.79986886417164 71.57890319824219,65.7865982055664 70.7617717069738,65.71516553093406 70.71070098876953,65.71070098876953 69.89347614961513,65.78213366340188 69.84239959716797,65.7865982055664 69.05012018540326,65.99892874325023 69.00060272216797,66.01219940185547 68.2571657966165,66.3589293536018 68.21070098876953,66.38059997558594 67.53879726634307,66.85109486299403 67.4968032836914,66.88050079345703 67.185926100787,67.1912774478688 67.14967301312615,67.22753053552964 66.88050079345703,67.4968032836914 66.41000590604894,68.16870700611787 66.38059997558594,68.21070098876953 66.03387002383961,68.954137914321 66.01219940185547,69.00060272216797 65.79986886417164,69.79288213393268 65.7865982055664,69.84239959716797 65.71516553093406,70.65962443632237 "></polygon>
<polygon style="fill: white" points="128.71373443603517,70.67597122192383 128.710693359375,70.71070098876953 128.7380630493164,71.02326889038086 128.74110412597656,71.05799865722656 128.82227935791016,71.36102905273438 128.831298828125,71.39469909667969 128.96387634277343,71.67910079956054 128.97860717773438,71.71070098876953 129.15860443115236,71.96773986816406 129.17860412597656,71.99629974365234 129.40044555664062,72.21814804077148 129.4250946044922,72.2427978515625 129.68213348388673,72.42271270751954 129.710693359375,72.44270324707031 129.99500579833983,72.57536315917969 130.02659606933594,72.59010314941406 130.32972259521483,72.67127838134766 130.3634033203125,72.6802978515625 130.67596435546875,72.70766067504883 130.710693359375,72.71070098876953 131.0232681274414,72.6833381652832 131.05799865722656,72.6802978515625 131.36102905273438,72.5991226196289 131.3946990966797,72.59010314941406 131.67909393310546,72.45744323730469 131.710693359375,72.44270324707031 131.96774597167968,72.26278839111328 131.99630737304688,72.2427978515625 132.21814880371093,72.02094955444336 132.2427978515625,71.99629974365234 132.42271270751954,71.73926086425782 132.4427032470703,71.71070098876953 132.5753631591797,71.42629928588867 132.59010314941406,71.39469909667969 132.67127838134766,71.09166870117187 132.6802978515625,71.05799865722656 132.70765380859376,70.74543075561523 132.710693359375,70.71070098876953 132.68333740234374,70.3981330871582 132.6802978515625,70.3634033203125 132.5991226196289,70.06028366088867 132.59010314941406,70.02660369873047 132.4574432373047,69.74229125976562 132.4427032470703,69.71070098876953 132.26278839111328,69.453662109375 132.2427978515625,69.42510223388672 132.02095642089844,69.2032470703125 131.99630737304688,69.17859649658203 131.7392547607422,68.99859924316407 131.710693359375,68.97859954833984 131.42629852294922,68.84602890014648 131.3946990966797,68.831298828125 131.09166870117187,68.75011672973633 131.05799865722656,68.74109649658203 130.74542388916015,68.71374053955078 130.710693359375,68.71070098876953 130.39813232421875,68.73805694580078 130.3634033203125,68.74109649658203 130.0602767944336,68.8222785949707 130.02659606933594,68.831298828125 129.7422836303711,68.96386947631837 129.710693359375,68.97859954833984 129.45365447998046,69.15859680175781 129.4250946044922,69.17859649658203 129.20325317382813,69.40045166015625 129.17860412597656,69.42510223388672 128.99860687255858,69.68214111328125 128.97860717773438,69.71070098876953 128.84602966308594,69.99501342773438 128.831298828125,70.02660369873047 128.7501235961914,70.3297233581543 128.74110412597656,70.3634033203125 "></polygon>
<polygon style="fill: white" points="69.99501342773438,12.575360298156738 70.02660369873047,12.590100288391113 70.3297233581543,12.671279811859131 70.3634033203125,12.680299758911133 70.67597122192383,12.707660007476807 70.71070098876953,12.710700035095215 71.02326889038086,12.68333978652954 71.05799865722656,12.680299758911133 71.36102905273438,12.599120235443115 71.39469909667969,12.590100288391113 71.67910079956054,12.457440376281738 71.71070098876953,12.442700386047363 71.96773986816406,12.262789821624756 71.99629974365234,12.242799758911133 72.21814804077148,12.020949745178223 72.2427978515625,11.996299743652344 72.42271270751954,11.739260005950928 72.44270324707031,11.710700035095215 72.57536315917969,11.426300048828125 72.59010314941406,11.394700050354004 72.67127838134766,11.091669654846191 72.6802978515625,11.057999610900879 72.70766067504883,10.745429992675781 72.71070098876953,10.710700035095215 72.6833381652832,10.398130416870117 72.6802978515625,10.36340045928955 72.5991226196289,10.060279941558838 72.59010314941406,10.026599884033203 72.45744323730469,9.742290019989014 72.44270324707031,9.710700035095215 72.26278839111328,9.4536602973938 72.2427978515625,9.425100326538086 72.02094955444336,9.203250312805176 71.99629974365234,9.178600311279297 71.73926086425782,8.998599624633789 71.71070098876953,8.978599548339844 71.42629928588867,8.84602975845337 71.39469909667969,8.831299781799316 71.09166870117187,8.750120258331298 71.05799865722656,8.741100311279297 70.74543075561523,8.713740062713622 70.71070098876953,8.710700035095215 70.3981330871582,8.73806028366089 70.3634033203125,8.741100311279297 70.06028366088867,8.822279834747315 70.02660369873047,8.831299781799316 69.74229125976562,8.963869571685791 69.71070098876953,8.978599548339844 69.453662109375,9.158600234985352 69.42510223388672,9.178600311279297 69.2032470703125,9.400450325012207 69.17859649658203,9.425100326538086 68.99859924316407,9.682140064239501 68.97859954833984,9.710700035095215 68.84602890014648,9.995009899139404 68.831298828125,10.026599884033203 68.75011672973633,10.329720401763916 68.74109649658203,10.36340045928955 68.71374053955078,10.675970077514648 68.71070098876953,10.710700035095215 68.73805694580078,11.023269653320312 68.74109649658203,11.057999610900879 68.8222785949707,11.361030006408692 68.831298828125,11.394700050354004 68.96386947631837,11.679100036621094 68.97859954833984,11.710700035095215 69.15859680175781,11.96773977279663 69.17859649658203,11.996299743652344 69.40045166015625,12.218149757385254 69.42510223388672,12.242799758911133 69.68214111328125,12.42271032333374 69.71070098876953,12.442700386047363 "></polygon>
<polygon style="fill: white" points="12.671279811859131,71.09166870117187 12.680299758911133,71.05799865722656 12.707660007476807,70.74543075561523 12.710700035095215,70.71070098876953 12.68333978652954,70.3981330871582 12.680299758911133,70.3634033203125 12.599120235443115,70.06028366088867 12.590100288391113,70.02660369873047 12.457440376281738,69.74229125976562 12.442700386047363,69.71070098876953 12.262789821624756,69.453662109375 12.242799758911133,69.42510223388672 12.020949745178223,69.2032470703125 11.996299743652344,69.17859649658203 11.739260005950928,68.99859924316407 11.710700035095215,68.97859954833984 11.426300048828125,68.84602890014648 11.394700050354004,68.831298828125 11.091669654846191,68.75011672973633 11.057999610900879,68.74109649658203 10.745429992675781,68.71374053955078 10.710700035095215,68.71070098876953 10.398130416870117,68.73805694580078 10.36340045928955,68.74109649658203 10.060279941558838,68.8222785949707 10.026599884033203,68.831298828125 9.742290019989014,68.96386947631837 9.710700035095215,68.97859954833984 9.4536602973938,69.15859680175781 9.425100326538086,69.17859649658203 9.203250312805176,69.40045166015625 9.178600311279297,69.42510223388672 8.998599624633789,69.68214111328125 8.978599548339844,69.71070098876953 8.84602975845337,69.99501342773438 8.831299781799316,70.02660369873047 8.750120258331298,70.3297233581543 8.741100311279297,70.3634033203125 8.713740062713622,70.67597122192383 8.710700035095215,70.71070098876953 8.73806028366089,71.02326889038086 8.741100311279297,71.05799865722656 8.822279834747315,71.36102905273438 8.831299781799316,71.39469909667969 8.963869571685791,71.67910079956054 8.978599548339844,71.71070098876953 9.158600234985352,71.96773986816406 9.178600311279297,71.99629974365234 9.400450325012207,72.21814804077148 9.425100326538086,72.2427978515625 9.682140064239501,72.42271270751954 9.710700035095215,72.44270324707031 9.995009899139404,72.57536315917969 10.026599884033203,72.59010314941406 10.329720401763916,72.67127838134766 10.36340045928955,72.6802978515625 10.675970077514648,72.70766067504883 10.710700035095215,72.71070098876953 11.023269653320312,72.6833381652832 11.057999610900879,72.6802978515625 11.361030006408692,72.5991226196289 11.394700050354004,72.59010314941406 11.679100036621094,72.45744323730469 11.710700035095215,72.44270324707031 11.96773977279663,72.26278839111328 11.996299743652344,72.2427978515625 12.218149757385254,72.02094955444336 12.242799758911133,71.99629974365234 12.42271032333374,71.73926086425782 12.442700386047363,71.71070098876953 12.575360298156738,71.42629928588867 12.590100288391113,71.39469909667969 "></polygon>
<polygon style="fill: white" points="71.67910079956054,132.4574432373047 71.71070098876953,132.4427032470703 71.96773986816406,132.26278839111328 71.99629974365234,132.2427978515625 72.21814804077148,132.02095642089844 72.2427978515625,131.99630737304688 72.42271270751954,131.7392547607422 72.44270324707031,131.710693359375 72.57536315917969,131.42629852294922 72.59010314941406,131.3946990966797 72.67127838134766,131.09166870117187 72.6802978515625,131.05799865722656 72.70766067504883,130.74542388916015 72.71070098876953,130.710693359375 72.6833381652832,130.39813232421875 72.6802978515625,130.3634033203125 72.5991226196289,130.0602767944336 72.59010314941406,130.02659606933594 72.45744323730469,129.7422836303711 72.44270324707031,129.710693359375 72.26278839111328,129.45365447998046 72.2427978515625,129.4250946044922 72.02094955444336,129.20325317382813 71.99629974365234,129.17860412597656 71.73926086425782,128.99860687255858 71.71070098876953,128.97860717773438 71.42629928588867,128.84602966308594 71.39469909667969,128.831298828125 71.09166870117187,128.7501235961914 71.05799865722656,128.74110412597656 70.74543075561523,128.71373443603517 70.71070098876953,128.710693359375 70.3981330871582,128.7380630493164 70.3634033203125,128.74110412597656 70.06028366088867,128.82227935791016 70.02660369873047,128.831298828125 69.74229125976562,128.96387634277343 69.71070098876953,128.97860717773438 69.453662109375,129.15860443115236 69.42510223388672,129.17860412597656 69.2032470703125,129.40044555664062 69.17859649658203,129.4250946044922 68.99859924316407,129.68213348388673 68.97859954833984,129.710693359375 68.84602890014648,129.99500579833983 68.831298828125,130.02659606933594 68.75011672973633,130.32972259521483 68.74109649658203,130.3634033203125 68.71374053955078,130.67596435546875 68.71070098876953,130.710693359375 68.73805694580078,131.0232681274414 68.74109649658203,131.05799865722656 68.8222785949707,131.36102905273438 68.831298828125,131.3946990966797 68.96386947631837,131.67909393310546 68.97859954833984,131.710693359375 69.15859680175781,131.96774597167968 69.17859649658203,131.99630737304688 69.40045166015625,132.21814880371093 69.42510223388672,132.2427978515625 69.68214111328125,132.42271270751954 69.71070098876953,132.4427032470703 69.99501342773438,132.5753631591797 70.02660369873047,132.59010314941406 70.3297233581543,132.67127838134766 70.3634033203125,132.6802978515625 70.67597122192383,132.70765380859376 70.71070098876953,132.710693359375 71.02326889038086,132.68333740234374 71.05799865722656,132.6802978515625 71.36102905273438,132.5991226196289 71.39469909667969,132.59010314941406 "></polygon></svg>