<svg width="304.8" height="203.2" xmlns="http://www.w3.org/2000/svg" 
	xmlns:svg="http://www.w3.org/2000/svg" xmlns:xlink="http://www.w3.org/1999/xlink" 
	viewport-fill="black">

	<!-- Generated using Drew's Slicer -->

	
<polygon style="fill: black" points="67.1859261008,67.1912774479 67.1496730131,67.2275305355 66.8805007935,67.4968032837 66.410005906,68.1687070061 66.3805999756,68.2107009888 66.0338700238,68.9541379143 66.0121994019,69.0006027222 65.7998688642,69.7928821339 65.7865982056,69.8423995972 65.7151655309,70.6596244363 65.7107009888,70.7107009888 65.7821336634,71.52783248 65.7865982056,71.5789031982 65.9989287433,72.3712759579 66.0121994019,72.4207992554 66.3589293536,73.1642361809 66.3805999756,73.2107009888 66.851094863,73.8826047112 66.8805007935,73.9245986938 67.460550196,74.5046480964 67.4968032837,74.5409011841 68.1687070061,75.0113960715 68.2107009888,75.040802002 68.9541379143,75.3874386058 69.0006027222,75.4091033936 69.7928821339,75.6214267506 69.8423995972,75.6346969604 70.6596244363,75.7062301636 70.7107009888,75.7107009888 71.52783248,75.6391677856 71.5789031982,75.6346969604 72.3712759579,75.4223736034 72.4207992554,75.4091033936 73.1642361809,75.0624667897 73.2107009888,75.040802002 73.8826047112,74.5703071145 73.9245986938,74.5409011841 74.193871442,74.2716284359 74.2301245297,74.2353753483 74.5409011841,73.9245986938 75.0113960715,73.2526949714 75.040802002,73.2107009888 75.3874386058,72.4672640632 75.4091033936,72.4207992554 75.6214267506,71.6284264957 75.6346969604,71.5789031982 75.7062301636,70.761771707 75.7107009888,70.7107009888 75.6391677856,69.8934761496 75.6346969604,69.8423995972 75.4223736034,69.0501201854 75.4091033936,69.0006027222 75.0624667897,68.2571657966 75.040802002,68.2107009888 74.5703071145,67.5387972663 74.5409011841,67.4968032837 74.2716284359,67.2275305355 74.2301245297,67.1859261008 74.193871442,67.1496730131 73.9245986938,66.8805007935 73.2526949714,66.410005906 73.2107009888,66.3805999756 72.4672640632,66.0338700238 72.4207992554,66.0121994019 71.6284264957,65.7998688642 71.5789031982,65.7865982056 70.761771707,65.7151655309 70.7107009888,65.7107009888 69.8934761496,65.7821336634 69.8423995972,65.7865982056 69.0501201854,65.9989287433 69.0006027222,66.0121994019 68.2571657966,66.3589293536 68.2107009888,66.3805999756 67.5387972663,66.851094863 67.4968032837,66.8805007935 "></polygon>
<polygon style="fill: black" points="131.710693359,68.9785995483 131.426298523,68.8460289001 131.394699097,68.8312988281 131.091668701,68.7501167297 131.057998657,68.7410964966 130.745423889,68.7137405396 130.710693359,68.7107009888 130.398132324,68.7380569458 130.36340332,68.7410964966 130.060276794,68.822278595 130.026596069,68.8312988281 129.74228363,68.9638694763 129.710693359,68.9785995483 129.45365448,69.1585968018 129.425094604,69.1785964966 129.203253174,69.4004516602 129.178604126,69.4251022339 128.998606873,69.6821411133 128.978607178,69.7107009888 128.846029663,69.9950134277 128.831298828,70.0266036987 128.750123596,70.3297233582 128.741104126,70.3634033203 128.713734436,70.6759712219 128.710693359,70.7107009888 128.738063049,71.0232688904 128.741104126,71.0579986572 128.822279358,71.3610290527 128.831298828,71.3946990967 128.963876343,71.6791007996 128.978607178,71.7107009888 129.158604431,71.9677398682 129.178604126,71.9962997437 129.400445557,72.2181480408 129.425094604,72.2427978516 129.682133484,72.4227127075 129.710693359,72.4427032471 129.995005798,72.5753631592 130.026596069,72.5901031494 130.329722595,72.6712783813 130.36340332,72.6802978516 130.675964355,72.707660675 130.710693359,72.7107009888 131.023268127,72.6833381653 131.057998657,72.6802978516 131.361029053,72.5991226196 131.394699097,72.5901031494 131.679093933,72.4574432373 131.710693359,72.4427032471 131.967745972,72.2627883911 131.996307373,72.2427978516 132.218148804,72.0209495544 132.242797852,71.9962997437 132.422712708,71.7392608643 132.442703247,71.7107009888 132.575363159,71.4262992859 132.590103149,71.3946990967 132.671278381,71.0916687012 132.680297852,71.0579986572 132.707653809,70.7454307556 132.710693359,70.7107009888 132.683337402,70.3981330872 132.680297852,70.3634033203 132.59912262,70.0602836609 132.590103149,70.0266036987 132.457443237,69.7422912598 132.442703247,69.7107009888 132.262788391,69.4536621094 132.242797852,69.4251022339 132.020956421,69.2032470703 131.996307373,69.1785964966 131.739254761,68.9985992432 "></polygon>
<polygon style="fill: black" points="140.403572083,71.7285308838 140.278572083,71.8535308838 140.139291382,71.9928108215 139.777371979,72.3547210693 139.744161987,72.3879310608 139.671311951,72.4607910156 139.5829216,72.549180603 139.494532013,72.6375610352 139.485691833,72.6464012146 139.441501617,72.6906005859 139.197042084,72.9350509644 139.176332092,72.9557609558 139.136811829,72.9952812195 138.946521759,73.1855705261 138.713681793,73.4184112549 138.678321838,73.4537712097 138.652251434,73.4798408508 138.565401459,73.5667007446 138.347631836,73.7844711304 138.12416153,74.0079307556 138.027281952,74.1048110962 137.762121582,74.3699806213 137.691411591,74.4406906128 137.647561646,74.4845306396 137.640522003,74.4915809631 137.589351654,74.5427406311 137.502131653,74.6299606323 137.206331635,74.9257705688 137.058042145,75.0740509033 137.001982117,75.1301208496 136.931272125,75.2008308411 136.825201416,75.3068908691 136.634912109,75.4971809387 136.595391846,75.5367012024 136.574681854,75.5574111938 136.564202118,75.5678909302 136.286032104,75.8460609436 136.277191925,75.854901123 75.7875610352,136.344532013 75.7698905945,136.362211609 75.699180603,136.4329216 75.6107910156,136.521311951 75.5047210693,136.627371979 75.4059806824,136.726121521 75.0856307983,137.046461487 74.8785308838,137.253572083 74.308000946,137.824092102 72.8107009888,139.321401978 70.7107009888,141.421401978 66.4680603027,137.178762817 60.1040992737,130.814804077 57.2756599426,127.986361694 53.033000946,123.74369812 50.4167198181,121.127420044 46.4922981262,117.20300293 45.241122238,115.951825453 44.9606383836,115.671341438 44.6847607608,115.395463699 44.4593486786,115.170051575 40.6586494446,111.369350433 40.4391491185,111.149850107 40.1793591238,110.890058363 39.9212919465,110.631951642 39.8412200928,110.551921082 38.8908996582,109.601600647 38.1837997437,108.894451141 36.0624504089,106.773151398 32.5269002914,103.237602234 32.3854801178,103.096182251 31.8197994232,102.530502319 30.0520496368,100.762752533 26.2924003601,97.0030517578 25.7525806427,96.4632217407 24.3005008698,95.011100769 22.7568502426,93.4674987793 19.7516002655,90.4622993469 19.3776405334,90.0883422852 18.2900009155,89.0007019043 13.3125205994,84.0232208252 5.84630012512,76.5569992065 3.50778007507,74.2184799194 0.0,70.7107009888 2.1,68.6107009888 6.72107009888,63.9896308899 6.7293800354,63.9813209534 67.2190109253,3.49169006348 68.1396308899,2.57106990814 68.2107009888,2.5 69.1396308899,1.57107000351 69.2107009888,1.5 70.1107009888,0.6 70.2751609802,0.435529994965 70.7107009888,0.0 71.1462310791,0.435529994965 71.158000946,0.447300004959 71.7285308838,1.01782999039 71.9356307983,1.22494001389 72.2559806824,1.54527997971 72.2817710876,1.57107000351 72.3547210693,1.64402008057 72.4607910156,1.75009002686 72.6375610352,1.9268699646 72.9350509644,2.22434997559 72.9557609558,2.24505996704 73.2817710876,2.57106990814 73.2916412354,2.58094005585 73.4184112549,2.70771999359 74.0008911133,3.29019012451 74.0517807007,3.34108009338 74.1224906921,3.41179008484 74.2023910522,3.49169006348 74.4845306396,3.77383003235 74.5023910522,3.79169006348 74.9257705688,4.21506996155 75.0126205444,4.30191993713 75.2817710876,4.57107009888 78.4317710876,7.72107009888 135.771401978,65.0607009888 135.796521759,65.0858207703 135.986811829,65.2761207581 136.291501617,65.5808010101 136.335691833,65.6249908447 136.4329216,65.722220993 137.171401978,66.4607009888 137.729452515,67.0187606812 138.271401978,67.5607009888 141.421401978,70.7107009888 140.974092102,71.158000946 "></polygon>
<polygon style="fill: black" points="12.4574403763,69.7422912598 12.442700386,69.7107009888 12.2627898216,69.4536621094 12.2427997589,69.4251022339 12.0209497452,69.2032470703 11.9962997437,69.1785964966 11.739260006,68.9985992432 11.7107000351,68.9785995483 11.4263000488,68.8460289001 11.3947000504,68.8312988281 11.0916696548,68.7501167297 11.0579996109,68.7410964966 10.7454299927,68.7137405396 10.7107000351,68.7107009888 10.3981304169,68.7380569458 10.3634004593,68.7410964966 10.0602799416,68.822278595 10.026599884,68.8312988281 9.74229001999,68.9638694763 9.7107000351,68.9785995483 9.45366029739,69.1585968018 9.42510032654,69.1785964966 9.20325031281,69.4004516602 9.17860031128,69.4251022339 8.99859962463,69.6821411133 8.97859954834,69.7107009888 8.84602975845,69.9950134277 8.8312997818,70.0266036987 8.75012025833,70.3297233582 8.74110031128,70.3634033203 8.71374006271,70.6759712219 8.7107000351,70.7107009888 8.73806028366,71.0232688904 8.74110031128,71.0579986572 8.82227983475,71.3610290527 8.8312997818,71.3946990967 8.96386957169,71.6791007996 8.97859954834,71.7107009888 9.15860023499,71.9677398682 9.17860031128,71.9962997437 9.40045032501,72.2181480408 9.42510032654,72.2427978516 9.68214006424,72.4227127075 9.7107000351,72.4427032471 9.99500989914,72.5753631592 10.026599884,72.5901031494 10.3297204018,72.6712783813 10.3634004593,72.6802978516 10.6759700775,72.707660675 10.7107000351,72.7107009888 11.0232696533,72.6833381653 11.0579996109,72.6802978516 11.3610300064,72.5991226196 11.3947000504,72.5901031494 11.6791000366,72.4574432373 11.7107000351,72.4427032471 11.9677397728,72.2627883911 11.9962997437,72.2427978516 12.2181497574,72.0209495544 12.2427997589,71.9962997437 12.4227103233,71.7392608643 12.442700386,71.7107009888 12.5753602982,71.4262992859 12.5901002884,71.3946990967 12.6712798119,71.0916687012 12.6802997589,71.0579986572 12.7076600075,70.7454307556 12.7107000351,70.7107009888 12.6833397865,70.3981330872 12.6802997589,70.3634033203 12.5991202354,70.0602836609 12.5901002884,70.0266036987 "></polygon>
<polygon style="fill: black" points="70.3634033203,12.6802997589 70.6759712219,12.7076600075 70.7107009888,12.7107000351 71.0232688904,12.6833397865 71.0579986572,12.6802997589 71.3610290527,12.5991202354 71.3946990967,12.5901002884 71.6791007996,12.4574403763 71.7107009888,12.442700386 71.9677398682,12.2627898216 71.9962997437,12.2427997589 72.2181480408,12.0209497452 72.2427978516,11.9962997437 72.4227127075,11.739260006 72.4427032471,11.7107000351 72.5753631592,11.4263000488 72.5901031494,11.3947000504 72.6712783813,11.0916696548 72.6802978516,11.0579996109 72.707660675,10.7454299927 72.7107009888,10.7107000351 72.6833381653,10.3981304169 72.6802978516,10.3634004593 72.5991226196,10.0602799416 72.5901031494,10.026599884 72.4574432373,9.74229001999 72.4427032471,9.7107000351 72.2627883911,9.45366029739 72.2427978516,9.42510032654 72.0209495544,9.20325031281 71.9962997437,9.17860031128 71.7392608643,8.99859962463 71.7107009888,8.97859954834 71.4262992859,8.84602975845 71.3946990967,8.8312997818 71.0916687012,8.75012025833 71.0579986572,8.74110031128 70.7454307556,8.71374006271 70.7107009888,8.7107000351 70.3981330872,8.73806028366 70.3634033203,8.74110031128 70.0602836609,8.82227983475 70.0266036987,8.8312997818 69.7422912598,8.96386957169 69.7107009888,8.97859954834 69.4536621094,9.15860023499 69.4251022339,9.17860031128 69.2032470703,9.40045032501 69.1785964966,9.42510032654 68.9985992432,9.68214006424 68.9785995483,9.7107000351 68.8460289001,9.99500989914 68.8312988281,10.026599884 68.7501167297,10.3297204018 68.7410964966,10.3634004593 68.7137405396,10.6759700775 68.7107009888,10.7107000351 68.7380569458,11.0232696533 68.7410964966,11.0579996109 68.822278595,11.3610300064 68.8312988281,11.3947000504 68.9638694763,11.6791000366 68.9785995483,11.7107000351 69.1585968018,11.9677397728 69.1785964966,11.9962997437 69.4004516602,12.2181497574 69.4251022339,12.2427997589 69.6821411133,12.4227103233 69.7107009888,12.442700386 69.9950134277,12.5753602982 70.0266036987,12.5901002884 70.3297233582,12.6712798119 "></polygon>
<polygon style="fill: black" points="68.8312988281,131.394699097 68.9638694763,131.679093933 68.9785995483,131.710693359 69.1585968018,131.967745972 69.1785964966,131.996307373 69.4004516602,132.218148804 69.4251022339,132.242797852 69.6821411133,132.422712708 69.7107009888,132.442703247 69.9950134277,132.575363159 70.0266036987,132.590103149 70.3297233582,132.671278381 70.3634033203,132.680297852 70.6759712219,132.707653809 70.7107009888,132.710693359 71.0232688904,132.683337402 71.0579986572,132.680297852 71.3610290527,132.59912262 71.3946990967,132.590103149 71.6791007996,132.457443237 71.7107009888,132.442703247 71.9677398682,132.262788391 71.9962997437,132.242797852 72.2181480408,132.020956421 72.2427978516,131.996307373 72.4227127075,131.739254761 72.4427032471,131.710693359 72.5753631592,131.426298523 72.5901031494,131.394699097 72.6712783813,131.091668701 72.6802978516,131.057998657 72.707660675,130.745423889 72.7107009888,130.710693359 72.6833381653,130.398132324 72.6802978516,130.36340332 72.5991226196,130.060276794 72.5901031494,130.026596069 72.4574432373,129.74228363 72.4427032471,129.710693359 72.2627883911,129.45365448 72.2427978516,129.425094604 72.0209495544,129.203253174 71.9962997437,129.178604126 71.7392608643,128.998606873 71.7107009888,128.978607178 71.4262992859,128.846029663 71.3946990967,128.831298828 71.0916687012,128.750123596 71.0579986572,128.741104126 70.7454307556,128.713734436 70.7107009888,128.710693359 70.3981330872,128.738063049 70.3634033203,128.741104126 70.0602836609,128.822279358 70.0266036987,128.831298828 69.7422912598,128.963876343 69.7107009888,128.978607178 69.4536621094,129.158604431 69.4251022339,129.178604126 69.2032470703,129.400445557 69.1785964966,129.425094604 68.9985992432,129.682133484 68.9785995483,129.710693359 68.8460289001,129.995005798 68.8312988281,130.026596069 68.7501167297,130.329722595 68.7410964966,130.36340332 68.7137405396,130.675964355 68.7107009888,130.710693359 68.7380569458,131.023268127 68.7410964966,131.057998657 68.822278595,131.361029053 "></polygon></svg>