<svg width="304.8mm" height="203.2mm" units="mm" xmlns="http://www.w3.org/2000/svg" 
    xmlns:svg="http://www.w3.org/2000/svg" xmlns:xlink="http://www.w3.org/1999/xlink" 
    viewport-fill="black">

    <!-- Generated using Drew's Slicer -->

    <rect x="0" y="0" style="stroke-width:1; stroke:rgb(0,0,0)" width="304.8" height="203.2" fill="white"></rect>
<polygon units="mm" style="fill: black" points="221.6543909236655,44.98919677734375 222.39620971679688,44.98919677734375 222.39620971679688,59.825572639971554 222.39620971679688,64.98919677734375 222.13802850992826,64.98919677734375 221.39620971679688,64.98919677734375 220.48954224205,64.98919677734375 220.39620971679688,64.98919677734375 220.39620971679688,46.8558472824062 220.39620971679688,44.98919677734375 221.13802850992826,44.98919677734375 221.39620971679688,44.98919677734375 "></polygon>
<polygon units="mm" style="fill: black" points="228.39620971679688,59.825572639971554 228.39620971679688,64.98919677734375 228.13802850992826,64.98919677734375 227.39620971679688,64.98919677734375 227.13802850992826,64.98919677734375 226.39620971679688,64.98919677734375 226.39620971679688,50.152820914715946 226.39620971679688,44.98919677734375 226.6543909236655,44.98919677734375 227.39620971679688,44.98919677734375 227.6543909236655,44.98919677734375 228.39620971679688,44.98919677734375 "></polygon>
<polygon units="mm" style="fill: black" points="209.6802090214538,44.98919677734375 209.96420832611074,44.98919677734375 211.28953869438078,44.98919677734375 214.97621298360895,44.98919677734375 215.9228774724009,44.98919677734375 216.13802850992826,44.98919677734375 216.39620971679688,44.98919677734375 217.30287719154376,44.98919677734375 217.39620971679688,44.98919677734375 217.39620971679688,63.1225462722813 217.39620971679688,64.98919677734375 216.6543909236655,64.98919677734375 216.39620971679688,64.98919677734375 215.9228774724009,64.98919677734375 214.97621298360895,64.98919677734375 212.86954196119285,64.98919677734375 212.6543909236655,64.98919677734375 212.39620971679688,64.98919677734375 212.11221041213994,64.98919677734375 211.828211107483,64.98919677734375 209.6802090214538,64.98919677734375 209.6543909236655,64.98919677734375 209.39620971679688,64.98919677734375 208.13112337895373,64.98919677734375 204.4962158203125,64.98919677734375 203.9023982566082,64.98919677734375 202.1962127685547,64.98919677734375 201.62821490135025,64.98919677734375 199.9962158203125,64.98919677734375 199.26039780492394,64.98919677734375 197.14620971679688,64.98919677734375 196.6943926047768,64.98919677734375 195.39620971679688,64.98919677734375 195.39620971679688,63.00713240790097 195.39620971679688,62.17967173018904 195.39620971679688,58.05249634450845 195.39620971679688,57.54368385295283 195.39620971679688,54.27805834421781 195.39620971679688,53.783268436586134 195.39620971679688,53.72918081626843 195.39620971679688,53.46075019842795 195.39620971679688,52.60137506455031 195.39620971679688,52.338956169121495 195.39620971679688,51.273331527634184 195.39620971679688,50.9391975402832 195.39620971679688,50.75169688928898 195.39620971679688,50.339195251464844 195.39620971679688,50.1829453050159 195.39620971679688,49.18607224780166 195.39620971679688,48.889198303222656 195.39620971679688,48.399613071388984 195.39620971679688,46.74961176530201 195.39620971679688,45.14062814164993 195.39620971679688,44.98919677734375 196.58384484420552,44.98919677734375 199.9962158203125,44.98919677734375 200.56421368751694,44.98919677734375 202.1962127685547,44.98919677734375 202.790030332259,44.98919677734375 204.4962158203125,44.98919677734375 205.11584914098412,44.98919677734375 206.89620971679688,44.98919677734375 207.5416627339684,44.98919677734375 209.39620971679688,44.98919677734375 "></polygon>
<polygon units="mm" style="fill: black" points="178.71856570780727,157.73484802246094 172.30709838867188,157.73484802246094 165.89563106953648,157.73484802246094 155.16624450683594,157.73484802246094 144.4368579441354,157.73484802246094 138.025390625,157.73484802246094 131.61428287764375,157.73484802246094 120.885498046875,157.73484802246094 120.885498046875,148.95652471642907 120.885498046875,143.7109375 120.885498046875,138.4650021267689 120.885498046875,129.68609619140625 131.61428287764377,129.68609619140625 138.025390625,129.68609619140625 144.4368579441354,129.68609619140625 155.16624450683594,129.68609619140625 165.89563106953648,129.68609619140625 172.30709838867188,129.68609619140625 178.71856570780727,129.68609619140625 189.4479522705078,129.68609619140625 189.4479522705078,138.4650021267689 189.4479522705078,143.7109375 189.4479522705078,148.95652471642907 189.4479522705078,157.73484802246094 "></polygon>
<polygon units="mm" style="fill: black" points="106.88929748535156,147.82557263997157 106.88929748535156,152.98919677734375 106.63111627848295,152.98919677734375 105.88929748535156,152.98919677734375 105.63111627848295,152.98919677734375 104.88929748535156,152.98919677734375 104.88929748535156,138.15282091471593 104.88929748535156,132.98919677734375 105.14747869222018,132.98919677734375 105.88929748535156,132.98919677734375 106.14747869222018,132.98919677734375 106.88929748535156,132.98919677734375 "></polygon>
<polygon units="mm" style="fill: black" points="217.39620971679688,152.98919677734375 216.6543909236655,152.98919677734375 216.39620971679688,152.98919677734375 215.9228774724009,152.98919677734375 214.97621298360895,152.98919677734375 212.86954196119285,152.98919677734375 212.6543909236655,152.98919677734375 212.39620971679688,152.98919677734375 212.11221041213994,152.98919677734375 211.828211107483,152.98919677734375 209.6802090214538,152.98919677734375 209.6543909236655,152.98919677734375 209.39620971679688,152.98919677734375 208.13112337895373,152.98919677734375 204.4962158203125,152.98919677734375 203.9023982566082,152.98919677734375 202.1962127685547,152.98919677734375 201.62821490135025,152.98919677734375 199.9962158203125,152.98919677734375 199.26039780492394,152.98919677734375 197.14620971679688,152.98919677734375 196.6943926047768,152.98919677734375 195.39620971679688,152.98919677734375 195.39620971679688,151.00713240790097 195.39620971679688,150.17967173018906 195.39620971679688,146.05249515241596 195.39620971679688,145.54368623713782 195.39620971679688,142.27806072840278 195.39620971679688,141.78326605240116 195.39620971679688,141.7291832004534 195.39620971679688,141.46074781424298 195.39620971679688,140.60137268036533 195.39620971679688,140.338954977029 195.39620971679688,139.27332771293692 195.39620971679688,138.93919372558594 195.39620971679688,138.75169665086918 195.39620971679688,138.33920288085938 195.39620971679688,138.18295293441042 195.39620971679688,137.1860693867771 195.39620971679688,136.88919067382812 195.39620971679688,136.39960782617942 195.39620971679688,134.749611765302 195.39620971679688,133.14062814164993 195.39620971679688,132.98919677734375 196.58384484420552,132.98919677734375 199.9962158203125,132.98919677734375 200.56421368751694,132.98919677734375 202.1962127685547,132.98919677734375 202.790030332259,132.98919677734375 204.4962158203125,132.98919677734375 205.11584914098412,132.98919677734375 206.89620971679688,132.98919677734375 207.5416627339684,132.98919677734375 209.39620971679688,132.98919677734375 209.6802090214538,132.98919677734375 209.96420832611074,132.98919677734375 211.28953869438078,132.98919677734375 214.97621298360895,132.98919677734375 215.9228774724009,132.98919677734375 216.13802850992826,132.98919677734375 216.39620971679688,132.98919677734375 217.30287719154376,132.98919677734375 217.39620971679688,132.98919677734375 217.39620971679688,151.1225462722813 "></polygon>
<polygon units="mm" style="fill: black" points="100.88929748535156,132.98919677734375 100.88929748535156,147.82557263997157 100.88929748535156,152.98919677734375 100.63111627848295,152.98919677734375 99.88929748535156,152.98919677734375 98.98263001060468,152.98919677734375 98.88929748535156,152.98919677734375 98.88929748535156,134.8558472824062 98.88929748535156,132.98919677734375 99.63111627848295,132.98919677734375 99.88929748535156,132.98919677734375 100.14747869222018,132.98919677734375 "></polygon>
<polygon units="mm" style="fill: black" points="235.39620971679688,45.01915041357681 235.39620971679688,45.10508859205018 235.39620971679688,45.13342804733931 235.39620971679688,45.71836160464884 235.39620971679688,46.74961176530201 235.39620971679688,47.23919699713568 235.39620971679688,48.889198303222656 235.39620971679688,49.18607224780166 235.39620971679688,50.1829453050159 235.39620971679688,50.339195251464844 235.39620971679688,50.52669590245907 235.39620971679688,50.9391975402832 235.39620971679688,51.273331527634184 235.39620971679688,52.338956169121495 235.39620971679688,52.60137506455031 235.39620971679688,52.8698056823908 235.39620971679688,53.72918081626843 235.39620971679688,53.783268436586134 235.39620971679688,54.27805834421781 235.39620971679688,54.78687083577343 235.39620971679688,58.05249634450845 235.39620971679688,63.00713240790097 235.39620971679688,64.98919677734375 234.87984730305965,64.98919677734375 233.39620971679688,64.98919677734375 233.39620971679688,50.152820914715946 233.39620971679688,44.98919677734375 233.6543909236655,44.98919677734375 234.39620971679688,44.98919677734375 234.6543909236655,44.98919677734375 235.39620971679688,44.98919677734375 "></polygon>
<polygon units="mm" style="fill: black" points="228.39620971679688,152.98919677734375 228.13802850992826,152.98919677734375 227.39620971679688,152.98919677734375 227.13802850992826,152.98919677734375 226.39620971679688,152.98919677734375 226.39620971679688,138.15282091471593 226.39620971679688,132.98919677734375 226.6543909236655,132.98919677734375 227.39620971679688,132.98919677734375 227.6543909236655,132.98919677734375 228.39620971679688,132.98919677734375 228.39620971679688,147.82557263997157 "></polygon>
<polygon units="mm" style="fill: black" points="113.88929748535156,53.72918081626843 113.88929748535156,53.783268436586134 113.88929748535156,54.27805834421781 113.88929748535156,54.78687083577343 113.88929748535156,58.05249634450845 113.88929748535156,63.00713240790097 113.88929748535156,64.98919677734375 113.37293507161435,64.98919677734375 111.88929748535156,64.98919677734375 111.88929748535156,50.152820914715946 111.88929748535156,44.98919677734375 112.14747869222018,44.98919677734375 112.88929748535156,44.98919677734375 113.14747869222018,44.98919677734375 113.88929748535156,44.98919677734375 113.88929748535156,45.01915041357681 113.88929748535156,45.10508859205018 113.88929748535156,45.13342804733931 113.88929748535156,45.71836160464884 113.88929748535156,46.74961176530201 113.88929748535156,47.23919699713568 113.88929748535156,48.889198303222656 113.88929748535156,49.18607224780166 113.88929748535156,50.1829453050159 113.88929748535156,50.339195251464844 113.88929748535156,50.52669590245907 113.88929748535156,50.9391975402832 113.88929748535156,51.273331527634184 113.88929748535156,52.338956169121495 113.88929748535156,52.60137506455031 113.88929748535156,52.8698056823908 "></polygon>
<polygon units="mm" style="fill: black" points="222.13802850992826,152.98919677734375 221.39620971679688,152.98919677734375 220.48954224205,152.98919677734375 220.39620971679688,152.98919677734375 220.39620971679688,134.8558472824062 220.39620971679688,132.98919677734375 221.13802850992826,132.98919677734375 221.39620971679688,132.98919677734375 221.6543909236655,132.98919677734375 222.39620971679688,132.98919677734375 222.39620971679688,147.82557263997157 222.39620971679688,152.98919677734375 "></polygon>
<polygon units="mm" style="fill: black" points="100.88929748535156,44.98919677734375 100.88929748535156,59.825572639971554 100.88929748535156,64.98919677734375 100.63111627848295,64.98919677734375 99.88929748535156,64.98919677734375 98.98263001060468,64.98919677734375 98.88929748535156,64.98919677734375 98.88929748535156,46.8558472824062 98.88929748535156,44.98919677734375 99.63111627848295,44.98919677734375 99.88929748535156,44.98919677734375 100.14747869222018,44.98919677734375 "></polygon>
<polygon units="mm" style="fill: black" points="168.9046349609028,41.686100006103516 172.30709838867188,41.686100006103516 175.70956181644095,41.686100006103516 189.4479522705078,41.686100006103516 189.4479522705078,52.927013212508506 189.4479522705078,55.7109489440918 189.4479522705078,58.494696128322786 189.4479522705078,69.73484802246094 175.70956181644095,69.73484802246094 172.30709838867188,69.73484802246094 168.9046349609028,69.73484802246094 155.16624450683594,69.73484802246094 141.42785405276908,69.73484802246094 138.025390625,69.73484802246094 134.62311801623807,69.73484802246094 120.885498046875,69.73484802246094 120.885498046875,58.494696128322786 120.885498046875,55.7109489440918 120.885498046875,52.9270132125085 120.885498046875,41.686100006103516 134.62311801623807,41.686100006103516 138.025390625,41.686100006103516 141.42785405276908,41.686100006103516 155.16624450683594,41.686100006103516 "></polygon>
<polygon units="mm" style="fill: black" points="106.88929748535156,44.98919677734375 106.88929748535156,59.825572639971554 106.88929748535156,64.98919677734375 106.63111627848295,64.98919677734375 105.88929748535156,64.98919677734375 105.63111627848295,64.98919677734375 104.88929748535156,64.98919677734375 104.88929748535156,50.152820914715946 104.88929748535156,44.98919677734375 105.14747869222018,44.98919677734375 105.88929748535156,44.98919677734375 106.14747869222018,44.98919677734375 "></polygon>
<polygon units="mm" style="fill: black" points="235.39620971679688,138.93919372558594 235.39620971679688,139.27332771293692 235.39620971679688,140.338954977029 235.39620971679688,140.60137268036533 235.39620971679688,140.86980806657576 235.39620971679688,141.7291832004534 235.39620971679688,141.78326605240116 235.39620971679688,142.27806072840278 235.39620971679688,142.78686964368094 235.39620971679688,146.05249515241596 235.39620971679688,151.00713240790097 235.39620971679688,152.98919677734375 234.87984730305965,152.98919677734375 233.39620971679688,152.98919677734375 233.39620971679688,138.15282091471593 233.39620971679688,132.98919677734375 233.6543909236655,132.98919677734375 234.39620971679688,132.98919677734375 234.6543909236655,132.98919677734375 235.39620971679688,132.98919677734375 235.39620971679688,133.01914991843447 235.39620971679688,133.10508667632467 235.39620971679688,133.13342566315433 235.39620971679688,133.71836160464883 235.39620971679688,134.749611765302 235.39620971679688,135.2391946129507 235.39620971679688,136.88919067382812 235.39620971679688,137.1860693867771 235.39620971679688,138.18295293441042 235.39620971679688,138.33920288085938 235.39620971679688,138.52669995557613 "></polygon>
<polygon units="mm" style="fill: black" points="113.88929748535156,133.71836160464883 113.88929748535156,134.749611765302 113.88929748535156,135.2391946129507 113.88929748535156,136.88919067382812 113.88929748535156,137.1860693867771 113.88929748535156,138.18295293441042 113.88929748535156,138.33920288085938 113.88929748535156,138.52669995557613 113.88929748535156,138.93919372558594 113.88929748535156,139.27332771293692 113.88929748535156,140.338954977029 113.88929748535156,140.60137268036533 113.88929748535156,140.86980806657576 113.88929748535156,141.7291832004534 113.88929748535156,141.78326605240116 113.88929748535156,142.27806072840278 113.88929748535156,142.78686964368094 113.88929748535156,146.05249515241596 113.88929748535156,151.00713240790097 113.88929748535156,152.98919677734375 113.37293507161435,152.98919677734375 111.88929748535156,152.98919677734375 111.88929748535156,138.15282091471593 111.88929748535156,132.98919677734375 112.14747869222018,132.98919677734375 112.88929748535156,132.98919677734375 113.14747869222018,132.98919677734375 113.88929748535156,132.98919677734375 113.88929748535156,133.01914991843447 113.88929748535156,133.10508667632467 113.88929748535156,133.13342566315433 "></polygon>
<polygon units="mm" style="fill: black" points="73.88929748535156,150.17967173018906 73.88929748535156,146.05249515241596 73.88929748535156,145.54368623713782 73.88929748535156,142.27806072840278 73.88929748535156,141.78326605240116 73.88929748535156,141.7291832004534 73.88929748535156,141.46074781424298 73.88929748535156,140.60137268036533 73.88929748535156,140.338954977029 73.88929748535156,139.27332771293692 73.88929748535156,138.93919372558594 73.88929748535156,138.75169665086918 73.88929748535156,138.33920288085938 73.88929748535156,138.18295293441042 73.88929748535156,137.1860693867771 73.88929748535156,136.88919067382812 73.88929748535156,136.39960782617942 73.88929748535156,134.749611765302 73.88929748535156,133.14062814164993 73.88929748535156,132.98919677734375 75.07693064299391,132.98919677734375 78.48929595947266,132.98919677734375 79.05729579644337,132.98919677734375 80.68930053710938,132.98919677734375 81.28311613104741,132.98919677734375 82.98929595947266,132.98919677734375 83.60893124991058,132.98919677734375 85.38929748535156,132.98919677734375 86.03475050252308,132.98919677734375 87.88929748535156,132.98919677734375 88.1732967900085,132.98919677734375 88.45729609466544,132.98919677734375 89.78262646293547,132.98919677734375 93.46930075216363,132.98919677734375 94.41596524095559,132.98919677734375 94.63111627848295,132.98919677734375 94.88929748535156,132.98919677734375 95.79596496009844,132.98919677734375 95.88929748535156,132.98919677734375 95.88929748535156,151.1225462722813 95.88929748535156,152.98919677734375 95.14747869222018,152.98919677734375 94.88929748535156,152.98919677734375 94.41596524095559,152.98919677734375 93.46930075216363,152.98919677734375 91.36262972974754,152.98919677734375 91.14747869222018,152.98919677734375 90.88929748535156,152.98919677734375 90.60529818069463,152.98919677734375 90.32129887603769,152.98919677734375 88.1732967900085,152.98919677734375 88.14747869222018,152.98919677734375 87.88929748535156,152.98919677734375 86.62420917774212,152.98919677734375 82.98929595947266,152.98919677734375 82.39548036553462,152.98919677734375 80.68930053710938,152.98919677734375 80.12130070013866,152.98919677734375 78.48929595947266,152.98919677734375 77.75347991385037,152.98919677734375 75.63929748535156,152.98919677734375 75.1874803733315,152.98919677734375 73.88929748535156,152.98919677734375 73.88929748535156,151.00713240790097 "></polygon>
<polygon units="mm" style="fill: black" points="111.44600677490234,93.2750015258789 110.00590319240777,93.58434098839592 109.35101318359375,93.72501373291016 107.92051745908323,94.07420587709791 107.2699966430664,94.23300170898438 105.84914024332373,94.62275978194212 105.2030029296875,94.80000305175781 94.9284582579156,94.80000305175781 88.77400207519531,94.80000305175781 82.6199202959761,94.80000305175781 72.34600067138672,94.80000305175781 72.34600067138672,81.7400448407178 72.34600067138672,75.8010025024414 82.6199202959761,75.8010025024414 88.77400207519531,75.8010025024414 94.9284582579156,75.8010025024414 105.2030029296875,75.8010025024414 106.62385932943018,76.19006830615575 107.2699966430664,76.36699676513672 108.70049236757693,76.7161993982524 109.35101318359375,76.875 110.79111676608832,77.18501599836851 111.44600677490234,77.32599639892578 112.89367287443457,77.59408815235734 113.552001953125,77.71600341796875 115.00723581415886,77.94352924263032 115.66900634765625,78.0469970703125 117.1290493821461,78.23259865003712 117.79300689697266,78.31700134277344 119.25923315447736,78.462047482656 119.9260025024414,78.52800750732422 121.39498210352778,78.63248771843679 122.06300354003906,78.68000030517578 123.53473124024315,78.7425562713514 124.2040023803711,78.77100372314453 125.67573532503914,78.79162495545528 126.34500885009766,78.8010025024414 144.1698896905088,78.8010025024414 154.8470001220703,78.8010025024414 165.52298734312862,78.8010025024414 183.3459930419922,78.8010025024414 184.81841825590362,78.78038127013066 185.48800659179688,78.77100372314453 186.95973953646492,78.70844775696891 187.62901306152344,78.68000030517578 189.09730563783037,78.57552009406321 189.7650146484375,78.52800750732422 191.23125139487013,78.38296136744165 191.8980255126953,78.31700134277344 193.3587555719646,78.13139976304882 194.0230255126953,78.0469970703125 195.47755661555786,77.81947124565093 196.13900756835938,77.71600341796875 197.58736069267104,77.44791166453719 198.24600219726562,77.32599639892578 199.68611102422415,77.01598040055727 200.34100341796875,76.875 201.77150438694323,76.52579736688432 202.42202758789062,76.36699676513672 203.84287874316934,75.97793096142237 204.489013671875,75.8010025024414 214.76292852511185,75.8010025024414 220.91700744628906,75.8010025024414 227.07145791292535,75.8010025024414 237.3459930419922,75.8010025024414 237.3459930419922,88.86096071348142 237.3459930419922,94.80000305175781 227.07145791292535,94.80000305175781 220.91700744628906,94.80000305175781 214.76292852511185,94.80000305175781 204.489013671875,94.80000305175781 203.0681625165963,94.41024497880007 202.42202758789062,94.23300170898438 200.99152661891614,93.88380956479662 200.34100341796875,93.72501373291016 198.90089459101023,93.41567427039314 198.24600219726562,93.2750015258789 196.79764907295396,93.00691501691131 196.13900756835938,92.88500213623047 194.68447646549683,92.65747106710494 194.0230255126953,92.55400085449219 192.56229545342603,92.36771224998813 191.8980255126953,92.28299713134766 190.43178876626268,92.13796148039302 189.7650146484375,92.07200622558594 188.29672207213056,91.96821303925279 187.62901306152344,91.92101287841797 186.1572801168554,91.8591386925578 185.48800659179688,91.83100128173828 184.01558137788544,91.81038004942754 183.3459930419922,91.8010025024414 165.52298734312862,91.8010025024414 154.8470001220703,91.8010025024414 144.1698896905088,91.8010025024414 126.34500885009766,91.8010025024414 124.87327590542961,91.82162373475215 124.2040023803711,91.83100128173828 122.73227468016701,91.89287546759844 122.06300354003906,91.92101287841797 120.59402393895269,92.02480606475112 119.9260025024414,92.07200622558594 118.4597762449367,92.21704187654058 117.79300689697266,92.28299713134766 116.3329638624828,92.46928573585171 115.66900634765625,92.55400085449219 114.21377248662239,92.78153192361772 113.552001953125,92.88500213623047 112.10433585359277,93.15308864519807 "></polygon>
<polygon units="mm" style="fill: black" points="122.73227468016701,33.27986482380289 122.06300354003906,33.30799865722656 120.59402393895269,33.411797088023675 119.9260025024414,33.45899963378906 118.4597762449367,33.60404052920766 117.79300689697266,33.66999816894531 116.3329638624828,33.85628677344936 115.66900634765625,33.941001892089844 114.21377248662239,34.16784331420397 113.552001953125,34.270999908447266 112.10433585359277,34.53977344219429 111.44600677490234,34.6619987487793 110.00590319240777,34.97133034460037 109.35101318359375,35.11199951171875 107.92051745908323,35.46119952260245 107.2699966430664,35.619998931884766 105.84914024332373,36.009757004842506 105.2030029296875,36.1870002746582 94.9284582579156,36.1870002746582 88.77400207519531,36.1870002746582 82.6199202959761,36.1870002746582 72.34600067138672,36.1870002746582 72.34600067138672,23.126355038838764 72.34600067138672,17.187000274658203 82.6199202959761,17.187000274658203 88.77400207519531,17.187000274658203 94.9284582579156,17.187000274658203 105.2030029296875,17.187000274658203 106.62385932943018,17.576757036499956 107.2699966430664,17.753999710083008 108.70049236757693,18.103199720966707 109.35101318359375,18.261999130249023 110.79111676608832,18.57133072607009 111.44600677490234,18.711999893188477 112.89367287443457,18.980774738051494 113.552001953125,19.10300064086914 115.00723581415886,19.32984337409926 115.66900634765625,19.433000564575195 117.1290493821461,19.619286546847263 117.79300689697266,19.70400047302246 119.25923315447736,19.84904267955705 119.9260025024414,19.915000915527344 121.39498210352778,20.018798035208462 122.06300354003906,20.06599998474121 123.53473124024315,20.12924166458027 124.2040023803711,20.158000946044922 125.67573532503914,20.17793515357624 126.34500885009766,20.187000274658203 144.1698896905088,20.187000274658203 154.8470001220703,20.187000274658203 165.52298734312862,20.187000274658203 183.3459930419922,20.187000274658203 184.81841825590362,20.167066067126886 185.48800659179688,20.158000946044922 186.95973953646492,20.094759266205863 187.62901306152344,20.06599998474121 189.09730563783037,19.962202865060092 189.7650146484375,19.915000915527344 191.23125139487013,19.769958708992753 191.8980255126953,19.70400047302246 193.3587555719646,19.517714490750393 194.0230255126953,19.433000564575195 195.47755661555786,19.206157831345077 196.13900756835938,19.10300064086914 197.58736069267104,18.834225796006123 198.24600219726562,18.711999893188477 199.68611102422415,18.40266829736741 200.34100341796875,18.261999130249023 201.77150438694323,17.912799119365324 202.42202758789062,17.753999710083008 203.84287874316934,17.364242948241255 204.489013671875,17.187000274658203 214.76292852511185,17.187000274658203 220.91700744628906,17.187000274658203 227.07145791292535,17.187000274658203 237.3459930419922,17.187000274658203 237.3459930419922,30.247645510477643 237.3459930419922,36.1870002746582 227.07145791292535,36.1870002746582 220.91700744628906,36.1870002746582 214.76292852511185,36.1870002746582 204.489013671875,36.1870002746582 203.0681625165963,35.79724220170046 202.42202758789062,35.619998931884766 200.99152661891614,35.27079892100107 200.34100341796875,35.11199951171875 198.90089459101023,34.80266791589768 198.24600219726562,34.6619987487793 196.79764907295396,34.393225215032274 196.13900756835938,34.270999908447266 194.68447646549683,34.04415848633314 194.0230255126953,33.941001892089844 192.56229545342603,33.754713287585794 191.8980255126953,33.66999816894531 190.43178876626268,33.52495727352672 189.7650146484375,33.45899963378906 188.29672207213056,33.35520120299195 187.62901306152344,33.30799865722656 186.1572801168554,33.246132338062345 185.48800659179688,33.21799850463867 184.01558137788544,33.19737727232793 183.3459930419922,33.1879997253418 165.52298734312862,33.1879997253418 154.8470001220703,33.1879997253418 144.1698896905088,33.1879997253418 126.34500885009766,33.1879997253418 124.87327590542961,33.20862095765254 124.2040023803711,33.21799850463867 "></polygon>
<polygon units="mm" style="fill: black" points="80.12130070013866,64.98919677734375 78.48929595947266,64.98919677734375 77.75347991385037,64.98919677734375 75.63929748535156,64.98919677734375 75.1874803733315,64.98919677734375 73.88929748535156,64.98919677734375 73.88929748535156,63.00713240790097 73.88929748535156,62.17967173018904 73.88929748535156,58.05249634450845 73.88929748535156,57.54368385295283 73.88929748535156,54.27805834421781 73.88929748535156,53.783268436586134 73.88929748535156,53.72918081626843 73.88929748535156,53.46075019842795 73.88929748535156,52.60137506455031 73.88929748535156,52.338956169121495 73.88929748535156,51.273331527634184 73.88929748535156,50.9391975402832 73.88929748535156,50.75169688928898 73.88929748535156,50.339195251464844 73.88929748535156,50.1829453050159 73.88929748535156,49.18607224780166 73.88929748535156,48.889198303222656 73.88929748535156,48.399613071388984 73.88929748535156,46.74961176530201 73.88929748535156,45.14062814164993 73.88929748535156,44.98919677734375 75.07693064299391,44.98919677734375 78.48929595947266,44.98919677734375 79.05729579644337,44.98919677734375 80.68930053710938,44.98919677734375 81.28311613104741,44.98919677734375 82.98929595947266,44.98919677734375 83.60893124991058,44.98919677734375 85.38929748535156,44.98919677734375 86.03475050252308,44.98919677734375 87.88929748535156,44.98919677734375 88.1732967900085,44.98919677734375 88.45729609466544,44.98919677734375 89.78262646293547,44.98919677734375 93.46930075216363,44.98919677734375 94.41596524095559,44.98919677734375 94.63111627848295,44.98919677734375 94.88929748535156,44.98919677734375 95.79596496009844,44.98919677734375 95.88929748535156,44.98919677734375 95.88929748535156,63.1225462722813 95.88929748535156,64.98919677734375 95.14747869222018,64.98919677734375 94.88929748535156,64.98919677734375 94.41596524095559,64.98919677734375 93.46930075216363,64.98919677734375 91.36262972974754,64.98919677734375 91.14747869222018,64.98919677734375 90.88929748535156,64.98919677734375 90.60529818069463,64.98919677734375 90.32129887603769,64.98919677734375 88.1732967900085,64.98919677734375 88.14747869222018,64.98919677734375 87.88929748535156,64.98919677734375 86.62420917774212,64.98919677734375 82.98929595947266,64.98919677734375 82.39548036553462,64.98919677734375 80.68930053710938,64.98919677734375 "></polygon>
<polygon units="mm" style="fill: black" points="191.8980255126953,122.28299713134766 190.43178876626268,122.13796148039302 189.7650146484375,122.07200622558594 188.29672207213056,121.96821303925279 187.62901306152344,121.92101287841797 186.1572801168554,121.85914393702177 185.48800659179688,121.83100891113281 184.01558137788544,121.8103824343581 183.3459930419922,121.8010025024414 165.52298734312862,121.8010025024414 154.8470001220703,121.8010025024414 144.1698896905088,121.8010025024414 126.34500885009766,121.8010025024414 124.87327590542961,121.82162897921611 124.2040023803711,121.83100891113281 122.73227468016701,121.89287785252901 122.06300354003906,121.92101287841797 120.59402393895269,122.02480606475112 119.9260025024414,122.07200622558594 118.4597762449367,122.21704187654058 117.79300689697266,122.28299713134766 116.3329638624828,122.46929098031568 115.66900634765625,122.55400848388672 114.21377248662239,122.78153430854829 113.552001953125,122.88500213623047 112.10433585359277,123.15309388966203 111.44600677490234,123.27500915527344 110.00590319240777,123.58434337332649 109.35101318359375,123.72501373291016 107.92051745908323,124.07421112156187 107.2699966430664,124.2330093383789 105.84914024332373,124.62276216687269 105.2030029296875,124.80000305175781 94.9284582579156,124.80000305175781 88.77400207519531,124.80000305175781 82.6199202959761,124.80000305175781 72.34600067138672,124.80000305175781 72.34600067138672,111.7400448407178 72.34600067138672,105.8010025024414 82.6199202959761,105.8010025024414 88.77400207519531,105.8010025024414 94.9284582579156,105.8010025024414 105.2030029296875,105.8010025024414 106.62385932943018,106.19006830615575 107.2699966430664,106.36699676513672 108.70049236757693,106.71620464271636 109.35101318359375,106.87500762939453 110.79111676608832,107.18501838329908 111.44600677490234,107.32599639892578 112.89367287443457,107.59408815235734 113.552001953125,107.71600341796875 115.00723581415886,107.94352924263032 115.66900634765625,108.0469970703125 117.1290493821461,108.23259865003712 117.79300689697266,108.31700134277344 119.25923315447736,108.462047482656 119.9260025024414,108.52800750732422 121.39498210352778,108.63249296290076 122.06300354003906,108.68000793457031 123.53473124024315,108.74255865628197 124.2040023803711,108.77100372314453 125.67573532503914,108.79162495545528 126.34500885009766,108.8010025024414 144.1698896905088,108.8010025024414 154.8470001220703,108.8010025024414 165.52298734312862,108.8010025024414 183.3459930419922,108.8010025024414 184.81841825590362,108.78038127013066 185.48800659179688,108.77100372314453 186.95973953646492,108.70845300143287 187.62901306152344,108.68000793457031 189.09730563783037,108.57552247899378 189.7650146484375,108.52800750732422 191.23125139487013,108.38296136744165 191.8980255126953,108.31700134277344 193.3587555719646,108.13139976304882 194.0230255126953,108.0469970703125 195.47755661555786,107.81947124565093 196.13900756835938,107.71600341796875 197.58736069267104,107.44791166453719 198.24600219726562,107.32599639892578 199.68611102422415,107.01598564502123 200.34100341796875,106.87500762939453 201.77150438694323,106.52579975181489 202.42202758789062,106.36699676513672 203.84287874316934,105.97793096142237 204.489013671875,105.8010025024414 214.76292852511185,105.8010025024414 220.91700744628906,105.8010025024414 227.07145791292535,105.8010025024414 237.3459930419922,105.8010025024414 237.3459930419922,118.86096071348142 237.3459930419922,124.80000305175781 227.07145791292535,124.80000305175781 220.91700744628906,124.80000305175781 214.76292852511185,124.80000305175781 204.489013671875,124.80000305175781 203.0681625165963,124.41025022326403 202.42202758789062,124.2330093383789 200.99152661891614,123.88381194972719 200.34100341796875,123.72501373291016 198.90089459101023,123.4156795148571 198.24600219726562,123.27500915527344 196.79764907295396,123.00691740184187 196.13900756835938,122.88500213623047 194.68447646549683,122.6574763115689 194.0230255126953,122.55400848388672 192.56229545342603,122.3677146349187 "></polygon>
<polygon units="mm" style="fill: black" points="256.3346625698038,17.301000595092773 262.2740173339844,17.301000595092773 262.2740173339844,27.57554407402655 262.2740173339844,33.72999954223633 262.2740173339844,39.88408132145554 262.2740173339844,50.15800094604492 261.8842487720987,51.578859968019586 261.7070007324219,52.224998474121094 261.3578033437702,53.65548370970369 261.1990051269531,54.305999755859375 260.88968664229196,55.74610858281791 260.7490234375,56.4010009765625 260.4802341703611,57.84935672310614 260.3580017089844,58.507999420166016 260.1311681535662,59.96254363418847 260.02801513671875,60.624000549316406 259.84173177667867,62.08473060858569 259.75701904296875,62.749000549316406 259.61197814755013,64.21523205128507 259.5460205078125,64.88200378417969 259.4422220770154,66.35029111602266 259.39501953125,67.01799774169922 259.3331558343178,68.4897254419033 259.3050231933594,69.15899658203125 259.2844019610486,70.63141655147872 259.2750244140625,71.3010025024414 259.2750244140625,89.12526306702256 259.2750244140625,99.802001953125 259.2750244140625,110.47836643572637 259.2750244140625,128.302001953125 259.29564564637326,129.77373489779305 259.3050231933594,130.44300842285156 259.3668868902916,131.91473087859168 259.39501953125,132.58399963378906 259.4988179620471,134.0529844793394 259.5460205078125,134.72100830078125 259.6910614032311,136.18723455828595 259.75701904296875,136.85400390625 259.94330240300883,138.31405218520382 260.02801513671875,138.97801208496094 260.25484869213693,140.43323545706687 260.3580017089844,141.09500122070312 260.6267909761233,142.54267256469933 260.7490234375,143.2010040283203 261.05834192216116,144.64111285527883 261.1990051269531,145.29600524902344 261.5482025156048,146.72649572907 261.7070007324219,147.37701416015625 262.09676929430753,148.79786531543496 262.2740173339844,149.44400024414062 262.2740173339844,159.71792464008254 262.2740173339844,165.87200927734375 262.2740173339844,172.02647117614802 262.2740173339844,182.301025390625 249.21337209816494,182.301025390625 243.27401733398438,182.301025390625 243.27401733398438,172.02647117614802 243.27401733398438,165.87200927734375 243.27401733398438,159.71792464008254 243.27401733398438,149.44400024414062 243.6637754069421,148.0231490888619 243.8410186767578,147.37701416015625 244.19021606540954,145.9465236801097 244.34901428222656,145.29600524902344 244.65835374474358,143.85589642206492 244.7990264892578,143.2010040283203 245.06779477854087,141.7533326843241 245.1900177001953,141.09500122070312 245.4168512556135,139.6397778485972 245.52000427246094,138.97801208496094 245.70629812142894,137.51796380600712 245.791015625,136.85400390625 245.9360565204186,135.3877776487453 246.00201416015625,134.72100830078125 246.10581259095335,133.25202345523093 246.15301513671875,132.58399963378906 246.21626337213777,131.11227717804894 246.24502563476562,130.44300842285156 246.2656258892205,128.97127547818351 246.27499389648438,128.302001953125 246.27499389648438,110.47836643572637 246.27499389648438,99.802001953125 246.27499389648438,89.12526306702256 246.27499389648438,71.3010025024414 246.2543936420295,69.82858253299393 246.24502563476562,69.15899658203125 246.1817773993466,67.68726888182717 246.15301513671875,67.01799774169922 246.04921670592165,65.54971040985625 246.00201416015625,64.88200378417969 245.85697326473766,63.41577228221102 245.791015625,62.749000549316406 245.604721776032,61.288270490047125 245.52000427246094,60.624000549316406 245.29317071704276,59.16945633529395 245.1900177001953,58.507999420166016 244.92124941091225,57.059643673622375 244.7990264892578,56.4010009765625 244.4896870267408,54.960892149603964 244.34901428222656,54.305999755859375 243.99981689357483,52.87551452027678 243.8410186767578,52.224998474121094 243.45126060380008,50.80413945214643 243.27401733398438,50.15800094604492 243.27401733398438,39.88408132145554 243.27401733398438,33.72999954223633 243.27401733398438,27.57554407402655 243.27401733398438,17.301000595092773 "></polygon>
<polygon units="mm" style="fill: black" points="117.1290493821461,165.49229837468852 117.79300689697266,165.57701110839844 119.25923315447736,165.72205200381703 119.9260025024414,165.7880096435547 121.39498210352778,165.8918080743518 122.06300354003906,165.9390106201172 123.53473124024315,166.00156658629282 124.2040023803711,166.03001403808594 125.67573532503914,166.05063527039667 126.34500885009766,166.0600128173828 144.1698896905088,166.0600128173828 154.8470001220703,166.0600128173828 165.52298734312862,166.0600128173828 183.3459930419922,166.0600128173828 184.81841825590362,166.03939158507208 185.48800659179688,166.03001403808594 186.95973953646492,165.9674580719103 187.62901306152344,165.9390106201172 189.09730563783037,165.8352121893201 189.7650146484375,165.7880096435547 191.23125139487013,165.6429687481361 191.8980255126953,165.57701110839844 193.3587555719646,165.39072774835836 194.0230255126953,165.30601501464844 195.47755661555786,165.07847870105894 196.13900756835938,164.97500610351562 197.58736069267104,164.70691959454803 198.24600219726562,164.5850067138672 199.68611102422415,164.2756777402781 200.34100341796875,164.135009765625 201.77150438694323,163.78581237697327 202.42202758789062,163.62701416015625 203.84287874316934,163.23725608719852 204.489013671875,163.0600128173828 214.76292852511185,163.0600128173828 220.91700744628906,163.0600128173828 227.07145791292535,163.0600128173828 237.3459930419922,163.0600128173828 237.3459930419922,176.11996578395886 237.3459930419922,182.0590057373047 227.07145791292535,182.0590057373047 220.91700744628906,182.0590057373047 214.76292852511185,182.0590057373047 204.489013671875,182.0590057373047 203.0681625165963,181.66995042251827 202.42202758789062,181.49302673339844 200.99152661891614,181.14381885581878 200.34100341796875,180.98501586914062 198.90089459101023,180.67500511523608 198.24600219726562,180.53402709960938 196.79764907295396,180.26593010171385 196.13900756835938,180.14401245117188 194.68447646549683,179.91647613758238 194.0230255126953,179.81300354003906 192.56229545342603,179.62741244924237 191.8980255126953,179.5430145263672 190.43178876626268,179.3979736309486 189.7650146484375,179.33201599121094 188.29672207213056,179.22821756041384 187.62901306152344,179.18101501464844 186.1572801168554,179.1191408287883 185.48800659179688,179.09100341796875 184.01558137788544,179.07038218565802 183.3459930419922,179.06100463867188 165.52298734312862,179.06100463867188 154.8470001220703,179.06100463867188 144.1698896905088,179.06100463867188 126.34500885009766,179.06100463867188 124.87327590542961,179.0816258709826 124.2040023803711,179.09100341796875 122.73227468016701,179.1528776038289 122.06300354003906,179.18101501464844 120.59402393895269,179.28481344544554 119.9260025024414,179.33201599121094 118.4597762449367,179.47705688662953 117.79300689697266,179.5430145263672 116.3329638624828,179.72860561716388 115.66900634765625,179.81300354003906 114.21377248662239,180.04053985362856 113.552001953125,180.14401245117188 112.10433585359277,180.4121094490674 111.44600677490234,180.53402709960938 110.00590319240777,180.84403785351392 109.35101318359375,180.98501586914062 107.92051745908323,181.33422374672028 107.2699966430664,181.49302673339844 105.84914024332373,181.88208204818486 105.2030029296875,182.0590057373047 94.9284582579156,182.0590057373047 88.77400207519531,182.0590057373047 82.6199202959761,182.0590057373047 72.34600067138672,182.0590057373047 72.34600067138672,168.99905277072864 72.34600067138672,163.0600128173828 82.6199202959761,163.0600128173828 88.77400207519531,163.0600128173828 94.9284582579156,163.0600128173828 105.2030029296875,163.0600128173828 106.62385932943018,163.44977089034055 107.2699966430664,163.62701416015625 108.70049236757693,163.97621154880798 109.35101318359375,164.135009765625 110.79111676608832,164.4443387392141 111.44600677490234,164.5850067138672 112.89367287443457,164.8530932228348 113.552001953125,164.97500610351562 115.00723581415886,165.20254241710512 115.66900634765625,165.30601501464844 "></polygon>
<polygon units="mm" style="fill: black" points="63.1619987487793,134.677001953125 63.307042249725804,136.1432385306971 63.37300109863281,136.8100128173828 63.55928705945108,138.27005043926206 63.64400100708008,138.9340057373047 63.871529427770106,140.38923943074516 63.974998474121094,141.05101013183594 64.24308495221426,142.4986813091097 64.36499786376953,143.15701293945312 64.67433204619782,144.59712160056017 64.81500244140625,145.25201416015625 65.16419978984233,146.68317576676924 65.322998046875,147.33399963378906 65.71275607494589,148.7541793341239 65.88999938964844,149.40000915527344 65.88999938964844,159.67455642835532 65.88999938964844,165.82901000976562 65.88999938964844,171.98308632979234 65.88999938964844,182.2570037841797 52.83004268267079,182.2570037841797 46.89099884033203,182.2570037841797 46.89099884033203,171.98308632979234 46.89099884033203,165.82901000976562 46.89099884033203,159.67455642835532 46.89099884033203,149.40000915527344 47.28006984370261,147.9798294549386 47.457000732421875,147.33399963378906 47.80620070308963,145.90283802717607 47.96500015258789,145.25201416015625 48.2750187374848,143.8119054990492 48.41600036621094,143.15701293945312 48.6840868443041,141.70934176217935 48.805999755859375,141.05101013183594 49.033530798781086,139.59577643839546 49.137001037597656,138.9340057373047 49.32259997371562,137.47396811542544 49.40700149536133,136.8100128173828 49.55204237407615,135.34377623981072 49.61800003051758,134.677001953125 49.72248547406095,133.2080277656784 49.77000045776367,132.54000854492188 49.8325537945033,131.06827576974734 49.861000061035156,130.3990020751953 49.88162129097103,128.9272797889475 49.89099884033203,128.2580108642578 49.89099884033203,110.43436606291611 49.89099884033203,99.75800323486328 49.89099884033203,89.08126886150842 49.89099884033203,71.25700378417969 49.870377610396154,69.78458398430485 49.861000061035156,69.11499786376953 49.79844672429553,67.64327033305835 49.77000045776367,66.9739990234375 49.6655150142203,65.50570661622785 49.61800003051758,64.83799743652344 49.472959151802755,63.37177134787807 49.40700149536133,62.70500183105469 49.221402559243366,61.24427194001176 49.137001037597656,60.58000183105469 48.909469994675945,59.125457784546185 48.805999755859375,58.4640007019043 48.537913277766215,57.01564249993022 48.41600036621094,56.356998443603516 48.10598178131403,54.91757942942845 47.96500015258789,54.26300048828125 47.615800181920136,52.83182839274153 47.457000732421875,52.180999755859375 47.06792972905129,50.760138275287595 46.89099884033203,50.11399841308594 46.89099884033203,39.840078573021714 46.89099884033203,33.68600082397461 46.89099884033203,27.531547242564294 46.89099884033203,17.256999969482422 59.950955547309675,17.256999969482422 65.88999938964844,17.256999969482422 65.88999938964844,27.531547242564294 65.88999938964844,33.68600082397461 65.88999938964844,39.840078573021714 65.88999938964844,50.11399841308594 65.50024136157755,51.53485989365772 65.322998046875,52.180999755859375 64.97380069843892,53.6121718513991 64.81500244140625,54.26300048828125 64.50566825897796,55.702419502456316 64.36499786376953,56.356998443603516 64.09691138567636,57.80535664557759 63.974998474121094,58.4640007019043 63.747470053431066,59.9185447484128 63.64400100708008,60.58000183105469 63.45771504626181,62.04073172209762 63.37300109863281,62.70500183105469 63.227957597686306,64.17122791970006 63.1619987487793,64.83799743652344 63.05820295216791,66.30628984373308 63.01100158691406,66.9739990234375 62.94913527487474,68.44572655414868 62.92100143432617,69.11499786376953 62.90037758215861,70.58741766364437 62.89099884033203,71.25700378417969 62.89099884033203,89.08126886150842 62.89099884033203,99.75800323486328 62.89099884033203,110.4343660629161 62.89099884033203,128.2580108642578 62.91162269249959,129.72973315050564 62.92100143432617,130.3990020751953 62.98286774636549,131.87073485036984 63.01100158691406,132.54000854492188 63.11479738352545,134.00898273236848 "></polygon>
<polygon units="mm" style="fill: white" points="200.91002368313994,52.98919677734375 202.21974056985601,52.98919677734375 202.39411041528987,52.98919677734375 202.7428501061576,52.98919677734375 202.938230186386,52.98919677734375 204.158819104423,52.98919677734375 204.25474087037267,52.98919677734375 205.39620971679688,52.98919677734375 205.39620971679688,52.945125118101366 205.39620971679688,52.60137506455031 205.39620971679688,52.338956169121495 205.39620971679688,51.273331527634184 205.39620971679688,50.9391975402832 205.39620971679688,50.75169688928898 205.39620971679688,50.339195251464844 205.39620971679688,50.1829453050159 205.39620971679688,49.18607224780166 205.39620971679688,48.889198303222656 205.39620971679688,48.60794792277756 205.39620971679688,47.98919677734375 204.158819104423,47.98919677734375 203.9634390241946,47.98919677734375 202.7428501061576,47.98919677734375 202.39411041528987,47.98919677734375 202.21974056985601,47.98919677734375 200.91002368313994,47.98919677734375 200.78157264160075,47.98919677734375 200.39620971679688,47.98919677734375 200.39620971679688,48.270447157788844 200.39620971679688,48.889198303222656 200.39620971679688,49.18607224780166 200.39620971679688,50.1829453050159 200.39620971679688,50.339195251464844 200.39620971679688,50.52669590245907 200.39620971679688,50.9391975402832 200.39620971679688,51.273331527634184 200.39620971679688,52.338956169121495 200.39620971679688,52.60137506455031 200.39620971679688,52.645446723792695 200.39620971679688,52.98919677734375 200.78157264160075,52.98919677734375 "></polygon>
<polygon units="mm" style="fill: white" points="202.938230186386,140.98919677734375 204.158819104423,140.98919677734375 204.25474087037267,140.98919677734375 205.39620971679688,140.98919677734375 205.39620971679688,140.9451227339164 205.39620971679688,140.60137268036533 205.39620971679688,140.338954977029 205.39620971679688,139.27332771293692 205.39620971679688,138.93919372558594 205.39620971679688,138.75169665086918 205.39620971679688,138.33920288085938 205.39620971679688,138.18295293441042 205.39620971679688,137.1860693867771 205.39620971679688,136.88919067382812 205.39620971679688,136.607942677568 205.39620971679688,135.98919677734375 204.158819104423,135.98919677734375 203.9634390241946,135.98919677734375 202.7428501061576,135.98919677734375 202.39411041528987,135.98919677734375 202.21974056985601,135.98919677734375 200.91002368313994,135.98919677734375 200.78157264160075,135.98919677734375 200.39620971679688,135.98919677734375 200.39620971679688,136.27044477360388 200.39620971679688,136.88919067382812 200.39620971679688,137.1860693867771 200.39620971679688,138.18295293441042 200.39620971679688,138.33920288085938 200.39620971679688,138.52669995557613 200.39620971679688,138.93919372558594 200.39620971679688,139.27332771293692 200.39620971679688,140.338954977029 200.39620971679688,140.60137268036533 200.39620971679688,140.6454467237927 200.39620971679688,140.98919677734375 200.78157264160075,140.98919677734375 200.91002368313994,140.98919677734375 202.21974056985601,140.98919677734375 202.39411041528987,140.98919677734375 202.7428501061576,140.98919677734375 "></polygon>
<polygon units="mm" style="fill: white" points="93.88929748535156,49.98919677734375 93.88929748535156,49.82945403374391 93.88929748535156,48.11989578863357 93.88929748535156,47.98919677734375 93.67146616918431,47.98919677734375 91.96190792407398,47.98919677734375 91.88929748535156,47.98919677734375 91.88929748535156,48.11989578863357 91.88929748535156,49.82945403374391 91.88929748535156,49.98919677734375 91.96190792407398,49.98919677734375 93.67146616918431,49.98919677734375 "></polygon>
<polygon units="mm" style="fill: white" points="80.88929748535156,147.9266964560374 80.88929748535156,149.98919677734375 81.41030772014612,149.98919677734375 81.6056828316527,149.98919677734375 82.65190190425585,149.98919677734375 82.74782405537782,149.98919677734375 83.88929748535156,149.98919677734375 83.88929748535156,149.0516970986501 83.88929748535156,146.98919677734375 82.65190190425585,146.98919677734375 82.45652679274927,146.98919677734375 81.41030772014612,146.98919677734375 80.88929748535156,146.98919677734375 "></polygon>
<polygon units="mm" style="fill: white" points="80.88929748535156,58.98919677734375 80.88929748535156,59.92669645603742 80.88929748535156,61.98919677734375 81.41030772014612,61.98919677734375 81.6056828316527,61.98919677734375 82.65190190425585,61.98919677734375 82.74782405537782,61.98919677734375 83.88929748535156,61.98919677734375 83.88929748535156,61.05169709865008 83.88929748535156,58.98919677734375 82.65190190425585,58.98919677734375 82.45652679274927,58.98919677734375 81.41030772014612,58.98919677734375 "></polygon>
<polygon units="mm" style="fill: white" points="82.45652679274927,47.98919677734375 81.23593787471226,47.98919677734375 80.88719818384455,47.98919677734375 80.71282833841069,47.98919677734375 79.40311145169463,47.98919677734375 79.27465551006229,47.98919677734375 78.88929748535156,47.98919677734375 78.88929748535156,48.270447157788844 78.88929748535156,48.889198303222656 78.88929748535156,49.18607224780166 78.88929748535156,50.1829453050159 78.88929748535156,50.339195251464844 78.88929748535156,50.52669590245907 78.88929748535156,50.9391975402832 78.88929748535156,51.273331527634184 78.88929748535156,52.338956169121495 78.88929748535156,52.60137506455031 78.88929748535156,52.645446723792695 78.88929748535156,52.98919677734375 79.27465551006229,52.98919677734375 79.40311145169463,52.98919677734375 80.71282833841069,52.98919677734375 80.88719818384455,52.98919677734375 81.23593787471226,52.98919677734375 81.43131298621884,52.98919677734375 82.65190190425585,52.98919677734375 82.74782405537782,52.98919677734375 83.88929748535156,52.98919677734375 83.88929748535156,52.945125118101366 83.88929748535156,52.60137506455031 83.88929748535156,52.338956169121495 83.88929748535156,51.273331527634184 83.88929748535156,50.9391975402832 83.88929748535156,50.75169688928898 83.88929748535156,50.339195251464844 83.88929748535156,50.1829453050159 83.88929748535156,49.18607224780166 83.88929748535156,48.889198303222656 83.88929748535156,48.60794792277756 83.88929748535156,47.98919677734375 82.65190190425585,47.98919677734375 "></polygon>
<polygon units="mm" style="fill: white" points="83.88929748535156,136.88919067382812 83.88929748535156,136.607942677568 83.88929748535156,135.98919677734375 82.65190190425585,135.98919677734375 82.45652679274927,135.98919677734375 81.23593787471226,135.98919677734375 80.88719818384455,135.98919677734375 80.71282833841069,135.98919677734375 79.40311145169463,135.98919677734375 79.27465551006229,135.98919677734375 78.88929748535156,135.98919677734375 78.88929748535156,136.27044477360388 78.88929748535156,136.88919067382812 78.88929748535156,137.1860693867771 78.88929748535156,138.18295293441042 78.88929748535156,138.33920288085938 78.88929748535156,138.52669995557613 78.88929748535156,138.93919372558594 78.88929748535156,139.27332771293692 78.88929748535156,140.338954977029 78.88929748535156,140.60137268036533 78.88929748535156,140.6454467237927 78.88929748535156,140.98919677734375 79.27465551006229,140.98919677734375 79.40311145169463,140.98919677734375 80.71282833841069,140.98919677734375 80.88719818384455,140.98919677734375 81.23593787471226,140.98919677734375 81.43131298621884,140.98919677734375 82.65190190425585,140.98919677734375 82.74782405537782,140.98919677734375 83.88929748535156,140.98919677734375 83.88929748535156,140.9451227339164 83.88929748535156,140.60137268036533 83.88929748535156,140.338954977029 83.88929748535156,139.27332771293692 83.88929748535156,138.93919372558594 83.88929748535156,138.75169665086918 83.88929748535156,138.33920288085938 83.88929748535156,138.18295293441042 83.88929748535156,137.1860693867771 "></polygon>
<polygon units="mm" style="fill: white" points="83.88929748535156,145.7087450988649 83.88929748535156,142.95874467045647 83.88929748535156,142.4499357551783 83.88929748535156,141.98919677734375 82.65190190425585,141.98919677734375 81.43131298621884,141.98919677734375 81.23593787471226,141.98919677734375 81.0615680292784,141.98919677734375 80.97069433133711,141.98919677734375 79.88929748535156,141.98919677734375 79.88929748535156,142.4499357551783 79.88929748535156,145.19993618358674 79.88929748535156,145.7087450988649 79.88929748535156,145.98919677734375 81.0615680292784,145.98919677734375 81.23593787471226,145.98919677734375 81.43131298621884,145.98919677734375 82.65190190425585,145.98919677734375 82.74782405537782,145.98919677734375 83.88929748535156,145.98919677734375 "></polygon>
<polygon units="mm" style="fill: white" points="213.39620971679688,49.98919677734375 213.4688201555193,49.98919677734375 215.17837840062964,49.98919677734375 215.39620971679688,49.98919677734375 215.39620971679688,49.82945403374391 215.39620971679688,48.11989578863357 215.39620971679688,47.98919677734375 215.17837840062964,47.98919677734375 213.4688201555193,47.98919677734375 213.39620971679688,47.98919677734375 213.39620971679688,48.11989578863357 213.39620971679688,49.82945403374391 "></polygon>
<polygon units="mm" style="fill: white" points="204.158819104423,57.98919677734375 204.25474087037267,57.98919677734375 205.39620971679688,57.98919677734375 205.39620971679688,57.70874629095739 205.39620971679688,54.95874586254895 205.39620971679688,54.449933370993335 205.39620971679688,53.98919677734375 204.158819104423,53.98919677734375 202.938230186386,53.98919677734375 202.7428501061576,53.98919677734375 202.56848026072373,53.98919677734375 202.47760656278243,53.98919677734375 201.39620971679688,53.98919677734375 201.39620971679688,54.449933370993335 201.39620971679688,57.19993379940178 201.39620971679688,57.70874629095739 201.39620971679688,57.98919677734375 202.56848026072373,57.98919677734375 202.7428501061576,57.98919677734375 202.938230186386,57.98919677734375 "></polygon>
<polygon units="mm" style="fill: white" points="91.88929748535156,137.82945292579655 91.88929748535156,137.98919677734375 91.96190792407398,137.98919677734375 93.67146616918431,137.98919677734375 93.88929748535156,137.98919677734375 93.88929748535156,137.82945292579655 93.88929748535156,136.1198946806862 93.88929748535156,135.98919677734375 93.67146616918431,135.98919677734375 91.96190792407398,135.98919677734375 91.88929748535156,135.98919677734375 91.88929748535156,136.1198946806862 "></polygon>
<polygon units="mm" style="fill: white" points="215.39620971679688,141.48919677734375 215.39620971679688,141.41658633862133 215.39620971679688,140.98919677734375 214.9688201555193,140.98919677734375 214.89620971679688,140.98919677734375 214.89620971679688,141.41658633862133 214.89620971679688,141.48919677734375 215.32359927807445,141.48919677734375 "></polygon>
<polygon units="mm" style="fill: white" points="202.39620971679688,147.9266964560374 202.39620971679688,149.98919677734375 202.91721995159145,149.98919677734375 203.11260003181985,149.98919677734375 204.158819104423,149.98919677734375 204.25474087037267,149.98919677734375 205.39620971679688,149.98919677734375 205.39620971679688,149.0516970986501 205.39620971679688,146.98919677734375 204.158819104423,146.98919677734375 203.9634390241946,146.98919677734375 202.91721995159145,146.98919677734375 202.39620971679688,146.98919677734375 "></polygon>
<polygon units="mm" style="fill: white" points="213.4688201555193,137.98919677734375 215.17837840062964,137.98919677734375 215.39620971679688,137.98919677734375 215.39620971679688,137.82945292579655 215.39620971679688,136.1198946806862 215.39620971679688,135.98919677734375 215.17837840062964,135.98919677734375 213.4688201555193,135.98919677734375 213.39620971679688,135.98919677734375 213.39620971679688,136.1198946806862 213.39620971679688,137.82945292579655 213.39620971679688,137.98919677734375 "></polygon>
<polygon units="mm" style="fill: white" points="215.39620971679688,52.98919677734375 214.9688201555193,52.98919677734375 214.89620971679688,52.98919677734375 214.89620971679688,53.416586338621336 214.89620971679688,53.48919677734375 215.32359927807445,53.48919677734375 215.39620971679688,53.48919677734375 215.39620971679688,53.416586338621336 "></polygon>
<polygon units="mm" style="fill: white" points="79.88929748535156,57.19993379940178 79.88929748535156,57.70874629095739 79.88929748535156,57.98919677734375 81.0615680292784,57.98919677734375 81.23593787471226,57.98919677734375 81.43131298621884,57.98919677734375 82.65190190425585,57.98919677734375 82.74782405537782,57.98919677734375 83.88929748535156,57.98919677734375 83.88929748535156,57.70874629095739 83.88929748535156,54.95874586254895 83.88929748535156,54.449933370993335 83.88929748535156,53.98919677734375 82.65190190425585,53.98919677734375 81.43131298621884,53.98919677734375 81.23593787471226,53.98919677734375 81.0615680292784,53.98919677734375 80.97069433133711,53.98919677734375 79.88929748535156,53.98919677734375 79.88929748535156,54.449933370993335 "></polygon>
<polygon units="mm" style="fill: white" points="205.39620971679688,145.7087450988649 205.39620971679688,142.95874467045647 205.39620971679688,142.4499357551783 205.39620971679688,141.98919677734375 204.158819104423,141.98919677734375 202.938230186386,141.98919677734375 202.7428501061576,141.98919677734375 202.56848026072373,141.98919677734375 202.47760656278243,141.98919677734375 201.39620971679688,141.98919677734375 201.39620971679688,142.4499357551783 201.39620971679688,145.19993618358674 201.39620971679688,145.7087450988649 201.39620971679688,145.98919677734375 202.56848026072373,145.98919677734375 202.7428501061576,145.98919677734375 202.938230186386,145.98919677734375 204.158819104423,145.98919677734375 204.25474087037267,145.98919677734375 205.39620971679688,145.98919677734375 "></polygon>
<polygon units="mm" style="fill: white" points="215.39620971679688,139.8439758998989 215.39620971679688,138.98919677734375 214.54143059424172,138.98919677734375 214.39620971679688,138.98919677734375 214.39620971679688,139.8439758998989 214.39620971679688,139.98919677734375 215.25098883935203,139.98919677734375 215.39620971679688,139.98919677734375 "></polygon>
<polygon units="mm" style="fill: white" points="215.25098883935203,51.98919677734375 215.39620971679688,51.98919677734375 215.39620971679688,51.84397589989892 215.39620971679688,50.98919677734375 214.54143059424172,50.98919677734375 214.39620971679688,50.98919677734375 214.39620971679688,51.84397589989892 214.39620971679688,51.98919677734375 "></polygon>
<polygon units="mm" style="fill: white" points="93.88929748535156,139.8439758998989 93.88929748535156,138.98919677734375 93.03451836279639,138.98919677734375 92.88929748535156,138.98919677734375 92.88929748535156,139.8439758998989 92.88929748535156,139.98919677734375 93.74407660790673,139.98919677734375 93.88929748535156,139.98919677734375 "></polygon>
<polygon units="mm" style="fill: white" points="93.03451836279639,50.98919677734375 92.88929748535156,50.98919677734375 92.88929748535156,51.84397589989892 92.88929748535156,51.98919677734375 93.74407660790673,51.98919677734375 93.88929748535156,51.98919677734375 93.88929748535156,51.84397589989892 93.88929748535156,50.98919677734375 "></polygon>
<polygon units="mm" style="fill: white" points="204.158819104423,58.98919677734375 203.9634390241946,58.98919677734375 202.91721995159145,58.98919677734375 202.39620971679688,58.98919677734375 202.39620971679688,59.92669645603742 202.39620971679688,61.98919677734375 202.91721995159145,61.98919677734375 203.11260003181985,61.98919677734375 204.158819104423,61.98919677734375 204.25474087037267,61.98919677734375 205.39620971679688,61.98919677734375 205.39620971679688,61.05169709865008 205.39620971679688,58.98919677734375 "></polygon>
<polygon units="mm" style="fill: white" points="93.81668704662914,141.48919677734375 93.88929748535156,141.48919677734375 93.88929748535156,141.41658633862133 93.88929748535156,140.98919677734375 93.46190792407398,140.98919677734375 93.38929748535156,140.98919677734375 93.38929748535156,141.41658633862133 93.38929748535156,141.48919677734375 "></polygon>
<polygon units="mm" style="fill: white" points="93.38929748535156,53.48919677734375 93.81668704662914,53.48919677734375 93.88929748535156,53.48919677734375 93.88929748535156,53.416586338621336 93.88929748535156,52.98919677734375 93.46190792407398,52.98919677734375 93.38929748535156,52.98919677734375 93.38929748535156,53.416586338621336 "></polygon><text x="152.4" y="203.2" fill="black">1</text></svg>