solid
 facet normal  1.000000e+00 -0.000000e+00  0.000000e+00
   outer loop
     vertex  5.500000e+01 -5.414200e+01  2.500000e+01
     vertex  5.500000e+01 -5.414200e+01  0.000000e+00
     vertex  5.500000e+01  5.414200e+01  0.000000e+00
   endloop
 endfacet
 facet normal  1.000000e+00  0.000000e+00  0.000000e+00
   outer loop
     vertex  5.500000e+01  5.414200e+01  2.500000e+01
     vertex  5.500000e+01 -5.414200e+01  2.500000e+01
     vertex  5.500000e+01  5.414200e+01  0.000000e+00
   endloop
 endfacet
 facet normal  7.071068e-01 -7.071068e-01  0.000000e+00
   outer loop
     vertex  4.914200e+01 -6.000000e+01  2.500000e+01
     vertex  4.914200e+01 -6.000000e+01  0.000000e+00
     vertex  5.500000e+01 -5.414200e+01  0.000000e+00
   endloop
 endfacet
 facet normal  7.071068e-01 -7.071068e-01  0.000000e+00
   outer loop
     vertex  5.500000e+01 -5.414200e+01  2.500000e+01
     vertex  4.914200e+01 -6.000000e+01  2.500000e+01
     vertex  5.500000e+01 -5.414200e+01  0.000000e+00
   endloop
 endfacet
 facet normal  7.071068e-01  7.071068e-01  0.000000e+00
   outer loop
     vertex  5.500000e+01  5.414200e+01  2.500000e+01
     vertex  5.500000e+01  5.414200e+01  0.000000e+00
     vertex  4.914200e+01  6.000000e+01  0.000000e+00
   endloop
 endfacet
 facet normal  7.071068e-01  7.071068e-01  0.000000e+00
   outer loop
     vertex  4.914200e+01  6.000000e+01  2.500000e+01
     vertex  5.500000e+01  5.414200e+01  2.500000e+01
     vertex  4.914200e+01  6.000000e+01  0.000000e+00
   endloop
 endfacet
 facet normal  0.000000e+00 -0.000000e+00 -1.000000e+00
   outer loop
     vertex  4.707100e+01 -5.500000e+01  0.000000e+00
     vertex  5.500000e+01 -5.414200e+01  0.000000e+00
     vertex  4.914200e+01 -6.000000e+01  0.000000e+00
   endloop
 endfacet
 facet normal  0.000000e+00  0.000000e+00 -1.000000e+00
   outer loop
     vertex  4.707100e+01 -5.500000e+01  0.000000e+00
     vertex  5.000000e+01 -5.207100e+01  0.000000e+00
     vertex  5.500000e+01 -5.414200e+01  0.000000e+00
   endloop
 endfacet
 facet normal -0.000000e+00 -0.000000e+00 -1.000000e+00
   outer loop
     vertex -4.707100e+01 -5.500000e+01  0.000000e+00
     vertex  4.914200e+01 -6.000000e+01  0.000000e+00
     vertex -4.914200e+01 -6.000000e+01  0.000000e+00
   endloop
 endfacet
 facet normal  0.000000e+00  0.000000e+00 -1.000000e+00
   outer loop
     vertex -4.707100e+01 -5.500000e+01  0.000000e+00
     vertex  4.707100e+01 -5.500000e+01  0.000000e+00
     vertex  4.914200e+01 -6.000000e+01  0.000000e+00
   endloop
 endfacet
 facet normal  0.000000e+00  0.000000e+00 -1.000000e+00
   outer loop
     vertex -5.500000e+01 -5.414200e+01  0.000000e+00
     vertex -5.000000e+01 -5.207100e+01  0.000000e+00
     vertex -4.707100e+01 -5.500000e+01  0.000000e+00
   endloop
 endfacet
 facet normal  0.000000e+00 -0.000000e+00 -1.000000e+00
   outer loop
     vertex -5.500000e+01 -5.414200e+01  0.000000e+00
     vertex -4.707100e+01 -5.500000e+01  0.000000e+00
     vertex -4.914200e+01 -6.000000e+01  0.000000e+00
   endloop
 endfacet
 facet normal  0.000000e+00  0.000000e+00 -1.000000e+00
   outer loop
     vertex  5.000000e+01  5.207100e+01  0.000000e+00
     vertex  5.500000e+01  5.414200e+01  0.000000e+00
     vertex  5.500000e+01 -5.414200e+01  0.000000e+00
   endloop
 endfacet
 facet normal -0.000000e+00 -0.000000e+00 -1.000000e+00
   outer loop
     vertex  5.000000e+01  5.207100e+01  0.000000e+00
     vertex  5.500000e+01 -5.414200e+01  0.000000e+00
     vertex  5.000000e+01 -5.207100e+01  0.000000e+00
   endloop
 endfacet
 facet normal -0.000000e+00 -0.000000e+00 -1.000000e+00
   outer loop
     vertex  4.914200e+01  6.000000e+01  0.000000e+00
     vertex  5.000000e+01  5.207100e+01  0.000000e+00
     vertex  4.707100e+01  5.500000e+01  0.000000e+00
   endloop
 endfacet
 facet normal  0.000000e+00 -0.000000e+00 -1.000000e+00
   outer loop
     vertex  4.914200e+01  6.000000e+01  0.000000e+00
     vertex  5.500000e+01  5.414200e+01  0.000000e+00
     vertex  5.000000e+01  5.207100e+01  0.000000e+00
   endloop
 endfacet
 facet normal -0.000000e+00 -0.000000e+00 -1.000000e+00
   outer loop
     vertex -4.914200e+01  6.000000e+01  0.000000e+00
     vertex  4.707100e+01  5.500000e+01  0.000000e+00
     vertex -4.707100e+01  5.500000e+01  0.000000e+00
   endloop
 endfacet
 facet normal  0.000000e+00 -0.000000e+00 -1.000000e+00
   outer loop
     vertex -4.914200e+01  6.000000e+01  0.000000e+00
     vertex  4.914200e+01  6.000000e+01  0.000000e+00
     vertex  4.707100e+01  5.500000e+01  0.000000e+00
   endloop
 endfacet
 facet normal  0.000000e+00 -0.000000e+00 -1.000000e+00
   outer loop
     vertex -5.500000e+01  5.414200e+01  0.000000e+00
     vertex -4.707100e+01  5.500000e+01  0.000000e+00
     vertex -5.000000e+01  5.207100e+01  0.000000e+00
   endloop
 endfacet
 facet normal  0.000000e+00  0.000000e+00 -1.000000e+00
   outer loop
     vertex -5.500000e+01  5.414200e+01  0.000000e+00
     vertex -5.000000e+01  5.207100e+01  0.000000e+00
     vertex -5.000000e+01 -5.207100e+01  0.000000e+00
   endloop
 endfacet
 facet normal  0.000000e+00 -0.000000e+00 -1.000000e+00
   outer loop
     vertex -5.500000e+01  5.414200e+01  0.000000e+00
     vertex -5.000000e+01 -5.207100e+01  0.000000e+00
     vertex -5.500000e+01 -5.414200e+01  0.000000e+00
   endloop
 endfacet
 facet normal  0.000000e+00  0.000000e+00 -1.000000e+00
   outer loop
     vertex -5.500000e+01  5.414200e+01  0.000000e+00
     vertex -4.914200e+01  6.000000e+01  0.000000e+00
     vertex -4.707100e+01  5.500000e+01  0.000000e+00
   endloop
 endfacet
 facet normal  0.000000e+00 -0.000000e+00  1.000000e+00
   outer loop
     vertex  4.914200e+01 -6.000000e+01  2.500000e+01
     vertex  5.500000e+01 -5.414200e+01  2.500000e+01
     vertex  5.000000e+01 -5.207100e+01  2.500000e+01
   endloop
 endfacet
 facet normal -0.000000e+00  0.000000e+00  1.000000e+00
   outer loop
     vertex  4.707100e+01 -5.500000e+01  2.500000e+01
     vertex  4.914200e+01 -6.000000e+01  2.500000e+01
     vertex  5.000000e+01 -5.207100e+01  2.500000e+01
   endloop
 endfacet
 facet normal  0.000000e+00 -0.000000e+00  1.000000e+00
   outer loop
     vertex -4.914200e+01 -6.000000e+01  2.500000e+01
     vertex  4.914200e+01 -6.000000e+01  2.500000e+01
     vertex -4.707100e+01 -5.500000e+01  2.500000e+01
   endloop
 endfacet
 facet normal  0.000000e+00  0.000000e+00  1.000000e+00
   outer loop
     vertex  4.914200e+01 -6.000000e+01  2.500000e+01
     vertex  4.707100e+01 -5.500000e+01  2.500000e+01
     vertex -4.707100e+01 -5.500000e+01  2.500000e+01
   endloop
 endfacet
 facet normal  0.000000e+00  0.000000e+00  1.000000e+00
   outer loop
     vertex -4.707100e+01 -5.500000e+01  2.500000e+01
     vertex -5.000000e+01 -5.207100e+01  2.500000e+01
     vertex -5.500000e+01 -5.414200e+01  2.500000e+01
   endloop
 endfacet
 facet normal  0.000000e+00 -0.000000e+00  1.000000e+00
   outer loop
     vertex -4.914200e+01 -6.000000e+01  2.500000e+01
     vertex -4.707100e+01 -5.500000e+01  2.500000e+01
     vertex -5.500000e+01 -5.414200e+01  2.500000e+01
   endloop
 endfacet
 facet normal  0.000000e+00 -0.000000e+00  1.000000e+00
   outer loop
     vertex  5.500000e+01 -5.414200e+01  2.500000e+01
     vertex  5.500000e+01  5.414200e+01  2.500000e+01
     vertex  5.000000e+01  5.207100e+01  2.500000e+01
   endloop
 endfacet
 facet normal -0.000000e+00 -0.000000e+00  1.000000e+00
   outer loop
     vertex  5.000000e+01 -5.207100e+01  2.500000e+01
     vertex  5.500000e+01 -5.414200e+01  2.500000e+01
     vertex  5.000000e+01  5.207100e+01  2.500000e+01
   endloop
 endfacet
 facet normal -0.000000e+00 -0.000000e+00  1.000000e+00
   outer loop
     vertex  4.707100e+01  5.500000e+01  2.500000e+01
     vertex  5.000000e+01  5.207100e+01  2.500000e+01
     vertex  4.914200e+01  6.000000e+01  2.500000e+01
   endloop
 endfacet
 facet normal  0.000000e+00 -0.000000e+00  1.000000e+00
   outer loop
     vertex  5.000000e+01  5.207100e+01  2.500000e+01
     vertex  5.500000e+01  5.414200e+01  2.500000e+01
     vertex  4.914200e+01  6.000000e+01  2.500000e+01
   endloop
 endfacet
 facet normal  0.000000e+00 -0.000000e+00  1.000000e+00
   outer loop
     vertex -4.707100e+01  5.500000e+01  2.500000e+01
     vertex  4.707100e+01  5.500000e+01  2.500000e+01
     vertex -4.914200e+01  6.000000e+01  2.500000e+01
   endloop
 endfacet
 facet normal  0.000000e+00 -0.000000e+00  1.000000e+00
   outer loop
     vertex  4.707100e+01  5.500000e+01  2.500000e+01
     vertex  4.914200e+01  6.000000e+01  2.500000e+01
     vertex -4.914200e+01  6.000000e+01  2.500000e+01
   endloop
 endfacet
 facet normal  0.000000e+00 -0.000000e+00  1.000000e+00
   outer loop
     vertex -5.000000e+01 -5.207100e+01  2.500000e+01
     vertex -5.000000e+01  5.207100e+01  2.500000e+01
     vertex -5.500000e+01  5.414200e+01  2.500000e+01
   endloop
 endfacet
 facet normal  0.000000e+00 -0.000000e+00  1.000000e+00
   outer loop
     vertex -5.000000e+01  5.207100e+01  2.500000e+01
     vertex -4.707100e+01  5.500000e+01  2.500000e+01
     vertex -5.500000e+01  5.414200e+01  2.500000e+01
   endloop
 endfacet
 facet normal  0.000000e+00 -0.000000e+00  1.000000e+00
   outer loop
     vertex -5.500000e+01 -5.414200e+01  2.500000e+01
     vertex -5.000000e+01 -5.207100e+01  2.500000e+01
     vertex -5.500000e+01  5.414200e+01  2.500000e+01
   endloop
 endfacet
 facet normal  0.000000e+00  0.000000e+00  1.000000e+00
   outer loop
     vertex -4.707100e+01  5.500000e+01  2.500000e+01
     vertex -4.914200e+01  6.000000e+01  2.500000e+01
     vertex -5.500000e+01  5.414200e+01  2.500000e+01
   endloop
 endfacet
 facet normal  0.000000e+00 -1.000000e+00  0.000000e+00
   outer loop
     vertex -4.914200e+01 -6.000000e+01  2.500000e+01
     vertex -4.914200e+01 -6.000000e+01  0.000000e+00
     vertex  4.914200e+01 -6.000000e+01  0.000000e+00
   endloop
 endfacet
 facet normal -0.000000e+00 -1.000000e+00 -0.000000e+00
   outer loop
     vertex  4.914200e+01 -6.000000e+01  2.500000e+01
     vertex -4.914200e+01 -6.000000e+01  2.500000e+01
     vertex  4.914200e+01 -6.000000e+01  0.000000e+00
   endloop
 endfacet
 facet normal  0.000000e+00  1.000000e+00  0.000000e+00
   outer loop
     vertex  4.914200e+01  6.000000e+01  2.500000e+01
     vertex  4.914200e+01  6.000000e+01  0.000000e+00
     vertex -4.914200e+01  6.000000e+01  0.000000e+00
   endloop
 endfacet
 facet normal -0.000000e+00  1.000000e+00  0.000000e+00
   outer loop
     vertex -4.914200e+01  6.000000e+01  2.500000e+01
     vertex  4.914200e+01  6.000000e+01  2.500000e+01
     vertex -4.914200e+01  6.000000e+01  0.000000e+00
   endloop
 endfacet
 facet normal -7.071068e-01 -7.071068e-01 -0.000000e+00
   outer loop
     vertex -5.500000e+01 -5.414200e+01  2.500000e+01
     vertex -5.500000e+01 -5.414200e+01  0.000000e+00
     vertex -4.914200e+01 -6.000000e+01  0.000000e+00
   endloop
 endfacet
 facet normal -7.071068e-01 -7.071068e-01  0.000000e+00
   outer loop
     vertex -4.914200e+01 -6.000000e+01  2.500000e+01
     vertex -5.500000e+01 -5.414200e+01  2.500000e+01
     vertex -4.914200e+01 -6.000000e+01  0.000000e+00
   endloop
 endfacet
 facet normal -7.071068e-01  7.071068e-01  0.000000e+00
   outer loop
     vertex -4.914200e+01  6.000000e+01  2.500000e+01
     vertex -4.914200e+01  6.000000e+01  0.000000e+00
     vertex -5.500000e+01  5.414200e+01  0.000000e+00
   endloop
 endfacet
 facet normal -7.071068e-01  7.071068e-01  0.000000e+00
   outer loop
     vertex -5.500000e+01  5.414200e+01  2.500000e+01
     vertex -4.914200e+01  6.000000e+01  2.500000e+01
     vertex -5.500000e+01  5.414200e+01  0.000000e+00
   endloop
 endfacet
 facet normal -1.000000e+00 -0.000000e+00 -0.000000e+00
   outer loop
     vertex -5.500000e+01  5.414200e+01  2.500000e+01
     vertex -5.500000e+01  5.414200e+01  0.000000e+00
     vertex -5.500000e+01 -5.414200e+01  0.000000e+00
   endloop
 endfacet
 facet normal -1.000000e+00  0.000000e+00 -0.000000e+00
   outer loop
     vertex -5.500000e+01 -5.414200e+01  2.500000e+01
     vertex -5.500000e+01  5.414200e+01  2.500000e+01
     vertex -5.500000e+01 -5.414200e+01  0.000000e+00
   endloop
 endfacet
 facet normal  7.071068e-01 -7.071068e-01  0.000000e+00
   outer loop
     vertex -5.000000e+01  5.207100e+01  0.000000e+00
     vertex -4.707100e+01  5.500000e+01  0.000000e+00
     vertex -4.707100e+01  5.500000e+01  2.500000e+01
   endloop
 endfacet
 facet normal  7.071068e-01 -7.071068e-01  0.000000e+00
   outer loop
     vertex -5.000000e+01  5.207100e+01  0.000000e+00
     vertex -4.707100e+01  5.500000e+01  2.500000e+01
     vertex -5.000000e+01  5.207100e+01  2.500000e+01
   endloop
 endfacet
 facet normal  0.000000e+00 -1.000000e+00  0.000000e+00
   outer loop
     vertex -4.707100e+01  5.500000e+01  0.000000e+00
     vertex  4.707100e+01  5.500000e+01  0.000000e+00
     vertex  4.707100e+01  5.500000e+01  2.500000e+01
   endloop
 endfacet
 facet normal  0.000000e+00 -1.000000e+00  0.000000e+00
   outer loop
     vertex -4.707100e+01  5.500000e+01  0.000000e+00
     vertex  4.707100e+01  5.500000e+01  2.500000e+01
     vertex -4.707100e+01  5.500000e+01  2.500000e+01
   endloop
 endfacet
 facet normal -7.071068e-01 -7.071068e-01  0.000000e+00
   outer loop
     vertex  4.707100e+01  5.500000e+01  0.000000e+00
     vertex  5.000000e+01  5.207100e+01  0.000000e+00
     vertex  5.000000e+01  5.207100e+01  2.500000e+01
   endloop
 endfacet
 facet normal -7.071068e-01 -7.071068e-01  0.000000e+00
   outer loop
     vertex  4.707100e+01  5.500000e+01  0.000000e+00
     vertex  5.000000e+01  5.207100e+01  2.500000e+01
     vertex  4.707100e+01  5.500000e+01  2.500000e+01
   endloop
 endfacet
 facet normal -1.000000e+00 -0.000000e+00  0.000000e+00
   outer loop
     vertex  5.000000e+01  5.207100e+01  2.500000e+01
     vertex  5.000000e+01 -5.207100e+01  0.000000e+00
     vertex  5.000000e+01 -5.207100e+01  2.500000e+01
   endloop
 endfacet
 facet normal -1.000000e+00  0.000000e+00  0.000000e+00
   outer loop
     vertex  5.000000e+01  5.207100e+01  0.000000e+00
     vertex  5.000000e+01 -5.207100e+01  0.000000e+00
     vertex  5.000000e+01  5.207100e+01  2.500000e+01
   endloop
 endfacet
 facet normal -7.071068e-01  7.071068e-01  0.000000e+00
   outer loop
     vertex  5.000000e+01 -5.207100e+01  0.000000e+00
     vertex  4.707100e+01 -5.500000e+01  0.000000e+00
     vertex  4.707100e+01 -5.500000e+01  2.500000e+01
   endloop
 endfacet
 facet normal -7.071068e-01  7.071068e-01  0.000000e+00
   outer loop
     vertex  5.000000e+01 -5.207100e+01  0.000000e+00
     vertex  4.707100e+01 -5.500000e+01  2.500000e+01
     vertex  5.000000e+01 -5.207100e+01  2.500000e+01
   endloop
 endfacet
 facet normal  0.000000e+00  1.000000e+00 -0.000000e+00
   outer loop
     vertex  4.707100e+01 -5.500000e+01  0.000000e+00
     vertex -4.707100e+01 -5.500000e+01  0.000000e+00
     vertex -4.707100e+01 -5.500000e+01  2.500000e+01
   endloop
 endfacet
 facet normal  0.000000e+00  1.000000e+00 -0.000000e+00
   outer loop
     vertex  4.707100e+01 -5.500000e+01  0.000000e+00
     vertex -4.707100e+01 -5.500000e+01  2.500000e+01
     vertex  4.707100e+01 -5.500000e+01  2.500000e+01
   endloop
 endfacet
 facet normal  7.071068e-01  7.071068e-01 -0.000000e+00
   outer loop
     vertex -4.707100e+01 -5.500000e+01  0.000000e+00
     vertex -5.000000e+01 -5.207100e+01  0.000000e+00
     vertex -5.000000e+01 -5.207100e+01  2.500000e+01
   endloop
 endfacet
 facet normal  7.071068e-01  7.071068e-01  0.000000e+00
   outer loop
     vertex -4.707100e+01 -5.500000e+01  0.000000e+00
     vertex -5.000000e+01 -5.207100e+01  2.500000e+01
     vertex -4.707100e+01 -5.500000e+01  2.500000e+01
   endloop
 endfacet
 facet normal  1.000000e+00 -0.000000e+00  0.000000e+00
   outer loop
     vertex -5.000000e+01 -5.207100e+01  2.500000e+01
     vertex -5.000000e+01  5.207100e+01  0.000000e+00
     vertex -5.000000e+01  5.207100e+01  2.500000e+01
   endloop
 endfacet
 facet normal  1.000000e+00  0.000000e+00 -0.000000e+00
   outer loop
     vertex -5.000000e+01 -5.207100e+01  0.000000e+00
     vertex -5.000000e+01  5.207100e+01  0.000000e+00
     vertex -5.000000e+01 -5.207100e+01  2.500000e+01
   endloop
 endfacet
endsolid
