solid
 facet normal  7.070861e-01 -7.071275e-01  0.000000e+00
   outer loop
     vertex  8.126500e+01 -3.587000e+00  1.700000e+01
     vertex  8.126500e+01 -3.587000e+00  0.000000e+00
     vertex  9.835000e+01  1.349700e+01  0.000000e+00
   endloop
 endfacet
 facet normal  7.070861e-01 -7.071275e-01  0.000000e+00
   outer loop
     vertex  9.835000e+01  1.349700e+01  1.700000e+01
     vertex  8.126500e+01 -3.587000e+00  1.700000e+01
     vertex  9.835000e+01  1.349700e+01  0.000000e+00
   endloop
 endfacet
 facet normal  7.071068e-01 -7.071068e-01  0.000000e+00
   outer loop
     vertex  7.485200e+01 -1.000000e+01  1.700000e+01
     vertex  7.485200e+01 -1.000000e+01  0.000000e+00
     vertex  8.126500e+01 -3.587000e+00  0.000000e+00
   endloop
 endfacet
 facet normal  7.071068e-01 -7.071068e-01  0.000000e+00
   outer loop
     vertex  8.126500e+01 -3.587000e+00  1.700000e+01
     vertex  7.485200e+01 -1.000000e+01  1.700000e+01
     vertex  8.126500e+01 -3.587000e+00  0.000000e+00
   endloop
 endfacet
 facet normal  7.071068e-01 -7.071068e-01  0.000000e+00
   outer loop
     vertex  9.835000e+01  1.349700e+01  1.700000e+01
     vertex  9.835000e+01  1.349700e+01  0.000000e+00
     vertex  1.514210e+02  6.656800e+01  0.000000e+00
   endloop
 endfacet
 facet normal  7.071068e-01 -7.071068e-01  0.000000e+00
   outer loop
     vertex  1.514210e+02  6.656800e+01  1.700000e+01
     vertex  9.835000e+01  1.349700e+01  1.700000e+01
     vertex  1.514210e+02  6.656800e+01  0.000000e+00
   endloop
 endfacet
 facet normal  0.000000e+00 -0.000000e+00 -1.000000e+00
   outer loop
     vertex  9.481500e+01  1.703200e+01  0.000000e+00
     vertex  9.835000e+01  1.349700e+01  0.000000e+00
     vertex  8.126500e+01 -3.587000e+00  0.000000e+00
   endloop
 endfacet
 facet normal  0.000000e+00  0.000000e+00 -1.000000e+00
   outer loop
     vertex  9.481500e+01  1.703200e+01  0.000000e+00
     vertex  9.489400e+01  1.711100e+01  0.000000e+00
     vertex  9.835000e+01  1.349700e+01  0.000000e+00
   endloop
 endfacet
 facet normal  0.000000e+00 -0.000000e+00 -1.000000e+00
   outer loop
     vertex  7.773000e+01 -5.200000e-02  0.000000e+00
     vertex  9.481500e+01  1.703200e+01  0.000000e+00
     vertex  8.126500e+01 -3.587000e+00  0.000000e+00
   endloop
 endfacet
 facet normal  0.000000e+00 -0.000000e+00 -1.000000e+00
   outer loop
     vertex  1.464210e+02  6.863900e+01  0.000000e+00
     vertex  1.514210e+02  6.656800e+01  0.000000e+00
     vertex  9.835000e+01  1.349700e+01  0.000000e+00
   endloop
 endfacet
 facet normal -0.000000e+00  0.000000e+00 -1.000000e+00
   outer loop
     vertex  1.464210e+02  6.863900e+01  0.000000e+00
     vertex  9.835000e+01  1.349700e+01  0.000000e+00
     vertex  9.489400e+01  1.711100e+01  0.000000e+00
   endloop
 endfacet
 facet normal  0.000000e+00 -0.000000e+00 -1.000000e+00
   outer loop
     vertex  7.278100e+01 -5.000000e+00  0.000000e+00
     vertex  8.126500e+01 -3.587000e+00  0.000000e+00
     vertex  7.485200e+01 -1.000000e+01  0.000000e+00
   endloop
 endfacet
 facet normal  0.000000e+00  0.000000e+00 -1.000000e+00
   outer loop
     vertex  7.278100e+01 -5.000000e+00  0.000000e+00
     vertex  7.773000e+01 -5.200000e-02  0.000000e+00
     vertex  8.126500e+01 -3.587000e+00  0.000000e+00
   endloop
 endfacet
 facet normal -0.000000e+00 -0.000000e+00 -1.000000e+00
   outer loop
     vertex  1.514210e+02  7.485200e+01  0.000000e+00
     vertex  1.514210e+02  6.656800e+01  0.000000e+00
     vertex  1.464210e+02  6.863900e+01  0.000000e+00
   endloop
 endfacet
 facet normal  0.000000e+00 -0.000000e+00 -1.000000e+00
   outer loop
     vertex  1.464210e+02  7.278100e+01  0.000000e+00
     vertex  1.514210e+02  7.485200e+01  0.000000e+00
     vertex  1.464210e+02  6.863900e+01  0.000000e+00
   endloop
 endfacet
 facet normal -0.000000e+00 -0.000000e+00 -1.000000e+00
   outer loop
     vertex  6.863900e+01 -5.000000e+00  0.000000e+00
     vertex  7.485200e+01 -1.000000e+01  0.000000e+00
     vertex  6.656800e+01 -1.000000e+01  0.000000e+00
   endloop
 endfacet
 facet normal  0.000000e+00  0.000000e+00 -1.000000e+00
   outer loop
     vertex  6.863900e+01 -5.000000e+00  0.000000e+00
     vertex  7.278100e+01 -5.000000e+00  0.000000e+00
     vertex  7.485200e+01 -1.000000e+01  0.000000e+00
   endloop
 endfacet
 facet normal  0.000000e+00 -0.000000e+00 -1.000000e+00
   outer loop
     vertex  6.369000e+01 -5.200000e-02  0.000000e+00
     vertex  6.863900e+01 -5.000000e+00  0.000000e+00
     vertex  6.656800e+01 -1.000000e+01  0.000000e+00
   endloop
 endfacet
 facet normal  0.000000e+00  0.000000e+00 -1.000000e+00
   outer loop
     vertex -1.000000e+01  6.656800e+01  0.000000e+00
     vertex -5.000000e+00  6.863900e+01  0.000000e+00
     vertex  6.369000e+01 -5.200000e-02  0.000000e+00
   endloop
 endfacet
 facet normal  0.000000e+00  0.000000e+00 -1.000000e+00
   outer loop
     vertex -1.000000e+01  6.656800e+01  0.000000e+00
     vertex  6.369000e+01 -5.200000e-02  0.000000e+00
     vertex  6.656800e+01 -1.000000e+01  0.000000e+00
   endloop
 endfacet
 facet normal -0.000000e+00 -0.000000e+00 -1.000000e+00
   outer loop
     vertex  7.485200e+01  1.514210e+02  0.000000e+00
     vertex  1.464210e+02  7.278100e+01  0.000000e+00
     vertex  7.278100e+01  1.464210e+02  0.000000e+00
   endloop
 endfacet
 facet normal  0.000000e+00 -0.000000e+00 -1.000000e+00
   outer loop
     vertex  7.485200e+01  1.514210e+02  0.000000e+00
     vertex  1.514210e+02  7.485200e+01  0.000000e+00
     vertex  1.464210e+02  7.278100e+01  0.000000e+00
   endloop
 endfacet
 facet normal  0.000000e+00 -0.000000e+00 -1.000000e+00
   outer loop
     vertex  6.863900e+01  1.464210e+02  0.000000e+00
     vertex  7.485200e+01  1.514210e+02  0.000000e+00
     vertex  7.278100e+01  1.464210e+02  0.000000e+00
   endloop
 endfacet
 facet normal  0.000000e+00  0.000000e+00 -1.000000e+00
   outer loop
     vertex -1.000000e+01  7.485200e+01  0.000000e+00
     vertex -5.000000e+00  7.278100e+01  0.000000e+00
     vertex -5.000000e+00  6.863900e+01  0.000000e+00
   endloop
 endfacet
 facet normal  0.000000e+00 -0.000000e+00 -1.000000e+00
   outer loop
     vertex -1.000000e+01  7.485200e+01  0.000000e+00
     vertex -5.000000e+00  6.863900e+01  0.000000e+00
     vertex -1.000000e+01  6.656800e+01  0.000000e+00
   endloop
 endfacet
 facet normal  0.000000e+00 -0.000000e+00 -1.000000e+00
   outer loop
     vertex  5.784800e+01  1.427000e+02  0.000000e+00
     vertex  6.138400e+01  1.391650e+02  0.000000e+00
     vertex  5.883200e+01  1.366140e+02  0.000000e+00
   endloop
 endfacet
 facet normal  0.000000e+00 -0.000000e+00 -1.000000e+00
   outer loop
     vertex  5.784800e+01  1.427000e+02  0.000000e+00
     vertex  6.863900e+01  1.464210e+02  0.000000e+00
     vertex  6.138400e+01  1.391650e+02  0.000000e+00
   endloop
 endfacet
 facet normal  0.000000e+00 -0.000000e+00 -1.000000e+00
   outer loop
     vertex  5.529600e+01  1.401490e+02  0.000000e+00
     vertex  5.883200e+01  1.366140e+02  0.000000e+00
     vertex -5.000000e+00  7.278100e+01  0.000000e+00
   endloop
 endfacet
 facet normal -0.000000e+00  0.000000e+00 -1.000000e+00
   outer loop
     vertex  5.529600e+01  1.401490e+02  0.000000e+00
     vertex -5.000000e+00  7.278100e+01  0.000000e+00
     vertex -1.000000e+01  7.485200e+01  0.000000e+00
   endloop
 endfacet
 facet normal  0.000000e+00  0.000000e+00 -1.000000e+00
   outer loop
     vertex  5.529600e+01  1.401490e+02  0.000000e+00
     vertex  5.784800e+01  1.427000e+02  0.000000e+00
     vertex  5.883200e+01  1.366140e+02  0.000000e+00
   endloop
 endfacet
 facet normal  0.000000e+00 -0.000000e+00 -1.000000e+00
   outer loop
     vertex  6.656700e+01  1.514210e+02  0.000000e+00
     vertex  7.485200e+01  1.514210e+02  0.000000e+00
     vertex  6.863900e+01  1.464210e+02  0.000000e+00
   endloop
 endfacet
 facet normal  0.000000e+00 -0.000000e+00 -1.000000e+00
   outer loop
     vertex  6.656700e+01  1.514210e+02  0.000000e+00
     vertex  6.863900e+01  1.464210e+02  0.000000e+00
     vertex  5.784800e+01  1.427000e+02  0.000000e+00
   endloop
 endfacet
 facet normal  0.000000e+00 -0.000000e+00  1.000000e+00
   outer loop
     vertex  8.126500e+01 -3.587000e+00  1.700000e+01
     vertex  9.835000e+01  1.349700e+01  1.700000e+01
     vertex  9.481500e+01  1.703200e+01  1.700000e+01
   endloop
 endfacet
 facet normal  0.000000e+00  0.000000e+00  1.000000e+00
   outer loop
     vertex  9.835000e+01  1.349700e+01  1.700000e+01
     vertex  9.489400e+01  1.711100e+01  1.700000e+01
     vertex  9.481500e+01  1.703200e+01  1.700000e+01
   endloop
 endfacet
 facet normal  0.000000e+00 -0.000000e+00  1.000000e+00
   outer loop
     vertex  8.126500e+01 -3.587000e+00  1.700000e+01
     vertex  9.481500e+01  1.703200e+01  1.700000e+01
     vertex  7.773000e+01 -5.200000e-02  1.700000e+01
   endloop
 endfacet
 facet normal  0.000000e+00 -0.000000e+00  1.000000e+00
   outer loop
     vertex  9.835000e+01  1.349700e+01  1.700000e+01
     vertex  1.514210e+02  6.656800e+01  1.700000e+01
     vertex  1.464210e+02  6.863900e+01  1.700000e+01
   endloop
 endfacet
 facet normal -0.000000e+00  0.000000e+00  1.000000e+00
   outer loop
     vertex  9.489400e+01  1.711100e+01  1.700000e+01
     vertex  9.835000e+01  1.349700e+01  1.700000e+01
     vertex  1.464210e+02  6.863900e+01  1.700000e+01
   endloop
 endfacet
 facet normal  0.000000e+00 -0.000000e+00  1.000000e+00
   outer loop
     vertex  7.485200e+01 -1.000000e+01  1.700000e+01
     vertex  8.126500e+01 -3.587000e+00  1.700000e+01
     vertex  7.278100e+01 -5.000000e+00  1.700000e+01
   endloop
 endfacet
 facet normal  0.000000e+00  0.000000e+00  1.000000e+00
   outer loop
     vertex  8.126500e+01 -3.587000e+00  1.700000e+01
     vertex  7.773000e+01 -5.200000e-02  1.700000e+01
     vertex  7.278100e+01 -5.000000e+00  1.700000e+01
   endloop
 endfacet
 facet normal -0.000000e+00  0.000000e+00  1.000000e+00
   outer loop
     vertex  1.464210e+02  6.863900e+01  1.700000e+01
     vertex  1.514210e+02  6.656800e+01  1.700000e+01
     vertex  1.514210e+02  7.485200e+01  1.700000e+01
   endloop
 endfacet
 facet normal  0.000000e+00 -0.000000e+00  1.000000e+00
   outer loop
     vertex  1.464210e+02  6.863900e+01  1.700000e+01
     vertex  1.514210e+02  7.485200e+01  1.700000e+01
     vertex  1.464210e+02  7.278100e+01  1.700000e+01
   endloop
 endfacet
 facet normal  0.000000e+00 -0.000000e+00  1.000000e+00
   outer loop
     vertex  6.656800e+01 -1.000000e+01  1.700000e+01
     vertex  7.485200e+01 -1.000000e+01  1.700000e+01
     vertex  6.863900e+01 -5.000000e+00  1.700000e+01
   endloop
 endfacet
 facet normal  0.000000e+00  0.000000e+00  1.000000e+00
   outer loop
     vertex  7.485200e+01 -1.000000e+01  1.700000e+01
     vertex  7.278100e+01 -5.000000e+00  1.700000e+01
     vertex  6.863900e+01 -5.000000e+00  1.700000e+01
   endloop
 endfacet
 facet normal  0.000000e+00 -0.000000e+00  1.000000e+00
   outer loop
     vertex  6.656800e+01 -1.000000e+01  1.700000e+01
     vertex  6.863900e+01 -5.000000e+00  1.700000e+01
     vertex  6.369000e+01 -5.200000e-02  1.700000e+01
   endloop
 endfacet
 facet normal  0.000000e+00  0.000000e+00  1.000000e+00
   outer loop
     vertex  6.369000e+01 -5.200000e-02  1.700000e+01
     vertex -5.000000e+00  6.863900e+01  1.700000e+01
     vertex -1.000000e+01  6.656800e+01  1.700000e+01
   endloop
 endfacet
 facet normal  0.000000e+00  0.000000e+00  1.000000e+00
   outer loop
     vertex  6.656800e+01 -1.000000e+01  1.700000e+01
     vertex  6.369000e+01 -5.200000e-02  1.700000e+01
     vertex -1.000000e+01  6.656800e+01  1.700000e+01
   endloop
 endfacet
 facet normal -0.000000e+00 -0.000000e+00  1.000000e+00
   outer loop
     vertex  7.278100e+01  1.464210e+02  1.700000e+01
     vertex  1.464210e+02  7.278100e+01  1.700000e+01
     vertex  7.485200e+01  1.514210e+02  1.700000e+01
   endloop
 endfacet
 facet normal  0.000000e+00 -0.000000e+00  1.000000e+00
   outer loop
     vertex  1.464210e+02  7.278100e+01  1.700000e+01
     vertex  1.514210e+02  7.485200e+01  1.700000e+01
     vertex  7.485200e+01  1.514210e+02  1.700000e+01
   endloop
 endfacet
 facet normal  0.000000e+00 -0.000000e+00  1.000000e+00
   outer loop
     vertex  7.278100e+01  1.464210e+02  1.700000e+01
     vertex  7.485200e+01  1.514210e+02  1.700000e+01
     vertex  6.863900e+01  1.464210e+02  1.700000e+01
   endloop
 endfacet
 facet normal  0.000000e+00 -0.000000e+00  1.000000e+00
   outer loop
     vertex -5.000000e+00  6.863900e+01  1.700000e+01
     vertex -5.000000e+00  7.278100e+01  1.700000e+01
     vertex -1.000000e+01  7.485200e+01  1.700000e+01
   endloop
 endfacet
 facet normal  0.000000e+00 -0.000000e+00  1.000000e+00
   outer loop
     vertex -1.000000e+01  6.656800e+01  1.700000e+01
     vertex -5.000000e+00  6.863900e+01  1.700000e+01
     vertex -1.000000e+01  7.485200e+01  1.700000e+01
   endloop
 endfacet
 facet normal  0.000000e+00 -0.000000e+00  1.000000e+00
   outer loop
     vertex  5.883200e+01  1.366140e+02  1.700000e+01
     vertex  6.138400e+01  1.391650e+02  1.700000e+01
     vertex  5.784800e+01  1.427000e+02  1.700000e+01
   endloop
 endfacet
 facet normal  0.000000e+00 -0.000000e+00  1.000000e+00
   outer loop
     vertex  6.138400e+01  1.391650e+02  1.700000e+01
     vertex  6.863900e+01  1.464210e+02  1.700000e+01
     vertex  5.784800e+01  1.427000e+02  1.700000e+01
   endloop
 endfacet
 facet normal  0.000000e+00 -0.000000e+00  1.000000e+00
   outer loop
     vertex -5.000000e+00  7.278100e+01  1.700000e+01
     vertex  5.883200e+01  1.366140e+02  1.700000e+01
     vertex  5.529600e+01  1.401490e+02  1.700000e+01
   endloop
 endfacet
 facet normal -0.000000e+00  0.000000e+00  1.000000e+00
   outer loop
     vertex -1.000000e+01  7.485200e+01  1.700000e+01
     vertex -5.000000e+00  7.278100e+01  1.700000e+01
     vertex  5.529600e+01  1.401490e+02  1.700000e+01
   endloop
 endfacet
 facet normal  0.000000e+00  0.000000e+00  1.000000e+00
   outer loop
     vertex  5.883200e+01  1.366140e+02  1.700000e+01
     vertex  5.784800e+01  1.427000e+02  1.700000e+01
     vertex  5.529600e+01  1.401490e+02  1.700000e+01
   endloop
 endfacet
 facet normal  0.000000e+00 -0.000000e+00  1.000000e+00
   outer loop
     vertex  6.863900e+01  1.464210e+02  1.700000e+01
     vertex  7.485200e+01  1.514210e+02  1.700000e+01
     vertex  6.656700e+01  1.514210e+02  1.700000e+01
   endloop
 endfacet
 facet normal  0.000000e+00 -0.000000e+00  1.000000e+00
   outer loop
     vertex  5.784800e+01  1.427000e+02  1.700000e+01
     vertex  6.863900e+01  1.464210e+02  1.700000e+01
     vertex  6.656700e+01  1.514210e+02  1.700000e+01
   endloop
 endfacet
 facet normal  0.000000e+00 -1.000000e+00  0.000000e+00
   outer loop
     vertex  6.656800e+01 -1.000000e+01  1.700000e+01
     vertex  6.656800e+01 -1.000000e+01  0.000000e+00
     vertex  7.485200e+01 -1.000000e+01  0.000000e+00
   endloop
 endfacet
 facet normal -0.000000e+00 -1.000000e+00 -0.000000e+00
   outer loop
     vertex  7.485200e+01 -1.000000e+01  1.700000e+01
     vertex  6.656800e+01 -1.000000e+01  1.700000e+01
     vertex  7.485200e+01 -1.000000e+01  0.000000e+00
   endloop
 endfacet
 facet normal  1.000000e+00 -0.000000e+00  0.000000e+00
   outer loop
     vertex  1.514210e+02  6.656800e+01  1.700000e+01
     vertex  1.514210e+02  6.656800e+01  0.000000e+00
     vertex  1.514210e+02  7.485200e+01  0.000000e+00
   endloop
 endfacet
 facet normal  1.000000e+00  0.000000e+00  0.000000e+00
   outer loop
     vertex  1.514210e+02  7.485200e+01  1.700000e+01
     vertex  1.514210e+02  6.656800e+01  1.700000e+01
     vertex  1.514210e+02  7.485200e+01  0.000000e+00
   endloop
 endfacet
 facet normal -7.071068e-01 -7.071068e-01 -0.000000e+00
   outer loop
     vertex -1.000000e+01  6.656800e+01  1.700000e+01
     vertex -1.000000e+01  6.656800e+01  0.000000e+00
     vertex  6.656800e+01 -1.000000e+01  1.700000e+01
   endloop
 endfacet
 facet normal -7.071068e-01 -7.071068e-01  0.000000e+00
   outer loop
     vertex  6.656800e+01 -1.000000e+01  1.700000e+01
     vertex -1.000000e+01  6.656800e+01  0.000000e+00
     vertex  6.656800e+01 -1.000000e+01  0.000000e+00
   endloop
 endfacet
 facet normal  7.071068e-01  7.071068e-01  0.000000e+00
   outer loop
     vertex  1.514210e+02  7.485200e+01  1.700000e+01
     vertex  1.514210e+02  7.485200e+01  0.000000e+00
     vertex  7.485200e+01  1.514210e+02  0.000000e+00
   endloop
 endfacet
 facet normal  7.071068e-01  7.071068e-01  0.000000e+00
   outer loop
     vertex  7.485200e+01  1.514210e+02  1.700000e+01
     vertex  1.514210e+02  7.485200e+01  1.700000e+01
     vertex  7.485200e+01  1.514210e+02  0.000000e+00
   endloop
 endfacet
 facet normal -1.000000e+00 -0.000000e+00 -0.000000e+00
   outer loop
     vertex -1.000000e+01  7.485200e+01  1.700000e+01
     vertex -1.000000e+01  7.485200e+01  0.000000e+00
     vertex -1.000000e+01  6.656800e+01  0.000000e+00
   endloop
 endfacet
 facet normal -1.000000e+00  0.000000e+00 -0.000000e+00
   outer loop
     vertex -1.000000e+01  6.656800e+01  1.700000e+01
     vertex -1.000000e+01  7.485200e+01  1.700000e+01
     vertex -1.000000e+01  6.656800e+01  0.000000e+00
   endloop
 endfacet
 facet normal  0.000000e+00  1.000000e+00  0.000000e+00
   outer loop
     vertex  7.485200e+01  1.514210e+02  1.700000e+01
     vertex  7.485200e+01  1.514210e+02  0.000000e+00
     vertex  6.656700e+01  1.514210e+02  0.000000e+00
   endloop
 endfacet
 facet normal -0.000000e+00  1.000000e+00  0.000000e+00
   outer loop
     vertex  6.656700e+01  1.514210e+02  1.700000e+01
     vertex  7.485200e+01  1.514210e+02  1.700000e+01
     vertex  6.656700e+01  1.514210e+02  0.000000e+00
   endloop
 endfacet
 facet normal -7.071122e-01  7.071014e-01  0.000000e+00
   outer loop
     vertex  5.529600e+01  1.401490e+02  1.700000e+01
     vertex  5.529600e+01  1.401490e+02  0.000000e+00
     vertex -1.000000e+01  7.485200e+01  0.000000e+00
   endloop
 endfacet
 facet normal -7.071122e-01  7.071014e-01  0.000000e+00
   outer loop
     vertex -1.000000e+01  7.485200e+01  1.700000e+01
     vertex  5.529600e+01  1.401490e+02  1.700000e+01
     vertex -1.000000e+01  7.485200e+01  0.000000e+00
   endloop
 endfacet
 facet normal -7.071879e-01  7.070257e-01  0.000000e+00
   outer loop
     vertex  6.656700e+01  1.514210e+02  1.700000e+01
     vertex  6.656700e+01  1.514210e+02  0.000000e+00
     vertex  5.784800e+01  1.427000e+02  0.000000e+00
   endloop
 endfacet
 facet normal -7.071879e-01  7.070257e-01  0.000000e+00
   outer loop
     vertex  5.784800e+01  1.427000e+02  1.700000e+01
     vertex  6.656700e+01  1.514210e+02  1.700000e+01
     vertex  5.784800e+01  1.427000e+02  0.000000e+00
   endloop
 endfacet
 facet normal -7.071068e-01  7.071068e-01  0.000000e+00
   outer loop
     vertex  5.529700e+01  1.401500e+02  1.700000e+01
     vertex  5.529700e+01  1.401500e+02  0.000000e+00
     vertex  5.529600e+01  1.401490e+02  0.000000e+00
   endloop
 endfacet
 facet normal -7.071068e-01  7.071068e-01  0.000000e+00
   outer loop
     vertex  5.529600e+01  1.401490e+02  1.700000e+01
     vertex  5.529700e+01  1.401500e+02  1.700000e+01
     vertex  5.529600e+01  1.401490e+02  0.000000e+00
   endloop
 endfacet
 facet normal -7.069681e-01  7.072454e-01  0.000000e+00
   outer loop
     vertex  5.529700e+01  1.401500e+02  1.700000e+01
     vertex  5.784800e+01  1.427000e+02  1.700000e+01
     vertex  5.784800e+01  1.427000e+02  0.000000e+00
   endloop
 endfacet
 facet normal -7.069681e-01  7.072454e-01  0.000000e+00
   outer loop
     vertex  5.529700e+01  1.401500e+02  1.700000e+01
     vertex  5.784800e+01  1.427000e+02  0.000000e+00
     vertex  5.529700e+01  1.401500e+02  0.000000e+00
   endloop
 endfacet
 facet normal -7.070861e-01  7.071275e-01  0.000000e+00
   outer loop
     vertex  9.481500e+01  1.703200e+01  0.000000e+00
     vertex  7.773000e+01 -5.200000e-02  0.000000e+00
     vertex  7.773000e+01 -5.200000e-02  1.700000e+01
   endloop
 endfacet
 facet normal -7.070861e-01  7.071275e-01  0.000000e+00
   outer loop
     vertex  9.481500e+01  1.703200e+01  0.000000e+00
     vertex  7.773000e+01 -5.200000e-02  1.700000e+01
     vertex  9.481500e+01  1.703200e+01  1.700000e+01
   endloop
 endfacet
 facet normal -7.070353e-01  7.071782e-01  0.000000e+00
   outer loop
     vertex  7.773000e+01 -5.200000e-02  0.000000e+00
     vertex  7.278100e+01 -5.000000e+00  0.000000e+00
     vertex  7.278100e+01 -5.000000e+00  1.700000e+01
   endloop
 endfacet
 facet normal -7.070353e-01  7.071782e-01  0.000000e+00
   outer loop
     vertex  7.773000e+01 -5.200000e-02  0.000000e+00
     vertex  7.278100e+01 -5.000000e+00  1.700000e+01
     vertex  7.773000e+01 -5.200000e-02  1.700000e+01
   endloop
 endfacet
 facet normal  0.000000e+00  1.000000e+00 -0.000000e+00
   outer loop
     vertex  7.278100e+01 -5.000000e+00  0.000000e+00
     vertex  6.863900e+01 -5.000000e+00  0.000000e+00
     vertex  6.863900e+01 -5.000000e+00  1.700000e+01
   endloop
 endfacet
 facet normal  0.000000e+00  1.000000e+00 -0.000000e+00
   outer loop
     vertex  7.278100e+01 -5.000000e+00  0.000000e+00
     vertex  6.863900e+01 -5.000000e+00  1.700000e+01
     vertex  7.278100e+01 -5.000000e+00  1.700000e+01
   endloop
 endfacet
 facet normal  7.070353e-01  7.071782e-01 -0.000000e+00
   outer loop
     vertex  6.863900e+01 -5.000000e+00  0.000000e+00
     vertex  6.369000e+01 -5.200000e-02  0.000000e+00
     vertex  6.369000e+01 -5.200000e-02  1.700000e+01
   endloop
 endfacet
 facet normal  7.070353e-01  7.071782e-01  0.000000e+00
   outer loop
     vertex  6.863900e+01 -5.000000e+00  0.000000e+00
     vertex  6.369000e+01 -5.200000e-02  1.700000e+01
     vertex  6.863900e+01 -5.000000e+00  1.700000e+01
   endloop
 endfacet
 facet normal  7.071119e-01  7.071016e-01 -0.000000e+00
   outer loop
     vertex  6.369000e+01 -5.200000e-02  0.000000e+00
     vertex -5.000000e+00  6.863900e+01  0.000000e+00
     vertex -5.000000e+00  6.863900e+01  1.700000e+01
   endloop
 endfacet
 facet normal  7.071119e-01  7.071016e-01  0.000000e+00
   outer loop
     vertex  6.369000e+01 -5.200000e-02  0.000000e+00
     vertex -5.000000e+00  6.863900e+01  1.700000e+01
     vertex  6.369000e+01 -5.200000e-02  1.700000e+01
   endloop
 endfacet
 facet normal  1.000000e+00  0.000000e+00  0.000000e+00
   outer loop
     vertex -5.000000e+00  6.863900e+01  0.000000e+00
     vertex -5.000000e+00  7.278100e+01  0.000000e+00
     vertex -5.000000e+00  7.278100e+01  1.700000e+01
   endloop
 endfacet
 facet normal  1.000000e+00  0.000000e+00 -0.000000e+00
   outer loop
     vertex -5.000000e+00  6.863900e+01  0.000000e+00
     vertex -5.000000e+00  7.278100e+01  1.700000e+01
     vertex -5.000000e+00  6.863900e+01  1.700000e+01
   endloop
 endfacet
 facet normal  7.071123e-01 -7.071012e-01  0.000000e+00
   outer loop
     vertex -5.000000e+00  7.278100e+01  1.700000e+01
     vertex  5.883200e+01  1.366140e+02  0.000000e+00
     vertex  5.883200e+01  1.366140e+02  1.700000e+01
   endloop
 endfacet
 facet normal  7.071123e-01 -7.071012e-01  0.000000e+00
   outer loop
     vertex -5.000000e+00  7.278100e+01  0.000000e+00
     vertex  5.883200e+01  1.366140e+02  0.000000e+00
     vertex -5.000000e+00  7.278100e+01  1.700000e+01
   endloop
 endfacet
 facet normal  7.069682e-01 -7.072453e-01  0.000000e+00
   outer loop
     vertex  6.138400e+01  1.391650e+02  0.000000e+00
     vertex  6.138400e+01  1.391650e+02  1.700000e+01
     vertex  5.883200e+01  1.366140e+02  1.700000e+01
   endloop
 endfacet
 facet normal  7.069682e-01 -7.072453e-01  0.000000e+00
   outer loop
     vertex  5.883200e+01  1.366140e+02  0.000000e+00
     vertex  6.138400e+01  1.391650e+02  0.000000e+00
     vertex  5.883200e+01  1.366140e+02  1.700000e+01
   endloop
 endfacet
 facet normal  7.071555e-01 -7.070581e-01  0.000000e+00
   outer loop
     vertex  6.138400e+01  1.391650e+02  0.000000e+00
     vertex  6.863900e+01  1.464210e+02  0.000000e+00
     vertex  6.863900e+01  1.464210e+02  1.700000e+01
   endloop
 endfacet
 facet normal  7.071555e-01 -7.070581e-01  0.000000e+00
   outer loop
     vertex  6.138400e+01  1.391650e+02  0.000000e+00
     vertex  6.863900e+01  1.464210e+02  1.700000e+01
     vertex  6.138400e+01  1.391650e+02  1.700000e+01
   endloop
 endfacet
 facet normal  0.000000e+00 -1.000000e+00  0.000000e+00
   outer loop
     vertex  6.863900e+01  1.464210e+02  0.000000e+00
     vertex  7.278100e+01  1.464210e+02  0.000000e+00
     vertex  7.278100e+01  1.464210e+02  1.700000e+01
   endloop
 endfacet
 facet normal  0.000000e+00 -1.000000e+00  0.000000e+00
   outer loop
     vertex  6.863900e+01  1.464210e+02  0.000000e+00
     vertex  7.278100e+01  1.464210e+02  1.700000e+01
     vertex  6.863900e+01  1.464210e+02  1.700000e+01
   endloop
 endfacet
 facet normal -7.071068e-01 -7.071068e-01  0.000000e+00
   outer loop
     vertex  7.278100e+01  1.464210e+02  0.000000e+00
     vertex  1.464210e+02  7.278100e+01  0.000000e+00
     vertex  1.464210e+02  7.278100e+01  1.700000e+01
   endloop
 endfacet
 facet normal -7.071068e-01 -7.071068e-01  0.000000e+00
   outer loop
     vertex  7.278100e+01  1.464210e+02  0.000000e+00
     vertex  1.464210e+02  7.278100e+01  1.700000e+01
     vertex  7.278100e+01  1.464210e+02  1.700000e+01
   endloop
 endfacet
 facet normal -1.000000e+00  0.000000e+00  0.000000e+00
   outer loop
     vertex  1.464210e+02  7.278100e+01  0.000000e+00
     vertex  1.464210e+02  6.863900e+01  0.000000e+00
     vertex  1.464210e+02  6.863900e+01  1.700000e+01
   endloop
 endfacet
 facet normal -1.000000e+00  0.000000e+00  0.000000e+00
   outer loop
     vertex  1.464210e+02  7.278100e+01  0.000000e+00
     vertex  1.464210e+02  6.863900e+01  1.700000e+01
     vertex  1.464210e+02  7.278100e+01  1.700000e+01
   endloop
 endfacet
 facet normal -7.071136e-01  7.070999e-01  0.000000e+00
   outer loop
     vertex  1.464210e+02  6.863900e+01  1.700000e+01
     vertex  9.489400e+01  1.711100e+01  0.000000e+00
     vertex  9.489400e+01  1.711100e+01  1.700000e+01
   endloop
 endfacet
 facet normal -7.071136e-01  7.070999e-01  0.000000e+00
   outer loop
     vertex  1.464210e+02  6.863900e+01  0.000000e+00
     vertex  9.489400e+01  1.711100e+01  0.000000e+00
     vertex  1.464210e+02  6.863900e+01  1.700000e+01
   endloop
 endfacet
 facet normal -7.071068e-01  7.071068e-01  0.000000e+00
   outer loop
     vertex  9.481500e+01  1.703200e+01  0.000000e+00
     vertex  9.481500e+01  1.703200e+01  1.700000e+01
     vertex  9.489400e+01  1.711100e+01  1.700000e+01
   endloop
 endfacet
 facet normal -7.071068e-01  7.071068e-01  0.000000e+00
   outer loop
     vertex  9.489400e+01  1.711100e+01  0.000000e+00
     vertex  9.481500e+01  1.703200e+01  0.000000e+00
     vertex  9.489400e+01  1.711100e+01  1.700000e+01
   endloop
 endfacet
endsolid
