solid Onshape
  facet normal 0 0 -1
    outer loop
      vertex 1.73472e-15 25.4 0
      vertex 25.4 0 0
      vertex 3.46945e-15 0 0
    endloop
  endfacet
  facet normal 0 0 1
    outer loop
      vertex 3.46945e-15 0 1
      vertex 25.4 0 1
      vertex 1.73472e-15 25.4 1
    endloop
  endfacet
  facet normal 0.707107 0.707107 0
    outer loop
      vertex 1.73472e-15 25.4 1
      vertex 25.4 0 1
      vertex 1.73472e-15 25.4 0
    endloop
  endfacet
  facet normal 0.707107 0.707107 0
    outer loop
      vertex 25.4 0 1
      vertex 25.4 0 0
      vertex 1.73472e-15 25.4 0
    endloop
  endfacet
  facet normal -1 -6.82962e-17 0
    outer loop
      vertex 3.46945e-15 0 1
      vertex 1.73472e-15 25.4 1
      vertex 3.46945e-15 0 0
    endloop
  endfacet
  facet normal -1 -6.82962e-17 0
    outer loop
      vertex 1.73472e-15 25.4 1
      vertex 1.73472e-15 25.4 0
      vertex 3.46945e-15 0 0
    endloop
  endfacet
  facet normal 0 -1 0
    outer loop
      vertex 25.4 0 1
      vertex 3.46945e-15 0 1
      vertex 25.4 0 0
    endloop
  endfacet
  facet normal 0 -1 0
    outer loop
      vertex 3.46945e-15 0 1
      vertex 3.46945e-15 0 0
      vertex 25.4 0 0
    endloop
  endfacet
  facet normal 0 0 -1
    outer loop
      vertex 25.4 38.1 0
      vertex 0 38.1 0
      vertex 25.4 41.275 0
    endloop
  endfacet
  facet normal 0 0 -1
    outer loop
      vertex 0 38.1 0
      vertex 0 41.275 0
      vertex 25.4 41.275 0
    endloop
  endfacet
  facet normal 0 0 1
    outer loop
      vertex 0 38.1 1
      vertex 25.4 38.1 1
      vertex 0 41.275 1
    endloop
  endfacet
  facet normal 0 0 1
    outer loop
      vertex 25.4 38.1 1
      vertex 25.4 41.275 1
      vertex 0 41.275 1
    endloop
  endfacet
  facet normal 1 0 0
    outer loop
      vertex 25.4 41.275 1
      vertex 25.4 38.1 1
      vertex 25.4 41.275 0
    endloop
  endfacet
  facet normal 1 0 0
    outer loop
      vertex 25.4 38.1 1
      vertex 25.4 38.1 0
      vertex 25.4 41.275 0
    endloop
  endfacet
  facet normal 0 -1 0
    outer loop
      vertex 25.4 38.1 1
      vertex 0 38.1 1
      vertex 25.4 38.1 0
    endloop
  endfacet
  facet normal 0 -1 0
    outer loop
      vertex 0 38.1 1
      vertex 0 38.1 0
      vertex 25.4 38.1 0
    endloop
  endfacet
  facet normal 0 1 0
    outer loop
      vertex 0 41.275 1
      vertex 25.4 41.275 1
      vertex 0 41.275 0
    endloop
  endfacet
  facet normal 0 1 0
    outer loop
      vertex 25.4 41.275 1
      vertex 25.4 41.275 0
      vertex 0 41.275 0
    endloop
  endfacet
  facet normal -1 0 0
    outer loop
      vertex 0 38.1 1
      vertex 0 41.275 1
      vertex 0 38.1 0
    endloop
  endfacet
  facet normal -1 0 0
    outer loop
      vertex 0 41.275 1
      vertex 0 41.275 0
      vertex 0 38.1 0
    endloop
  endfacet
  facet normal 0 0 -1
    outer loop
      vertex 63.5 25.4 0
      vertex 63.5 1.73472e-15 0
      vertex 38.1 25.4 0
    endloop
  endfacet
  facet normal 0 0 -1
    outer loop
      vertex 63.5 1.73472e-15 0
      vertex 38.1 0 0
      vertex 38.1 25.4 0
    endloop
  endfacet
  facet normal 0 0 1
    outer loop
      vertex 63.5 1.73472e-15 1
      vertex 63.5 25.4 1
      vertex 38.1 0 1
    endloop
  endfacet
  facet normal 0 0 1
    outer loop
      vertex 63.5 25.4 1
      vertex 38.1 25.4 1
      vertex 38.1 0 1
    endloop
  endfacet
  facet normal 0 1 0
    outer loop
      vertex 38.1 25.4 1
      vertex 63.5 25.4 1
      vertex 38.1 25.4 0
    endloop
  endfacet
  facet normal 0 1 0
    outer loop
      vertex 63.5 25.4 1
      vertex 63.5 25.4 0
      vertex 38.1 25.4 0
    endloop
  endfacet
  facet normal 1 0 0
    outer loop
      vertex 63.5 25.4 1
      vertex 63.5 1.73472e-15 1
      vertex 63.5 25.4 0
    endloop
  endfacet
  facet normal 1 0 0
    outer loop
      vertex 63.5 1.73472e-15 1
      vertex 63.5 1.73472e-15 0
      vertex 63.5 25.4 0
    endloop
  endfacet
  facet normal -1 0 0
    outer loop
      vertex 38.1 0 1
      vertex 38.1 25.4 1
      vertex 38.1 0 0
    endloop
  endfacet
  facet normal -1 0 0
    outer loop
      vertex 38.1 25.4 1
      vertex 38.1 25.4 0
      vertex 38.1 0 0
    endloop
  endfacet
  facet normal 6.82962e-17 -1 0
    outer loop
      vertex 63.5 1.73472e-15 1
      vertex 38.1 0 1
      vertex 63.5 1.73472e-15 0
    endloop
  endfacet
  facet normal 6.82962e-17 -1 0
    outer loop
      vertex 38.1 0 1
      vertex 38.1 0 0
      vertex 63.5 1.73472e-15 0
    endloop
  endfacet
  facet normal 0 0 -1
    outer loop
      vertex 63.4517 51.9069 0
      vertex 63.4879 51.354 0
      vertex 50.8 50.8 0
    endloop
  endfacet
  facet normal 0 0 -1
    outer loop
      vertex 63.4879 51.354 0
      vertex 63.5 50.8 0
      vertex 50.8 50.8 0
    endloop
  endfacet
  facet normal 0 0 -1
    outer loop
      vertex 50.8 50.8 0
      vertex 63.5 50.8 0
      vertex 63.4879 50.246 0
    endloop
  endfacet
  facet normal 0 0 -1
    outer loop
      vertex 63.199 53.5488 0
      vertex 63.3071 53.0053 0
      vertex 50.8 50.8 0
    endloop
  endfacet
  facet normal 0 0 -1
    outer loop
      vertex 63.3071 53.0053 0
      vertex 63.3914 52.4577 0
      vertex 50.8 50.8 0
    endloop
  endfacet
  facet normal 0 0 -1
    outer loop
      vertex 50.8 50.8 0
      vertex 63.3914 52.4577 0
      vertex 63.4517 51.9069 0
    endloop
  endfacet
  facet normal 0 0 -1
    outer loop
      vertex 62.7341 55.1437 0
      vertex 62.9122 54.619 0
      vertex 50.8 50.8 0
    endloop
  endfacet
  facet normal 0 0 -1
    outer loop
      vertex 62.9122 54.619 0
      vertex 63.0673 54.087 0
      vertex 50.8 50.8 0
    endloop
  endfacet
  facet normal 0 0 -1
    outer loop
      vertex 50.8 50.8 0
      vertex 63.0673 54.087 0
      vertex 63.199 53.5488 0
    endloop
  endfacet
  facet normal 0 0 -1
    outer loop
      vertex 62.065 56.6642 0
      vertex 62.3101 56.1673 0
      vertex 50.8 50.8 0
    endloop
  endfacet
  facet normal 0 0 -1
    outer loop
      vertex 62.3101 56.1673 0
      vertex 62.5333 55.6601 0
      vertex 50.8 50.8 0
    endloop
  endfacet
  facet normal 0 0 -1
    outer loop
      vertex 50.8 50.8 0
      vertex 62.5333 55.6601 0
      vertex 62.7341 55.1437 0
    endloop
  endfacet
  facet normal 0 0 -1
    outer loop
      vertex 61.2032 58.0844 0
      vertex 61.5111 57.6237 0
      vertex 50.8 50.8 0
    endloop
  endfacet
  facet normal 0 0 -1
    outer loop
      vertex 61.5111 57.6237 0
      vertex 61.7985 57.15 0
      vertex 50.8 50.8 0
    endloop
  endfacet
  facet normal 0 0 -1
    outer loop
      vertex 50.8 50.8 0
      vertex 61.7985 57.15 0
      vertex 62.065 56.6642 0
    endloop
  endfacet
  facet normal 0 0 -1
    outer loop
      vertex 60.1634 59.38 0
      vertex 60.5288 58.9634 0
      vertex 50.8 50.8 0
    endloop
  endfacet
  facet normal 0 0 -1
    outer loop
      vertex 60.5288 58.9634 0
      vertex 60.8756 58.5313 0
      vertex 50.8 50.8 0
    endloop
  endfacet
  facet normal 0 0 -1
    outer loop
      vertex 50.8 50.8 0
      vertex 60.8756 58.5313 0
      vertex 61.2032 58.0844 0
    endloop
  endfacet
  facet normal 0 0 -1
    outer loop
      vertex 58.9634 60.5288 0
      vertex 59.38 60.1634 0
      vertex 50.8 50.8 0
    endloop
  endfacet
  facet normal 0 0 -1
    outer loop
      vertex 59.38 60.1634 0
      vertex 59.7803 59.7803 0
      vertex 50.8 50.8 0
    endloop
  endfacet
  facet normal 0 0 -1
    outer loop
      vertex 50.8 50.8 0
      vertex 59.7803 59.7803 0
      vertex 60.1634 59.38 0
    endloop
  endfacet
  facet normal 0 0 -1
    outer loop
      vertex 57.6237 61.5111 0
      vertex 58.0844 61.2032 0
      vertex 50.8 50.8 0
    endloop
  endfacet
  facet normal 0 0 -1
    outer loop
      vertex 58.0844 61.2032 0
      vertex 58.5313 60.8756 0
      vertex 50.8 50.8 0
    endloop
  endfacet
  facet normal 0 0 -1
    outer loop
      vertex 50.8 50.8 0
      vertex 58.5313 60.8756 0
      vertex 58.9634 60.5288 0
    endloop
  endfacet
  facet normal 0 0 -1
    outer loop
      vertex 56.1673 62.3101 0
      vertex 56.6642 62.065 0
      vertex 50.8 50.8 0
    endloop
  endfacet
  facet normal 0 0 -1
    outer loop
      vertex 56.6642 62.065 0
      vertex 57.15 61.7985 0
      vertex 50.8 50.8 0
    endloop
  endfacet
  facet normal 0 0 -1
    outer loop
      vertex 50.8 50.8 0
      vertex 57.15 61.7985 0
      vertex 57.6237 61.5111 0
    endloop
  endfacet
  facet normal 0 0 -1
    outer loop
      vertex 54.619 62.9122 0
      vertex 55.1437 62.7341 0
      vertex 50.8 50.8 0
    endloop
  endfacet
  facet normal 0 0 -1
    outer loop
      vertex 55.1437 62.7341 0
      vertex 55.6601 62.5333 0
      vertex 50.8 50.8 0
    endloop
  endfacet
  facet normal 0 0 -1
    outer loop
      vertex 50.8 50.8 0
      vertex 55.6601 62.5333 0
      vertex 56.1673 62.3101 0
    endloop
  endfacet
  facet normal 0 0 -1
    outer loop
      vertex 53.0053 63.3071 0
      vertex 53.5488 63.199 0
      vertex 50.8 50.8 0
    endloop
  endfacet
  facet normal 0 0 -1
    outer loop
      vertex 53.5488 63.199 0
      vertex 54.087 63.0673 0
      vertex 50.8 50.8 0
    endloop
  endfacet
  facet normal 0 0 -1
    outer loop
      vertex 50.8 50.8 0
      vertex 54.087 63.0673 0
      vertex 54.619 62.9122 0
    endloop
  endfacet
  facet normal 0 0 -1
    outer loop
      vertex 51.354 63.4879 0
      vertex 51.9069 63.4517 0
      vertex 50.8 50.8 0
    endloop
  endfacet
  facet normal 0 0 -1
    outer loop
      vertex 51.9069 63.4517 0
      vertex 52.4577 63.3914 0
      vertex 50.8 50.8 0
    endloop
  endfacet
  facet normal 0 0 -1
    outer loop
      vertex 50.8 50.8 0
      vertex 52.4577 63.3914 0
      vertex 53.0053 63.3071 0
    endloop
  endfacet
  facet normal 0 0 -1
    outer loop
      vertex 49.6931 63.4517 0
      vertex 50.246 63.4879 0
      vertex 50.8 50.8 0
    endloop
  endfacet
  facet normal 0 0 -1
    outer loop
      vertex 50.246 63.4879 0
      vertex 50.8 63.5 0
      vertex 50.8 50.8 0
    endloop
  endfacet
  facet normal 0 0 -1
    outer loop
      vertex 50.8 50.8 0
      vertex 50.8 63.5 0
      vertex 51.354 63.4879 0
    endloop
  endfacet
  facet normal 0 0 -1
    outer loop
      vertex 48.0512 63.199 0
      vertex 48.5947 63.3071 0
      vertex 50.8 50.8 0
    endloop
  endfacet
  facet normal 0 0 -1
    outer loop
      vertex 48.5947 63.3071 0
      vertex 49.1423 63.3914 0
      vertex 50.8 50.8 0
    endloop
  endfacet
  facet normal 0 0 -1
    outer loop
      vertex 50.8 50.8 0
      vertex 49.1423 63.3914 0
      vertex 49.6931 63.4517 0
    endloop
  endfacet
  facet normal 0 0 -1
    outer loop
      vertex 46.4563 62.7341 0
      vertex 46.981 62.9122 0
      vertex 50.8 50.8 0
    endloop
  endfacet
  facet normal 0 0 -1
    outer loop
      vertex 46.981 62.9122 0
      vertex 47.513 63.0673 0
      vertex 50.8 50.8 0
    endloop
  endfacet
  facet normal 0 0 -1
    outer loop
      vertex 50.8 50.8 0
      vertex 47.513 63.0673 0
      vertex 48.0512 63.199 0
    endloop
  endfacet
  facet normal 0 0 -1
    outer loop
      vertex 44.9358 62.065 0
      vertex 45.4327 62.3101 0
      vertex 50.8 50.8 0
    endloop
  endfacet
  facet normal 0 0 -1
    outer loop
      vertex 45.4327 62.3101 0
      vertex 45.9399 62.5333 0
      vertex 50.8 50.8 0
    endloop
  endfacet
  facet normal 0 0 -1
    outer loop
      vertex 50.8 50.8 0
      vertex 45.9399 62.5333 0
      vertex 46.4563 62.7341 0
    endloop
  endfacet
  facet normal 0 0 -1
    outer loop
      vertex 43.5156 61.2032 0
      vertex 43.9763 61.5111 0
      vertex 50.8 50.8 0
    endloop
  endfacet
  facet normal 0 0 -1
    outer loop
      vertex 43.9763 61.5111 0
      vertex 44.45 61.7985 0
      vertex 50.8 50.8 0
    endloop
  endfacet
  facet normal 0 0 -1
    outer loop
      vertex 50.8 50.8 0
      vertex 44.45 61.7985 0
      vertex 44.9358 62.065 0
    endloop
  endfacet
  facet normal 0 0 -1
    outer loop
      vertex 42.22 60.1634 0
      vertex 42.6366 60.5288 0
      vertex 50.8 50.8 0
    endloop
  endfacet
  facet normal 0 0 -1
    outer loop
      vertex 42.6366 60.5288 0
      vertex 43.0687 60.8756 0
      vertex 50.8 50.8 0
    endloop
  endfacet
  facet normal 0 0 -1
    outer loop
      vertex 50.8 50.8 0
      vertex 43.0687 60.8756 0
      vertex 43.5156 61.2032 0
    endloop
  endfacet
  facet normal 0 0 -1
    outer loop
      vertex 41.0712 58.9634 0
      vertex 41.4366 59.38 0
      vertex 50.8 50.8 0
    endloop
  endfacet
  facet normal 0 0 -1
    outer loop
      vertex 41.4366 59.38 0
      vertex 41.8197 59.7803 0
      vertex 50.8 50.8 0
    endloop
  endfacet
  facet normal 0 0 -1
    outer loop
      vertex 50.8 50.8 0
      vertex 41.8197 59.7803 0
      vertex 42.22 60.1634 0
    endloop
  endfacet
  facet normal 0 0 -1
    outer loop
      vertex 40.0889 57.6237 0
      vertex 40.3968 58.0844 0
      vertex 50.8 50.8 0
    endloop
  endfacet
  facet normal 0 0 -1
    outer loop
      vertex 40.3968 58.0844 0
      vertex 40.7244 58.5313 0
      vertex 50.8 50.8 0
    endloop
  endfacet
  facet normal 0 0 -1
    outer loop
      vertex 50.8 50.8 0
      vertex 40.7244 58.5313 0
      vertex 41.0712 58.9634 0
    endloop
  endfacet
  facet normal 0 0 -1
    outer loop
      vertex 39.2899 56.1673 0
      vertex 39.535 56.6642 0
      vertex 50.8 50.8 0
    endloop
  endfacet
  facet normal 0 0 -1
    outer loop
      vertex 39.535 56.6642 0
      vertex 39.8015 57.15 0
      vertex 50.8 50.8 0
    endloop
  endfacet
  facet normal 0 0 -1
    outer loop
      vertex 50.8 50.8 0
      vertex 39.8015 57.15 0
      vertex 40.0889 57.6237 0
    endloop
  endfacet
  facet normal 0 0 -1
    outer loop
      vertex 38.6878 54.619 0
      vertex 38.8659 55.1437 0
      vertex 50.8 50.8 0
    endloop
  endfacet
  facet normal 0 0 -1
    outer loop
      vertex 38.8659 55.1437 0
      vertex 39.0667 55.6601 0
      vertex 50.8 50.8 0
    endloop
  endfacet
  facet normal 0 0 -1
    outer loop
      vertex 50.8 50.8 0
      vertex 39.0667 55.6601 0
      vertex 39.2899 56.1673 0
    endloop
  endfacet
  facet normal 0 0 -1
    outer loop
      vertex 38.2929 53.0053 0
      vertex 38.401 53.5488 0
      vertex 50.8 50.8 0
    endloop
  endfacet
  facet normal 0 0 -1
    outer loop
      vertex 38.401 53.5488 0
      vertex 38.5327 54.087 0
      vertex 50.8 50.8 0
    endloop
  endfacet
  facet normal 0 0 -1
    outer loop
      vertex 50.8 50.8 0
      vertex 38.5327 54.087 0
      vertex 38.6878 54.619 0
    endloop
  endfacet
  facet normal 0 0 -1
    outer loop
      vertex 38.1121 51.354 0
      vertex 38.1483 51.9069 0
      vertex 50.8 50.8 0
    endloop
  endfacet
  facet normal 0 0 -1
    outer loop
      vertex 38.1483 51.9069 0
      vertex 38.2086 52.4577 0
      vertex 50.8 50.8 0
    endloop
  endfacet
  facet normal 0 0 -1
    outer loop
      vertex 50.8 50.8 0
      vertex 38.2086 52.4577 0
      vertex 38.2929 53.0053 0
    endloop
  endfacet
  facet normal 0 0 -1
    outer loop
      vertex 38.1483 49.6931 0
      vertex 38.1121 50.246 0
      vertex 50.8 50.8 0
    endloop
  endfacet
  facet normal 0 0 -1
    outer loop
      vertex 38.1121 50.246 0
      vertex 38.1 50.8 0
      vertex 50.8 50.8 0
    endloop
  endfacet
  facet normal 0 0 -1
    outer loop
      vertex 50.8 50.8 0
      vertex 38.1 50.8 0
      vertex 38.1121 51.354 0
    endloop
  endfacet
  facet normal 0 0 -1
    outer loop
      vertex 38.401 48.0512 0
      vertex 38.2929 48.5947 0
      vertex 50.8 50.8 0
    endloop
  endfacet
  facet normal 0 0 -1
    outer loop
      vertex 38.2929 48.5947 0
      vertex 38.2086 49.1423 0
      vertex 50.8 50.8 0
    endloop
  endfacet
  facet normal 0 0 -1
    outer loop
      vertex 50.8 50.8 0
      vertex 38.2086 49.1423 0
      vertex 38.1483 49.6931 0
    endloop
  endfacet
  facet normal 0 0 -1
    outer loop
      vertex 38.8659 46.4563 0
      vertex 38.6878 46.981 0
      vertex 50.8 50.8 0
    endloop
  endfacet
  facet normal 0 0 -1
    outer loop
      vertex 38.6878 46.981 0
      vertex 38.5327 47.513 0
      vertex 50.8 50.8 0
    endloop
  endfacet
  facet normal 0 0 -1
    outer loop
      vertex 50.8 50.8 0
      vertex 38.5327 47.513 0
      vertex 38.401 48.0512 0
    endloop
  endfacet
  facet normal 0 0 -1
    outer loop
      vertex 39.535 44.9358 0
      vertex 39.2899 45.4327 0
      vertex 50.8 50.8 0
    endloop
  endfacet
  facet normal 0 0 -1
    outer loop
      vertex 39.2899 45.4327 0
      vertex 39.0667 45.9399 0
      vertex 50.8 50.8 0
    endloop
  endfacet
  facet normal 0 0 -1
    outer loop
      vertex 50.8 50.8 0
      vertex 39.0667 45.9399 0
      vertex 38.8659 46.4563 0
    endloop
  endfacet
  facet normal 0 0 -1
    outer loop
      vertex 40.3968 43.5156 0
      vertex 40.0889 43.9763 0
      vertex 50.8 50.8 0
    endloop
  endfacet
  facet normal 0 0 -1
    outer loop
      vertex 40.0889 43.9763 0
      vertex 39.8015 44.45 0
      vertex 50.8 50.8 0
    endloop
  endfacet
  facet normal 0 0 -1
    outer loop
      vertex 50.8 50.8 0
      vertex 39.8015 44.45 0
      vertex 39.535 44.9358 0
    endloop
  endfacet
  facet normal 0 0 -1
    outer loop
      vertex 41.4366 42.22 0
      vertex 41.0712 42.6366 0
      vertex 50.8 50.8 0
    endloop
  endfacet
  facet normal 0 0 -1
    outer loop
      vertex 41.0712 42.6366 0
      vertex 40.7244 43.0687 0
      vertex 50.8 50.8 0
    endloop
  endfacet
  facet normal 0 0 -1
    outer loop
      vertex 50.8 50.8 0
      vertex 40.7244 43.0687 0
      vertex 40.3968 43.5156 0
    endloop
  endfacet
  facet normal 0 0 -1
    outer loop
      vertex 42.6366 41.0712 0
      vertex 42.22 41.4366 0
      vertex 50.8 50.8 0
    endloop
  endfacet
  facet normal 0 0 -1
    outer loop
      vertex 42.22 41.4366 0
      vertex 41.8197 41.8197 0
      vertex 50.8 50.8 0
    endloop
  endfacet
  facet normal 0 0 -1
    outer loop
      vertex 50.8 50.8 0
      vertex 41.8197 41.8197 0
      vertex 41.4366 42.22 0
    endloop
  endfacet
  facet normal 0 0 -1
    outer loop
      vertex 43.9763 40.0889 0
      vertex 43.5156 40.3968 0
      vertex 50.8 50.8 0
    endloop
  endfacet
  facet normal 0 0 -1
    outer loop
      vertex 43.5156 40.3968 0
      vertex 43.0687 40.7244 0
      vertex 50.8 50.8 0
    endloop
  endfacet
  facet normal 0 0 -1
    outer loop
      vertex 50.8 50.8 0
      vertex 43.0687 40.7244 0
      vertex 42.6366 41.0712 0
    endloop
  endfacet
  facet normal 0 0 -1
    outer loop
      vertex 45.4327 39.2899 0
      vertex 44.9358 39.535 0
      vertex 50.8 50.8 0
    endloop
  endfacet
  facet normal 0 0 -1
    outer loop
      vertex 44.9358 39.535 0
      vertex 44.45 39.8015 0
      vertex 50.8 50.8 0
    endloop
  endfacet
  facet normal 0 0 -1
    outer loop
      vertex 50.8 50.8 0
      vertex 44.45 39.8015 0
      vertex 43.9763 40.0889 0
    endloop
  endfacet
  facet normal 0 0 -1
    outer loop
      vertex 46.981 38.6878 0
      vertex 46.4563 38.8659 0
      vertex 50.8 50.8 0
    endloop
  endfacet
  facet normal 0 0 -1
    outer loop
      vertex 46.4563 38.8659 0
      vertex 45.9399 39.0667 0
      vertex 50.8 50.8 0
    endloop
  endfacet
  facet normal 0 0 -1
    outer loop
      vertex 50.8 50.8 0
      vertex 45.9399 39.0667 0
      vertex 45.4327 39.2899 0
    endloop
  endfacet
  facet normal 0 0 -1
    outer loop
      vertex 48.5947 38.2929 0
      vertex 48.0512 38.401 0
      vertex 50.8 50.8 0
    endloop
  endfacet
  facet normal 0 0 -1
    outer loop
      vertex 48.0512 38.401 0
      vertex 47.513 38.5327 0
      vertex 50.8 50.8 0
    endloop
  endfacet
  facet normal 0 0 -1
    outer loop
      vertex 50.8 50.8 0
      vertex 47.513 38.5327 0
      vertex 46.981 38.6878 0
    endloop
  endfacet
  facet normal 0 0 -1
    outer loop
      vertex 50.246 38.1121 0
      vertex 49.6931 38.1483 0
      vertex 50.8 50.8 0
    endloop
  endfacet
  facet normal 0 0 -1
    outer loop
      vertex 49.6931 38.1483 0
      vertex 49.1423 38.2086 0
      vertex 50.8 50.8 0
    endloop
  endfacet
  facet normal 0 0 -1
    outer loop
      vertex 50.8 50.8 0
      vertex 49.1423 38.2086 0
      vertex 48.5947 38.2929 0
    endloop
  endfacet
  facet normal 0 0 -1
    outer loop
      vertex 51.9069 38.1483 0
      vertex 51.354 38.1121 0
      vertex 50.8 50.8 0
    endloop
  endfacet
  facet normal 0 0 -1
    outer loop
      vertex 51.354 38.1121 0
      vertex 50.8 38.1 0
      vertex 50.8 50.8 0
    endloop
  endfacet
  facet normal 0 0 -1
    outer loop
      vertex 50.8 50.8 0
      vertex 50.8 38.1 0
      vertex 50.246 38.1121 0
    endloop
  endfacet
  facet normal 0 0 -1
    outer loop
      vertex 53.5488 38.401 0
      vertex 53.0053 38.2929 0
      vertex 50.8 50.8 0
    endloop
  endfacet
  facet normal 0 0 -1
    outer loop
      vertex 53.0053 38.2929 0
      vertex 52.4577 38.2086 0
      vertex 50.8 50.8 0
    endloop
  endfacet
  facet normal 0 0 -1
    outer loop
      vertex 50.8 50.8 0
      vertex 52.4577 38.2086 0
      vertex 51.9069 38.1483 0
    endloop
  endfacet
  facet normal 0 0 -1
    outer loop
      vertex 55.1437 38.8659 0
      vertex 54.619 38.6878 0
      vertex 50.8 50.8 0
    endloop
  endfacet
  facet normal 0 0 -1
    outer loop
      vertex 54.619 38.6878 0
      vertex 54.087 38.5327 0
      vertex 50.8 50.8 0
    endloop
  endfacet
  facet normal 0 0 -1
    outer loop
      vertex 50.8 50.8 0
      vertex 54.087 38.5327 0
      vertex 53.5488 38.401 0
    endloop
  endfacet
  facet normal 0 0 -1
    outer loop
      vertex 56.6642 39.535 0
      vertex 56.1673 39.2899 0
      vertex 50.8 50.8 0
    endloop
  endfacet
  facet normal 0 0 -1
    outer loop
      vertex 56.1673 39.2899 0
      vertex 55.6601 39.0667 0
      vertex 50.8 50.8 0
    endloop
  endfacet
  facet normal 0 0 -1
    outer loop
      vertex 50.8 50.8 0
      vertex 55.6601 39.0667 0
      vertex 55.1437 38.8659 0
    endloop
  endfacet
  facet normal 0 0 -1
    outer loop
      vertex 58.0844 40.3968 0
      vertex 57.6237 40.0889 0
      vertex 50.8 50.8 0
    endloop
  endfacet
  facet normal 0 0 -1
    outer loop
      vertex 57.6237 40.0889 0
      vertex 57.15 39.8015 0
      vertex 50.8 50.8 0
    endloop
  endfacet
  facet normal 0 0 -1
    outer loop
      vertex 50.8 50.8 0
      vertex 57.15 39.8015 0
      vertex 56.6642 39.535 0
    endloop
  endfacet
  facet normal 0 0 -1
    outer loop
      vertex 59.38 41.4366 0
      vertex 58.9634 41.0712 0
      vertex 50.8 50.8 0
    endloop
  endfacet
  facet normal 0 0 -1
    outer loop
      vertex 58.9634 41.0712 0
      vertex 58.5313 40.7244 0
      vertex 50.8 50.8 0
    endloop
  endfacet
  facet normal 0 0 -1
    outer loop
      vertex 50.8 50.8 0
      vertex 58.5313 40.7244 0
      vertex 58.0844 40.3968 0
    endloop
  endfacet
  facet normal 0 0 -1
    outer loop
      vertex 60.5288 42.6366 0
      vertex 60.1634 42.22 0
      vertex 50.8 50.8 0
    endloop
  endfacet
  facet normal 0 0 -1
    outer loop
      vertex 60.1634 42.22 0
      vertex 59.7803 41.8197 0
      vertex 50.8 50.8 0
    endloop
  endfacet
  facet normal 0 0 -1
    outer loop
      vertex 50.8 50.8 0
      vertex 59.7803 41.8197 0
      vertex 59.38 41.4366 0
    endloop
  endfacet
  facet normal 0 0 -1
    outer loop
      vertex 61.5111 43.9763 0
      vertex 61.2032 43.5156 0
      vertex 50.8 50.8 0
    endloop
  endfacet
  facet normal 0 0 -1
    outer loop
      vertex 61.2032 43.5156 0
      vertex 60.8756 43.0687 0
      vertex 50.8 50.8 0
    endloop
  endfacet
  facet normal 0 0 -1
    outer loop
      vertex 50.8 50.8 0
      vertex 60.8756 43.0687 0
      vertex 60.5288 42.6366 0
    endloop
  endfacet
  facet normal 0 0 -1
    outer loop
      vertex 62.3101 45.4327 0
      vertex 62.065 44.9358 0
      vertex 50.8 50.8 0
    endloop
  endfacet
  facet normal 0 0 -1
    outer loop
      vertex 62.065 44.9358 0
      vertex 61.7985 44.45 0
      vertex 50.8 50.8 0
    endloop
  endfacet
  facet normal 0 0 -1
    outer loop
      vertex 50.8 50.8 0
      vertex 61.7985 44.45 0
      vertex 61.5111 43.9763 0
    endloop
  endfacet
  facet normal 0 0 -1
    outer loop
      vertex 62.9122 46.981 0
      vertex 62.7341 46.4563 0
      vertex 50.8 50.8 0
    endloop
  endfacet
  facet normal 0 0 -1
    outer loop
      vertex 62.7341 46.4563 0
      vertex 62.5333 45.9399 0
      vertex 50.8 50.8 0
    endloop
  endfacet
  facet normal 0 0 -1
    outer loop
      vertex 50.8 50.8 0
      vertex 62.5333 45.9399 0
      vertex 62.3101 45.4327 0
    endloop
  endfacet
  facet normal 0 0 -1
    outer loop
      vertex 63.3071 48.5947 0
      vertex 63.199 48.0512 0
      vertex 50.8 50.8 0
    endloop
  endfacet
  facet normal 0 0 -1
    outer loop
      vertex 63.199 48.0512 0
      vertex 63.0673 47.513 0
      vertex 50.8 50.8 0
    endloop
  endfacet
  facet normal 0 0 -1
    outer loop
      vertex 50.8 50.8 0
      vertex 63.0673 47.513 0
      vertex 62.9122 46.981 0
    endloop
  endfacet
  facet normal 0 0 -1
    outer loop
      vertex 63.4879 50.246 0
      vertex 63.4517 49.6931 0
      vertex 50.8 50.8 0
    endloop
  endfacet
  facet normal 0 0 -1
    outer loop
      vertex 63.4517 49.6931 0
      vertex 63.3914 49.1423 0
      vertex 50.8 50.8 0
    endloop
  endfacet
  facet normal 0 0 -1
    outer loop
      vertex 50.8 50.8 0
      vertex 63.3914 49.1423 0
      vertex 63.3071 48.5947 0
    endloop
  endfacet
  facet normal -0.999762 0.0218167 0
    outer loop
      vertex 38.1 50.8 0
      vertex 38.1121 51.354 1
      vertex 38.1121 51.354 0
    endloop
  endfacet
  facet normal -0.997859 0.065403 0
    outer loop
      vertex 38.1121 51.354 1
      vertex 38.1483 51.9069 1
      vertex 38.1121 51.354 0
    endloop
  endfacet
  facet normal -0.997859 0.065403 0
    outer loop
      vertex 38.1121 51.354 0
      vertex 38.1483 51.9069 1
      vertex 38.1483 51.9069 0
    endloop
  endfacet
  facet normal -0.994057 0.108861 0
    outer loop
      vertex 38.1483 51.9069 1
      vertex 38.2086 52.4577 1
      vertex 38.1483 51.9069 0
    endloop
  endfacet
  facet normal -0.994057 0.108861 0
    outer loop
      vertex 38.1483 51.9069 0
      vertex 38.2086 52.4577 1
      vertex 38.2086 52.4577 0
    endloop
  endfacet
  facet normal -0.988361 0.152125 0
    outer loop
      vertex 38.2086 52.4577 1
      vertex 38.2929 53.0053 1
      vertex 38.2086 52.4577 0
    endloop
  endfacet
  facet normal -0.988361 0.152125 0
    outer loop
      vertex 38.2086 52.4577 0
      vertex 38.2929 53.0053 1
      vertex 38.2929 53.0053 0
    endloop
  endfacet
  facet normal -0.980785 0.195092 0
    outer loop
      vertex 38.2929 53.0053 1
      vertex 38.401 53.5488 1
      vertex 38.2929 53.0053 0
    endloop
  endfacet
  facet normal -0.980785 0.195092 0
    outer loop
      vertex 38.2929 53.0053 0
      vertex 38.401 53.5488 1
      vertex 38.401 53.5488 0
    endloop
  endfacet
  facet normal -0.971343 0.237684 0
    outer loop
      vertex 38.401 53.5488 1
      vertex 38.5327 54.087 1
      vertex 38.401 53.5488 0
    endloop
  endfacet
  facet normal -0.971343 0.237684 0
    outer loop
      vertex 38.401 53.5488 0
      vertex 38.5327 54.087 1
      vertex 38.5327 54.087 0
    endloop
  endfacet
  facet normal -0.960049 0.279832 0
    outer loop
      vertex 38.5327 54.087 1
      vertex 38.6878 54.619 1
      vertex 38.5327 54.087 0
    endloop
  endfacet
  facet normal -0.960049 0.279832 0
    outer loop
      vertex 38.5327 54.087 0
      vertex 38.6878 54.619 1
      vertex 38.6878 54.619 0
    endloop
  endfacet
  facet normal -0.94693 0.321441 0
    outer loop
      vertex 38.6878 54.619 1
      vertex 38.8659 55.1437 1
      vertex 38.6878 54.619 0
    endloop
  endfacet
  facet normal -0.94693 0.321441 0
    outer loop
      vertex 38.6878 54.619 0
      vertex 38.8659 55.1437 1
      vertex 38.8659 55.1437 0
    endloop
  endfacet
  facet normal -0.93201 0.362432 0
    outer loop
      vertex 38.8659 55.1437 1
      vertex 39.0667 55.6601 1
      vertex 38.8659 55.1437 0
    endloop
  endfacet
  facet normal -0.93201 0.362432 0
    outer loop
      vertex 38.8659 55.1437 0
      vertex 39.0667 55.6601 1
      vertex 39.0667 55.6601 0
    endloop
  endfacet
  facet normal -0.91531 0.40275 0
    outer loop
      vertex 39.0667 55.6601 1
      vertex 39.2899 56.1673 1
      vertex 39.0667 55.6601 0
    endloop
  endfacet
  facet normal -0.91531 0.40275 0
    outer loop
      vertex 39.0667 55.6601 0
      vertex 39.2899 56.1673 1
      vertex 39.2899 56.1673 0
    endloop
  endfacet
  facet normal -0.896872 0.442291 0
    outer loop
      vertex 39.2899 56.1673 1
      vertex 39.535 56.6642 1
      vertex 39.2899 56.1673 0
    endloop
  endfacet
  facet normal -0.896872 0.442291 0
    outer loop
      vertex 39.2899 56.1673 0
      vertex 39.535 56.6642 1
      vertex 39.535 56.6642 0
    endloop
  endfacet
  facet normal -0.876727 0.480988 0
    outer loop
      vertex 39.535 56.6642 1
      vertex 39.8015 57.15 1
      vertex 39.535 56.6642 0
    endloop
  endfacet
  facet normal -0.876727 0.480988 0
    outer loop
      vertex 39.535 56.6642 0
      vertex 39.8015 57.15 1
      vertex 39.8015 57.15 0
    endloop
  endfacet
  facet normal -0.854914 0.51877 0
    outer loop
      vertex 39.8015 57.15 1
      vertex 40.0889 57.6237 1
      vertex 39.8015 57.15 0
    endloop
  endfacet
  facet normal -0.854914 0.51877 0
    outer loop
      vertex 39.8015 57.15 0
      vertex 40.0889 57.6237 1
      vertex 40.0889 57.6237 0
    endloop
  endfacet
  facet normal -0.83147 0.55557 0
    outer loop
      vertex 40.0889 57.6237 1
      vertex 40.3968 58.0844 1
      vertex 40.0889 57.6237 0
    endloop
  endfacet
  facet normal -0.83147 0.55557 0
    outer loop
      vertex 40.0889 57.6237 0
      vertex 40.3968 58.0844 1
      vertex 40.3968 58.0844 0
    endloop
  endfacet
  facet normal -0.806445 0.59131 0
    outer loop
      vertex 40.3968 58.0844 1
      vertex 40.7244 58.5313 1
      vertex 40.3968 58.0844 0
    endloop
  endfacet
  facet normal -0.806445 0.59131 0
    outer loop
      vertex 40.3968 58.0844 0
      vertex 40.7244 58.5313 1
      vertex 40.7244 58.5313 0
    endloop
  endfacet
  facet normal -0.779884 0.625924 0
    outer loop
      vertex 40.7244 58.5313 1
      vertex 41.0712 58.9634 1
      vertex 40.7244 58.5313 0
    endloop
  endfacet
  facet normal -0.779884 0.625924 0
    outer loop
      vertex 40.7244 58.5313 0
      vertex 41.0712 58.9634 1
      vertex 41.0712 58.9634 0
    endloop
  endfacet
  facet normal -0.751838 0.659348 0
    outer loop
      vertex 41.0712 58.9634 1
      vertex 41.4366 59.38 1
      vertex 41.0712 58.9634 0
    endloop
  endfacet
  facet normal -0.751838 0.659348 0
    outer loop
      vertex 41.0712 58.9634 0
      vertex 41.4366 59.38 1
      vertex 41.4366 59.38 0
    endloop
  endfacet
  facet normal -0.722365 0.691512 0
    outer loop
      vertex 41.4366 59.38 1
      vertex 41.8197 59.7803 1
      vertex 41.4366 59.38 0
    endloop
  endfacet
  facet normal -0.722365 0.691512 0
    outer loop
      vertex 41.4366 59.38 0
      vertex 41.8197 59.7803 1
      vertex 41.8197 59.7803 0
    endloop
  endfacet
  facet normal -0.691516 0.722361 0
    outer loop
      vertex 41.8197 59.7803 1
      vertex 42.22 60.1634 1
      vertex 41.8197 59.7803 0
    endloop
  endfacet
  facet normal -0.691516 0.722361 0
    outer loop
      vertex 41.8197 59.7803 0
      vertex 42.22 60.1634 1
      vertex 42.22 60.1634 0
    endloop
  endfacet
  facet normal -0.659344 0.751842 0
    outer loop
      vertex 42.22 60.1634 1
      vertex 42.6366 60.5288 1
      vertex 42.22 60.1634 0
    endloop
  endfacet
  facet normal -0.659344 0.751842 0
    outer loop
      vertex 42.22 60.1634 0
      vertex 42.6366 60.5288 1
      vertex 42.6366 60.5288 0
    endloop
  endfacet
  facet normal -0.625924 0.779884 0
    outer loop
      vertex 42.6366 60.5288 1
      vertex 43.0687 60.8756 1
      vertex 42.6366 60.5288 0
    endloop
  endfacet
  facet normal -0.625924 0.779884 0
    outer loop
      vertex 42.6366 60.5288 0
      vertex 43.0687 60.8756 1
      vertex 43.0687 60.8756 0
    endloop
  endfacet
  facet normal -0.59131 0.806445 0
    outer loop
      vertex 43.0687 60.8756 1
      vertex 43.5156 61.2032 1
      vertex 43.0687 60.8756 0
    endloop
  endfacet
  facet normal -0.59131 0.806445 0
    outer loop
      vertex 43.0687 60.8756 0
      vertex 43.5156 61.2032 1
      vertex 43.5156 61.2032 0
    endloop
  endfacet
  facet normal -0.555567 0.831472 0
    outer loop
      vertex 43.5156 61.2032 1
      vertex 43.9763 61.5111 1
      vertex 43.5156 61.2032 0
    endloop
  endfacet
  facet normal -0.555567 0.831472 0
    outer loop
      vertex 43.5156 61.2032 0
      vertex 43.9763 61.5111 1
      vertex 43.9763 61.5111 0
    endloop
  endfacet
  facet normal -0.518778 0.854909 0
    outer loop
      vertex 43.9763 61.5111 1
      vertex 44.45 61.7985 1
      vertex 43.9763 61.5111 0
    endloop
  endfacet
  facet normal -0.518778 0.854909 0
    outer loop
      vertex 43.9763 61.5111 0
      vertex 44.45 61.7985 1
      vertex 44.45 61.7985 0
    endloop
  endfacet
  facet normal -0.480988 0.876727 0
    outer loop
      vertex 44.45 61.7985 1
      vertex 44.9358 62.065 1
      vertex 44.45 61.7985 0
    endloop
  endfacet
  facet normal -0.480988 0.876727 0
    outer loop
      vertex 44.45 61.7985 0
      vertex 44.9358 62.065 1
      vertex 44.9358 62.065 0
    endloop
  endfacet
  facet normal -0.442285 0.896874 0
    outer loop
      vertex 44.9358 62.065 1
      vertex 45.4327 62.3101 1
      vertex 44.9358 62.065 0
    endloop
  endfacet
  facet normal -0.442285 0.896874 0
    outer loop
      vertex 44.9358 62.065 0
      vertex 45.4327 62.3101 1
      vertex 45.4327 62.3101 0
    endloop
  endfacet
  facet normal -0.402745 0.915312 0
    outer loop
      vertex 45.4327 62.3101 1
      vertex 45.9399 62.5333 1
      vertex 45.4327 62.3101 0
    endloop
  endfacet
  facet normal -0.402745 0.915312 0
    outer loop
      vertex 45.4327 62.3101 0
      vertex 45.9399 62.5333 1
      vertex 45.9399 62.5333 0
    endloop
  endfacet
  facet normal -0.362443 0.932006 0
    outer loop
      vertex 45.9399 62.5333 1
      vertex 46.4563 62.7341 1
      vertex 45.9399 62.5333 0
    endloop
  endfacet
  facet normal -0.362443 0.932006 0
    outer loop
      vertex 45.9399 62.5333 0
      vertex 46.4563 62.7341 1
      vertex 46.4563 62.7341 0
    endloop
  endfacet
  facet normal -0.321435 0.946932 0
    outer loop
      vertex 46.4563 62.7341 1
      vertex 46.981 62.9122 1
      vertex 46.4563 62.7341 0
    endloop
  endfacet
  facet normal -0.321435 0.946932 0
    outer loop
      vertex 46.4563 62.7341 0
      vertex 46.981 62.9122 1
      vertex 46.981 62.9122 0
    endloop
  endfacet
  facet normal -0.279832 0.960049 0
    outer loop
      vertex 46.981 62.9122 1
      vertex 47.513 63.0673 1
      vertex 46.981 62.9122 0
    endloop
  endfacet
  facet normal -0.279832 0.960049 0
    outer loop
      vertex 46.981 62.9122 0
      vertex 47.513 63.0673 1
      vertex 47.513 63.0673 0
    endloop
  endfacet
  facet normal -0.23769 0.971341 0
    outer loop
      vertex 47.513 63.0673 1
      vertex 48.0512 63.199 1
      vertex 47.513 63.0673 0
    endloop
  endfacet
  facet normal -0.23769 0.971341 0
    outer loop
      vertex 47.513 63.0673 0
      vertex 48.0512 63.199 1
      vertex 48.0512 63.199 0
    endloop
  endfacet
  facet normal -0.195092 0.980785 0
    outer loop
      vertex 48.0512 63.199 1
      vertex 48.5947 63.3071 1
      vertex 48.0512 63.199 0
    endloop
  endfacet
  facet normal -0.195092 0.980785 0
    outer loop
      vertex 48.0512 63.199 0
      vertex 48.5947 63.3071 1
      vertex 48.5947 63.3071 0
    endloop
  endfacet
  facet normal -0.152119 0.988362 0
    outer loop
      vertex 48.5947 63.3071 1
      vertex 49.1423 63.3914 1
      vertex 48.5947 63.3071 0
    endloop
  endfacet
  facet normal -0.152119 0.988362 0
    outer loop
      vertex 48.5947 63.3071 0
      vertex 49.1423 63.3914 1
      vertex 49.1423 63.3914 0
    endloop
  endfacet
  facet normal -0.108861 0.994057 0
    outer loop
      vertex 49.1423 63.3914 1
      vertex 49.6931 63.4517 1
      vertex 49.1423 63.3914 0
    endloop
  endfacet
  facet normal -0.108861 0.994057 0
    outer loop
      vertex 49.1423 63.3914 0
      vertex 49.6931 63.4517 1
      vertex 49.6931 63.4517 0
    endloop
  endfacet
  facet normal -0.065403 0.997859 0
    outer loop
      vertex 49.6931 63.4517 1
      vertex 50.246 63.4879 1
      vertex 49.6931 63.4517 0
    endloop
  endfacet
  facet normal -0.065403 0.997859 0
    outer loop
      vertex 49.6931 63.4517 0
      vertex 50.246 63.4879 1
      vertex 50.246 63.4879 0
    endloop
  endfacet
  facet normal -0.0218234 0.999762 0
    outer loop
      vertex 50.246 63.4879 1
      vertex 50.8 63.5 1
      vertex 50.246 63.4879 0
    endloop
  endfacet
  facet normal -0.0218234 0.999762 0
    outer loop
      vertex 50.246 63.4879 0
      vertex 50.8 63.5 1
      vertex 50.8 63.5 0
    endloop
  endfacet
  facet normal 0.0218234 0.999762 0
    outer loop
      vertex 50.8 63.5 1
      vertex 51.354 63.4879 1
      vertex 50.8 63.5 0
    endloop
  endfacet
  facet normal 0.0218234 0.999762 0
    outer loop
      vertex 50.8 63.5 0
      vertex 51.354 63.4879 1
      vertex 51.354 63.4879 0
    endloop
  endfacet
  facet normal 0.065403 0.997859 0
    outer loop
      vertex 51.354 63.4879 1
      vertex 51.9069 63.4517 1
      vertex 51.354 63.4879 0
    endloop
  endfacet
  facet normal 0.065403 0.997859 0
    outer loop
      vertex 51.354 63.4879 0
      vertex 51.9069 63.4517 1
      vertex 51.9069 63.4517 0
    endloop
  endfacet
  facet normal 0.108861 0.994057 0
    outer loop
      vertex 51.9069 63.4517 1
      vertex 52.4577 63.3914 1
      vertex 51.9069 63.4517 0
    endloop
  endfacet
  facet normal 0.108861 0.994057 0
    outer loop
      vertex 51.9069 63.4517 0
      vertex 52.4577 63.3914 1
      vertex 52.4577 63.3914 0
    endloop
  endfacet
  facet normal 0.152119 0.988362 0
    outer loop
      vertex 52.4577 63.3914 1
      vertex 53.0053 63.3071 1
      vertex 52.4577 63.3914 0
    endloop
  endfacet
  facet normal 0.152119 0.988362 0
    outer loop
      vertex 52.4577 63.3914 0
      vertex 53.0053 63.3071 1
      vertex 53.0053 63.3071 0
    endloop
  endfacet
  facet normal 0.195092 0.980785 0
    outer loop
      vertex 53.0053 63.3071 1
      vertex 53.5488 63.199 1
      vertex 53.0053 63.3071 0
    endloop
  endfacet
  facet normal 0.195092 0.980785 0
    outer loop
      vertex 53.0053 63.3071 0
      vertex 53.5488 63.199 1
      vertex 53.5488 63.199 0
    endloop
  endfacet
  facet normal 0.23769 0.971341 0
    outer loop
      vertex 53.5488 63.199 1
      vertex 54.087 63.0673 1
      vertex 53.5488 63.199 0
    endloop
  endfacet
  facet normal 0.23769 0.971341 0
    outer loop
      vertex 53.5488 63.199 0
      vertex 54.087 63.0673 1
      vertex 54.087 63.0673 0
    endloop
  endfacet
  facet normal 0.279832 0.960049 0
    outer loop
      vertex 54.087 63.0673 1
      vertex 54.619 62.9122 1
      vertex 54.087 63.0673 0
    endloop
  endfacet
  facet normal 0.279832 0.960049 0
    outer loop
      vertex 54.087 63.0673 0
      vertex 54.619 62.9122 1
      vertex 54.619 62.9122 0
    endloop
  endfacet
  facet normal 0.321435 0.946932 0
    outer loop
      vertex 54.619 62.9122 1
      vertex 55.1437 62.7341 1
      vertex 54.619 62.9122 0
    endloop
  endfacet
  facet normal 0.321435 0.946932 0
    outer loop
      vertex 54.619 62.9122 0
      vertex 55.1437 62.7341 1
      vertex 55.1437 62.7341 0
    endloop
  endfacet
  facet normal 0.362443 0.932006 0
    outer loop
      vertex 55.1437 62.7341 1
      vertex 55.6601 62.5333 1
      vertex 55.1437 62.7341 0
    endloop
  endfacet
  facet normal 0.362443 0.932006 0
    outer loop
      vertex 55.1437 62.7341 0
      vertex 55.6601 62.5333 1
      vertex 55.6601 62.5333 0
    endloop
  endfacet
  facet normal 0.402745 0.915312 0
    outer loop
      vertex 55.6601 62.5333 1
      vertex 56.1673 62.3101 1
      vertex 55.6601 62.5333 0
    endloop
  endfacet
  facet normal 0.402745 0.915312 0
    outer loop
      vertex 55.6601 62.5333 0
      vertex 56.1673 62.3101 1
      vertex 56.1673 62.3101 0
    endloop
  endfacet
  facet normal 0.442285 0.896874 0
    outer loop
      vertex 56.1673 62.3101 1
      vertex 56.6642 62.065 1
      vertex 56.1673 62.3101 0
    endloop
  endfacet
  facet normal 0.442285 0.896874 0
    outer loop
      vertex 56.1673 62.3101 0
      vertex 56.6642 62.065 1
      vertex 56.6642 62.065 0
    endloop
  endfacet
  facet normal 0.480988 0.876727 0
    outer loop
      vertex 56.6642 62.065 1
      vertex 57.15 61.7985 1
      vertex 56.6642 62.065 0
    endloop
  endfacet
  facet normal 0.480988 0.876727 0
    outer loop
      vertex 56.6642 62.065 0
      vertex 57.15 61.7985 1
      vertex 57.15 61.7985 0
    endloop
  endfacet
  facet normal 0.518775 0.854911 0
    outer loop
      vertex 57.15 61.7985 1
      vertex 57.6237 61.5111 1
      vertex 57.15 61.7985 0
    endloop
  endfacet
  facet normal 0.518775 0.854911 0
    outer loop
      vertex 57.15 61.7985 0
      vertex 57.6237 61.5111 1
      vertex 57.6237 61.5111 0
    endloop
  endfacet
  facet normal 0.55557 0.83147 0
    outer loop
      vertex 57.6237 61.5111 1
      vertex 58.0844 61.2032 1
      vertex 57.6237 61.5111 0
    endloop
  endfacet
  facet normal 0.55557 0.83147 0
    outer loop
      vertex 57.6237 61.5111 0
      vertex 58.0844 61.2032 1
      vertex 58.0844 61.2032 0
    endloop
  endfacet
  facet normal 0.59131 0.806445 0
    outer loop
      vertex 58.0844 61.2032 1
      vertex 58.5313 60.8756 1
      vertex 58.0844 61.2032 0
    endloop
  endfacet
  facet normal 0.59131 0.806445 0
    outer loop
      vertex 58.0844 61.2032 0
      vertex 58.5313 60.8756 1
      vertex 58.5313 60.8756 0
    endloop
  endfacet
  facet normal 0.625924 0.779884 0
    outer loop
      vertex 58.5313 60.8756 1
      vertex 58.9634 60.5288 1
      vertex 58.5313 60.8756 0
    endloop
  endfacet
  facet normal 0.625924 0.779884 0
    outer loop
      vertex 58.5313 60.8756 0
      vertex 58.9634 60.5288 1
      vertex 58.9634 60.5288 0
    endloop
  endfacet
  facet normal 0.659344 0.751842 0
    outer loop
      vertex 58.9634 60.5288 1
      vertex 59.38 60.1634 1
      vertex 58.9634 60.5288 0
    endloop
  endfacet
  facet normal 0.659344 0.751842 0
    outer loop
      vertex 58.9634 60.5288 0
      vertex 59.38 60.1634 1
      vertex 59.38 60.1634 0
    endloop
  endfacet
  facet normal 0.691516 0.722361 0
    outer loop
      vertex 59.38 60.1634 1
      vertex 59.7803 59.7803 1
      vertex 59.38 60.1634 0
    endloop
  endfacet
  facet normal 0.691516 0.722361 0
    outer loop
      vertex 59.38 60.1634 0
      vertex 59.7803 59.7803 1
      vertex 59.7803 59.7803 0
    endloop
  endfacet
  facet normal 0.722361 0.691516 0
    outer loop
      vertex 59.7803 59.7803 1
      vertex 60.1634 59.38 1
      vertex 59.7803 59.7803 0
    endloop
  endfacet
  facet normal 0.722361 0.691516 0
    outer loop
      vertex 59.7803 59.7803 0
      vertex 60.1634 59.38 1
      vertex 60.1634 59.38 0
    endloop
  endfacet
  facet normal 0.751842 0.659344 0
    outer loop
      vertex 60.1634 59.38 1
      vertex 60.5288 58.9634 1
      vertex 60.1634 59.38 0
    endloop
  endfacet
  facet normal 0.751842 0.659344 0
    outer loop
      vertex 60.1634 59.38 0
      vertex 60.5288 58.9634 1
      vertex 60.5288 58.9634 0
    endloop
  endfacet
  facet normal 0.779884 0.625924 0
    outer loop
      vertex 60.5288 58.9634 1
      vertex 60.8756 58.5313 1
      vertex 60.5288 58.9634 0
    endloop
  endfacet
  facet normal 0.779884 0.625924 0
    outer loop
      vertex 60.5288 58.9634 0
      vertex 60.8756 58.5313 1
      vertex 60.8756 58.5313 0
    endloop
  endfacet
  facet normal 0.806445 0.59131 0
    outer loop
      vertex 60.8756 58.5313 1
      vertex 61.2032 58.0844 1
      vertex 60.8756 58.5313 0
    endloop
  endfacet
  facet normal 0.806445 0.59131 0
    outer loop
      vertex 60.8756 58.5313 0
      vertex 61.2032 58.0844 1
      vertex 61.2032 58.0844 0
    endloop
  endfacet
  facet normal 0.83147 0.55557 0
    outer loop
      vertex 61.2032 58.0844 1
      vertex 61.5111 57.6237 1
      vertex 61.2032 58.0844 0
    endloop
  endfacet
  facet normal 0.83147 0.55557 0
    outer loop
      vertex 61.2032 58.0844 0
      vertex 61.5111 57.6237 1
      vertex 61.5111 57.6237 0
    endloop
  endfacet
  facet normal 0.854911 0.518775 0
    outer loop
      vertex 61.5111 57.6237 1
      vertex 61.7985 57.15 1
      vertex 61.5111 57.6237 0
    endloop
  endfacet
  facet normal 0.854911 0.518775 0
    outer loop
      vertex 61.5111 57.6237 0
      vertex 61.7985 57.15 1
      vertex 61.7985 57.15 0
    endloop
  endfacet
  facet normal 0.876727 0.480988 0
    outer loop
      vertex 61.7985 57.15 1
      vertex 62.065 56.6642 1
      vertex 61.7985 57.15 0
    endloop
  endfacet
  facet normal 0.876727 0.480988 0
    outer loop
      vertex 61.7985 57.15 0
      vertex 62.065 56.6642 1
      vertex 62.065 56.6642 0
    endloop
  endfacet
  facet normal 0.896874 0.442285 0
    outer loop
      vertex 62.065 56.6642 1
      vertex 62.3101 56.1673 1
      vertex 62.065 56.6642 0
    endloop
  endfacet
  facet normal 0.896874 0.442285 0
    outer loop
      vertex 62.065 56.6642 0
      vertex 62.3101 56.1673 1
      vertex 62.3101 56.1673 0
    endloop
  endfacet
  facet normal 0.915312 0.402745 0
    outer loop
      vertex 62.3101 56.1673 1
      vertex 62.5333 55.6601 1
      vertex 62.3101 56.1673 0
    endloop
  endfacet
  facet normal 0.915312 0.402745 0
    outer loop
      vertex 62.3101 56.1673 0
      vertex 62.5333 55.6601 1
      vertex 62.5333 55.6601 0
    endloop
  endfacet
  facet normal 0.932006 0.362443 0
    outer loop
      vertex 62.5333 55.6601 1
      vertex 62.7341 55.1437 1
      vertex 62.5333 55.6601 0
    endloop
  endfacet
  facet normal 0.932006 0.362443 0
    outer loop
      vertex 62.5333 55.6601 0
      vertex 62.7341 55.1437 1
      vertex 62.7341 55.1437 0
    endloop
  endfacet
  facet normal 0.946932 0.321435 0
    outer loop
      vertex 62.7341 55.1437 1
      vertex 62.9122 54.619 1
      vertex 62.7341 55.1437 0
    endloop
  endfacet
  facet normal 0.946932 0.321435 0
    outer loop
      vertex 62.7341 55.1437 0
      vertex 62.9122 54.619 1
      vertex 62.9122 54.619 0
    endloop
  endfacet
  facet normal 0.960049 0.279832 0
    outer loop
      vertex 62.9122 54.619 1
      vertex 63.0673 54.087 1
      vertex 62.9122 54.619 0
    endloop
  endfacet
  facet normal 0.960049 0.279832 0
    outer loop
      vertex 62.9122 54.619 0
      vertex 63.0673 54.087 1
      vertex 63.0673 54.087 0
    endloop
  endfacet
  facet normal 0.971341 0.23769 0
    outer loop
      vertex 63.0673 54.087 1
      vertex 63.199 53.5488 1
      vertex 63.0673 54.087 0
    endloop
  endfacet
  facet normal 0.971341 0.23769 0
    outer loop
      vertex 63.0673 54.087 0
      vertex 63.199 53.5488 1
      vertex 63.199 53.5488 0
    endloop
  endfacet
  facet normal 0.980785 0.195092 0
    outer loop
      vertex 63.199 53.5488 1
      vertex 63.3071 53.0053 1
      vertex 63.199 53.5488 0
    endloop
  endfacet
  facet normal 0.980785 0.195092 0
    outer loop
      vertex 63.199 53.5488 0
      vertex 63.3071 53.0053 1
      vertex 63.3071 53.0053 0
    endloop
  endfacet
  facet normal 0.988362 0.152119 0
    outer loop
      vertex 63.3071 53.0053 1
      vertex 63.3914 52.4577 1
      vertex 63.3071 53.0053 0
    endloop
  endfacet
  facet normal 0.988362 0.152119 0
    outer loop
      vertex 63.3071 53.0053 0
      vertex 63.3914 52.4577 1
      vertex 63.3914 52.4577 0
    endloop
  endfacet
  facet normal 0.994057 0.108861 0
    outer loop
      vertex 63.3914 52.4577 1
      vertex 63.4517 51.9069 1
      vertex 63.3914 52.4577 0
    endloop
  endfacet
  facet normal 0.994057 0.108861 0
    outer loop
      vertex 63.3914 52.4577 0
      vertex 63.4517 51.9069 1
      vertex 63.4517 51.9069 0
    endloop
  endfacet
  facet normal 0.997859 0.065403 0
    outer loop
      vertex 63.4517 51.9069 1
      vertex 63.4879 51.354 1
      vertex 63.4517 51.9069 0
    endloop
  endfacet
  facet normal 0.997859 0.065403 0
    outer loop
      vertex 63.4517 51.9069 0
      vertex 63.4879 51.354 1
      vertex 63.4879 51.354 0
    endloop
  endfacet
  facet normal 0.999762 0.0218234 0
    outer loop
      vertex 63.4879 51.354 1
      vertex 63.5 50.8 1
      vertex 63.4879 51.354 0
    endloop
  endfacet
  facet normal 0.999762 0.0218234 0
    outer loop
      vertex 63.4879 51.354 0
      vertex 63.5 50.8 1
      vertex 63.5 50.8 0
    endloop
  endfacet
  facet normal 0.999762 -0.0218234 0
    outer loop
      vertex 63.5 50.8 1
      vertex 63.4879 50.246 1
      vertex 63.5 50.8 0
    endloop
  endfacet
  facet normal 0.999762 -0.0218234 0
    outer loop
      vertex 63.5 50.8 0
      vertex 63.4879 50.246 1
      vertex 63.4879 50.246 0
    endloop
  endfacet
  facet normal 0.997859 -0.065403 0
    outer loop
      vertex 63.4879 50.246 1
      vertex 63.4517 49.6931 1
      vertex 63.4879 50.246 0
    endloop
  endfacet
  facet normal 0.997859 -0.065403 0
    outer loop
      vertex 63.4879 50.246 0
      vertex 63.4517 49.6931 1
      vertex 63.4517 49.6931 0
    endloop
  endfacet
  facet normal 0.994057 -0.108861 0
    outer loop
      vertex 63.4517 49.6931 1
      vertex 63.3914 49.1423 1
      vertex 63.4517 49.6931 0
    endloop
  endfacet
  facet normal 0.994057 -0.108861 0
    outer loop
      vertex 63.4517 49.6931 0
      vertex 63.3914 49.1423 1
      vertex 63.3914 49.1423 0
    endloop
  endfacet
  facet normal 0.988362 -0.152119 0
    outer loop
      vertex 63.3914 49.1423 1
      vertex 63.3071 48.5947 1
      vertex 63.3914 49.1423 0
    endloop
  endfacet
  facet normal 0.988362 -0.152119 0
    outer loop
      vertex 63.3914 49.1423 0
      vertex 63.3071 48.5947 1
      vertex 63.3071 48.5947 0
    endloop
  endfacet
  facet normal 0.980785 -0.195092 0
    outer loop
      vertex 63.3071 48.5947 1
      vertex 63.199 48.0512 1
      vertex 63.3071 48.5947 0
    endloop
  endfacet
  facet normal 0.980785 -0.195092 0
    outer loop
      vertex 63.3071 48.5947 0
      vertex 63.199 48.0512 1
      vertex 63.199 48.0512 0
    endloop
  endfacet
  facet normal 0.971341 -0.23769 0
    outer loop
      vertex 63.199 48.0512 1
      vertex 63.0673 47.513 1
      vertex 63.199 48.0512 0
    endloop
  endfacet
  facet normal 0.971341 -0.23769 0
    outer loop
      vertex 63.199 48.0512 0
      vertex 63.0673 47.513 1
      vertex 63.0673 47.513 0
    endloop
  endfacet
  facet normal 0.960049 -0.279832 0
    outer loop
      vertex 63.0673 47.513 1
      vertex 62.9122 46.981 1
      vertex 63.0673 47.513 0
    endloop
  endfacet
  facet normal 0.960049 -0.279832 0
    outer loop
      vertex 63.0673 47.513 0
      vertex 62.9122 46.981 1
      vertex 62.9122 46.981 0
    endloop
  endfacet
  facet normal 0.946932 -0.321435 0
    outer loop
      vertex 62.9122 46.981 1
      vertex 62.7341 46.4563 1
      vertex 62.9122 46.981 0
    endloop
  endfacet
  facet normal 0.946932 -0.321435 0
    outer loop
      vertex 62.9122 46.981 0
      vertex 62.7341 46.4563 1
      vertex 62.7341 46.4563 0
    endloop
  endfacet
  facet normal 0.932006 -0.362443 0
    outer loop
      vertex 62.7341 46.4563 1
      vertex 62.5333 45.9399 1
      vertex 62.7341 46.4563 0
    endloop
  endfacet
  facet normal 0.932006 -0.362443 0
    outer loop
      vertex 62.7341 46.4563 0
      vertex 62.5333 45.9399 1
      vertex 62.5333 45.9399 0
    endloop
  endfacet
  facet normal 0.915312 -0.402745 0
    outer loop
      vertex 62.5333 45.9399 1
      vertex 62.3101 45.4327 1
      vertex 62.5333 45.9399 0
    endloop
  endfacet
  facet normal 0.915312 -0.402745 0
    outer loop
      vertex 62.5333 45.9399 0
      vertex 62.3101 45.4327 1
      vertex 62.3101 45.4327 0
    endloop
  endfacet
  facet normal 0.896874 -0.442285 0
    outer loop
      vertex 62.3101 45.4327 1
      vertex 62.065 44.9358 1
      vertex 62.3101 45.4327 0
    endloop
  endfacet
  facet normal 0.896874 -0.442285 0
    outer loop
      vertex 62.3101 45.4327 0
      vertex 62.065 44.9358 1
      vertex 62.065 44.9358 0
    endloop
  endfacet
  facet normal 0.876727 -0.480988 0
    outer loop
      vertex 62.065 44.9358 1
      vertex 61.7985 44.45 1
      vertex 62.065 44.9358 0
    endloop
  endfacet
  facet normal 0.876727 -0.480988 0
    outer loop
      vertex 62.065 44.9358 0
      vertex 61.7985 44.45 1
      vertex 61.7985 44.45 0
    endloop
  endfacet
  facet normal 0.854909 -0.518778 0
    outer loop
      vertex 61.7985 44.45 1
      vertex 61.5111 43.9763 1
      vertex 61.7985 44.45 0
    endloop
  endfacet
  facet normal 0.854909 -0.518778 0
    outer loop
      vertex 61.7985 44.45 0
      vertex 61.5111 43.9763 1
      vertex 61.5111 43.9763 0
    endloop
  endfacet
  facet normal 0.831472 -0.555567 0
    outer loop
      vertex 61.5111 43.9763 1
      vertex 61.2032 43.5156 1
      vertex 61.5111 43.9763 0
    endloop
  endfacet
  facet normal 0.831472 -0.555567 0
    outer loop
      vertex 61.5111 43.9763 0
      vertex 61.2032 43.5156 1
      vertex 61.2032 43.5156 0
    endloop
  endfacet
  facet normal 0.806445 -0.59131 0
    outer loop
      vertex 61.2032 43.5156 1
      vertex 60.8756 43.0687 1
      vertex 61.2032 43.5156 0
    endloop
  endfacet
  facet normal 0.806445 -0.59131 0
    outer loop
      vertex 61.2032 43.5156 0
      vertex 60.8756 43.0687 1
      vertex 60.8756 43.0687 0
    endloop
  endfacet
  facet normal 0.779884 -0.625924 0
    outer loop
      vertex 60.8756 43.0687 1
      vertex 60.5288 42.6366 1
      vertex 60.8756 43.0687 0
    endloop
  endfacet
  facet normal 0.779884 -0.625924 0
    outer loop
      vertex 60.8756 43.0687 0
      vertex 60.5288 42.6366 1
      vertex 60.5288 42.6366 0
    endloop
  endfacet
  facet normal 0.751842 -0.659344 0
    outer loop
      vertex 60.5288 42.6366 1
      vertex 60.1634 42.22 1
      vertex 60.5288 42.6366 0
    endloop
  endfacet
  facet normal 0.751842 -0.659344 0
    outer loop
      vertex 60.5288 42.6366 0
      vertex 60.1634 42.22 1
      vertex 60.1634 42.22 0
    endloop
  endfacet
  facet normal 0.722361 -0.691516 0
    outer loop
      vertex 60.1634 42.22 1
      vertex 59.7803 41.8197 1
      vertex 60.1634 42.22 0
    endloop
  endfacet
  facet normal 0.722361 -0.691516 0
    outer loop
      vertex 60.1634 42.22 0
      vertex 59.7803 41.8197 1
      vertex 59.7803 41.8197 0
    endloop
  endfacet
  facet normal 0.691512 -0.722365 0
    outer loop
      vertex 59.7803 41.8197 1
      vertex 59.38 41.4366 1
      vertex 59.7803 41.8197 0
    endloop
  endfacet
  facet normal 0.691512 -0.722365 0
    outer loop
      vertex 59.7803 41.8197 0
      vertex 59.38 41.4366 1
      vertex 59.38 41.4366 0
    endloop
  endfacet
  facet normal 0.659348 -0.751838 0
    outer loop
      vertex 59.38 41.4366 1
      vertex 58.9634 41.0712 1
      vertex 59.38 41.4366 0
    endloop
  endfacet
  facet normal 0.659348 -0.751838 0
    outer loop
      vertex 59.38 41.4366 0
      vertex 58.9634 41.0712 1
      vertex 58.9634 41.0712 0
    endloop
  endfacet
  facet normal 0.625924 -0.779884 0
    outer loop
      vertex 58.9634 41.0712 1
      vertex 58.5313 40.7244 1
      vertex 58.9634 41.0712 0
    endloop
  endfacet
  facet normal 0.625924 -0.779884 0
    outer loop
      vertex 58.9634 41.0712 0
      vertex 58.5313 40.7244 1
      vertex 58.5313 40.7244 0
    endloop
  endfacet
  facet normal 0.59131 -0.806445 0
    outer loop
      vertex 58.5313 40.7244 1
      vertex 58.0844 40.3968 1
      vertex 58.5313 40.7244 0
    endloop
  endfacet
  facet normal 0.59131 -0.806445 0
    outer loop
      vertex 58.5313 40.7244 0
      vertex 58.0844 40.3968 1
      vertex 58.0844 40.3968 0
    endloop
  endfacet
  facet normal 0.55557 -0.83147 0
    outer loop
      vertex 58.0844 40.3968 1
      vertex 57.6237 40.0889 1
      vertex 58.0844 40.3968 0
    endloop
  endfacet
  facet normal 0.55557 -0.83147 0
    outer loop
      vertex 58.0844 40.3968 0
      vertex 57.6237 40.0889 1
      vertex 57.6237 40.0889 0
    endloop
  endfacet
  facet normal 0.51877 -0.854914 0
    outer loop
      vertex 57.6237 40.0889 1
      vertex 57.15 39.8015 1
      vertex 57.6237 40.0889 0
    endloop
  endfacet
  facet normal 0.51877 -0.854914 0
    outer loop
      vertex 57.6237 40.0889 0
      vertex 57.15 39.8015 1
      vertex 57.15 39.8015 0
    endloop
  endfacet
  facet normal 0.480988 -0.876727 0
    outer loop
      vertex 57.15 39.8015 1
      vertex 56.6642 39.535 1
      vertex 57.15 39.8015 0
    endloop
  endfacet
  facet normal 0.480988 -0.876727 0
    outer loop
      vertex 57.15 39.8015 0
      vertex 56.6642 39.535 1
      vertex 56.6642 39.535 0
    endloop
  endfacet
  facet normal 0.442291 -0.896872 0
    outer loop
      vertex 56.6642 39.535 1
      vertex 56.1673 39.2899 1
      vertex 56.6642 39.535 0
    endloop
  endfacet
  facet normal 0.442291 -0.896872 0
    outer loop
      vertex 56.6642 39.535 0
      vertex 56.1673 39.2899 1
      vertex 56.1673 39.2899 0
    endloop
  endfacet
  facet normal 0.40275 -0.91531 0
    outer loop
      vertex 56.1673 39.2899 1
      vertex 55.6601 39.0667 1
      vertex 56.1673 39.2899 0
    endloop
  endfacet
  facet normal 0.40275 -0.91531 0
    outer loop
      vertex 56.1673 39.2899 0
      vertex 55.6601 39.0667 1
      vertex 55.6601 39.0667 0
    endloop
  endfacet
  facet normal 0.362432 -0.93201 0
    outer loop
      vertex 55.6601 39.0667 1
      vertex 55.1437 38.8659 1
      vertex 55.6601 39.0667 0
    endloop
  endfacet
  facet normal 0.362432 -0.93201 0
    outer loop
      vertex 55.6601 39.0667 0
      vertex 55.1437 38.8659 1
      vertex 55.1437 38.8659 0
    endloop
  endfacet
  facet normal 0.321441 -0.94693 0
    outer loop
      vertex 55.1437 38.8659 1
      vertex 54.619 38.6878 1
      vertex 55.1437 38.8659 0
    endloop
  endfacet
  facet normal 0.321441 -0.94693 0
    outer loop
      vertex 55.1437 38.8659 0
      vertex 54.619 38.6878 1
      vertex 54.619 38.6878 0
    endloop
  endfacet
  facet normal 0.279832 -0.960049 0
    outer loop
      vertex 54.619 38.6878 1
      vertex 54.087 38.5327 1
      vertex 54.619 38.6878 0
    endloop
  endfacet
  facet normal 0.279832 -0.960049 0
    outer loop
      vertex 54.619 38.6878 0
      vertex 54.087 38.5327 1
      vertex 54.087 38.5327 0
    endloop
  endfacet
  facet normal 0.237684 -0.971343 0
    outer loop
      vertex 54.087 38.5327 1
      vertex 53.5488 38.401 1
      vertex 54.087 38.5327 0
    endloop
  endfacet
  facet normal 0.237684 -0.971343 0
    outer loop
      vertex 54.087 38.5327 0
      vertex 53.5488 38.401 1
      vertex 53.5488 38.401 0
    endloop
  endfacet
  facet normal 0.195092 -0.980785 0
    outer loop
      vertex 53.5488 38.401 1
      vertex 53.0053 38.2929 1
      vertex 53.5488 38.401 0
    endloop
  endfacet
  facet normal 0.195092 -0.980785 0
    outer loop
      vertex 53.5488 38.401 0
      vertex 53.0053 38.2929 1
      vertex 53.0053 38.2929 0
    endloop
  endfacet
  facet normal 0.152125 -0.988361 0
    outer loop
      vertex 53.0053 38.2929 1
      vertex 52.4577 38.2086 1
      vertex 53.0053 38.2929 0
    endloop
  endfacet
  facet normal 0.152125 -0.988361 0
    outer loop
      vertex 53.0053 38.2929 0
      vertex 52.4577 38.2086 1
      vertex 52.4577 38.2086 0
    endloop
  endfacet
  facet normal 0.108861 -0.994057 0
    outer loop
      vertex 52.4577 38.2086 1
      vertex 51.9069 38.1483 1
      vertex 52.4577 38.2086 0
    endloop
  endfacet
  facet normal 0.108861 -0.994057 0
    outer loop
      vertex 52.4577 38.2086 0
      vertex 51.9069 38.1483 1
      vertex 51.9069 38.1483 0
    endloop
  endfacet
  facet normal 0.065403 -0.997859 0
    outer loop
      vertex 51.9069 38.1483 1
      vertex 51.354 38.1121 1
      vertex 51.9069 38.1483 0
    endloop
  endfacet
  facet normal 0.065403 -0.997859 0
    outer loop
      vertex 51.9069 38.1483 0
      vertex 51.354 38.1121 1
      vertex 51.354 38.1121 0
    endloop
  endfacet
  facet normal 0.0218167 -0.999762 0
    outer loop
      vertex 51.354 38.1121 1
      vertex 50.8 38.1 1
      vertex 51.354 38.1121 0
    endloop
  endfacet
  facet normal 0.0218167 -0.999762 0
    outer loop
      vertex 51.354 38.1121 0
      vertex 50.8 38.1 1
      vertex 50.8 38.1 0
    endloop
  endfacet
  facet normal -0.0218167 -0.999762 0
    outer loop
      vertex 50.8 38.1 1
      vertex 50.246 38.1121 1
      vertex 50.8 38.1 0
    endloop
  endfacet
  facet normal -0.0218167 -0.999762 0
    outer loop
      vertex 50.8 38.1 0
      vertex 50.246 38.1121 1
      vertex 50.246 38.1121 0
    endloop
  endfacet
  facet normal -0.065403 -0.997859 0
    outer loop
      vertex 50.246 38.1121 1
      vertex 49.6931 38.1483 1
      vertex 50.246 38.1121 0
    endloop
  endfacet
  facet normal -0.065403 -0.997859 0
    outer loop
      vertex 50.246 38.1121 0
      vertex 49.6931 38.1483 1
      vertex 49.6931 38.1483 0
    endloop
  endfacet
  facet normal -0.108861 -0.994057 0
    outer loop
      vertex 49.6931 38.1483 1
      vertex 49.1423 38.2086 1
      vertex 49.6931 38.1483 0
    endloop
  endfacet
  facet normal -0.108861 -0.994057 0
    outer loop
      vertex 49.6931 38.1483 0
      vertex 49.1423 38.2086 1
      vertex 49.1423 38.2086 0
    endloop
  endfacet
  facet normal -0.152125 -0.988361 0
    outer loop
      vertex 49.1423 38.2086 1
      vertex 48.5947 38.2929 1
      vertex 49.1423 38.2086 0
    endloop
  endfacet
  facet normal -0.152125 -0.988361 0
    outer loop
      vertex 49.1423 38.2086 0
      vertex 48.5947 38.2929 1
      vertex 48.5947 38.2929 0
    endloop
  endfacet
  facet normal -0.195092 -0.980785 0
    outer loop
      vertex 48.5947 38.2929 1
      vertex 48.0512 38.401 1
      vertex 48.5947 38.2929 0
    endloop
  endfacet
  facet normal -0.195092 -0.980785 0
    outer loop
      vertex 48.5947 38.2929 0
      vertex 48.0512 38.401 1
      vertex 48.0512 38.401 0
    endloop
  endfacet
  facet normal -0.237684 -0.971343 0
    outer loop
      vertex 48.0512 38.401 1
      vertex 47.513 38.5327 1
      vertex 48.0512 38.401 0
    endloop
  endfacet
  facet normal -0.237684 -0.971343 0
    outer loop
      vertex 48.0512 38.401 0
      vertex 47.513 38.5327 1
      vertex 47.513 38.5327 0
    endloop
  endfacet
  facet normal -0.279832 -0.960049 0
    outer loop
      vertex 47.513 38.5327 1
      vertex 46.981 38.6878 1
      vertex 47.513 38.5327 0
    endloop
  endfacet
  facet normal -0.279832 -0.960049 0
    outer loop
      vertex 47.513 38.5327 0
      vertex 46.981 38.6878 1
      vertex 46.981 38.6878 0
    endloop
  endfacet
  facet normal -0.321441 -0.94693 0
    outer loop
      vertex 46.981 38.6878 1
      vertex 46.4563 38.8659 1
      vertex 46.981 38.6878 0
    endloop
  endfacet
  facet normal -0.321441 -0.94693 0
    outer loop
      vertex 46.981 38.6878 0
      vertex 46.4563 38.8659 1
      vertex 46.4563 38.8659 0
    endloop
  endfacet
  facet normal -0.362432 -0.93201 0
    outer loop
      vertex 46.4563 38.8659 1
      vertex 45.9399 39.0667 1
      vertex 46.4563 38.8659 0
    endloop
  endfacet
  facet normal -0.362432 -0.93201 0
    outer loop
      vertex 46.4563 38.8659 0
      vertex 45.9399 39.0667 1
      vertex 45.9399 39.0667 0
    endloop
  endfacet
  facet normal -0.40275 -0.91531 0
    outer loop
      vertex 45.9399 39.0667 1
      vertex 45.4327 39.2899 1
      vertex 45.9399 39.0667 0
    endloop
  endfacet
  facet normal -0.40275 -0.91531 0
    outer loop
      vertex 45.9399 39.0667 0
      vertex 45.4327 39.2899 1
      vertex 45.4327 39.2899 0
    endloop
  endfacet
  facet normal -0.442291 -0.896872 0
    outer loop
      vertex 45.4327 39.2899 1
      vertex 44.9358 39.535 1
      vertex 45.4327 39.2899 0
    endloop
  endfacet
  facet normal -0.442291 -0.896872 0
    outer loop
      vertex 45.4327 39.2899 0
      vertex 44.9358 39.535 1
      vertex 44.9358 39.535 0
    endloop
  endfacet
  facet normal -0.480988 -0.876727 0
    outer loop
      vertex 44.9358 39.535 1
      vertex 44.45 39.8015 1
      vertex 44.9358 39.535 0
    endloop
  endfacet
  facet normal -0.480988 -0.876727 0
    outer loop
      vertex 44.9358 39.535 0
      vertex 44.45 39.8015 1
      vertex 44.45 39.8015 0
    endloop
  endfacet
  facet normal -0.518773 -0.854912 0
    outer loop
      vertex 44.45 39.8015 1
      vertex 43.9763 40.0889 1
      vertex 44.45 39.8015 0
    endloop
  endfacet
  facet normal -0.518773 -0.854912 0
    outer loop
      vertex 44.45 39.8015 0
      vertex 43.9763 40.0889 1
      vertex 43.9763 40.0889 0
    endloop
  endfacet
  facet normal -0.555567 -0.831472 0
    outer loop
      vertex 43.9763 40.0889 1
      vertex 43.5156 40.3968 1
      vertex 43.9763 40.0889 0
    endloop
  endfacet
  facet normal -0.555567 -0.831472 0
    outer loop
      vertex 43.9763 40.0889 0
      vertex 43.5156 40.3968 1
      vertex 43.5156 40.3968 0
    endloop
  endfacet
  facet normal -0.59131 -0.806445 0
    outer loop
      vertex 43.5156 40.3968 1
      vertex 43.0687 40.7244 1
      vertex 43.5156 40.3968 0
    endloop
  endfacet
  facet normal -0.59131 -0.806445 0
    outer loop
      vertex 43.5156 40.3968 0
      vertex 43.0687 40.7244 1
      vertex 43.0687 40.7244 0
    endloop
  endfacet
  facet normal -0.625924 -0.779884 0
    outer loop
      vertex 43.0687 40.7244 1
      vertex 42.6366 41.0712 1
      vertex 43.0687 40.7244 0
    endloop
  endfacet
  facet normal -0.625924 -0.779884 0
    outer loop
      vertex 43.0687 40.7244 0
      vertex 42.6366 41.0712 1
      vertex 42.6366 41.0712 0
    endloop
  endfacet
  facet normal -0.659348 -0.751838 0
    outer loop
      vertex 42.6366 41.0712 1
      vertex 42.22 41.4366 1
      vertex 42.6366 41.0712 0
    endloop
  endfacet
  facet normal -0.659348 -0.751838 0
    outer loop
      vertex 42.6366 41.0712 0
      vertex 42.22 41.4366 1
      vertex 42.22 41.4366 0
    endloop
  endfacet
  facet normal -0.691512 -0.722365 0
    outer loop
      vertex 42.22 41.4366 1
      vertex 41.8197 41.8197 1
      vertex 42.22 41.4366 0
    endloop
  endfacet
  facet normal -0.691512 -0.722365 0
    outer loop
      vertex 42.22 41.4366 0
      vertex 41.8197 41.8197 1
      vertex 41.8197 41.8197 0
    endloop
  endfacet
  facet normal -0.722365 -0.691512 0
    outer loop
      vertex 41.8197 41.8197 1
      vertex 41.4366 42.22 1
      vertex 41.8197 41.8197 0
    endloop
  endfacet
  facet normal -0.722365 -0.691512 0
    outer loop
      vertex 41.8197 41.8197 0
      vertex 41.4366 42.22 1
      vertex 41.4366 42.22 0
    endloop
  endfacet
  facet normal -0.751838 -0.659348 0
    outer loop
      vertex 41.4366 42.22 1
      vertex 41.0712 42.6366 1
      vertex 41.4366 42.22 0
    endloop
  endfacet
  facet normal -0.751838 -0.659348 0
    outer loop
      vertex 41.4366 42.22 0
      vertex 41.0712 42.6366 1
      vertex 41.0712 42.6366 0
    endloop
  endfacet
  facet normal -0.779884 -0.625924 0
    outer loop
      vertex 41.0712 42.6366 1
      vertex 40.7244 43.0687 1
      vertex 41.0712 42.6366 0
    endloop
  endfacet
  facet normal -0.779884 -0.625924 0
    outer loop
      vertex 41.0712 42.6366 0
      vertex 40.7244 43.0687 1
      vertex 40.7244 43.0687 0
    endloop
  endfacet
  facet normal -0.806445 -0.59131 0
    outer loop
      vertex 40.7244 43.0687 1
      vertex 40.3968 43.5156 1
      vertex 40.7244 43.0687 0
    endloop
  endfacet
  facet normal -0.806445 -0.59131 0
    outer loop
      vertex 40.7244 43.0687 0
      vertex 40.3968 43.5156 1
      vertex 40.3968 43.5156 0
    endloop
  endfacet
  facet normal -0.831472 -0.555567 0
    outer loop
      vertex 40.3968 43.5156 1
      vertex 40.0889 43.9763 1
      vertex 40.3968 43.5156 0
    endloop
  endfacet
  facet normal -0.831472 -0.555567 0
    outer loop
      vertex 40.3968 43.5156 0
      vertex 40.0889 43.9763 1
      vertex 40.0889 43.9763 0
    endloop
  endfacet
  facet normal -0.854912 -0.518773 0
    outer loop
      vertex 40.0889 43.9763 1
      vertex 39.8015 44.45 1
      vertex 40.0889 43.9763 0
    endloop
  endfacet
  facet normal -0.854912 -0.518773 0
    outer loop
      vertex 40.0889 43.9763 0
      vertex 39.8015 44.45 1
      vertex 39.8015 44.45 0
    endloop
  endfacet
  facet normal -0.876727 -0.480988 0
    outer loop
      vertex 39.8015 44.45 1
      vertex 39.535 44.9358 1
      vertex 39.8015 44.45 0
    endloop
  endfacet
  facet normal -0.876727 -0.480988 0
    outer loop
      vertex 39.8015 44.45 0
      vertex 39.535 44.9358 1
      vertex 39.535 44.9358 0
    endloop
  endfacet
  facet normal -0.896872 -0.442291 0
    outer loop
      vertex 39.535 44.9358 1
      vertex 39.2899 45.4327 1
      vertex 39.535 44.9358 0
    endloop
  endfacet
  facet normal -0.896872 -0.442291 0
    outer loop
      vertex 39.535 44.9358 0
      vertex 39.2899 45.4327 1
      vertex 39.2899 45.4327 0
    endloop
  endfacet
  facet normal -0.91531 -0.40275 0
    outer loop
      vertex 39.2899 45.4327 1
      vertex 39.0667 45.9399 1
      vertex 39.2899 45.4327 0
    endloop
  endfacet
  facet normal -0.91531 -0.40275 0
    outer loop
      vertex 39.2899 45.4327 0
      vertex 39.0667 45.9399 1
      vertex 39.0667 45.9399 0
    endloop
  endfacet
  facet normal -0.93201 -0.362432 0
    outer loop
      vertex 39.0667 45.9399 1
      vertex 38.8659 46.4563 1
      vertex 39.0667 45.9399 0
    endloop
  endfacet
  facet normal -0.93201 -0.362432 0
    outer loop
      vertex 39.0667 45.9399 0
      vertex 38.8659 46.4563 1
      vertex 38.8659 46.4563 0
    endloop
  endfacet
  facet normal -0.94693 -0.321441 0
    outer loop
      vertex 38.8659 46.4563 1
      vertex 38.6878 46.981 1
      vertex 38.8659 46.4563 0
    endloop
  endfacet
  facet normal -0.94693 -0.321441 0
    outer loop
      vertex 38.8659 46.4563 0
      vertex 38.6878 46.981 1
      vertex 38.6878 46.981 0
    endloop
  endfacet
  facet normal -0.960049 -0.279832 0
    outer loop
      vertex 38.6878 46.981 1
      vertex 38.5327 47.513 1
      vertex 38.6878 46.981 0
    endloop
  endfacet
  facet normal -0.960049 -0.279832 0
    outer loop
      vertex 38.6878 46.981 0
      vertex 38.5327 47.513 1
      vertex 38.5327 47.513 0
    endloop
  endfacet
  facet normal -0.971343 -0.237684 0
    outer loop
      vertex 38.5327 47.513 1
      vertex 38.401 48.0512 1
      vertex 38.5327 47.513 0
    endloop
  endfacet
  facet normal -0.971343 -0.237684 0
    outer loop
      vertex 38.5327 47.513 0
      vertex 38.401 48.0512 1
      vertex 38.401 48.0512 0
    endloop
  endfacet
  facet normal -0.980785 -0.195092 0
    outer loop
      vertex 38.401 48.0512 1
      vertex 38.2929 48.5947 1
      vertex 38.401 48.0512 0
    endloop
  endfacet
  facet normal -0.980785 -0.195092 0
    outer loop
      vertex 38.401 48.0512 0
      vertex 38.2929 48.5947 1
      vertex 38.2929 48.5947 0
    endloop
  endfacet
  facet normal -0.988361 -0.152125 0
    outer loop
      vertex 38.2929 48.5947 1
      vertex 38.2086 49.1423 1
      vertex 38.2929 48.5947 0
    endloop
  endfacet
  facet normal -0.988361 -0.152125 0
    outer loop
      vertex 38.2929 48.5947 0
      vertex 38.2086 49.1423 1
      vertex 38.2086 49.1423 0
    endloop
  endfacet
  facet normal -0.994057 -0.108861 0
    outer loop
      vertex 38.2086 49.1423 1
      vertex 38.1483 49.6931 1
      vertex 38.2086 49.1423 0
    endloop
  endfacet
  facet normal -0.994057 -0.108861 0
    outer loop
      vertex 38.2086 49.1423 0
      vertex 38.1483 49.6931 1
      vertex 38.1483 49.6931 0
    endloop
  endfacet
  facet normal -0.997859 -0.065403 0
    outer loop
      vertex 38.1483 49.6931 1
      vertex 38.1121 50.246 1
      vertex 38.1483 49.6931 0
    endloop
  endfacet
  facet normal -0.997859 -0.065403 0
    outer loop
      vertex 38.1483 49.6931 0
      vertex 38.1121 50.246 1
      vertex 38.1121 50.246 0
    endloop
  endfacet
  facet normal -0.999762 -0.0218167 0
    outer loop
      vertex 38.1121 50.246 1
      vertex 38.1 50.8 1
      vertex 38.1121 50.246 0
    endloop
  endfacet
  facet normal -0.999762 -0.0218167 0
    outer loop
      vertex 38.1121 50.246 0
      vertex 38.1 50.8 1
      vertex 38.1 50.8 0
    endloop
  endfacet
  facet normal -0.999762 0.0218167 0
    outer loop
      vertex 38.1 50.8 1
      vertex 38.1121 51.354 1
      vertex 38.1 50.8 0
    endloop
  endfacet
  facet normal 0 0 1
    outer loop
      vertex 63.4517 49.6931 1
      vertex 63.4879 50.246 1
      vertex 50.8 50.8 1
    endloop
  endfacet
  facet normal 0 0 1
    outer loop
      vertex 63.4879 50.246 1
      vertex 63.5 50.8 1
      vertex 50.8 50.8 1
    endloop
  endfacet
  facet normal 0 0 1
    outer loop
      vertex 50.8 50.8 1
      vertex 63.5 50.8 1
      vertex 63.4879 51.354 1
    endloop
  endfacet
  facet normal 0 0 1
    outer loop
      vertex 63.199 48.0512 1
      vertex 63.3071 48.5947 1
      vertex 50.8 50.8 1
    endloop
  endfacet
  facet normal 0 0 1
    outer loop
      vertex 63.3071 48.5947 1
      vertex 63.3914 49.1423 1
      vertex 50.8 50.8 1
    endloop
  endfacet
  facet normal 0 0 1
    outer loop
      vertex 50.8 50.8 1
      vertex 63.3914 49.1423 1
      vertex 63.4517 49.6931 1
    endloop
  endfacet
  facet normal 0 0 1
    outer loop
      vertex 62.7341 46.4563 1
      vertex 62.9122 46.981 1
      vertex 50.8 50.8 1
    endloop
  endfacet
  facet normal 0 0 1
    outer loop
      vertex 62.9122 46.981 1
      vertex 63.0673 47.513 1
      vertex 50.8 50.8 1
    endloop
  endfacet
  facet normal 0 0 1
    outer loop
      vertex 50.8 50.8 1
      vertex 63.0673 47.513 1
      vertex 63.199 48.0512 1
    endloop
  endfacet
  facet normal 0 0 1
    outer loop
      vertex 62.065 44.9358 1
      vertex 62.3101 45.4327 1
      vertex 50.8 50.8 1
    endloop
  endfacet
  facet normal 0 0 1
    outer loop
      vertex 62.3101 45.4327 1
      vertex 62.5333 45.9399 1
      vertex 50.8 50.8 1
    endloop
  endfacet
  facet normal 0 0 1
    outer loop
      vertex 50.8 50.8 1
      vertex 62.5333 45.9399 1
      vertex 62.7341 46.4563 1
    endloop
  endfacet
  facet normal 0 0 1
    outer loop
      vertex 61.2032 43.5156 1
      vertex 61.5111 43.9763 1
      vertex 50.8 50.8 1
    endloop
  endfacet
  facet normal 0 0 1
    outer loop
      vertex 61.5111 43.9763 1
      vertex 61.7985 44.45 1
      vertex 50.8 50.8 1
    endloop
  endfacet
  facet normal 0 0 1
    outer loop
      vertex 50.8 50.8 1
      vertex 61.7985 44.45 1
      vertex 62.065 44.9358 1
    endloop
  endfacet
  facet normal 0 0 1
    outer loop
      vertex 60.1634 42.22 1
      vertex 60.5288 42.6366 1
      vertex 50.8 50.8 1
    endloop
  endfacet
  facet normal 0 0 1
    outer loop
      vertex 60.5288 42.6366 1
      vertex 60.8756 43.0687 1
      vertex 50.8 50.8 1
    endloop
  endfacet
  facet normal 0 0 1
    outer loop
      vertex 50.8 50.8 1
      vertex 60.8756 43.0687 1
      vertex 61.2032 43.5156 1
    endloop
  endfacet
  facet normal 0 0 1
    outer loop
      vertex 58.9634 41.0712 1
      vertex 59.38 41.4366 1
      vertex 50.8 50.8 1
    endloop
  endfacet
  facet normal 0 0 1
    outer loop
      vertex 59.38 41.4366 1
      vertex 59.7803 41.8197 1
      vertex 50.8 50.8 1
    endloop
  endfacet
  facet normal 0 0 1
    outer loop
      vertex 50.8 50.8 1
      vertex 59.7803 41.8197 1
      vertex 60.1634 42.22 1
    endloop
  endfacet
  facet normal 0 0 1
    outer loop
      vertex 57.6237 40.0889 1
      vertex 58.0844 40.3968 1
      vertex 50.8 50.8 1
    endloop
  endfacet
  facet normal 0 0 1
    outer loop
      vertex 58.0844 40.3968 1
      vertex 58.5313 40.7244 1
      vertex 50.8 50.8 1
    endloop
  endfacet
  facet normal 0 0 1
    outer loop
      vertex 50.8 50.8 1
      vertex 58.5313 40.7244 1
      vertex 58.9634 41.0712 1
    endloop
  endfacet
  facet normal 0 0 1
    outer loop
      vertex 56.1673 39.2899 1
      vertex 56.6642 39.535 1
      vertex 50.8 50.8 1
    endloop
  endfacet
  facet normal 0 0 1
    outer loop
      vertex 56.6642 39.535 1
      vertex 57.15 39.8015 1
      vertex 50.8 50.8 1
    endloop
  endfacet
  facet normal 0 0 1
    outer loop
      vertex 50.8 50.8 1
      vertex 57.15 39.8015 1
      vertex 57.6237 40.0889 1
    endloop
  endfacet
  facet normal 0 0 1
    outer loop
      vertex 54.619 38.6878 1
      vertex 55.1437 38.8659 1
      vertex 50.8 50.8 1
    endloop
  endfacet
  facet normal 0 0 1
    outer loop
      vertex 55.1437 38.8659 1
      vertex 55.6601 39.0667 1
      vertex 50.8 50.8 1
    endloop
  endfacet
  facet normal 0 0 1
    outer loop
      vertex 50.8 50.8 1
      vertex 55.6601 39.0667 1
      vertex 56.1673 39.2899 1
    endloop
  endfacet
  facet normal 0 0 1
    outer loop
      vertex 53.0053 38.2929 1
      vertex 53.5488 38.401 1
      vertex 50.8 50.8 1
    endloop
  endfacet
  facet normal 0 0 1
    outer loop
      vertex 53.5488 38.401 1
      vertex 54.087 38.5327 1
      vertex 50.8 50.8 1
    endloop
  endfacet
  facet normal 0 0 1
    outer loop
      vertex 50.8 50.8 1
      vertex 54.087 38.5327 1
      vertex 54.619 38.6878 1
    endloop
  endfacet
  facet normal 0 0 1
    outer loop
      vertex 51.354 38.1121 1
      vertex 51.9069 38.1483 1
      vertex 50.8 50.8 1
    endloop
  endfacet
  facet normal 0 0 1
    outer loop
      vertex 51.9069 38.1483 1
      vertex 52.4577 38.2086 1
      vertex 50.8 50.8 1
    endloop
  endfacet
  facet normal 0 0 1
    outer loop
      vertex 50.8 50.8 1
      vertex 52.4577 38.2086 1
      vertex 53.0053 38.2929 1
    endloop
  endfacet
  facet normal 0 0 1
    outer loop
      vertex 49.6931 38.1483 1
      vertex 50.246 38.1121 1
      vertex 50.8 50.8 1
    endloop
  endfacet
  facet normal 0 0 1
    outer loop
      vertex 50.246 38.1121 1
      vertex 50.8 38.1 1
      vertex 50.8 50.8 1
    endloop
  endfacet
  facet normal 0 0 1
    outer loop
      vertex 50.8 50.8 1
      vertex 50.8 38.1 1
      vertex 51.354 38.1121 1
    endloop
  endfacet
  facet normal 0 0 1
    outer loop
      vertex 48.0512 38.401 1
      vertex 48.5947 38.2929 1
      vertex 50.8 50.8 1
    endloop
  endfacet
  facet normal 0 0 1
    outer loop
      vertex 48.5947 38.2929 1
      vertex 49.1423 38.2086 1
      vertex 50.8 50.8 1
    endloop
  endfacet
  facet normal 0 0 1
    outer loop
      vertex 50.8 50.8 1
      vertex 49.1423 38.2086 1
      vertex 49.6931 38.1483 1
    endloop
  endfacet
  facet normal 0 0 1
    outer loop
      vertex 46.4563 38.8659 1
      vertex 46.981 38.6878 1
      vertex 50.8 50.8 1
    endloop
  endfacet
  facet normal 0 0 1
    outer loop
      vertex 46.981 38.6878 1
      vertex 47.513 38.5327 1
      vertex 50.8 50.8 1
    endloop
  endfacet
  facet normal 0 0 1
    outer loop
      vertex 50.8 50.8 1
      vertex 47.513 38.5327 1
      vertex 48.0512 38.401 1
    endloop
  endfacet
  facet normal 0 0 1
    outer loop
      vertex 44.9358 39.535 1
      vertex 45.4327 39.2899 1
      vertex 50.8 50.8 1
    endloop
  endfacet
  facet normal 0 0 1
    outer loop
      vertex 45.4327 39.2899 1
      vertex 45.9399 39.0667 1
      vertex 50.8 50.8 1
    endloop
  endfacet
  facet normal 0 0 1
    outer loop
      vertex 50.8 50.8 1
      vertex 45.9399 39.0667 1
      vertex 46.4563 38.8659 1
    endloop
  endfacet
  facet normal 0 0 1
    outer loop
      vertex 43.5156 40.3968 1
      vertex 43.9763 40.0889 1
      vertex 50.8 50.8 1
    endloop
  endfacet
  facet normal 0 0 1
    outer loop
      vertex 43.9763 40.0889 1
      vertex 44.45 39.8015 1
      vertex 50.8 50.8 1
    endloop
  endfacet
  facet normal 0 0 1
    outer loop
      vertex 50.8 50.8 1
      vertex 44.45 39.8015 1
      vertex 44.9358 39.535 1
    endloop
  endfacet
  facet normal 0 0 1
    outer loop
      vertex 42.22 41.4366 1
      vertex 42.6366 41.0712 1
      vertex 50.8 50.8 1
    endloop
  endfacet
  facet normal 0 0 1
    outer loop
      vertex 42.6366 41.0712 1
      vertex 43.0687 40.7244 1
      vertex 50.8 50.8 1
    endloop
  endfacet
  facet normal 0 0 1
    outer loop
      vertex 50.8 50.8 1
      vertex 43.0687 40.7244 1
      vertex 43.5156 40.3968 1
    endloop
  endfacet
  facet normal 0 0 1
    outer loop
      vertex 41.0712 42.6366 1
      vertex 41.4366 42.22 1
      vertex 50.8 50.8 1
    endloop
  endfacet
  facet normal 0 0 1
    outer loop
      vertex 41.4366 42.22 1
      vertex 41.8197 41.8197 1
      vertex 50.8 50.8 1
    endloop
  endfacet
  facet normal 0 0 1
    outer loop
      vertex 50.8 50.8 1
      vertex 41.8197 41.8197 1
      vertex 42.22 41.4366 1
    endloop
  endfacet
  facet normal 0 0 1
    outer loop
      vertex 40.0889 43.9763 1
      vertex 40.3968 43.5156 1
      vertex 50.8 50.8 1
    endloop
  endfacet
  facet normal 0 0 1
    outer loop
      vertex 40.3968 43.5156 1
      vertex 40.7244 43.0687 1
      vertex 50.8 50.8 1
    endloop
  endfacet
  facet normal 0 0 1
    outer loop
      vertex 50.8 50.8 1
      vertex 40.7244 43.0687 1
      vertex 41.0712 42.6366 1
    endloop
  endfacet
  facet normal 0 0 1
    outer loop
      vertex 39.2899 45.4327 1
      vertex 39.535 44.9358 1
      vertex 50.8 50.8 1
    endloop
  endfacet
  facet normal 0 0 1
    outer loop
      vertex 39.535 44.9358 1
      vertex 39.8015 44.45 1
      vertex 50.8 50.8 1
    endloop
  endfacet
  facet normal 0 0 1
    outer loop
      vertex 50.8 50.8 1
      vertex 39.8015 44.45 1
      vertex 40.0889 43.9763 1
    endloop
  endfacet
  facet normal 0 0 1
    outer loop
      vertex 38.6878 46.981 1
      vertex 38.8659 46.4563 1
      vertex 50.8 50.8 1
    endloop
  endfacet
  facet normal 0 0 1
    outer loop
      vertex 38.8659 46.4563 1
      vertex 39.0667 45.9399 1
      vertex 50.8 50.8 1
    endloop
  endfacet
  facet normal 0 0 1
    outer loop
      vertex 50.8 50.8 1
      vertex 39.0667 45.9399 1
      vertex 39.2899 45.4327 1
    endloop
  endfacet
  facet normal 0 0 1
    outer loop
      vertex 38.2929 48.5947 1
      vertex 38.401 48.0512 1
      vertex 50.8 50.8 1
    endloop
  endfacet
  facet normal 0 0 1
    outer loop
      vertex 38.401 48.0512 1
      vertex 38.5327 47.513 1
      vertex 50.8 50.8 1
    endloop
  endfacet
  facet normal 0 0 1
    outer loop
      vertex 50.8 50.8 1
      vertex 38.5327 47.513 1
      vertex 38.6878 46.981 1
    endloop
  endfacet
  facet normal 0 0 1
    outer loop
      vertex 38.1121 50.246 1
      vertex 38.1483 49.6931 1
      vertex 50.8 50.8 1
    endloop
  endfacet
  facet normal 0 0 1
    outer loop
      vertex 38.1483 49.6931 1
      vertex 38.2086 49.1423 1
      vertex 50.8 50.8 1
    endloop
  endfacet
  facet normal 0 0 1
    outer loop
      vertex 50.8 50.8 1
      vertex 38.2086 49.1423 1
      vertex 38.2929 48.5947 1
    endloop
  endfacet
  facet normal 0 0 1
    outer loop
      vertex 38.1483 51.9069 1
      vertex 38.1121 51.354 1
      vertex 50.8 50.8 1
    endloop
  endfacet
  facet normal 0 0 1
    outer loop
      vertex 38.1121 51.354 1
      vertex 38.1 50.8 1
      vertex 50.8 50.8 1
    endloop
  endfacet
  facet normal 0 0 1
    outer loop
      vertex 50.8 50.8 1
      vertex 38.1 50.8 1
      vertex 38.1121 50.246 1
    endloop
  endfacet
  facet normal 0 0 1
    outer loop
      vertex 38.401 53.5488 1
      vertex 38.2929 53.0053 1
      vertex 50.8 50.8 1
    endloop
  endfacet
  facet normal 0 0 1
    outer loop
      vertex 38.2929 53.0053 1
      vertex 38.2086 52.4577 1
      vertex 50.8 50.8 1
    endloop
  endfacet
  facet normal 0 0 1
    outer loop
      vertex 50.8 50.8 1
      vertex 38.2086 52.4577 1
      vertex 38.1483 51.9069 1
    endloop
  endfacet
  facet normal 0 0 1
    outer loop
      vertex 38.8659 55.1437 1
      vertex 38.6878 54.619 1
      vertex 50.8 50.8 1
    endloop
  endfacet
  facet normal 0 0 1
    outer loop
      vertex 38.6878 54.619 1
      vertex 38.5327 54.087 1
      vertex 50.8 50.8 1
    endloop
  endfacet
  facet normal 0 0 1
    outer loop
      vertex 50.8 50.8 1
      vertex 38.5327 54.087 1
      vertex 38.401 53.5488 1
    endloop
  endfacet
  facet normal 0 0 1
    outer loop
      vertex 39.535 56.6642 1
      vertex 39.2899 56.1673 1
      vertex 50.8 50.8 1
    endloop
  endfacet
  facet normal 0 0 1
    outer loop
      vertex 39.2899 56.1673 1
      vertex 39.0667 55.6601 1
      vertex 50.8 50.8 1
    endloop
  endfacet
  facet normal 0 0 1
    outer loop
      vertex 50.8 50.8 1
      vertex 39.0667 55.6601 1
      vertex 38.8659 55.1437 1
    endloop
  endfacet
  facet normal 0 0 1
    outer loop
      vertex 40.3968 58.0844 1
      vertex 40.0889 57.6237 1
      vertex 50.8 50.8 1
    endloop
  endfacet
  facet normal 0 0 1
    outer loop
      vertex 40.0889 57.6237 1
      vertex 39.8015 57.15 1
      vertex 50.8 50.8 1
    endloop
  endfacet
  facet normal 0 0 1
    outer loop
      vertex 50.8 50.8 1
      vertex 39.8015 57.15 1
      vertex 39.535 56.6642 1
    endloop
  endfacet
  facet normal 0 0 1
    outer loop
      vertex 41.4366 59.38 1
      vertex 41.0712 58.9634 1
      vertex 50.8 50.8 1
    endloop
  endfacet
  facet normal 0 0 1
    outer loop
      vertex 41.0712 58.9634 1
      vertex 40.7244 58.5313 1
      vertex 50.8 50.8 1
    endloop
  endfacet
  facet normal 0 0 1
    outer loop
      vertex 50.8 50.8 1
      vertex 40.7244 58.5313 1
      vertex 40.3968 58.0844 1
    endloop
  endfacet
  facet normal 0 0 1
    outer loop
      vertex 42.6366 60.5288 1
      vertex 42.22 60.1634 1
      vertex 50.8 50.8 1
    endloop
  endfacet
  facet normal 0 0 1
    outer loop
      vertex 42.22 60.1634 1
      vertex 41.8197 59.7803 1
      vertex 50.8 50.8 1
    endloop
  endfacet
  facet normal 0 0 1
    outer loop
      vertex 50.8 50.8 1
      vertex 41.8197 59.7803 1
      vertex 41.4366 59.38 1
    endloop
  endfacet
  facet normal 0 0 1
    outer loop
      vertex 43.9763 61.5111 1
      vertex 43.5156 61.2032 1
      vertex 50.8 50.8 1
    endloop
  endfacet
  facet normal 0 0 1
    outer loop
      vertex 43.5156 61.2032 1
      vertex 43.0687 60.8756 1
      vertex 50.8 50.8 1
    endloop
  endfacet
  facet normal 0 0 1
    outer loop
      vertex 50.8 50.8 1
      vertex 43.0687 60.8756 1
      vertex 42.6366 60.5288 1
    endloop
  endfacet
  facet normal 0 0 1
    outer loop
      vertex 45.4327 62.3101 1
      vertex 44.9358 62.065 1
      vertex 50.8 50.8 1
    endloop
  endfacet
  facet normal 0 0 1
    outer loop
      vertex 44.9358 62.065 1
      vertex 44.45 61.7985 1
      vertex 50.8 50.8 1
    endloop
  endfacet
  facet normal 0 0 1
    outer loop
      vertex 50.8 50.8 1
      vertex 44.45 61.7985 1
      vertex 43.9763 61.5111 1
    endloop
  endfacet
  facet normal 0 0 1
    outer loop
      vertex 46.981 62.9122 1
      vertex 46.4563 62.7341 1
      vertex 50.8 50.8 1
    endloop
  endfacet
  facet normal 0 0 1
    outer loop
      vertex 46.4563 62.7341 1
      vertex 45.9399 62.5333 1
      vertex 50.8 50.8 1
    endloop
  endfacet
  facet normal 0 0 1
    outer loop
      vertex 50.8 50.8 1
      vertex 45.9399 62.5333 1
      vertex 45.4327 62.3101 1
    endloop
  endfacet
  facet normal 0 0 1
    outer loop
      vertex 48.5947 63.3071 1
      vertex 48.0512 63.199 1
      vertex 50.8 50.8 1
    endloop
  endfacet
  facet normal 0 0 1
    outer loop
      vertex 48.0512 63.199 1
      vertex 47.513 63.0673 1
      vertex 50.8 50.8 1
    endloop
  endfacet
  facet normal 0 0 1
    outer loop
      vertex 50.8 50.8 1
      vertex 47.513 63.0673 1
      vertex 46.981 62.9122 1
    endloop
  endfacet
  facet normal 0 0 1
    outer loop
      vertex 50.246 63.4879 1
      vertex 49.6931 63.4517 1
      vertex 50.8 50.8 1
    endloop
  endfacet
  facet normal 0 0 1
    outer loop
      vertex 49.6931 63.4517 1
      vertex 49.1423 63.3914 1
      vertex 50.8 50.8 1
    endloop
  endfacet
  facet normal 0 0 1
    outer loop
      vertex 50.8 50.8 1
      vertex 49.1423 63.3914 1
      vertex 48.5947 63.3071 1
    endloop
  endfacet
  facet normal 0 0 1
    outer loop
      vertex 51.9069 63.4517 1
      vertex 51.354 63.4879 1
      vertex 50.8 50.8 1
    endloop
  endfacet
  facet normal 0 0 1
    outer loop
      vertex 51.354 63.4879 1
      vertex 50.8 63.5 1
      vertex 50.8 50.8 1
    endloop
  endfacet
  facet normal 0 0 1
    outer loop
      vertex 50.8 50.8 1
      vertex 50.8 63.5 1
      vertex 50.246 63.4879 1
    endloop
  endfacet
  facet normal 0 0 1
    outer loop
      vertex 53.5488 63.199 1
      vertex 53.0053 63.3071 1
      vertex 50.8 50.8 1
    endloop
  endfacet
  facet normal 0 0 1
    outer loop
      vertex 53.0053 63.3071 1
      vertex 52.4577 63.3914 1
      vertex 50.8 50.8 1
    endloop
  endfacet
  facet normal 0 0 1
    outer loop
      vertex 50.8 50.8 1
      vertex 52.4577 63.3914 1
      vertex 51.9069 63.4517 1
    endloop
  endfacet
  facet normal 0 0 1
    outer loop
      vertex 55.1437 62.7341 1
      vertex 54.619 62.9122 1
      vertex 50.8 50.8 1
    endloop
  endfacet
  facet normal 0 0 1
    outer loop
      vertex 54.619 62.9122 1
      vertex 54.087 63.0673 1
      vertex 50.8 50.8 1
    endloop
  endfacet
  facet normal 0 0 1
    outer loop
      vertex 50.8 50.8 1
      vertex 54.087 63.0673 1
      vertex 53.5488 63.199 1
    endloop
  endfacet
  facet normal 0 0 1
    outer loop
      vertex 56.6642 62.065 1
      vertex 56.1673 62.3101 1
      vertex 50.8 50.8 1
    endloop
  endfacet
  facet normal 0 0 1
    outer loop
      vertex 56.1673 62.3101 1
      vertex 55.6601 62.5333 1
      vertex 50.8 50.8 1
    endloop
  endfacet
  facet normal 0 0 1
    outer loop
      vertex 50.8 50.8 1
      vertex 55.6601 62.5333 1
      vertex 55.1437 62.7341 1
    endloop
  endfacet
  facet normal 0 0 1
    outer loop
      vertex 58.0844 61.2032 1
      vertex 57.6237 61.5111 1
      vertex 50.8 50.8 1
    endloop
  endfacet
  facet normal 0 0 1
    outer loop
      vertex 57.6237 61.5111 1
      vertex 57.15 61.7985 1
      vertex 50.8 50.8 1
    endloop
  endfacet
  facet normal 0 0 1
    outer loop
      vertex 50.8 50.8 1
      vertex 57.15 61.7985 1
      vertex 56.6642 62.065 1
    endloop
  endfacet
  facet normal 0 0 1
    outer loop
      vertex 59.38 60.1634 1
      vertex 58.9634 60.5288 1
      vertex 50.8 50.8 1
    endloop
  endfacet
  facet normal 0 0 1
    outer loop
      vertex 58.9634 60.5288 1
      vertex 58.5313 60.8756 1
      vertex 50.8 50.8 1
    endloop
  endfacet
  facet normal 0 0 1
    outer loop
      vertex 50.8 50.8 1
      vertex 58.5313 60.8756 1
      vertex 58.0844 61.2032 1
    endloop
  endfacet
  facet normal 0 0 1
    outer loop
      vertex 60.5288 58.9634 1
      vertex 60.1634 59.38 1
      vertex 50.8 50.8 1
    endloop
  endfacet
  facet normal 0 0 1
    outer loop
      vertex 60.1634 59.38 1
      vertex 59.7803 59.7803 1
      vertex 50.8 50.8 1
    endloop
  endfacet
  facet normal 0 0 1
    outer loop
      vertex 50.8 50.8 1
      vertex 59.7803 59.7803 1
      vertex 59.38 60.1634 1
    endloop
  endfacet
  facet normal 0 0 1
    outer loop
      vertex 61.5111 57.6237 1
      vertex 61.2032 58.0844 1
      vertex 50.8 50.8 1
    endloop
  endfacet
  facet normal 0 0 1
    outer loop
      vertex 61.2032 58.0844 1
      vertex 60.8756 58.5313 1
      vertex 50.8 50.8 1
    endloop
  endfacet
  facet normal 0 0 1
    outer loop
      vertex 50.8 50.8 1
      vertex 60.8756 58.5313 1
      vertex 60.5288 58.9634 1
    endloop
  endfacet
  facet normal 0 0 1
    outer loop
      vertex 62.3101 56.1673 1
      vertex 62.065 56.6642 1
      vertex 50.8 50.8 1
    endloop
  endfacet
  facet normal 0 0 1
    outer loop
      vertex 62.065 56.6642 1
      vertex 61.7985 57.15 1
      vertex 50.8 50.8 1
    endloop
  endfacet
  facet normal 0 0 1
    outer loop
      vertex 50.8 50.8 1
      vertex 61.7985 57.15 1
      vertex 61.5111 57.6237 1
    endloop
  endfacet
  facet normal 0 0 1
    outer loop
      vertex 62.9122 54.619 1
      vertex 62.7341 55.1437 1
      vertex 50.8 50.8 1
    endloop
  endfacet
  facet normal 0 0 1
    outer loop
      vertex 62.7341 55.1437 1
      vertex 62.5333 55.6601 1
      vertex 50.8 50.8 1
    endloop
  endfacet
  facet normal 0 0 1
    outer loop
      vertex 50.8 50.8 1
      vertex 62.5333 55.6601 1
      vertex 62.3101 56.1673 1
    endloop
  endfacet
  facet normal 0 0 1
    outer loop
      vertex 63.3071 53.0053 1
      vertex 63.199 53.5488 1
      vertex 50.8 50.8 1
    endloop
  endfacet
  facet normal 0 0 1
    outer loop
      vertex 63.199 53.5488 1
      vertex 63.0673 54.087 1
      vertex 50.8 50.8 1
    endloop
  endfacet
  facet normal 0 0 1
    outer loop
      vertex 50.8 50.8 1
      vertex 63.0673 54.087 1
      vertex 62.9122 54.619 1
    endloop
  endfacet
  facet normal 0 0 1
    outer loop
      vertex 63.4879 51.354 1
      vertex 63.4517 51.9069 1
      vertex 50.8 50.8 1
    endloop
  endfacet
  facet normal 0 0 1
    outer loop
      vertex 63.4517 51.9069 1
      vertex 63.3914 52.4577 1
      vertex 50.8 50.8 1
    endloop
  endfacet
  facet normal 0 0 1
    outer loop
      vertex 50.8 50.8 1
      vertex 63.3914 52.4577 1
      vertex 63.3071 53.0053 1
    endloop
  endfacet
  facet normal 0 0 -1
    outer loop
      vertex 25.4 42.8625 0
      vertex 0 42.8625 0
      vertex 25.4 49.2125 0
    endloop
  endfacet
  facet normal 0 0 -1
    outer loop
      vertex 0 42.8625 0
      vertex -3.46945e-15 49.2125 0
      vertex 25.4 49.2125 0
    endloop
  endfacet
  facet normal 0 0 1
    outer loop
      vertex 0 42.8625 1
      vertex 25.4 42.8625 1
      vertex -3.46945e-15 49.2125 1
    endloop
  endfacet
  facet normal 0 0 1
    outer loop
      vertex 25.4 42.8625 1
      vertex 25.4 49.2125 1
      vertex -3.46945e-15 49.2125 1
    endloop
  endfacet
  facet normal 1 0 0
    outer loop
      vertex 25.4 49.2125 1
      vertex 25.4 42.8625 1
      vertex 25.4 49.2125 0
    endloop
  endfacet
  facet normal 1 0 0
    outer loop
      vertex 25.4 42.8625 1
      vertex 25.4 42.8625 0
      vertex 25.4 49.2125 0
    endloop
  endfacet
  facet normal 0 -1 0
    outer loop
      vertex 25.4 42.8625 1
      vertex 0 42.8625 1
      vertex 25.4 42.8625 0
    endloop
  endfacet
  facet normal 0 -1 0
    outer loop
      vertex 0 42.8625 1
      vertex 0 42.8625 0
      vertex 25.4 42.8625 0
    endloop
  endfacet
  facet normal 0 1 0
    outer loop
      vertex -3.46945e-15 49.2125 1
      vertex 25.4 49.2125 1
      vertex -3.46945e-15 49.2125 0
    endloop
  endfacet
  facet normal 0 1 0
    outer loop
      vertex 25.4 49.2125 1
      vertex 25.4 49.2125 0
      vertex -3.46945e-15 49.2125 0
    endloop
  endfacet
  facet normal -1 -5.4637e-16 0
    outer loop
      vertex 0 42.8625 1
      vertex -3.46945e-15 49.2125 1
      vertex 0 42.8625 0
    endloop
  endfacet
  facet normal -1 -5.4637e-16 0
    outer loop
      vertex -3.46945e-15 49.2125 1
      vertex -3.46945e-15 49.2125 0
      vertex 0 42.8625 0
    endloop
  endfacet
  facet normal 0 0 -1
    outer loop
      vertex 25.4 50.8 0
      vertex 0 50.8 0
      vertex 25.4 63.5 0
    endloop
  endfacet
  facet normal 0 0 -1
    outer loop
      vertex 0 50.8 0
      vertex 0 63.5 0
      vertex 25.4 63.5 0
    endloop
  endfacet
  facet normal 0 0 1
    outer loop
      vertex 0 50.8 1
      vertex 25.4 50.8 1
      vertex 0 63.5 1
    endloop
  endfacet
  facet normal 0 0 1
    outer loop
      vertex 25.4 50.8 1
      vertex 25.4 63.5 1
      vertex 0 63.5 1
    endloop
  endfacet
  facet normal 1 0 0
    outer loop
      vertex 25.4 63.5 1
      vertex 25.4 50.8 1
      vertex 25.4 63.5 0
    endloop
  endfacet
  facet normal 1 0 0
    outer loop
      vertex 25.4 50.8 1
      vertex 25.4 50.8 0
      vertex 25.4 63.5 0
    endloop
  endfacet
  facet normal 0 -1 0
    outer loop
      vertex 25.4 50.8 1
      vertex 0 50.8 1
      vertex 25.4 50.8 0
    endloop
  endfacet
  facet normal 0 -1 0
    outer loop
      vertex 0 50.8 1
      vertex 0 50.8 0
      vertex 25.4 50.8 0
    endloop
  endfacet
  facet normal 0 1 0
    outer loop
      vertex 0 63.5 1
      vertex 25.4 63.5 1
      vertex 0 63.5 0
    endloop
  endfacet
  facet normal 0 1 0
    outer loop
      vertex 25.4 63.5 1
      vertex 25.4 63.5 0
      vertex 0 63.5 0
    endloop
  endfacet
  facet normal -1 0 0
    outer loop
      vertex 0 50.8 1
      vertex 0 63.5 1
      vertex 0 50.8 0
    endloop
  endfacet
  facet normal -1 0 0
    outer loop
      vertex 0 63.5 1
      vertex 0 63.5 0
      vertex 0 50.8 0
    endloop
  endfacet
endsolid Onshape
