solid Onshape
  facet normal 0 0 -1
    outer loop
      vertex -49.4225 -137.427 0
      vertex -49.3777 -138.111 0
      vertex -65.0623 -138.796 0
    endloop
  endfacet
  facet normal 0 0 -1
    outer loop
      vertex -49.3777 -138.111 0
      vertex -49.3628 -138.796 0
      vertex -65.0623 -138.796 0
    endloop
  endfacet
  facet normal 0 0 -1
    outer loop
      vertex -65.0623 -138.796 0
      vertex -49.3628 -138.796 0
      vertex -49.3777 -139.481 0
    endloop
  endfacet
  facet normal 0 0 -1
    outer loop
      vertex -49.7349 -135.398 0
      vertex -49.6013 -136.07 0
      vertex -65.0623 -138.796 0
    endloop
  endfacet
  facet normal 0 0 -1
    outer loop
      vertex -49.6013 -136.07 0
      vertex -49.4971 -136.747 0
      vertex -65.0623 -138.796 0
    endloop
  endfacet
  facet normal 0 0 -1
    outer loop
      vertex -65.0623 -138.796 0
      vertex -49.4971 -136.747 0
      vertex -49.4225 -137.427 0
    endloop
  endfacet
  facet normal 0 0 -1
    outer loop
      vertex -50.3096 -133.426 0
      vertex -50.0894 -134.075 0
      vertex -65.0623 -138.796 0
    endloop
  endfacet
  facet normal 0 0 -1
    outer loop
      vertex -50.0894 -134.075 0
      vertex -49.8977 -134.732 0
      vertex -65.0623 -138.796 0
    endloop
  endfacet
  facet normal 0 0 -1
    outer loop
      vertex -65.0623 -138.796 0
      vertex -49.8977 -134.732 0
      vertex -49.7349 -135.398 0
    endloop
  endfacet
  facet normal 0 0 -1
    outer loop
      vertex -51.1367 -131.546 0
      vertex -50.8337 -132.161 0
      vertex -65.0623 -138.796 0
    endloop
  endfacet
  facet normal 0 0 -1
    outer loop
      vertex -50.8337 -132.161 0
      vertex -50.5578 -132.788 0
      vertex -65.0623 -138.796 0
    endloop
  endfacet
  facet normal 0 0 -1
    outer loop
      vertex -65.0623 -138.796 0
      vertex -50.5578 -132.788 0
      vertex -50.3096 -133.426 0
    endloop
  endfacet
  facet normal 0 0 -1
    outer loop
      vertex -52.202 -129.791 0
      vertex -51.8215 -130.36 0
      vertex -65.0623 -138.796 0
    endloop
  endfacet
  facet normal 0 0 -1
    outer loop
      vertex -51.8215 -130.36 0
      vertex -51.4661 -130.946 0
      vertex -65.0623 -138.796 0
    endloop
  endfacet
  facet normal 0 0 -1
    outer loop
      vertex -65.0623 -138.796 0
      vertex -51.4661 -130.946 0
      vertex -51.1367 -131.546 0
    endloop
  endfacet
  facet normal 0 0 -1
    outer loop
      vertex -53.4874 -128.189 0
      vertex -53.0358 -128.704 0
      vertex -65.0623 -138.796 0
    endloop
  endfacet
  facet normal 0 0 -1
    outer loop
      vertex -53.0358 -128.704 0
      vertex -52.607 -129.238 0
      vertex -65.0623 -138.796 0
    endloop
  endfacet
  facet normal 0 0 -1
    outer loop
      vertex -65.0623 -138.796 0
      vertex -52.607 -129.238 0
      vertex -52.202 -129.791 0
    endloop
  endfacet
  facet normal 0 0 -1
    outer loop
      vertex -54.9708 -126.769 0
      vertex -54.4559 -127.221 0
      vertex -65.0623 -138.796 0
    endloop
  endfacet
  facet normal 0 0 -1
    outer loop
      vertex -54.4559 -127.221 0
      vertex -53.9611 -127.695 0
      vertex -65.0623 -138.796 0
    endloop
  endfacet
  facet normal 0 0 -1
    outer loop
      vertex -65.0623 -138.796 0
      vertex -53.9611 -127.695 0
      vertex -53.4874 -128.189 0
    endloop
  endfacet
  facet normal 0 0 -1
    outer loop
      vertex -56.627 -125.555 0
      vertex -56.0574 -125.935 0
      vertex -65.0623 -138.796 0
    endloop
  endfacet
  facet normal 0 0 -1
    outer loop
      vertex -56.0574 -125.935 0
      vertex -55.505 -126.34 0
      vertex -65.0623 -138.796 0
    endloop
  endfacet
  facet normal 0 0 -1
    outer loop
      vertex -65.0623 -138.796 0
      vertex -55.505 -126.34 0
      vertex -54.9708 -126.769 0
    endloop
  endfacet
  facet normal 0 0 -1
    outer loop
      vertex -58.4274 -124.567 0
      vertex -57.8131 -124.87 0
      vertex -65.0623 -138.796 0
    endloop
  endfacet
  facet normal 0 0 -1
    outer loop
      vertex -57.8131 -124.87 0
      vertex -57.2125 -125.2 0
      vertex -65.0623 -138.796 0
    endloop
  endfacet
  facet normal 0 0 -1
    outer loop
      vertex -65.0623 -138.796 0
      vertex -57.2125 -125.2 0
      vertex -56.627 -125.555 0
    endloop
  endfacet
  facet normal 0 0 -1
    outer loop
      vertex -60.3414 -123.823 0
      vertex -59.6927 -124.043 0
      vertex -65.0623 -138.796 0
    endloop
  endfacet
  facet normal 0 0 -1
    outer loop
      vertex -59.6927 -124.043 0
      vertex -59.0543 -124.291 0
      vertex -65.0623 -138.796 0
    endloop
  endfacet
  facet normal 0 0 -1
    outer loop
      vertex -65.0623 -138.796 0
      vertex -59.0543 -124.291 0
      vertex -58.4274 -124.567 0
    endloop
  endfacet
  facet normal 0 0 -1
    outer loop
      vertex -62.3361 -123.335 0
      vertex -61.6643 -123.468 0
      vertex -65.0623 -138.796 0
    endloop
  endfacet
  facet normal 0 0 -1
    outer loop
      vertex -61.6643 -123.468 0
      vertex -60.999 -123.631 0
      vertex -65.0623 -138.796 0
    endloop
  endfacet
  facet normal 0 0 -1
    outer loop
      vertex -65.0623 -138.796 0
      vertex -60.999 -123.631 0
      vertex -60.3414 -123.823 0
    endloop
  endfacet
  facet normal 0 0 -1
    outer loop
      vertex -64.3775 -123.111 0
      vertex -63.694 -123.156 0
      vertex -65.0623 -138.796 0
    endloop
  endfacet
  facet normal 0 0 -1
    outer loop
      vertex -63.694 -123.156 0
      vertex -63.0131 -123.231 0
      vertex -65.0623 -138.796 0
    endloop
  endfacet
  facet normal 0 0 -1
    outer loop
      vertex -65.0623 -138.796 0
      vertex -63.0131 -123.231 0
      vertex -62.3361 -123.335 0
    endloop
  endfacet
  facet normal 0 0 -1
    outer loop
      vertex -66.4306 -123.156 0
      vertex -65.7471 -123.111 0
      vertex -65.0623 -138.796 0
    endloop
  endfacet
  facet normal 0 0 -1
    outer loop
      vertex -65.7471 -123.111 0
      vertex -65.0623 -123.096 0
      vertex -65.0623 -138.796 0
    endloop
  endfacet
  facet normal 0 0 -1
    outer loop
      vertex -65.0623 -138.796 0
      vertex -65.0623 -123.096 0
      vertex -64.3775 -123.111 0
    endloop
  endfacet
  facet normal 0 0 -1
    outer loop
      vertex -68.4603 -123.468 0
      vertex -67.7885 -123.335 0
      vertex -65.0623 -138.796 0
    endloop
  endfacet
  facet normal 0 0 -1
    outer loop
      vertex -67.7885 -123.335 0
      vertex -67.1115 -123.231 0
      vertex -65.0623 -138.796 0
    endloop
  endfacet
  facet normal 0 0 -1
    outer loop
      vertex -65.0623 -138.796 0
      vertex -67.1115 -123.231 0
      vertex -66.4306 -123.156 0
    endloop
  endfacet
  facet normal 0 0 -1
    outer loop
      vertex -70.4318 -124.043 0
      vertex -69.7832 -123.823 0
      vertex -65.0623 -138.796 0
    endloop
  endfacet
  facet normal 0 0 -1
    outer loop
      vertex -69.7832 -123.823 0
      vertex -69.1256 -123.631 0
      vertex -65.0623 -138.796 0
    endloop
  endfacet
  facet normal 0 0 -1
    outer loop
      vertex -65.0623 -138.796 0
      vertex -69.1256 -123.631 0
      vertex -68.4603 -123.468 0
    endloop
  endfacet
  facet normal 0 0 -1
    outer loop
      vertex -72.3115 -124.87 0
      vertex -71.6972 -124.567 0
      vertex -65.0623 -138.796 0
    endloop
  endfacet
  facet normal 0 0 -1
    outer loop
      vertex -71.6972 -124.567 0
      vertex -71.0702 -124.291 0
      vertex -65.0623 -138.796 0
    endloop
  endfacet
  facet normal 0 0 -1
    outer loop
      vertex -65.0623 -138.796 0
      vertex -71.0702 -124.291 0
      vertex -70.4318 -124.043 0
    endloop
  endfacet
  facet normal 0 0 -1
    outer loop
      vertex -74.0671 -125.935 0
      vertex -73.4976 -125.555 0
      vertex -65.0623 -138.796 0
    endloop
  endfacet
  facet normal 0 0 -1
    outer loop
      vertex -73.4976 -125.555 0
      vertex -72.912 -125.2 0
      vertex -65.0623 -138.796 0
    endloop
  endfacet
  facet normal 0 0 -1
    outer loop
      vertex -65.0623 -138.796 0
      vertex -72.912 -125.2 0
      vertex -72.3115 -124.87 0
    endloop
  endfacet
  facet normal 0 0 -1
    outer loop
      vertex -75.6687 -127.221 0
      vertex -75.1537 -126.769 0
      vertex -65.0623 -138.796 0
    endloop
  endfacet
  facet normal 0 0 -1
    outer loop
      vertex -75.1537 -126.769 0
      vertex -74.6195 -126.34 0
      vertex -65.0623 -138.796 0
    endloop
  endfacet
  facet normal 0 0 -1
    outer loop
      vertex -65.0623 -138.796 0
      vertex -74.6195 -126.34 0
      vertex -74.0671 -125.935 0
    endloop
  endfacet
  facet normal 0 0 -1
    outer loop
      vertex -77.0888 -128.704 0
      vertex -76.6372 -128.189 0
      vertex -65.0623 -138.796 0
    endloop
  endfacet
  facet normal 0 0 -1
    outer loop
      vertex -76.6372 -128.189 0
      vertex -76.1635 -127.695 0
      vertex -65.0623 -138.796 0
    endloop
  endfacet
  facet normal 0 0 -1
    outer loop
      vertex -65.0623 -138.796 0
      vertex -76.1635 -127.695 0
      vertex -75.6687 -127.221 0
    endloop
  endfacet
  facet normal 0 0 -1
    outer loop
      vertex -78.3031 -130.36 0
      vertex -77.9226 -129.791 0
      vertex -65.0623 -138.796 0
    endloop
  endfacet
  facet normal 0 0 -1
    outer loop
      vertex -77.9226 -129.791 0
      vertex -77.5175 -129.238 0
      vertex -65.0623 -138.796 0
    endloop
  endfacet
  facet normal 0 0 -1
    outer loop
      vertex -65.0623 -138.796 0
      vertex -77.5175 -129.238 0
      vertex -77.0888 -128.704 0
    endloop
  endfacet
  facet normal 0 0 -1
    outer loop
      vertex -79.2909 -132.161 0
      vertex -78.9879 -131.546 0
      vertex -65.0623 -138.796 0
    endloop
  endfacet
  facet normal 0 0 -1
    outer loop
      vertex -78.9879 -131.546 0
      vertex -78.6584 -130.946 0
      vertex -65.0623 -138.796 0
    endloop
  endfacet
  facet normal 0 0 -1
    outer loop
      vertex -65.0623 -138.796 0
      vertex -78.6584 -130.946 0
      vertex -78.3031 -130.36 0
    endloop
  endfacet
  facet normal 0 0 -1
    outer loop
      vertex -80.0352 -134.075 0
      vertex -79.815 -133.426 0
      vertex -65.0623 -138.796 0
    endloop
  endfacet
  facet normal 0 0 -1
    outer loop
      vertex -79.815 -133.426 0
      vertex -79.5667 -132.788 0
      vertex -65.0623 -138.796 0
    endloop
  endfacet
  facet normal 0 0 -1
    outer loop
      vertex -65.0623 -138.796 0
      vertex -79.5667 -132.788 0
      vertex -79.2909 -132.161 0
    endloop
  endfacet
  facet normal 0 0 -1
    outer loop
      vertex -80.5233 -136.07 0
      vertex -80.3896 -135.398 0
      vertex -65.0623 -138.796 0
    endloop
  endfacet
  facet normal 0 0 -1
    outer loop
      vertex -80.3896 -135.398 0
      vertex -80.2268 -134.732 0
      vertex -65.0623 -138.796 0
    endloop
  endfacet
  facet normal 0 0 -1
    outer loop
      vertex -65.0623 -138.796 0
      vertex -80.2268 -134.732 0
      vertex -80.0352 -134.075 0
    endloop
  endfacet
  facet normal 0 0 -1
    outer loop
      vertex -80.7468 -138.111 0
      vertex -80.702 -137.427 0
      vertex -65.0623 -138.796 0
    endloop
  endfacet
  facet normal 0 0 -1
    outer loop
      vertex -80.702 -137.427 0
      vertex -80.6275 -136.747 0
      vertex -65.0623 -138.796 0
    endloop
  endfacet
  facet normal 0 0 -1
    outer loop
      vertex -65.0623 -138.796 0
      vertex -80.6275 -136.747 0
      vertex -80.5233 -136.07 0
    endloop
  endfacet
  facet normal 0 0 -1
    outer loop
      vertex -80.702 -140.164 0
      vertex -80.7468 -139.481 0
      vertex -65.0623 -138.796 0
    endloop
  endfacet
  facet normal 0 0 -1
    outer loop
      vertex -80.7468 -139.481 0
      vertex -80.7618 -138.796 0
      vertex -65.0623 -138.796 0
    endloop
  endfacet
  facet normal 0 0 -1
    outer loop
      vertex -65.0623 -138.796 0
      vertex -80.7618 -138.796 0
      vertex -80.7468 -138.111 0
    endloop
  endfacet
  facet normal 0 0 -1
    outer loop
      vertex -80.3896 -142.194 0
      vertex -80.5233 -141.522 0
      vertex -65.0623 -138.796 0
    endloop
  endfacet
  facet normal 0 0 -1
    outer loop
      vertex -80.5233 -141.522 0
      vertex -80.6275 -140.845 0
      vertex -65.0623 -138.796 0
    endloop
  endfacet
  facet normal 0 0 -1
    outer loop
      vertex -65.0623 -138.796 0
      vertex -80.6275 -140.845 0
      vertex -80.702 -140.164 0
    endloop
  endfacet
  facet normal 0 0 -1
    outer loop
      vertex -79.815 -144.165 0
      vertex -80.0352 -143.517 0
      vertex -65.0623 -138.796 0
    endloop
  endfacet
  facet normal 0 0 -1
    outer loop
      vertex -80.0352 -143.517 0
      vertex -80.2268 -142.859 0
      vertex -65.0623 -138.796 0
    endloop
  endfacet
  facet normal 0 0 -1
    outer loop
      vertex -65.0623 -138.796 0
      vertex -80.2268 -142.859 0
      vertex -80.3896 -142.194 0
    endloop
  endfacet
  facet normal 0 0 -1
    outer loop
      vertex -78.9879 -146.045 0
      vertex -79.2909 -145.431 0
      vertex -65.0623 -138.796 0
    endloop
  endfacet
  facet normal 0 0 -1
    outer loop
      vertex -79.2909 -145.431 0
      vertex -79.5667 -144.804 0
      vertex -65.0623 -138.796 0
    endloop
  endfacet
  facet normal 0 0 -1
    outer loop
      vertex -65.0623 -138.796 0
      vertex -79.5667 -144.804 0
      vertex -79.815 -144.165 0
    endloop
  endfacet
  facet normal 0 0 -1
    outer loop
      vertex -77.9226 -147.801 0
      vertex -78.3031 -147.231 0
      vertex -65.0623 -138.796 0
    endloop
  endfacet
  facet normal 0 0 -1
    outer loop
      vertex -78.3031 -147.231 0
      vertex -78.6584 -146.645 0
      vertex -65.0623 -138.796 0
    endloop
  endfacet
  facet normal 0 0 -1
    outer loop
      vertex -65.0623 -138.796 0
      vertex -78.6584 -146.645 0
      vertex -78.9879 -146.045 0
    endloop
  endfacet
  facet normal 0 0 -1
    outer loop
      vertex -76.6372 -149.402 0
      vertex -77.0888 -148.887 0
      vertex -65.0623 -138.796 0
    endloop
  endfacet
  facet normal 0 0 -1
    outer loop
      vertex -77.0888 -148.887 0
      vertex -77.5175 -148.353 0
      vertex -65.0623 -138.796 0
    endloop
  endfacet
  facet normal 0 0 -1
    outer loop
      vertex -65.0623 -138.796 0
      vertex -77.5175 -148.353 0
      vertex -77.9226 -147.801 0
    endloop
  endfacet
  facet normal 0 0 -1
    outer loop
      vertex -75.1537 -150.822 0
      vertex -75.6687 -150.371 0
      vertex -65.0623 -138.796 0
    endloop
  endfacet
  facet normal 0 0 -1
    outer loop
      vertex -75.6687 -150.371 0
      vertex -76.1635 -149.897 0
      vertex -65.0623 -138.796 0
    endloop
  endfacet
  facet normal 0 0 -1
    outer loop
      vertex -65.0623 -138.796 0
      vertex -76.1635 -149.897 0
      vertex -76.6372 -149.402 0
    endloop
  endfacet
  facet normal 0 0 -1
    outer loop
      vertex -73.4976 -152.037 0
      vertex -74.0671 -151.656 0
      vertex -65.0623 -138.796 0
    endloop
  endfacet
  facet normal 0 0 -1
    outer loop
      vertex -74.0671 -151.656 0
      vertex -74.6195 -151.251 0
      vertex -65.0623 -138.796 0
    endloop
  endfacet
  facet normal 0 0 -1
    outer loop
      vertex -65.0623 -138.796 0
      vertex -74.6195 -151.251 0
      vertex -75.1537 -150.822 0
    endloop
  endfacet
  facet normal 0 0 -1
    outer loop
      vertex -71.6972 -153.024 0
      vertex -72.3115 -152.721 0
      vertex -65.0623 -138.796 0
    endloop
  endfacet
  facet normal 0 0 -1
    outer loop
      vertex -72.3115 -152.721 0
      vertex -72.912 -152.392 0
      vertex -65.0623 -138.796 0
    endloop
  endfacet
  facet normal 0 0 -1
    outer loop
      vertex -65.0623 -138.796 0
      vertex -72.912 -152.392 0
      vertex -73.4976 -152.037 0
    endloop
  endfacet
  facet normal 0 0 -1
    outer loop
      vertex -69.7832 -153.769 0
      vertex -70.4318 -153.548 0
      vertex -65.0623 -138.796 0
    endloop
  endfacet
  facet normal 0 0 -1
    outer loop
      vertex -70.4318 -153.548 0
      vertex -71.0702 -153.3 0
      vertex -65.0623 -138.796 0
    endloop
  endfacet
  facet normal 0 0 -1
    outer loop
      vertex -65.0623 -138.796 0
      vertex -71.0702 -153.3 0
      vertex -71.6972 -153.024 0
    endloop
  endfacet
  facet normal 0 0 -1
    outer loop
      vertex -67.7885 -154.257 0
      vertex -68.4603 -154.123 0
      vertex -65.0623 -138.796 0
    endloop
  endfacet
  facet normal 0 0 -1
    outer loop
      vertex -68.4603 -154.123 0
      vertex -69.1256 -153.96 0
      vertex -65.0623 -138.796 0
    endloop
  endfacet
  facet normal 0 0 -1
    outer loop
      vertex -65.0623 -138.796 0
      vertex -69.1256 -153.96 0
      vertex -69.7832 -153.769 0
    endloop
  endfacet
  facet normal 0 0 -1
    outer loop
      vertex -65.7471 -154.48 0
      vertex -66.4306 -154.435 0
      vertex -65.0623 -138.796 0
    endloop
  endfacet
  facet normal 0 0 -1
    outer loop
      vertex -66.4306 -154.435 0
      vertex -67.1115 -154.361 0
      vertex -65.0623 -138.796 0
    endloop
  endfacet
  facet normal 0 0 -1
    outer loop
      vertex -65.0623 -138.796 0
      vertex -67.1115 -154.361 0
      vertex -67.7885 -154.257 0
    endloop
  endfacet
  facet normal 0 0 -1
    outer loop
      vertex -63.694 -154.435 0
      vertex -64.3775 -154.48 0
      vertex -65.0623 -138.796 0
    endloop
  endfacet
  facet normal 0 0 -1
    outer loop
      vertex -64.3775 -154.48 0
      vertex -65.0623 -154.495 0
      vertex -65.0623 -138.796 0
    endloop
  endfacet
  facet normal 0 0 -1
    outer loop
      vertex -65.0623 -138.796 0
      vertex -65.0623 -154.495 0
      vertex -65.7471 -154.48 0
    endloop
  endfacet
  facet normal 0 0 -1
    outer loop
      vertex -61.6643 -154.123 0
      vertex -62.3361 -154.257 0
      vertex -65.0623 -138.796 0
    endloop
  endfacet
  facet normal 0 0 -1
    outer loop
      vertex -62.3361 -154.257 0
      vertex -63.0131 -154.361 0
      vertex -65.0623 -138.796 0
    endloop
  endfacet
  facet normal 0 0 -1
    outer loop
      vertex -65.0623 -138.796 0
      vertex -63.0131 -154.361 0
      vertex -63.694 -154.435 0
    endloop
  endfacet
  facet normal 0 0 -1
    outer loop
      vertex -59.6927 -153.548 0
      vertex -60.3414 -153.769 0
      vertex -65.0623 -138.796 0
    endloop
  endfacet
  facet normal 0 0 -1
    outer loop
      vertex -60.3414 -153.769 0
      vertex -60.999 -153.96 0
      vertex -65.0623 -138.796 0
    endloop
  endfacet
  facet normal 0 0 -1
    outer loop
      vertex -65.0623 -138.796 0
      vertex -60.999 -153.96 0
      vertex -61.6643 -154.123 0
    endloop
  endfacet
  facet normal 0 0 -1
    outer loop
      vertex -57.8131 -152.721 0
      vertex -58.4274 -153.024 0
      vertex -65.0623 -138.796 0
    endloop
  endfacet
  facet normal 0 0 -1
    outer loop
      vertex -58.4274 -153.024 0
      vertex -59.0543 -153.3 0
      vertex -65.0623 -138.796 0
    endloop
  endfacet
  facet normal 0 0 -1
    outer loop
      vertex -65.0623 -138.796 0
      vertex -59.0543 -153.3 0
      vertex -59.6927 -153.548 0
    endloop
  endfacet
  facet normal 0 0 -1
    outer loop
      vertex -56.0574 -151.656 0
      vertex -56.627 -152.037 0
      vertex -65.0623 -138.796 0
    endloop
  endfacet
  facet normal 0 0 -1
    outer loop
      vertex -56.627 -152.037 0
      vertex -57.2125 -152.392 0
      vertex -65.0623 -138.796 0
    endloop
  endfacet
  facet normal 0 0 -1
    outer loop
      vertex -65.0623 -138.796 0
      vertex -57.2125 -152.392 0
      vertex -57.8131 -152.721 0
    endloop
  endfacet
  facet normal 0 0 -1
    outer loop
      vertex -54.4559 -150.371 0
      vertex -54.9708 -150.822 0
      vertex -65.0623 -138.796 0
    endloop
  endfacet
  facet normal 0 0 -1
    outer loop
      vertex -54.9708 -150.822 0
      vertex -55.505 -151.251 0
      vertex -65.0623 -138.796 0
    endloop
  endfacet
  facet normal 0 0 -1
    outer loop
      vertex -65.0623 -138.796 0
      vertex -55.505 -151.251 0
      vertex -56.0574 -151.656 0
    endloop
  endfacet
  facet normal 0 0 -1
    outer loop
      vertex -53.0358 -148.887 0
      vertex -53.4874 -149.402 0
      vertex -65.0623 -138.796 0
    endloop
  endfacet
  facet normal 0 0 -1
    outer loop
      vertex -53.4874 -149.402 0
      vertex -53.9611 -149.897 0
      vertex -65.0623 -138.796 0
    endloop
  endfacet
  facet normal 0 0 -1
    outer loop
      vertex -65.0623 -138.796 0
      vertex -53.9611 -149.897 0
      vertex -54.4559 -150.371 0
    endloop
  endfacet
  facet normal 0 0 -1
    outer loop
      vertex -51.8215 -147.231 0
      vertex -52.202 -147.801 0
      vertex -65.0623 -138.796 0
    endloop
  endfacet
  facet normal 0 0 -1
    outer loop
      vertex -52.202 -147.801 0
      vertex -52.607 -148.353 0
      vertex -65.0623 -138.796 0
    endloop
  endfacet
  facet normal 0 0 -1
    outer loop
      vertex -65.0623 -138.796 0
      vertex -52.607 -148.353 0
      vertex -53.0358 -148.887 0
    endloop
  endfacet
  facet normal 0 0 -1
    outer loop
      vertex -50.8337 -145.431 0
      vertex -51.1367 -146.045 0
      vertex -65.0623 -138.796 0
    endloop
  endfacet
  facet normal 0 0 -1
    outer loop
      vertex -51.1367 -146.045 0
      vertex -51.4661 -146.645 0
      vertex -65.0623 -138.796 0
    endloop
  endfacet
  facet normal 0 0 -1
    outer loop
      vertex -65.0623 -138.796 0
      vertex -51.4661 -146.645 0
      vertex -51.8215 -147.231 0
    endloop
  endfacet
  facet normal 0 0 -1
    outer loop
      vertex -50.0894 -143.517 0
      vertex -50.3096 -144.165 0
      vertex -65.0623 -138.796 0
    endloop
  endfacet
  facet normal 0 0 -1
    outer loop
      vertex -50.3096 -144.165 0
      vertex -50.5578 -144.804 0
      vertex -65.0623 -138.796 0
    endloop
  endfacet
  facet normal 0 0 -1
    outer loop
      vertex -65.0623 -138.796 0
      vertex -50.5578 -144.804 0
      vertex -50.8337 -145.431 0
    endloop
  endfacet
  facet normal 0 0 -1
    outer loop
      vertex -49.6013 -141.522 0
      vertex -49.7349 -142.194 0
      vertex -65.0623 -138.796 0
    endloop
  endfacet
  facet normal 0 0 -1
    outer loop
      vertex -49.7349 -142.194 0
      vertex -49.8977 -142.859 0
      vertex -65.0623 -138.796 0
    endloop
  endfacet
  facet normal 0 0 -1
    outer loop
      vertex -65.0623 -138.796 0
      vertex -49.8977 -142.859 0
      vertex -50.0894 -143.517 0
    endloop
  endfacet
  facet normal 0 0 -1
    outer loop
      vertex -49.3777 -139.481 0
      vertex -49.4225 -140.164 0
      vertex -65.0623 -138.796 0
    endloop
  endfacet
  facet normal 0 0 -1
    outer loop
      vertex -49.4225 -140.164 0
      vertex -49.4971 -140.845 0
      vertex -65.0623 -138.796 0
    endloop
  endfacet
  facet normal 0 0 -1
    outer loop
      vertex -65.0623 -138.796 0
      vertex -49.4971 -140.845 0
      vertex -49.6013 -141.522 0
    endloop
  endfacet
  facet normal -0.999762 0.0218092 0
    outer loop
      vertex -80.7618 -138.796 0
      vertex -80.7468 -138.111 25
      vertex -80.7468 -138.111 0
    endloop
  endfacet
  facet normal -0.997859 0.065405 0
    outer loop
      vertex -80.7468 -138.111 25
      vertex -80.702 -137.427 25
      vertex -80.7468 -138.111 0
    endloop
  endfacet
  facet normal -0.997859 0.065405 0
    outer loop
      vertex -80.7468 -138.111 0
      vertex -80.702 -137.427 25
      vertex -80.702 -137.427 0
    endloop
  endfacet
  facet normal -0.994057 0.10886 0
    outer loop
      vertex -80.702 -137.427 25
      vertex -80.6275 -136.747 25
      vertex -80.702 -137.427 0
    endloop
  endfacet
  facet normal -0.994057 0.10886 0
    outer loop
      vertex -80.702 -137.427 0
      vertex -80.6275 -136.747 25
      vertex -80.6275 -136.747 0
    endloop
  endfacet
  facet normal -0.988361 0.152127 0
    outer loop
      vertex -80.6275 -136.747 25
      vertex -80.5233 -136.07 25
      vertex -80.6275 -136.747 0
    endloop
  endfacet
  facet normal -0.988361 0.152127 0
    outer loop
      vertex -80.6275 -136.747 0
      vertex -80.5233 -136.07 25
      vertex -80.5233 -136.07 0
    endloop
  endfacet
  facet normal -0.980786 0.195085 0
    outer loop
      vertex -80.5233 -136.07 25
      vertex -80.3896 -135.398 25
      vertex -80.5233 -136.07 0
    endloop
  endfacet
  facet normal -0.980786 0.195085 0
    outer loop
      vertex -80.5233 -136.07 0
      vertex -80.3896 -135.398 25
      vertex -80.3896 -135.398 0
    endloop
  endfacet
  facet normal -0.971341 0.23769 0
    outer loop
      vertex -80.3896 -135.398 25
      vertex -80.2268 -134.732 25
      vertex -80.3896 -135.398 0
    endloop
  endfacet
  facet normal -0.971341 0.23769 0
    outer loop
      vertex -80.3896 -135.398 0
      vertex -80.2268 -134.732 25
      vertex -80.2268 -134.732 0
    endloop
  endfacet
  facet normal -0.960048 0.279835 0
    outer loop
      vertex -80.2268 -134.732 25
      vertex -80.0352 -134.075 25
      vertex -80.2268 -134.732 0
    endloop
  endfacet
  facet normal -0.960048 0.279835 0
    outer loop
      vertex -80.2268 -134.732 0
      vertex -80.0352 -134.075 25
      vertex -80.0352 -134.075 0
    endloop
  endfacet
  facet normal -0.946932 0.321434 0
    outer loop
      vertex -80.0352 -134.075 25
      vertex -79.815 -133.426 25
      vertex -80.0352 -134.075 0
    endloop
  endfacet
  facet normal -0.946932 0.321434 0
    outer loop
      vertex -80.0352 -134.075 0
      vertex -79.815 -133.426 25
      vertex -79.815 -133.426 0
    endloop
  endfacet
  facet normal -0.932007 0.362441 0
    outer loop
      vertex -79.815 -133.426 25
      vertex -79.5667 -132.788 25
      vertex -79.815 -133.426 0
    endloop
  endfacet
  facet normal -0.932007 0.362441 0
    outer loop
      vertex -79.815 -133.426 0
      vertex -79.5667 -132.788 25
      vertex -79.5667 -132.788 0
    endloop
  endfacet
  facet normal -0.915312 0.402747 0
    outer loop
      vertex -79.5667 -132.788 25
      vertex -79.2909 -132.161 25
      vertex -79.5667 -132.788 0
    endloop
  endfacet
  facet normal -0.915312 0.402747 0
    outer loop
      vertex -79.5667 -132.788 0
      vertex -79.2909 -132.161 25
      vertex -79.2909 -132.161 0
    endloop
  endfacet
  facet normal -0.896872 0.44229 0
    outer loop
      vertex -79.2909 -132.161 25
      vertex -78.9879 -131.546 25
      vertex -79.2909 -132.161 0
    endloop
  endfacet
  facet normal -0.896872 0.44229 0
    outer loop
      vertex -79.2909 -132.161 0
      vertex -78.9879 -131.546 25
      vertex -78.9879 -131.546 0
    endloop
  endfacet
  facet normal -0.87673 0.480982 0
    outer loop
      vertex -78.9879 -131.546 25
      vertex -78.6584 -130.946 25
      vertex -78.9879 -131.546 0
    endloop
  endfacet
  facet normal -0.87673 0.480982 0
    outer loop
      vertex -78.9879 -131.546 0
      vertex -78.6584 -130.946 25
      vertex -78.6584 -130.946 0
    endloop
  endfacet
  facet normal -0.854913 0.518771 0
    outer loop
      vertex -78.6584 -130.946 25
      vertex -78.3031 -130.36 25
      vertex -78.6584 -130.946 0
    endloop
  endfacet
  facet normal -0.854913 0.518771 0
    outer loop
      vertex -78.6584 -130.946 0
      vertex -78.3031 -130.36 25
      vertex -78.3031 -130.36 0
    endloop
  endfacet
  facet normal -0.831467 0.555573 0
    outer loop
      vertex -78.3031 -130.36 25
      vertex -77.9226 -129.791 25
      vertex -78.3031 -130.36 0
    endloop
  endfacet
  facet normal -0.831467 0.555573 0
    outer loop
      vertex -78.3031 -130.36 0
      vertex -77.9226 -129.791 25
      vertex -77.9226 -129.791 0
    endloop
  endfacet
  facet normal -0.806443 0.591312 0
    outer loop
      vertex -77.9226 -129.791 25
      vertex -77.5175 -129.238 25
      vertex -77.9226 -129.791 0
    endloop
  endfacet
  facet normal -0.806443 0.591312 0
    outer loop
      vertex -77.9226 -129.791 0
      vertex -77.5175 -129.238 25
      vertex -77.5175 -129.238 0
    endloop
  endfacet
  facet normal -0.779883 0.625925 0
    outer loop
      vertex -77.5175 -129.238 25
      vertex -77.0888 -128.704 25
      vertex -77.5175 -129.238 0
    endloop
  endfacet
  facet normal -0.779883 0.625925 0
    outer loop
      vertex -77.5175 -129.238 0
      vertex -77.0888 -128.704 25
      vertex -77.0888 -128.704 0
    endloop
  endfacet
  facet normal -0.751838 0.659348 0
    outer loop
      vertex -77.0888 -128.704 25
      vertex -76.6372 -128.189 25
      vertex -77.0888 -128.704 0
    endloop
  endfacet
  facet normal -0.751838 0.659348 0
    outer loop
      vertex -77.0888 -128.704 0
      vertex -76.6372 -128.189 25
      vertex -76.6372 -128.189 0
    endloop
  endfacet
  facet normal -0.722363 0.691515 0
    outer loop
      vertex -76.6372 -128.189 25
      vertex -76.1635 -127.695 25
      vertex -76.6372 -128.189 0
    endloop
  endfacet
  facet normal -0.722363 0.691515 0
    outer loop
      vertex -76.6372 -128.189 0
      vertex -76.1635 -127.695 25
      vertex -76.1635 -127.695 0
    endloop
  endfacet
  facet normal -0.691515 0.722363 0
    outer loop
      vertex -76.1635 -127.695 25
      vertex -75.6687 -127.221 25
      vertex -76.1635 -127.695 0
    endloop
  endfacet
  facet normal -0.691515 0.722363 0
    outer loop
      vertex -76.1635 -127.695 0
      vertex -75.6687 -127.221 25
      vertex -75.6687 -127.221 0
    endloop
  endfacet
  facet normal -0.659354 0.751832 0
    outer loop
      vertex -75.6687 -127.221 25
      vertex -75.1537 -126.769 25
      vertex -75.6687 -127.221 0
    endloop
  endfacet
  facet normal -0.659354 0.751832 0
    outer loop
      vertex -75.6687 -127.221 0
      vertex -75.1537 -126.769 25
      vertex -75.1537 -126.769 0
    endloop
  endfacet
  facet normal -0.625925 0.779883 0
    outer loop
      vertex -75.1537 -126.769 25
      vertex -74.6195 -126.34 25
      vertex -75.1537 -126.769 0
    endloop
  endfacet
  facet normal -0.625925 0.779883 0
    outer loop
      vertex -75.1537 -126.769 0
      vertex -74.6195 -126.34 25
      vertex -74.6195 -126.34 0
    endloop
  endfacet
  facet normal -0.591298 0.806453 0
    outer loop
      vertex -74.6195 -126.34 25
      vertex -74.0671 -125.935 25
      vertex -74.6195 -126.34 0
    endloop
  endfacet
  facet normal -0.591298 0.806453 0
    outer loop
      vertex -74.6195 -126.34 0
      vertex -74.0671 -125.935 25
      vertex -74.0671 -125.935 0
    endloop
  endfacet
  facet normal -0.555583 0.831461 0
    outer loop
      vertex -74.0671 -125.935 25
      vertex -73.4976 -125.555 25
      vertex -74.0671 -125.935 0
    endloop
  endfacet
  facet normal -0.555583 0.831461 0
    outer loop
      vertex -74.0671 -125.935 0
      vertex -73.4976 -125.555 25
      vertex -73.4976 -125.555 0
    endloop
  endfacet
  facet normal -0.518764 0.854918 0
    outer loop
      vertex -73.4976 -125.555 25
      vertex -72.912 -125.2 25
      vertex -73.4976 -125.555 0
    endloop
  endfacet
  facet normal -0.518764 0.854918 0
    outer loop
      vertex -73.4976 -125.555 0
      vertex -72.912 -125.2 25
      vertex -72.912 -125.2 0
    endloop
  endfacet
  facet normal -0.480995 0.876723 0
    outer loop
      vertex -72.912 -125.2 25
      vertex -72.3115 -124.87 25
      vertex -72.912 -125.2 0
    endloop
  endfacet
  facet normal -0.480995 0.876723 0
    outer loop
      vertex -72.912 -125.2 0
      vertex -72.3115 -124.87 25
      vertex -72.3115 -124.87 0
    endloop
  endfacet
  facet normal -0.442282 0.896876 0
    outer loop
      vertex -72.3115 -124.87 25
      vertex -71.6972 -124.567 25
      vertex -72.3115 -124.87 0
    endloop
  endfacet
  facet normal -0.442282 0.896876 0
    outer loop
      vertex -72.3115 -124.87 0
      vertex -71.6972 -124.567 25
      vertex -71.6972 -124.567 0
    endloop
  endfacet
  facet normal -0.402756 0.915307 0
    outer loop
      vertex -71.6972 -124.567 25
      vertex -71.0702 -124.291 25
      vertex -71.6972 -124.567 0
    endloop
  endfacet
  facet normal -0.402756 0.915307 0
    outer loop
      vertex -71.6972 -124.567 0
      vertex -71.0702 -124.291 25
      vertex -71.0702 -124.291 0
    endloop
  endfacet
  facet normal -0.362432 0.93201 0
    outer loop
      vertex -71.0702 -124.291 25
      vertex -70.4318 -124.043 25
      vertex -71.0702 -124.291 0
    endloop
  endfacet
  facet normal -0.362432 0.93201 0
    outer loop
      vertex -71.0702 -124.291 0
      vertex -70.4318 -124.043 25
      vertex -70.4318 -124.043 0
    endloop
  endfacet
  facet normal -0.321434 0.946932 0
    outer loop
      vertex -70.4318 -124.043 25
      vertex -69.7832 -123.823 25
      vertex -70.4318 -124.043 0
    endloop
  endfacet
  facet normal -0.321434 0.946932 0
    outer loop
      vertex -70.4318 -124.043 0
      vertex -69.7832 -123.823 25
      vertex -69.7832 -123.823 0
    endloop
  endfacet
  facet normal -0.279832 0.960049 0
    outer loop
      vertex -69.7832 -123.823 25
      vertex -69.1256 -123.631 25
      vertex -69.7832 -123.823 0
    endloop
  endfacet
  facet normal -0.279832 0.960049 0
    outer loop
      vertex -69.7832 -123.823 0
      vertex -69.1256 -123.631 25
      vertex -69.1256 -123.631 0
    endloop
  endfacet
  facet normal -0.23769 0.971341 0
    outer loop
      vertex -69.1256 -123.631 25
      vertex -68.4603 -123.468 25
      vertex -69.1256 -123.631 0
    endloop
  endfacet
  facet normal -0.23769 0.971341 0
    outer loop
      vertex -69.1256 -123.631 0
      vertex -68.4603 -123.468 25
      vertex -68.4603 -123.468 0
    endloop
  endfacet
  facet normal -0.195085 0.980786 0
    outer loop
      vertex -68.4603 -123.468 25
      vertex -67.7885 -123.335 25
      vertex -68.4603 -123.468 0
    endloop
  endfacet
  facet normal -0.195085 0.980786 0
    outer loop
      vertex -68.4603 -123.468 0
      vertex -67.7885 -123.335 25
      vertex -67.7885 -123.335 0
    endloop
  endfacet
  facet normal -0.152129 0.988361 0
    outer loop
      vertex -67.7885 -123.335 25
      vertex -67.1115 -123.231 25
      vertex -67.7885 -123.335 0
    endloop
  endfacet
  facet normal -0.152129 0.988361 0
    outer loop
      vertex -67.7885 -123.335 0
      vertex -67.1115 -123.231 25
      vertex -67.1115 -123.231 0
    endloop
  endfacet
  facet normal -0.10886 0.994057 0
    outer loop
      vertex -67.1115 -123.231 25
      vertex -66.4306 -123.156 25
      vertex -67.1115 -123.231 0
    endloop
  endfacet
  facet normal -0.10886 0.994057 0
    outer loop
      vertex -67.1115 -123.231 0
      vertex -66.4306 -123.156 25
      vertex -66.4306 -123.156 0
    endloop
  endfacet
  facet normal -0.0654057 0.997859 0
    outer loop
      vertex -66.4306 -123.156 25
      vertex -65.7471 -123.111 25
      vertex -66.4306 -123.156 0
    endloop
  endfacet
  facet normal -0.0654057 0.997859 0
    outer loop
      vertex -66.4306 -123.156 0
      vertex -65.7471 -123.111 25
      vertex -65.7471 -123.111 0
    endloop
  endfacet
  facet normal -0.0218198 0.999762 0
    outer loop
      vertex -65.7471 -123.111 25
      vertex -65.0623 -123.096 25
      vertex -65.7471 -123.111 0
    endloop
  endfacet
  facet normal -0.0218198 0.999762 0
    outer loop
      vertex -65.7471 -123.111 0
      vertex -65.0623 -123.096 25
      vertex -65.0623 -123.096 0
    endloop
  endfacet
  facet normal 0.0218198 0.999762 0
    outer loop
      vertex -65.0623 -123.096 25
      vertex -64.3775 -123.111 25
      vertex -65.0623 -123.096 0
    endloop
  endfacet
  facet normal 0.0218198 0.999762 0
    outer loop
      vertex -65.0623 -123.096 0
      vertex -64.3775 -123.111 25
      vertex -64.3775 -123.111 0
    endloop
  endfacet
  facet normal 0.0654057 0.997859 0
    outer loop
      vertex -64.3775 -123.111 25
      vertex -63.694 -123.156 25
      vertex -64.3775 -123.111 0
    endloop
  endfacet
  facet normal 0.0654057 0.997859 0
    outer loop
      vertex -64.3775 -123.111 0
      vertex -63.694 -123.156 25
      vertex -63.694 -123.156 0
    endloop
  endfacet
  facet normal 0.10886 0.994057 0
    outer loop
      vertex -63.694 -123.156 25
      vertex -63.0131 -123.231 25
      vertex -63.694 -123.156 0
    endloop
  endfacet
  facet normal 0.10886 0.994057 0
    outer loop
      vertex -63.694 -123.156 0
      vertex -63.0131 -123.231 25
      vertex -63.0131 -123.231 0
    endloop
  endfacet
  facet normal 0.152129 0.988361 0
    outer loop
      vertex -63.0131 -123.231 25
      vertex -62.3361 -123.335 25
      vertex -63.0131 -123.231 0
    endloop
  endfacet
  facet normal 0.152129 0.988361 0
    outer loop
      vertex -63.0131 -123.231 0
      vertex -62.3361 -123.335 25
      vertex -62.3361 -123.335 0
    endloop
  endfacet
  facet normal 0.195085 0.980786 0
    outer loop
      vertex -62.3361 -123.335 25
      vertex -61.6643 -123.468 25
      vertex -62.3361 -123.335 0
    endloop
  endfacet
  facet normal 0.195085 0.980786 0
    outer loop
      vertex -62.3361 -123.335 0
      vertex -61.6643 -123.468 25
      vertex -61.6643 -123.468 0
    endloop
  endfacet
  facet normal 0.237692 0.971341 0
    outer loop
      vertex -61.6643 -123.468 25
      vertex -60.999 -123.631 25
      vertex -61.6643 -123.468 0
    endloop
  endfacet
  facet normal 0.237692 0.971341 0
    outer loop
      vertex -61.6643 -123.468 0
      vertex -60.999 -123.631 25
      vertex -60.999 -123.631 0
    endloop
  endfacet
  facet normal 0.279829 0.96005 0
    outer loop
      vertex -60.999 -123.631 25
      vertex -60.3414 -123.823 25
      vertex -60.999 -123.631 0
    endloop
  endfacet
  facet normal 0.279829 0.96005 0
    outer loop
      vertex -60.999 -123.631 0
      vertex -60.3414 -123.823 25
      vertex -60.3414 -123.823 0
    endloop
  endfacet
  facet normal 0.321436 0.946931 0
    outer loop
      vertex -60.3414 -123.823 25
      vertex -59.6927 -124.043 25
      vertex -60.3414 -123.823 0
    endloop
  endfacet
  facet normal 0.321436 0.946931 0
    outer loop
      vertex -60.3414 -123.823 0
      vertex -59.6927 -124.043 25
      vertex -59.6927 -124.043 0
    endloop
  endfacet
  facet normal 0.362433 0.93201 0
    outer loop
      vertex -59.6927 -124.043 25
      vertex -59.0543 -124.291 25
      vertex -59.6927 -124.043 0
    endloop
  endfacet
  facet normal 0.362433 0.93201 0
    outer loop
      vertex -59.6927 -124.043 0
      vertex -59.0543 -124.291 25
      vertex -59.0543 -124.291 0
    endloop
  endfacet
  facet normal 0.402752 0.915309 0
    outer loop
      vertex -59.0543 -124.291 25
      vertex -58.4274 -124.567 25
      vertex -59.0543 -124.291 0
    endloop
  endfacet
  facet normal 0.402752 0.915309 0
    outer loop
      vertex -59.0543 -124.291 0
      vertex -58.4274 -124.567 25
      vertex -58.4274 -124.567 0
    endloop
  endfacet
  facet normal 0.442284 0.896875 0
    outer loop
      vertex -58.4274 -124.567 25
      vertex -57.8131 -124.87 25
      vertex -58.4274 -124.567 0
    endloop
  endfacet
  facet normal 0.442284 0.896875 0
    outer loop
      vertex -58.4274 -124.567 0
      vertex -57.8131 -124.87 25
      vertex -57.8131 -124.87 0
    endloop
  endfacet
  facet normal 0.480995 0.876723 0
    outer loop
      vertex -57.8131 -124.87 25
      vertex -57.2125 -125.2 25
      vertex -57.8131 -124.87 0
    endloop
  endfacet
  facet normal 0.480995 0.876723 0
    outer loop
      vertex -57.8131 -124.87 0
      vertex -57.2125 -125.2 25
      vertex -57.2125 -125.2 0
    endloop
  endfacet
  facet normal 0.518764 0.854918 0
    outer loop
      vertex -57.2125 -125.2 25
      vertex -56.627 -125.555 25
      vertex -57.2125 -125.2 0
    endloop
  endfacet
  facet normal 0.518764 0.854918 0
    outer loop
      vertex -57.2125 -125.2 0
      vertex -56.627 -125.555 25
      vertex -56.627 -125.555 0
    endloop
  endfacet
  facet normal 0.555583 0.831461 0
    outer loop
      vertex -56.627 -125.555 25
      vertex -56.0574 -125.935 25
      vertex -56.627 -125.555 0
    endloop
  endfacet
  facet normal 0.555583 0.831461 0
    outer loop
      vertex -56.627 -125.555 0
      vertex -56.0574 -125.935 25
      vertex -56.0574 -125.935 0
    endloop
  endfacet
  facet normal 0.591298 0.806453 0
    outer loop
      vertex -56.0574 -125.935 25
      vertex -55.505 -126.34 25
      vertex -56.0574 -125.935 0
    endloop
  endfacet
  facet normal 0.591298 0.806453 0
    outer loop
      vertex -56.0574 -125.935 0
      vertex -55.505 -126.34 25
      vertex -55.505 -126.34 0
    endloop
  endfacet
  facet normal 0.625925 0.779883 0
    outer loop
      vertex -55.505 -126.34 25
      vertex -54.9708 -126.769 25
      vertex -55.505 -126.34 0
    endloop
  endfacet
  facet normal 0.625925 0.779883 0
    outer loop
      vertex -55.505 -126.34 0
      vertex -54.9708 -126.769 25
      vertex -54.9708 -126.769 0
    endloop
  endfacet
  facet normal 0.659354 0.751832 0
    outer loop
      vertex -54.9708 -126.769 25
      vertex -54.4559 -127.221 25
      vertex -54.9708 -126.769 0
    endloop
  endfacet
  facet normal 0.659354 0.751832 0
    outer loop
      vertex -54.9708 -126.769 0
      vertex -54.4559 -127.221 25
      vertex -54.4559 -127.221 0
    endloop
  endfacet
  facet normal 0.691512 0.722365 0
    outer loop
      vertex -54.4559 -127.221 25
      vertex -53.9611 -127.695 25
      vertex -54.4559 -127.221 0
    endloop
  endfacet
  facet normal 0.691512 0.722365 0
    outer loop
      vertex -54.4559 -127.221 0
      vertex -53.9611 -127.695 25
      vertex -53.9611 -127.695 0
    endloop
  endfacet
  facet normal 0.722363 0.691515 0
    outer loop
      vertex -53.9611 -127.695 25
      vertex -53.4874 -128.189 25
      vertex -53.9611 -127.695 0
    endloop
  endfacet
  facet normal 0.722363 0.691515 0
    outer loop
      vertex -53.9611 -127.695 0
      vertex -53.4874 -128.189 25
      vertex -53.4874 -128.189 0
    endloop
  endfacet
  facet normal 0.75184 0.659345 0
    outer loop
      vertex -53.4874 -128.189 25
      vertex -53.0358 -128.704 25
      vertex -53.4874 -128.189 0
    endloop
  endfacet
  facet normal 0.75184 0.659345 0
    outer loop
      vertex -53.4874 -128.189 0
      vertex -53.0358 -128.704 25
      vertex -53.0358 -128.704 0
    endloop
  endfacet
  facet normal 0.779883 0.625925 0
    outer loop
      vertex -53.0358 -128.704 25
      vertex -52.607 -129.238 25
      vertex -53.0358 -128.704 0
    endloop
  endfacet
  facet normal 0.779883 0.625925 0
    outer loop
      vertex -53.0358 -128.704 0
      vertex -52.607 -129.238 25
      vertex -52.607 -129.238 0
    endloop
  endfacet
  facet normal 0.806446 0.591308 0
    outer loop
      vertex -52.607 -129.238 25
      vertex -52.202 -129.791 25
      vertex -52.607 -129.238 0
    endloop
  endfacet
  facet normal 0.806446 0.591308 0
    outer loop
      vertex -52.607 -129.238 0
      vertex -52.202 -129.791 25
      vertex -52.202 -129.791 0
    endloop
  endfacet
  facet normal 0.831467 0.555573 0
    outer loop
      vertex -52.202 -129.791 25
      vertex -51.8215 -130.36 25
      vertex -52.202 -129.791 0
    endloop
  endfacet
  facet normal 0.831467 0.555573 0
    outer loop
      vertex -52.202 -129.791 0
      vertex -51.8215 -130.36 25
      vertex -51.8215 -130.36 0
    endloop
  endfacet
  facet normal 0.854911 0.518775 0
    outer loop
      vertex -51.8215 -130.36 25
      vertex -51.4661 -130.946 25
      vertex -51.8215 -130.36 0
    endloop
  endfacet
  facet normal 0.854911 0.518775 0
    outer loop
      vertex -51.8215 -130.36 0
      vertex -51.4661 -130.946 25
      vertex -51.4661 -130.946 0
    endloop
  endfacet
  facet normal 0.876728 0.480986 0
    outer loop
      vertex -51.4661 -130.946 25
      vertex -51.1367 -131.546 25
      vertex -51.4661 -130.946 0
    endloop
  endfacet
  facet normal 0.876728 0.480986 0
    outer loop
      vertex -51.4661 -130.946 0
      vertex -51.1367 -131.546 25
      vertex -51.1367 -131.546 0
    endloop
  endfacet
  facet normal 0.896874 0.442286 0
    outer loop
      vertex -51.1367 -131.546 25
      vertex -50.8337 -132.161 25
      vertex -51.1367 -131.546 0
    endloop
  endfacet
  facet normal 0.896874 0.442286 0
    outer loop
      vertex -51.1367 -131.546 0
      vertex -50.8337 -132.161 25
      vertex -50.8337 -132.161 0
    endloop
  endfacet
  facet normal 0.915312 0.402747 0
    outer loop
      vertex -50.8337 -132.161 25
      vertex -50.5578 -132.788 25
      vertex -50.8337 -132.161 0
    endloop
  endfacet
  facet normal 0.915312 0.402747 0
    outer loop
      vertex -50.8337 -132.161 0
      vertex -50.5578 -132.788 25
      vertex -50.5578 -132.788 0
    endloop
  endfacet
  facet normal 0.932007 0.362441 0
    outer loop
      vertex -50.5578 -132.788 25
      vertex -50.3096 -133.426 25
      vertex -50.5578 -132.788 0
    endloop
  endfacet
  facet normal 0.932007 0.362441 0
    outer loop
      vertex -50.5578 -132.788 0
      vertex -50.3096 -133.426 25
      vertex -50.3096 -133.426 0
    endloop
  endfacet
  facet normal 0.946932 0.321434 0
    outer loop
      vertex -50.3096 -133.426 25
      vertex -50.0894 -134.075 25
      vertex -50.3096 -133.426 0
    endloop
  endfacet
  facet normal 0.946932 0.321434 0
    outer loop
      vertex -50.3096 -133.426 0
      vertex -50.0894 -134.075 25
      vertex -50.0894 -134.075 0
    endloop
  endfacet
  facet normal 0.960048 0.279835 0
    outer loop
      vertex -50.0894 -134.075 25
      vertex -49.8977 -134.732 25
      vertex -50.0894 -134.075 0
    endloop
  endfacet
  facet normal 0.960048 0.279835 0
    outer loop
      vertex -50.0894 -134.075 0
      vertex -49.8977 -134.732 25
      vertex -49.8977 -134.732 0
    endloop
  endfacet
  facet normal 0.971342 0.237685 0
    outer loop
      vertex -49.8977 -134.732 25
      vertex -49.7349 -135.398 25
      vertex -49.8977 -134.732 0
    endloop
  endfacet
  facet normal 0.971342 0.237685 0
    outer loop
      vertex -49.8977 -134.732 0
      vertex -49.7349 -135.398 25
      vertex -49.7349 -135.398 0
    endloop
  endfacet
  facet normal 0.980785 0.19509 0
    outer loop
      vertex -49.7349 -135.398 25
      vertex -49.6013 -136.07 25
      vertex -49.7349 -135.398 0
    endloop
  endfacet
  facet normal 0.980785 0.19509 0
    outer loop
      vertex -49.7349 -135.398 0
      vertex -49.6013 -136.07 25
      vertex -49.6013 -136.07 0
    endloop
  endfacet
  facet normal 0.988362 0.152122 0
    outer loop
      vertex -49.6013 -136.07 25
      vertex -49.4971 -136.747 25
      vertex -49.6013 -136.07 0
    endloop
  endfacet
  facet normal 0.988362 0.152122 0
    outer loop
      vertex -49.6013 -136.07 0
      vertex -49.4971 -136.747 25
      vertex -49.4971 -136.747 0
    endloop
  endfacet
  facet normal 0.994056 0.108866 0
    outer loop
      vertex -49.4971 -136.747 25
      vertex -49.4225 -137.427 25
      vertex -49.4971 -136.747 0
    endloop
  endfacet
  facet normal 0.994056 0.108866 0
    outer loop
      vertex -49.4971 -136.747 0
      vertex -49.4225 -137.427 25
      vertex -49.4225 -137.427 0
    endloop
  endfacet
  facet normal 0.997859 0.065405 0
    outer loop
      vertex -49.4225 -137.427 25
      vertex -49.3777 -138.111 25
      vertex -49.4225 -137.427 0
    endloop
  endfacet
  facet normal 0.997859 0.065405 0
    outer loop
      vertex -49.4225 -137.427 0
      vertex -49.3777 -138.111 25
      vertex -49.3777 -138.111 0
    endloop
  endfacet
  facet normal 0.999762 0.0218146 0
    outer loop
      vertex -49.3777 -138.111 25
      vertex -49.3628 -138.796 25
      vertex -49.3777 -138.111 0
    endloop
  endfacet
  facet normal 0.999762 0.0218146 0
    outer loop
      vertex -49.3777 -138.111 0
      vertex -49.3628 -138.796 25
      vertex -49.3628 -138.796 0
    endloop
  endfacet
  facet normal 0.999762 -0.0218146 0
    outer loop
      vertex -49.3628 -138.796 25
      vertex -49.3777 -139.481 25
      vertex -49.3628 -138.796 0
    endloop
  endfacet
  facet normal 0.999762 -0.0218146 0
    outer loop
      vertex -49.3628 -138.796 0
      vertex -49.3777 -139.481 25
      vertex -49.3777 -139.481 0
    endloop
  endfacet
  facet normal 0.997859 -0.065405 0
    outer loop
      vertex -49.3777 -139.481 25
      vertex -49.4225 -140.164 25
      vertex -49.3777 -139.481 0
    endloop
  endfacet
  facet normal 0.997859 -0.065405 0
    outer loop
      vertex -49.3777 -139.481 0
      vertex -49.4225 -140.164 25
      vertex -49.4225 -140.164 0
    endloop
  endfacet
  facet normal 0.994056 -0.108866 0
    outer loop
      vertex -49.4225 -140.164 25
      vertex -49.4971 -140.845 25
      vertex -49.4225 -140.164 0
    endloop
  endfacet
  facet normal 0.994056 -0.108866 0
    outer loop
      vertex -49.4225 -140.164 0
      vertex -49.4971 -140.845 25
      vertex -49.4971 -140.845 0
    endloop
  endfacet
  facet normal 0.988361 -0.152125 0
    outer loop
      vertex -49.4971 -140.845 25
      vertex -49.6013 -141.522 25
      vertex -49.4971 -140.845 0
    endloop
  endfacet
  facet normal 0.988361 -0.152125 0
    outer loop
      vertex -49.4971 -140.845 0
      vertex -49.6013 -141.522 25
      vertex -49.6013 -141.522 0
    endloop
  endfacet
  facet normal 0.980785 -0.19509 0
    outer loop
      vertex -49.6013 -141.522 25
      vertex -49.7349 -142.194 25
      vertex -49.6013 -141.522 0
    endloop
  endfacet
  facet normal 0.980785 -0.19509 0
    outer loop
      vertex -49.6013 -141.522 0
      vertex -49.7349 -142.194 25
      vertex -49.7349 -142.194 0
    endloop
  endfacet
  facet normal 0.971342 -0.237685 0
    outer loop
      vertex -49.7349 -142.194 25
      vertex -49.8977 -142.859 25
      vertex -49.7349 -142.194 0
    endloop
  endfacet
  facet normal 0.971342 -0.237685 0
    outer loop
      vertex -49.7349 -142.194 0
      vertex -49.8977 -142.859 25
      vertex -49.8977 -142.859 0
    endloop
  endfacet
  facet normal 0.96005 -0.279829 0
    outer loop
      vertex -49.8977 -142.859 25
      vertex -50.0894 -143.517 25
      vertex -49.8977 -142.859 0
    endloop
  endfacet
  facet normal 0.96005 -0.279829 0
    outer loop
      vertex -49.8977 -142.859 0
      vertex -50.0894 -143.517 25
      vertex -50.0894 -143.517 0
    endloop
  endfacet
  facet normal 0.946932 -0.321434 0
    outer loop
      vertex -50.0894 -143.517 25
      vertex -50.3096 -144.165 25
      vertex -50.0894 -143.517 0
    endloop
  endfacet
  facet normal 0.946932 -0.321434 0
    outer loop
      vertex -50.0894 -143.517 0
      vertex -50.3096 -144.165 25
      vertex -50.3096 -144.165 0
    endloop
  endfacet
  facet normal 0.932007 -0.362441 0
    outer loop
      vertex -50.3096 -144.165 25
      vertex -50.5578 -144.804 25
      vertex -50.3096 -144.165 0
    endloop
  endfacet
  facet normal 0.932007 -0.362441 0
    outer loop
      vertex -50.3096 -144.165 0
      vertex -50.5578 -144.804 25
      vertex -50.5578 -144.804 0
    endloop
  endfacet
  facet normal 0.915312 -0.402747 0
    outer loop
      vertex -50.5578 -144.804 25
      vertex -50.8337 -145.431 25
      vertex -50.5578 -144.804 0
    endloop
  endfacet
  facet normal 0.915312 -0.402747 0
    outer loop
      vertex -50.5578 -144.804 0
      vertex -50.8337 -145.431 25
      vertex -50.8337 -145.431 0
    endloop
  endfacet
  facet normal 0.896874 -0.442286 0
    outer loop
      vertex -50.8337 -145.431 25
      vertex -51.1367 -146.045 25
      vertex -50.8337 -145.431 0
    endloop
  endfacet
  facet normal 0.896874 -0.442286 0
    outer loop
      vertex -50.8337 -145.431 0
      vertex -51.1367 -146.045 25
      vertex -51.1367 -146.045 0
    endloop
  endfacet
  facet normal 0.876723 -0.480996 0
    outer loop
      vertex -51.1367 -146.045 25
      vertex -51.4661 -146.645 25
      vertex -51.1367 -146.045 0
    endloop
  endfacet
  facet normal 0.876723 -0.480996 0
    outer loop
      vertex -51.1367 -146.045 0
      vertex -51.4661 -146.645 25
      vertex -51.4661 -146.645 0
    endloop
  endfacet
  facet normal 0.854911 -0.518775 0
    outer loop
      vertex -51.4661 -146.645 25
      vertex -51.8215 -147.231 25
      vertex -51.4661 -146.645 0
    endloop
  endfacet
  facet normal 0.854911 -0.518775 0
    outer loop
      vertex -51.4661 -146.645 0
      vertex -51.8215 -147.231 25
      vertex -51.8215 -147.231 0
    endloop
  endfacet
  facet normal 0.831474 -0.555563 0
    outer loop
      vertex -51.8215 -147.231 25
      vertex -52.202 -147.801 25
      vertex -51.8215 -147.231 0
    endloop
  endfacet
  facet normal 0.831474 -0.555563 0
    outer loop
      vertex -51.8215 -147.231 0
      vertex -52.202 -147.801 25
      vertex -52.202 -147.801 0
    endloop
  endfacet
  facet normal 0.806446 -0.591308 0
    outer loop
      vertex -52.202 -147.801 25
      vertex -52.607 -148.353 25
      vertex -52.202 -147.801 0
    endloop
  endfacet
  facet normal 0.806446 -0.591308 0
    outer loop
      vertex -52.202 -147.801 0
      vertex -52.607 -148.353 25
      vertex -52.607 -148.353 0
    endloop
  endfacet
  facet normal 0.779883 -0.625925 0
    outer loop
      vertex -52.607 -148.353 25
      vertex -53.0358 -148.887 25
      vertex -52.607 -148.353 0
    endloop
  endfacet
  facet normal 0.779883 -0.625925 0
    outer loop
      vertex -52.607 -148.353 0
      vertex -53.0358 -148.887 25
      vertex -53.0358 -148.887 0
    endloop
  endfacet
  facet normal 0.75184 -0.659345 0
    outer loop
      vertex -53.0358 -148.887 25
      vertex -53.4874 -149.402 25
      vertex -53.0358 -148.887 0
    endloop
  endfacet
  facet normal 0.75184 -0.659345 0
    outer loop
      vertex -53.0358 -148.887 0
      vertex -53.4874 -149.402 25
      vertex -53.4874 -149.402 0
    endloop
  endfacet
  facet normal 0.722363 -0.691515 0
    outer loop
      vertex -53.4874 -149.402 25
      vertex -53.9611 -149.897 25
      vertex -53.4874 -149.402 0
    endloop
  endfacet
  facet normal 0.722363 -0.691515 0
    outer loop
      vertex -53.4874 -149.402 0
      vertex -53.9611 -149.897 25
      vertex -53.9611 -149.897 0
    endloop
  endfacet
  facet normal 0.691512 -0.722365 0
    outer loop
      vertex -53.9611 -149.897 25
      vertex -54.4559 -150.371 25
      vertex -53.9611 -149.897 0
    endloop
  endfacet
  facet normal 0.691512 -0.722365 0
    outer loop
      vertex -53.9611 -149.897 0
      vertex -54.4559 -150.371 25
      vertex -54.4559 -150.371 0
    endloop
  endfacet
  facet normal 0.659342 -0.751843 0
    outer loop
      vertex -54.4559 -150.371 25
      vertex -54.9708 -150.822 25
      vertex -54.4559 -150.371 0
    endloop
  endfacet
  facet normal 0.659342 -0.751843 0
    outer loop
      vertex -54.4559 -150.371 0
      vertex -54.9708 -150.822 25
      vertex -54.9708 -150.822 0
    endloop
  endfacet
  facet normal 0.625925 -0.779883 0
    outer loop
      vertex -54.9708 -150.822 25
      vertex -55.505 -151.251 25
      vertex -54.9708 -150.822 0
    endloop
  endfacet
  facet normal 0.625925 -0.779883 0
    outer loop
      vertex -54.9708 -150.822 0
      vertex -55.505 -151.251 25
      vertex -55.505 -151.251 0
    endloop
  endfacet
  facet normal 0.591312 -0.806443 0
    outer loop
      vertex -55.505 -151.251 25
      vertex -56.0574 -151.656 25
      vertex -55.505 -151.251 0
    endloop
  endfacet
  facet normal 0.591312 -0.806443 0
    outer loop
      vertex -55.505 -151.251 0
      vertex -56.0574 -151.656 25
      vertex -56.0574 -151.656 0
    endloop
  endfacet
  facet normal 0.555568 -0.831471 0
    outer loop
      vertex -56.0574 -151.656 25
      vertex -56.627 -152.037 25
      vertex -56.0574 -151.656 0
    endloop
  endfacet
  facet normal 0.555568 -0.831471 0
    outer loop
      vertex -56.0574 -151.656 0
      vertex -56.627 -152.037 25
      vertex -56.627 -152.037 0
    endloop
  endfacet
  facet normal 0.518779 -0.854908 0
    outer loop
      vertex -56.627 -152.037 25
      vertex -57.2125 -152.392 25
      vertex -56.627 -152.037 0
    endloop
  endfacet
  facet normal 0.518779 -0.854908 0
    outer loop
      vertex -56.627 -152.037 0
      vertex -57.2125 -152.392 25
      vertex -57.2125 -152.392 0
    endloop
  endfacet
  facet normal 0.480979 -0.876732 0
    outer loop
      vertex -57.2125 -152.392 25
      vertex -57.8131 -152.721 25
      vertex -57.2125 -152.392 0
    endloop
  endfacet
  facet normal 0.480979 -0.876732 0
    outer loop
      vertex -57.2125 -152.392 0
      vertex -57.8131 -152.721 25
      vertex -57.8131 -152.721 0
    endloop
  endfacet
  facet normal 0.442292 -0.896871 0
    outer loop
      vertex -57.8131 -152.721 25
      vertex -58.4274 -153.024 25
      vertex -57.8131 -152.721 0
    endloop
  endfacet
  facet normal 0.442292 -0.896871 0
    outer loop
      vertex -57.8131 -152.721 0
      vertex -58.4274 -153.024 25
      vertex -58.4274 -153.024 0
    endloop
  endfacet
  facet normal 0.402743 -0.915313 0
    outer loop
      vertex -58.4274 -153.024 25
      vertex -59.0543 -153.3 25
      vertex -58.4274 -153.024 0
    endloop
  endfacet
  facet normal 0.402743 -0.915313 0
    outer loop
      vertex -58.4274 -153.024 0
      vertex -59.0543 -153.3 25
      vertex -59.0543 -153.3 0
    endloop
  endfacet
  facet normal 0.362452 -0.932002 0
    outer loop
      vertex -59.0543 -153.3 25
      vertex -59.6927 -153.548 25
      vertex -59.0543 -153.3 0
    endloop
  endfacet
  facet normal 0.362452 -0.932002 0
    outer loop
      vertex -59.0543 -153.3 0
      vertex -59.6927 -153.548 25
      vertex -59.6927 -153.548 0
    endloop
  endfacet
  facet normal 0.321426 -0.946935 0
    outer loop
      vertex -59.6927 -153.548 25
      vertex -60.3414 -153.769 25
      vertex -59.6927 -153.548 0
    endloop
  endfacet
  facet normal 0.321426 -0.946935 0
    outer loop
      vertex -59.6927 -153.548 0
      vertex -60.3414 -153.769 25
      vertex -60.3414 -153.769 0
    endloop
  endfacet
  facet normal 0.279829 -0.96005 0
    outer loop
      vertex -60.3414 -153.769 25
      vertex -60.999 -153.96 25
      vertex -60.3414 -153.769 0
    endloop
  endfacet
  facet normal 0.279829 -0.96005 0
    outer loop
      vertex -60.3414 -153.769 0
      vertex -60.999 -153.96 25
      vertex -60.999 -153.96 0
    endloop
  endfacet
  facet normal 0.237692 -0.971341 0
    outer loop
      vertex -60.999 -153.96 25
      vertex -61.6643 -154.123 25
      vertex -60.999 -153.96 0
    endloop
  endfacet
  facet normal 0.237692 -0.971341 0
    outer loop
      vertex -60.999 -153.96 0
      vertex -61.6643 -154.123 25
      vertex -61.6643 -154.123 0
    endloop
  endfacet
  facet normal 0.195095 -0.980784 0
    outer loop
      vertex -61.6643 -154.123 25
      vertex -62.3361 -154.257 25
      vertex -61.6643 -154.123 0
    endloop
  endfacet
  facet normal 0.195095 -0.980784 0
    outer loop
      vertex -61.6643 -154.123 0
      vertex -62.3361 -154.257 25
      vertex -62.3361 -154.257 0
    endloop
  endfacet
  facet normal 0.152129 -0.988361 0
    outer loop
      vertex -62.3361 -154.257 25
      vertex -63.0131 -154.361 25
      vertex -62.3361 -154.257 0
    endloop
  endfacet
  facet normal 0.152129 -0.988361 0
    outer loop
      vertex -62.3361 -154.257 0
      vertex -63.0131 -154.361 25
      vertex -63.0131 -154.361 0
    endloop
  endfacet
  facet normal 0.10886 -0.994057 0
    outer loop
      vertex -63.0131 -154.361 25
      vertex -63.694 -154.435 25
      vertex -63.0131 -154.361 0
    endloop
  endfacet
  facet normal 0.10886 -0.994057 0
    outer loop
      vertex -63.0131 -154.361 0
      vertex -63.694 -154.435 25
      vertex -63.694 -154.435 0
    endloop
  endfacet
  facet normal 0.0653949 -0.997859 0
    outer loop
      vertex -63.694 -154.435 25
      vertex -64.3775 -154.48 25
      vertex -63.694 -154.435 0
    endloop
  endfacet
  facet normal 0.0653949 -0.997859 0
    outer loop
      vertex -63.694 -154.435 0
      vertex -64.3775 -154.48 25
      vertex -64.3775 -154.48 0
    endloop
  endfacet
  facet normal 0.0218198 -0.999762 0
    outer loop
      vertex -64.3775 -154.48 25
      vertex -65.0623 -154.495 25
      vertex -64.3775 -154.48 0
    endloop
  endfacet
  facet normal 0.0218198 -0.999762 0
    outer loop
      vertex -64.3775 -154.48 0
      vertex -65.0623 -154.495 25
      vertex -65.0623 -154.495 0
    endloop
  endfacet
  facet normal -0.0218198 -0.999762 0
    outer loop
      vertex -65.0623 -154.495 25
      vertex -65.7471 -154.48 25
      vertex -65.0623 -154.495 0
    endloop
  endfacet
  facet normal -0.0218198 -0.999762 0
    outer loop
      vertex -65.0623 -154.495 0
      vertex -65.7471 -154.48 25
      vertex -65.7471 -154.48 0
    endloop
  endfacet
  facet normal -0.0653949 -0.997859 0
    outer loop
      vertex -65.7471 -154.48 25
      vertex -66.4306 -154.435 25
      vertex -65.7471 -154.48 0
    endloop
  endfacet
  facet normal -0.0653949 -0.997859 0
    outer loop
      vertex -65.7471 -154.48 0
      vertex -66.4306 -154.435 25
      vertex -66.4306 -154.435 0
    endloop
  endfacet
  facet normal -0.10886 -0.994057 0
    outer loop
      vertex -66.4306 -154.435 25
      vertex -67.1115 -154.361 25
      vertex -66.4306 -154.435 0
    endloop
  endfacet
  facet normal -0.10886 -0.994057 0
    outer loop
      vertex -66.4306 -154.435 0
      vertex -67.1115 -154.361 25
      vertex -67.1115 -154.361 0
    endloop
  endfacet
  facet normal -0.152129 -0.988361 0
    outer loop
      vertex -67.1115 -154.361 25
      vertex -67.7885 -154.257 25
      vertex -67.1115 -154.361 0
    endloop
  endfacet
  facet normal -0.152129 -0.988361 0
    outer loop
      vertex -67.1115 -154.361 0
      vertex -67.7885 -154.257 25
      vertex -67.7885 -154.257 0
    endloop
  endfacet
  facet normal -0.195095 -0.980784 0
    outer loop
      vertex -67.7885 -154.257 25
      vertex -68.4603 -154.123 25
      vertex -67.7885 -154.257 0
    endloop
  endfacet
  facet normal -0.195095 -0.980784 0
    outer loop
      vertex -67.7885 -154.257 0
      vertex -68.4603 -154.123 25
      vertex -68.4603 -154.123 0
    endloop
  endfacet
  facet normal -0.23769 -0.971341 0
    outer loop
      vertex -68.4603 -154.123 25
      vertex -69.1256 -153.96 25
      vertex -68.4603 -154.123 0
    endloop
  endfacet
  facet normal -0.23769 -0.971341 0
    outer loop
      vertex -68.4603 -154.123 0
      vertex -69.1256 -153.96 25
      vertex -69.1256 -153.96 0
    endloop
  endfacet
  facet normal -0.279832 -0.960049 0
    outer loop
      vertex -69.1256 -153.96 25
      vertex -69.7832 -153.769 25
      vertex -69.1256 -153.96 0
    endloop
  endfacet
  facet normal -0.279832 -0.960049 0
    outer loop
      vertex -69.1256 -153.96 0
      vertex -69.7832 -153.769 25
      vertex -69.7832 -153.769 0
    endloop
  endfacet
  facet normal -0.321425 -0.946935 0
    outer loop
      vertex -69.7832 -153.769 25
      vertex -70.4318 -153.548 25
      vertex -69.7832 -153.769 0
    endloop
  endfacet
  facet normal -0.321425 -0.946935 0
    outer loop
      vertex -69.7832 -153.769 0
      vertex -70.4318 -153.548 25
      vertex -70.4318 -153.548 0
    endloop
  endfacet
  facet normal -0.36245 -0.932003 0
    outer loop
      vertex -70.4318 -153.548 25
      vertex -71.0702 -153.3 25
      vertex -70.4318 -153.548 0
    endloop
  endfacet
  facet normal -0.36245 -0.932003 0
    outer loop
      vertex -70.4318 -153.548 0
      vertex -71.0702 -153.3 25
      vertex -71.0702 -153.3 0
    endloop
  endfacet
  facet normal -0.402747 -0.915312 0
    outer loop
      vertex -71.0702 -153.3 25
      vertex -71.6972 -153.024 25
      vertex -71.0702 -153.3 0
    endloop
  endfacet
  facet normal -0.402747 -0.915312 0
    outer loop
      vertex -71.0702 -153.3 0
      vertex -71.6972 -153.024 25
      vertex -71.6972 -153.024 0
    endloop
  endfacet
  facet normal -0.44229 -0.896872 0
    outer loop
      vertex -71.6972 -153.024 25
      vertex -72.3115 -152.721 25
      vertex -71.6972 -153.024 0
    endloop
  endfacet
  facet normal -0.44229 -0.896872 0
    outer loop
      vertex -71.6972 -153.024 0
      vertex -72.3115 -152.721 25
      vertex -72.3115 -152.721 0
    endloop
  endfacet
  facet normal -0.480979 -0.876732 0
    outer loop
      vertex -72.3115 -152.721 25
      vertex -72.912 -152.392 25
      vertex -72.3115 -152.721 0
    endloop
  endfacet
  facet normal -0.480979 -0.876732 0
    outer loop
      vertex -72.3115 -152.721 0
      vertex -72.912 -152.392 25
      vertex -72.912 -152.392 0
    endloop
  endfacet
  facet normal -0.518779 -0.854908 0
    outer loop
      vertex -72.912 -152.392 25
      vertex -73.4976 -152.037 25
      vertex -72.912 -152.392 0
    endloop
  endfacet
  facet normal -0.518779 -0.854908 0
    outer loop
      vertex -72.912 -152.392 0
      vertex -73.4976 -152.037 25
      vertex -73.4976 -152.037 0
    endloop
  endfacet
  facet normal -0.555568 -0.831471 0
    outer loop
      vertex -73.4976 -152.037 25
      vertex -74.0671 -151.656 25
      vertex -73.4976 -152.037 0
    endloop
  endfacet
  facet normal -0.555568 -0.831471 0
    outer loop
      vertex -73.4976 -152.037 0
      vertex -74.0671 -151.656 25
      vertex -74.0671 -151.656 0
    endloop
  endfacet
  facet normal -0.591312 -0.806443 0
    outer loop
      vertex -74.0671 -151.656 25
      vertex -74.6195 -151.251 25
      vertex -74.0671 -151.656 0
    endloop
  endfacet
  facet normal -0.591312 -0.806443 0
    outer loop
      vertex -74.0671 -151.656 0
      vertex -74.6195 -151.251 25
      vertex -74.6195 -151.251 0
    endloop
  endfacet
  facet normal -0.625925 -0.779883 0
    outer loop
      vertex -74.6195 -151.251 25
      vertex -75.1537 -150.822 25
      vertex -74.6195 -151.251 0
    endloop
  endfacet
  facet normal -0.625925 -0.779883 0
    outer loop
      vertex -74.6195 -151.251 0
      vertex -75.1537 -150.822 25
      vertex -75.1537 -150.822 0
    endloop
  endfacet
  facet normal -0.659342 -0.751843 0
    outer loop
      vertex -75.1537 -150.822 25
      vertex -75.6687 -150.371 25
      vertex -75.1537 -150.822 0
    endloop
  endfacet
  facet normal -0.659342 -0.751843 0
    outer loop
      vertex -75.1537 -150.822 0
      vertex -75.6687 -150.371 25
      vertex -75.6687 -150.371 0
    endloop
  endfacet
  facet normal -0.691515 -0.722363 0
    outer loop
      vertex -75.6687 -150.371 25
      vertex -76.1635 -149.897 25
      vertex -75.6687 -150.371 0
    endloop
  endfacet
  facet normal -0.691515 -0.722363 0
    outer loop
      vertex -75.6687 -150.371 0
      vertex -76.1635 -149.897 25
      vertex -76.1635 -149.897 0
    endloop
  endfacet
  facet normal -0.722363 -0.691515 0
    outer loop
      vertex -76.1635 -149.897 25
      vertex -76.6372 -149.402 25
      vertex -76.1635 -149.897 0
    endloop
  endfacet
  facet normal -0.722363 -0.691515 0
    outer loop
      vertex -76.1635 -149.897 0
      vertex -76.6372 -149.402 25
      vertex -76.6372 -149.402 0
    endloop
  endfacet
  facet normal -0.751838 -0.659348 0
    outer loop
      vertex -76.6372 -149.402 25
      vertex -77.0888 -148.887 25
      vertex -76.6372 -149.402 0
    endloop
  endfacet
  facet normal -0.751838 -0.659348 0
    outer loop
      vertex -76.6372 -149.402 0
      vertex -77.0888 -148.887 25
      vertex -77.0888 -148.887 0
    endloop
  endfacet
  facet normal -0.779883 -0.625925 0
    outer loop
      vertex -77.0888 -148.887 25
      vertex -77.5175 -148.353 25
      vertex -77.0888 -148.887 0
    endloop
  endfacet
  facet normal -0.779883 -0.625925 0
    outer loop
      vertex -77.0888 -148.887 0
      vertex -77.5175 -148.353 25
      vertex -77.5175 -148.353 0
    endloop
  endfacet
  facet normal -0.806443 -0.591312 0
    outer loop
      vertex -77.5175 -148.353 25
      vertex -77.9226 -147.801 25
      vertex -77.5175 -148.353 0
    endloop
  endfacet
  facet normal -0.806443 -0.591312 0
    outer loop
      vertex -77.5175 -148.353 0
      vertex -77.9226 -147.801 25
      vertex -77.9226 -147.801 0
    endloop
  endfacet
  facet normal -0.831474 -0.555563 0
    outer loop
      vertex -77.9226 -147.801 25
      vertex -78.3031 -147.231 25
      vertex -77.9226 -147.801 0
    endloop
  endfacet
  facet normal -0.831474 -0.555563 0
    outer loop
      vertex -77.9226 -147.801 0
      vertex -78.3031 -147.231 25
      vertex -78.3031 -147.231 0
    endloop
  endfacet
  facet normal -0.854913 -0.518771 0
    outer loop
      vertex -78.3031 -147.231 25
      vertex -78.6584 -146.645 25
      vertex -78.3031 -147.231 0
    endloop
  endfacet
  facet normal -0.854913 -0.518771 0
    outer loop
      vertex -78.3031 -147.231 0
      vertex -78.6584 -146.645 25
      vertex -78.6584 -146.645 0
    endloop
  endfacet
  facet normal -0.876725 -0.480991 0
    outer loop
      vertex -78.6584 -146.645 25
      vertex -78.9879 -146.045 25
      vertex -78.6584 -146.645 0
    endloop
  endfacet
  facet normal -0.876725 -0.480991 0
    outer loop
      vertex -78.6584 -146.645 0
      vertex -78.9879 -146.045 25
      vertex -78.9879 -146.045 0
    endloop
  endfacet
  facet normal -0.896872 -0.44229 0
    outer loop
      vertex -78.9879 -146.045 25
      vertex -79.2909 -145.431 25
      vertex -78.9879 -146.045 0
    endloop
  endfacet
  facet normal -0.896872 -0.44229 0
    outer loop
      vertex -78.9879 -146.045 0
      vertex -79.2909 -145.431 25
      vertex -79.2909 -145.431 0
    endloop
  endfacet
  facet normal -0.915312 -0.402747 0
    outer loop
      vertex -79.2909 -145.431 25
      vertex -79.5667 -144.804 25
      vertex -79.2909 -145.431 0
    endloop
  endfacet
  facet normal -0.915312 -0.402747 0
    outer loop
      vertex -79.2909 -145.431 0
      vertex -79.5667 -144.804 25
      vertex -79.5667 -144.804 0
    endloop
  endfacet
  facet normal -0.932007 -0.362441 0
    outer loop
      vertex -79.5667 -144.804 25
      vertex -79.815 -144.165 25
      vertex -79.5667 -144.804 0
    endloop
  endfacet
  facet normal -0.932007 -0.362441 0
    outer loop
      vertex -79.5667 -144.804 0
      vertex -79.815 -144.165 25
      vertex -79.815 -144.165 0
    endloop
  endfacet
  facet normal -0.946932 -0.321434 0
    outer loop
      vertex -79.815 -144.165 25
      vertex -80.0352 -143.517 25
      vertex -79.815 -144.165 0
    endloop
  endfacet
  facet normal -0.946932 -0.321434 0
    outer loop
      vertex -79.815 -144.165 0
      vertex -80.0352 -143.517 25
      vertex -80.0352 -143.517 0
    endloop
  endfacet
  facet normal -0.96005 -0.279829 0
    outer loop
      vertex -80.0352 -143.517 25
      vertex -80.2268 -142.859 25
      vertex -80.0352 -143.517 0
    endloop
  endfacet
  facet normal -0.96005 -0.279829 0
    outer loop
      vertex -80.0352 -143.517 0
      vertex -80.2268 -142.859 25
      vertex -80.2268 -142.859 0
    endloop
  endfacet
  facet normal -0.971341 -0.23769 0
    outer loop
      vertex -80.2268 -142.859 25
      vertex -80.3896 -142.194 25
      vertex -80.2268 -142.859 0
    endloop
  endfacet
  facet normal -0.971341 -0.23769 0
    outer loop
      vertex -80.2268 -142.859 0
      vertex -80.3896 -142.194 25
      vertex -80.3896 -142.194 0
    endloop
  endfacet
  facet normal -0.980786 -0.195085 0
    outer loop
      vertex -80.3896 -142.194 25
      vertex -80.5233 -141.522 25
      vertex -80.3896 -142.194 0
    endloop
  endfacet
  facet normal -0.980786 -0.195085 0
    outer loop
      vertex -80.3896 -142.194 0
      vertex -80.5233 -141.522 25
      vertex -80.5233 -141.522 0
    endloop
  endfacet
  facet normal -0.98836 -0.152131 0
    outer loop
      vertex -80.5233 -141.522 25
      vertex -80.6275 -140.845 25
      vertex -80.5233 -141.522 0
    endloop
  endfacet
  facet normal -0.98836 -0.152131 0
    outer loop
      vertex -80.5233 -141.522 0
      vertex -80.6275 -140.845 25
      vertex -80.6275 -140.845 0
    endloop
  endfacet
  facet normal -0.994057 -0.10886 0
    outer loop
      vertex -80.6275 -140.845 25
      vertex -80.702 -140.164 25
      vertex -80.6275 -140.845 0
    endloop
  endfacet
  facet normal -0.994057 -0.10886 0
    outer loop
      vertex -80.6275 -140.845 0
      vertex -80.702 -140.164 25
      vertex -80.702 -140.164 0
    endloop
  endfacet
  facet normal -0.997859 -0.065405 0
    outer loop
      vertex -80.702 -140.164 25
      vertex -80.7468 -139.481 25
      vertex -80.702 -140.164 0
    endloop
  endfacet
  facet normal -0.997859 -0.065405 0
    outer loop
      vertex -80.702 -140.164 0
      vertex -80.7468 -139.481 25
      vertex -80.7468 -139.481 0
    endloop
  endfacet
  facet normal -0.999762 -0.0218092 0
    outer loop
      vertex -80.7468 -139.481 25
      vertex -80.7618 -138.796 25
      vertex -80.7468 -139.481 0
    endloop
  endfacet
  facet normal -0.999762 -0.0218092 0
    outer loop
      vertex -80.7468 -139.481 0
      vertex -80.7618 -138.796 25
      vertex -80.7618 -138.796 0
    endloop
  endfacet
  facet normal -0.999762 0.0218092 0
    outer loop
      vertex -80.7618 -138.796 25
      vertex -80.7468 -138.111 25
      vertex -80.7618 -138.796 0
    endloop
  endfacet
  facet normal 0 0 1
    outer loop
      vertex -49.4225 -140.164 25
      vertex -49.3777 -139.481 25
      vertex -65.0623 -138.796 25
    endloop
  endfacet
  facet normal 0 0 1
    outer loop
      vertex -49.3777 -139.481 25
      vertex -49.3628 -138.796 25
      vertex -65.0623 -138.796 25
    endloop
  endfacet
  facet normal 0 0 1
    outer loop
      vertex -65.0623 -138.796 25
      vertex -49.3628 -138.796 25
      vertex -49.3777 -138.111 25
    endloop
  endfacet
  facet normal 0 0 1
    outer loop
      vertex -49.7349 -142.194 25
      vertex -49.6013 -141.522 25
      vertex -65.0623 -138.796 25
    endloop
  endfacet
  facet normal 0 0 1
    outer loop
      vertex -49.6013 -141.522 25
      vertex -49.4971 -140.845 25
      vertex -65.0623 -138.796 25
    endloop
  endfacet
  facet normal 0 0 1
    outer loop
      vertex -65.0623 -138.796 25
      vertex -49.4971 -140.845 25
      vertex -49.4225 -140.164 25
    endloop
  endfacet
  facet normal 0 0 1
    outer loop
      vertex -50.3096 -144.165 25
      vertex -50.0894 -143.517 25
      vertex -65.0623 -138.796 25
    endloop
  endfacet
  facet normal 0 0 1
    outer loop
      vertex -50.0894 -143.517 25
      vertex -49.8977 -142.859 25
      vertex -65.0623 -138.796 25
    endloop
  endfacet
  facet normal 0 0 1
    outer loop
      vertex -65.0623 -138.796 25
      vertex -49.8977 -142.859 25
      vertex -49.7349 -142.194 25
    endloop
  endfacet
  facet normal 0 0 1
    outer loop
      vertex -51.1367 -146.045 25
      vertex -50.8337 -145.431 25
      vertex -65.0623 -138.796 25
    endloop
  endfacet
  facet normal 0 0 1
    outer loop
      vertex -50.8337 -145.431 25
      vertex -50.5578 -144.804 25
      vertex -65.0623 -138.796 25
    endloop
  endfacet
  facet normal 0 0 1
    outer loop
      vertex -65.0623 -138.796 25
      vertex -50.5578 -144.804 25
      vertex -50.3096 -144.165 25
    endloop
  endfacet
  facet normal 0 0 1
    outer loop
      vertex -52.202 -147.801 25
      vertex -51.8215 -147.231 25
      vertex -65.0623 -138.796 25
    endloop
  endfacet
  facet normal 0 0 1
    outer loop
      vertex -51.8215 -147.231 25
      vertex -51.4661 -146.645 25
      vertex -65.0623 -138.796 25
    endloop
  endfacet
  facet normal 0 0 1
    outer loop
      vertex -65.0623 -138.796 25
      vertex -51.4661 -146.645 25
      vertex -51.1367 -146.045 25
    endloop
  endfacet
  facet normal 0 0 1
    outer loop
      vertex -53.4874 -149.402 25
      vertex -53.0358 -148.887 25
      vertex -65.0623 -138.796 25
    endloop
  endfacet
  facet normal 0 0 1
    outer loop
      vertex -53.0358 -148.887 25
      vertex -52.607 -148.353 25
      vertex -65.0623 -138.796 25
    endloop
  endfacet
  facet normal 0 0 1
    outer loop
      vertex -65.0623 -138.796 25
      vertex -52.607 -148.353 25
      vertex -52.202 -147.801 25
    endloop
  endfacet
  facet normal 0 0 1
    outer loop
      vertex -54.9708 -150.822 25
      vertex -54.4559 -150.371 25
      vertex -65.0623 -138.796 25
    endloop
  endfacet
  facet normal 0 0 1
    outer loop
      vertex -54.4559 -150.371 25
      vertex -53.9611 -149.897 25
      vertex -65.0623 -138.796 25
    endloop
  endfacet
  facet normal 0 0 1
    outer loop
      vertex -65.0623 -138.796 25
      vertex -53.9611 -149.897 25
      vertex -53.4874 -149.402 25
    endloop
  endfacet
  facet normal 0 0 1
    outer loop
      vertex -56.627 -152.037 25
      vertex -56.0574 -151.656 25
      vertex -65.0623 -138.796 25
    endloop
  endfacet
  facet normal 0 0 1
    outer loop
      vertex -56.0574 -151.656 25
      vertex -55.505 -151.251 25
      vertex -65.0623 -138.796 25
    endloop
  endfacet
  facet normal 0 0 1
    outer loop
      vertex -65.0623 -138.796 25
      vertex -55.505 -151.251 25
      vertex -54.9708 -150.822 25
    endloop
  endfacet
  facet normal 0 0 1
    outer loop
      vertex -58.4274 -153.024 25
      vertex -57.8131 -152.721 25
      vertex -65.0623 -138.796 25
    endloop
  endfacet
  facet normal 0 0 1
    outer loop
      vertex -57.8131 -152.721 25
      vertex -57.2125 -152.392 25
      vertex -65.0623 -138.796 25
    endloop
  endfacet
  facet normal 0 0 1
    outer loop
      vertex -65.0623 -138.796 25
      vertex -57.2125 -152.392 25
      vertex -56.627 -152.037 25
    endloop
  endfacet
  facet normal 0 0 1
    outer loop
      vertex -60.3414 -153.769 25
      vertex -59.6927 -153.548 25
      vertex -65.0623 -138.796 25
    endloop
  endfacet
  facet normal 0 0 1
    outer loop
      vertex -59.6927 -153.548 25
      vertex -59.0543 -153.3 25
      vertex -65.0623 -138.796 25
    endloop
  endfacet
  facet normal 0 0 1
    outer loop
      vertex -65.0623 -138.796 25
      vertex -59.0543 -153.3 25
      vertex -58.4274 -153.024 25
    endloop
  endfacet
  facet normal 0 0 1
    outer loop
      vertex -62.3361 -154.257 25
      vertex -61.6643 -154.123 25
      vertex -65.0623 -138.796 25
    endloop
  endfacet
  facet normal 0 0 1
    outer loop
      vertex -61.6643 -154.123 25
      vertex -60.999 -153.96 25
      vertex -65.0623 -138.796 25
    endloop
  endfacet
  facet normal 0 0 1
    outer loop
      vertex -65.0623 -138.796 25
      vertex -60.999 -153.96 25
      vertex -60.3414 -153.769 25
    endloop
  endfacet
  facet normal 0 0 1
    outer loop
      vertex -64.3775 -154.48 25
      vertex -63.694 -154.435 25
      vertex -65.0623 -138.796 25
    endloop
  endfacet
  facet normal 0 0 1
    outer loop
      vertex -63.694 -154.435 25
      vertex -63.0131 -154.361 25
      vertex -65.0623 -138.796 25
    endloop
  endfacet
  facet normal 0 0 1
    outer loop
      vertex -65.0623 -138.796 25
      vertex -63.0131 -154.361 25
      vertex -62.3361 -154.257 25
    endloop
  endfacet
  facet normal 0 0 1
    outer loop
      vertex -66.4306 -154.435 25
      vertex -65.7471 -154.48 25
      vertex -65.0623 -138.796 25
    endloop
  endfacet
  facet normal 0 0 1
    outer loop
      vertex -65.7471 -154.48 25
      vertex -65.0623 -154.495 25
      vertex -65.0623 -138.796 25
    endloop
  endfacet
  facet normal 0 0 1
    outer loop
      vertex -65.0623 -138.796 25
      vertex -65.0623 -154.495 25
      vertex -64.3775 -154.48 25
    endloop
  endfacet
  facet normal 0 0 1
    outer loop
      vertex -68.4603 -154.123 25
      vertex -67.7885 -154.257 25
      vertex -65.0623 -138.796 25
    endloop
  endfacet
  facet normal 0 0 1
    outer loop
      vertex -67.7885 -154.257 25
      vertex -67.1115 -154.361 25
      vertex -65.0623 -138.796 25
    endloop
  endfacet
  facet normal 0 0 1
    outer loop
      vertex -65.0623 -138.796 25
      vertex -67.1115 -154.361 25
      vertex -66.4306 -154.435 25
    endloop
  endfacet
  facet normal 0 0 1
    outer loop
      vertex -70.4318 -153.548 25
      vertex -69.7832 -153.769 25
      vertex -65.0623 -138.796 25
    endloop
  endfacet
  facet normal 0 0 1
    outer loop
      vertex -69.7832 -153.769 25
      vertex -69.1256 -153.96 25
      vertex -65.0623 -138.796 25
    endloop
  endfacet
  facet normal 0 0 1
    outer loop
      vertex -65.0623 -138.796 25
      vertex -69.1256 -153.96 25
      vertex -68.4603 -154.123 25
    endloop
  endfacet
  facet normal 0 0 1
    outer loop
      vertex -72.3115 -152.721 25
      vertex -71.6972 -153.024 25
      vertex -65.0623 -138.796 25
    endloop
  endfacet
  facet normal 0 0 1
    outer loop
      vertex -71.6972 -153.024 25
      vertex -71.0702 -153.3 25
      vertex -65.0623 -138.796 25
    endloop
  endfacet
  facet normal 0 0 1
    outer loop
      vertex -65.0623 -138.796 25
      vertex -71.0702 -153.3 25
      vertex -70.4318 -153.548 25
    endloop
  endfacet
  facet normal 0 0 1
    outer loop
      vertex -74.0671 -151.656 25
      vertex -73.4976 -152.037 25
      vertex -65.0623 -138.796 25
    endloop
  endfacet
  facet normal 0 0 1
    outer loop
      vertex -73.4976 -152.037 25
      vertex -72.912 -152.392 25
      vertex -65.0623 -138.796 25
    endloop
  endfacet
  facet normal 0 0 1
    outer loop
      vertex -65.0623 -138.796 25
      vertex -72.912 -152.392 25
      vertex -72.3115 -152.721 25
    endloop
  endfacet
  facet normal 0 0 1
    outer loop
      vertex -75.6687 -150.371 25
      vertex -75.1537 -150.822 25
      vertex -65.0623 -138.796 25
    endloop
  endfacet
  facet normal 0 0 1
    outer loop
      vertex -75.1537 -150.822 25
      vertex -74.6195 -151.251 25
      vertex -65.0623 -138.796 25
    endloop
  endfacet
  facet normal 0 0 1
    outer loop
      vertex -65.0623 -138.796 25
      vertex -74.6195 -151.251 25
      vertex -74.0671 -151.656 25
    endloop
  endfacet
  facet normal 0 0 1
    outer loop
      vertex -77.0888 -148.887 25
      vertex -76.6372 -149.402 25
      vertex -65.0623 -138.796 25
    endloop
  endfacet
  facet normal 0 0 1
    outer loop
      vertex -76.6372 -149.402 25
      vertex -76.1635 -149.897 25
      vertex -65.0623 -138.796 25
    endloop
  endfacet
  facet normal 0 0 1
    outer loop
      vertex -65.0623 -138.796 25
      vertex -76.1635 -149.897 25
      vertex -75.6687 -150.371 25
    endloop
  endfacet
  facet normal 0 0 1
    outer loop
      vertex -78.3031 -147.231 25
      vertex -77.9226 -147.801 25
      vertex -65.0623 -138.796 25
    endloop
  endfacet
  facet normal 0 0 1
    outer loop
      vertex -77.9226 -147.801 25
      vertex -77.5175 -148.353 25
      vertex -65.0623 -138.796 25
    endloop
  endfacet
  facet normal 0 0 1
    outer loop
      vertex -65.0623 -138.796 25
      vertex -77.5175 -148.353 25
      vertex -77.0888 -148.887 25
    endloop
  endfacet
  facet normal 0 0 1
    outer loop
      vertex -79.2909 -145.431 25
      vertex -78.9879 -146.045 25
      vertex -65.0623 -138.796 25
    endloop
  endfacet
  facet normal 0 0 1
    outer loop
      vertex -78.9879 -146.045 25
      vertex -78.6584 -146.645 25
      vertex -65.0623 -138.796 25
    endloop
  endfacet
  facet normal 0 0 1
    outer loop
      vertex -65.0623 -138.796 25
      vertex -78.6584 -146.645 25
      vertex -78.3031 -147.231 25
    endloop
  endfacet
  facet normal 0 0 1
    outer loop
      vertex -80.0352 -143.517 25
      vertex -79.815 -144.165 25
      vertex -65.0623 -138.796 25
    endloop
  endfacet
  facet normal 0 0 1
    outer loop
      vertex -79.815 -144.165 25
      vertex -79.5667 -144.804 25
      vertex -65.0623 -138.796 25
    endloop
  endfacet
  facet normal 0 0 1
    outer loop
      vertex -65.0623 -138.796 25
      vertex -79.5667 -144.804 25
      vertex -79.2909 -145.431 25
    endloop
  endfacet
  facet normal 0 0 1
    outer loop
      vertex -80.5233 -141.522 25
      vertex -80.3896 -142.194 25
      vertex -65.0623 -138.796 25
    endloop
  endfacet
  facet normal 0 0 1
    outer loop
      vertex -80.3896 -142.194 25
      vertex -80.2268 -142.859 25
      vertex -65.0623 -138.796 25
    endloop
  endfacet
  facet normal 0 0 1
    outer loop
      vertex -65.0623 -138.796 25
      vertex -80.2268 -142.859 25
      vertex -80.0352 -143.517 25
    endloop
  endfacet
  facet normal 0 0 1
    outer loop
      vertex -80.7468 -139.481 25
      vertex -80.702 -140.164 25
      vertex -65.0623 -138.796 25
    endloop
  endfacet
  facet normal 0 0 1
    outer loop
      vertex -80.702 -140.164 25
      vertex -80.6275 -140.845 25
      vertex -65.0623 -138.796 25
    endloop
  endfacet
  facet normal 0 0 1
    outer loop
      vertex -65.0623 -138.796 25
      vertex -80.6275 -140.845 25
      vertex -80.5233 -141.522 25
    endloop
  endfacet
  facet normal 0 0 1
    outer loop
      vertex -80.702 -137.427 25
      vertex -80.7468 -138.111 25
      vertex -65.0623 -138.796 25
    endloop
  endfacet
  facet normal 0 0 1
    outer loop
      vertex -80.7468 -138.111 25
      vertex -80.7618 -138.796 25
      vertex -65.0623 -138.796 25
    endloop
  endfacet
  facet normal 0 0 1
    outer loop
      vertex -65.0623 -138.796 25
      vertex -80.7618 -138.796 25
      vertex -80.7468 -139.481 25
    endloop
  endfacet
  facet normal 0 0 1
    outer loop
      vertex -80.3896 -135.398 25
      vertex -80.5233 -136.07 25
      vertex -65.0623 -138.796 25
    endloop
  endfacet
  facet normal 0 0 1
    outer loop
      vertex -80.5233 -136.07 25
      vertex -80.6275 -136.747 25
      vertex -65.0623 -138.796 25
    endloop
  endfacet
  facet normal 0 0 1
    outer loop
      vertex -65.0623 -138.796 25
      vertex -80.6275 -136.747 25
      vertex -80.702 -137.427 25
    endloop
  endfacet
  facet normal 0 0 1
    outer loop
      vertex -79.815 -133.426 25
      vertex -80.0352 -134.075 25
      vertex -65.0623 -138.796 25
    endloop
  endfacet
  facet normal 0 0 1
    outer loop
      vertex -80.0352 -134.075 25
      vertex -80.2268 -134.732 25
      vertex -65.0623 -138.796 25
    endloop
  endfacet
  facet normal 0 0 1
    outer loop
      vertex -65.0623 -138.796 25
      vertex -80.2268 -134.732 25
      vertex -80.3896 -135.398 25
    endloop
  endfacet
  facet normal 0 0 1
    outer loop
      vertex -78.9879 -131.546 25
      vertex -79.2909 -132.161 25
      vertex -65.0623 -138.796 25
    endloop
  endfacet
  facet normal 0 0 1
    outer loop
      vertex -79.2909 -132.161 25
      vertex -79.5667 -132.788 25
      vertex -65.0623 -138.796 25
    endloop
  endfacet
  facet normal 0 0 1
    outer loop
      vertex -65.0623 -138.796 25
      vertex -79.5667 -132.788 25
      vertex -79.815 -133.426 25
    endloop
  endfacet
  facet normal 0 0 1
    outer loop
      vertex -77.9226 -129.791 25
      vertex -78.3031 -130.36 25
      vertex -65.0623 -138.796 25
    endloop
  endfacet
  facet normal 0 0 1
    outer loop
      vertex -78.3031 -130.36 25
      vertex -78.6584 -130.946 25
      vertex -65.0623 -138.796 25
    endloop
  endfacet
  facet normal 0 0 1
    outer loop
      vertex -65.0623 -138.796 25
      vertex -78.6584 -130.946 25
      vertex -78.9879 -131.546 25
    endloop
  endfacet
  facet normal 0 0 1
    outer loop
      vertex -76.6372 -128.189 25
      vertex -77.0888 -128.704 25
      vertex -65.0623 -138.796 25
    endloop
  endfacet
  facet normal 0 0 1
    outer loop
      vertex -77.0888 -128.704 25
      vertex -77.5175 -129.238 25
      vertex -65.0623 -138.796 25
    endloop
  endfacet
  facet normal 0 0 1
    outer loop
      vertex -65.0623 -138.796 25
      vertex -77.5175 -129.238 25
      vertex -77.9226 -129.791 25
    endloop
  endfacet
  facet normal 0 0 1
    outer loop
      vertex -75.1537 -126.769 25
      vertex -75.6687 -127.221 25
      vertex -65.0623 -138.796 25
    endloop
  endfacet
  facet normal 0 0 1
    outer loop
      vertex -75.6687 -127.221 25
      vertex -76.1635 -127.695 25
      vertex -65.0623 -138.796 25
    endloop
  endfacet
  facet normal 0 0 1
    outer loop
      vertex -65.0623 -138.796 25
      vertex -76.1635 -127.695 25
      vertex -76.6372 -128.189 25
    endloop
  endfacet
  facet normal 0 0 1
    outer loop
      vertex -73.4976 -125.555 25
      vertex -74.0671 -125.935 25
      vertex -65.0623 -138.796 25
    endloop
  endfacet
  facet normal 0 0 1
    outer loop
      vertex -74.0671 -125.935 25
      vertex -74.6195 -126.34 25
      vertex -65.0623 -138.796 25
    endloop
  endfacet
  facet normal 0 0 1
    outer loop
      vertex -65.0623 -138.796 25
      vertex -74.6195 -126.34 25
      vertex -75.1537 -126.769 25
    endloop
  endfacet
  facet normal 0 0 1
    outer loop
      vertex -71.6972 -124.567 25
      vertex -72.3115 -124.87 25
      vertex -65.0623 -138.796 25
    endloop
  endfacet
  facet normal 0 0 1
    outer loop
      vertex -72.3115 -124.87 25
      vertex -72.912 -125.2 25
      vertex -65.0623 -138.796 25
    endloop
  endfacet
  facet normal 0 0 1
    outer loop
      vertex -65.0623 -138.796 25
      vertex -72.912 -125.2 25
      vertex -73.4976 -125.555 25
    endloop
  endfacet
  facet normal 0 0 1
    outer loop
      vertex -69.7832 -123.823 25
      vertex -70.4318 -124.043 25
      vertex -65.0623 -138.796 25
    endloop
  endfacet
  facet normal 0 0 1
    outer loop
      vertex -70.4318 -124.043 25
      vertex -71.0702 -124.291 25
      vertex -65.0623 -138.796 25
    endloop
  endfacet
  facet normal 0 0 1
    outer loop
      vertex -65.0623 -138.796 25
      vertex -71.0702 -124.291 25
      vertex -71.6972 -124.567 25
    endloop
  endfacet
  facet normal 0 0 1
    outer loop
      vertex -67.7885 -123.335 25
      vertex -68.4603 -123.468 25
      vertex -65.0623 -138.796 25
    endloop
  endfacet
  facet normal 0 0 1
    outer loop
      vertex -68.4603 -123.468 25
      vertex -69.1256 -123.631 25
      vertex -65.0623 -138.796 25
    endloop
  endfacet
  facet normal 0 0 1
    outer loop
      vertex -65.0623 -138.796 25
      vertex -69.1256 -123.631 25
      vertex -69.7832 -123.823 25
    endloop
  endfacet
  facet normal 0 0 1
    outer loop
      vertex -65.7471 -123.111 25
      vertex -66.4306 -123.156 25
      vertex -65.0623 -138.796 25
    endloop
  endfacet
  facet normal 0 0 1
    outer loop
      vertex -66.4306 -123.156 25
      vertex -67.1115 -123.231 25
      vertex -65.0623 -138.796 25
    endloop
  endfacet
  facet normal 0 0 1
    outer loop
      vertex -65.0623 -138.796 25
      vertex -67.1115 -123.231 25
      vertex -67.7885 -123.335 25
    endloop
  endfacet
  facet normal 0 0 1
    outer loop
      vertex -63.694 -123.156 25
      vertex -64.3775 -123.111 25
      vertex -65.0623 -138.796 25
    endloop
  endfacet
  facet normal 0 0 1
    outer loop
      vertex -64.3775 -123.111 25
      vertex -65.0623 -123.096 25
      vertex -65.0623 -138.796 25
    endloop
  endfacet
  facet normal 0 0 1
    outer loop
      vertex -65.0623 -138.796 25
      vertex -65.0623 -123.096 25
      vertex -65.7471 -123.111 25
    endloop
  endfacet
  facet normal 0 0 1
    outer loop
      vertex -61.6643 -123.468 25
      vertex -62.3361 -123.335 25
      vertex -65.0623 -138.796 25
    endloop
  endfacet
  facet normal 0 0 1
    outer loop
      vertex -62.3361 -123.335 25
      vertex -63.0131 -123.231 25
      vertex -65.0623 -138.796 25
    endloop
  endfacet
  facet normal 0 0 1
    outer loop
      vertex -65.0623 -138.796 25
      vertex -63.0131 -123.231 25
      vertex -63.694 -123.156 25
    endloop
  endfacet
  facet normal 0 0 1
    outer loop
      vertex -59.6927 -124.043 25
      vertex -60.3414 -123.823 25
      vertex -65.0623 -138.796 25
    endloop
  endfacet
  facet normal 0 0 1
    outer loop
      vertex -60.3414 -123.823 25
      vertex -60.999 -123.631 25
      vertex -65.0623 -138.796 25
    endloop
  endfacet
  facet normal 0 0 1
    outer loop
      vertex -65.0623 -138.796 25
      vertex -60.999 -123.631 25
      vertex -61.6643 -123.468 25
    endloop
  endfacet
  facet normal 0 0 1
    outer loop
      vertex -57.8131 -124.87 25
      vertex -58.4274 -124.567 25
      vertex -65.0623 -138.796 25
    endloop
  endfacet
  facet normal 0 0 1
    outer loop
      vertex -58.4274 -124.567 25
      vertex -59.0543 -124.291 25
      vertex -65.0623 -138.796 25
    endloop
  endfacet
  facet normal 0 0 1
    outer loop
      vertex -65.0623 -138.796 25
      vertex -59.0543 -124.291 25
      vertex -59.6927 -124.043 25
    endloop
  endfacet
  facet normal 0 0 1
    outer loop
      vertex -56.0574 -125.935 25
      vertex -56.627 -125.555 25
      vertex -65.0623 -138.796 25
    endloop
  endfacet
  facet normal 0 0 1
    outer loop
      vertex -56.627 -125.555 25
      vertex -57.2125 -125.2 25
      vertex -65.0623 -138.796 25
    endloop
  endfacet
  facet normal 0 0 1
    outer loop
      vertex -65.0623 -138.796 25
      vertex -57.2125 -125.2 25
      vertex -57.8131 -124.87 25
    endloop
  endfacet
  facet normal 0 0 1
    outer loop
      vertex -54.4559 -127.221 25
      vertex -54.9708 -126.769 25
      vertex -65.0623 -138.796 25
    endloop
  endfacet
  facet normal 0 0 1
    outer loop
      vertex -54.9708 -126.769 25
      vertex -55.505 -126.34 25
      vertex -65.0623 -138.796 25
    endloop
  endfacet
  facet normal 0 0 1
    outer loop
      vertex -65.0623 -138.796 25
      vertex -55.505 -126.34 25
      vertex -56.0574 -125.935 25
    endloop
  endfacet
  facet normal 0 0 1
    outer loop
      vertex -53.0358 -128.704 25
      vertex -53.4874 -128.189 25
      vertex -65.0623 -138.796 25
    endloop
  endfacet
  facet normal 0 0 1
    outer loop
      vertex -53.4874 -128.189 25
      vertex -53.9611 -127.695 25
      vertex -65.0623 -138.796 25
    endloop
  endfacet
  facet normal 0 0 1
    outer loop
      vertex -65.0623 -138.796 25
      vertex -53.9611 -127.695 25
      vertex -54.4559 -127.221 25
    endloop
  endfacet
  facet normal 0 0 1
    outer loop
      vertex -51.8215 -130.36 25
      vertex -52.202 -129.791 25
      vertex -65.0623 -138.796 25
    endloop
  endfacet
  facet normal 0 0 1
    outer loop
      vertex -52.202 -129.791 25
      vertex -52.607 -129.238 25
      vertex -65.0623 -138.796 25
    endloop
  endfacet
  facet normal 0 0 1
    outer loop
      vertex -65.0623 -138.796 25
      vertex -52.607 -129.238 25
      vertex -53.0358 -128.704 25
    endloop
  endfacet
  facet normal 0 0 1
    outer loop
      vertex -50.8337 -132.161 25
      vertex -51.1367 -131.546 25
      vertex -65.0623 -138.796 25
    endloop
  endfacet
  facet normal 0 0 1
    outer loop
      vertex -51.1367 -131.546 25
      vertex -51.4661 -130.946 25
      vertex -65.0623 -138.796 25
    endloop
  endfacet
  facet normal 0 0 1
    outer loop
      vertex -65.0623 -138.796 25
      vertex -51.4661 -130.946 25
      vertex -51.8215 -130.36 25
    endloop
  endfacet
  facet normal 0 0 1
    outer loop
      vertex -50.0894 -134.075 25
      vertex -50.3096 -133.426 25
      vertex -65.0623 -138.796 25
    endloop
  endfacet
  facet normal 0 0 1
    outer loop
      vertex -50.3096 -133.426 25
      vertex -50.5578 -132.788 25
      vertex -65.0623 -138.796 25
    endloop
  endfacet
  facet normal 0 0 1
    outer loop
      vertex -65.0623 -138.796 25
      vertex -50.5578 -132.788 25
      vertex -50.8337 -132.161 25
    endloop
  endfacet
  facet normal 0 0 1
    outer loop
      vertex -49.6013 -136.07 25
      vertex -49.7349 -135.398 25
      vertex -65.0623 -138.796 25
    endloop
  endfacet
  facet normal 0 0 1
    outer loop
      vertex -49.7349 -135.398 25
      vertex -49.8977 -134.732 25
      vertex -65.0623 -138.796 25
    endloop
  endfacet
  facet normal 0 0 1
    outer loop
      vertex -65.0623 -138.796 25
      vertex -49.8977 -134.732 25
      vertex -50.0894 -134.075 25
    endloop
  endfacet
  facet normal 0 0 1
    outer loop
      vertex -49.3777 -138.111 25
      vertex -49.4225 -137.427 25
      vertex -65.0623 -138.796 25
    endloop
  endfacet
  facet normal 0 0 1
    outer loop
      vertex -49.4225 -137.427 25
      vertex -49.4971 -136.747 25
      vertex -65.0623 -138.796 25
    endloop
  endfacet
  facet normal 0 0 1
    outer loop
      vertex -65.0623 -138.796 25
      vertex -49.4971 -136.747 25
      vertex -49.6013 -136.07 25
    endloop
  endfacet
endsolid Onshape
