solid Onshape
  facet normal 0 0 -1
    outer loop
      vertex 15 15 0
      vertex 15 50 0
      vertex 45 50 0
    endloop
  endfacet
  facet normal 0 0 -1
    outer loop
      vertex -15 -15 0
      vertex -15 -50 0
      vertex -45 -50 0
    endloop
  endfacet
  facet normal 0 0 -1
    outer loop
      vertex 45 -50 0
      vertex 15 -50 0
      vertex 15 -15 0
    endloop
  endfacet
  facet normal 0 0 -1
    outer loop
      vertex -45 50 0
      vertex -15 50 0
      vertex -15 15 0
    endloop
  endfacet
  facet normal 0 0 -1
    outer loop
      vertex 45 50 0
      vertex 45 -50 0
      vertex 15 15 0
    endloop
  endfacet
  facet normal 0 0 -1
    outer loop
      vertex 45 -50 0
      vertex 15 -15 0
      vertex 15 15 0
    endloop
  endfacet
  facet normal 0 0 -1
    outer loop
      vertex 15 15 0
      vertex 15 -15 0
      vertex -15 15 0
    endloop
  endfacet
  facet normal 0 0 -1
    outer loop
      vertex 15 -15 0
      vertex -15 -15 0
      vertex -15 15 0
    endloop
  endfacet
  facet normal 0 0 -1
    outer loop
      vertex -15 15 0
      vertex -15 -15 0
      vertex -45 50 0
    endloop
  endfacet
  facet normal 0 0 -1
    outer loop
      vertex -15 -15 0
      vertex -45 -50 0
      vertex -45 50 0
    endloop
  endfacet
  facet normal 0 0 1
    outer loop
      vertex -15 15 25
      vertex -15 50 25
      vertex -45 50 25
    endloop
  endfacet
  facet normal 0 0 1
    outer loop
      vertex 15 -15 25
      vertex 15 -50 25
      vertex 45 -50 25
    endloop
  endfacet
  facet normal 0 0 1
    outer loop
      vertex -45 -50 25
      vertex -15 -50 25
      vertex -15 -15 25
    endloop
  endfacet
  facet normal 0 0 1
    outer loop
      vertex 45 50 25
      vertex 15 50 25
      vertex 15 15 25
    endloop
  endfacet
  facet normal 0 0 1
    outer loop
      vertex -45 50 25
      vertex -45 -50 25
      vertex -15 15 25
    endloop
  endfacet
  facet normal 0 0 1
    outer loop
      vertex -45 -50 25
      vertex -15 -15 25
      vertex -15 15 25
    endloop
  endfacet
  facet normal 0 0 1
    outer loop
      vertex -15 15 25
      vertex -15 -15 25
      vertex 15 15 25
    endloop
  endfacet
  facet normal 0 0 1
    outer loop
      vertex -15 -15 25
      vertex 15 -15 25
      vertex 15 15 25
    endloop
  endfacet
  facet normal 0 0 1
    outer loop
      vertex 15 15 25
      vertex 15 -15 25
      vertex 45 50 25
    endloop
  endfacet
  facet normal 0 0 1
    outer loop
      vertex 15 -15 25
      vertex 45 -50 25
      vertex 45 50 25
    endloop
  endfacet
  facet normal -1 0 0
    outer loop
      vertex 15 15 25
      vertex 15 50 25
      vertex 15 15 0
    endloop
  endfacet
  facet normal -1 0 0
    outer loop
      vertex 15 50 25
      vertex 15 50 0
      vertex 15 15 0
    endloop
  endfacet
  facet normal 0 1 0
    outer loop
      vertex 15 50 25
      vertex 45 50 25
      vertex 15 50 0
    endloop
  endfacet
  facet normal 0 1 0
    outer loop
      vertex 45 50 25
      vertex 45 50 0
      vertex 15 50 0
    endloop
  endfacet
  facet normal 1 0 0
    outer loop
      vertex 45 50 25
      vertex 45 -50 25
      vertex 45 50 0
    endloop
  endfacet
  facet normal 1 0 0
    outer loop
      vertex 45 -50 25
      vertex 45 -50 0
      vertex 45 50 0
    endloop
  endfacet
  facet normal 0 -1 0
    outer loop
      vertex 45 -50 25
      vertex 15 -50 25
      vertex 45 -50 0
    endloop
  endfacet
  facet normal 0 -1 0
    outer loop
      vertex 15 -50 25
      vertex 15 -50 0
      vertex 45 -50 0
    endloop
  endfacet
  facet normal -1 0 0
    outer loop
      vertex 15 -50 25
      vertex 15 -15 25
      vertex 15 -50 0
    endloop
  endfacet
  facet normal -1 0 0
    outer loop
      vertex 15 -15 25
      vertex 15 -15 0
      vertex 15 -50 0
    endloop
  endfacet
  facet normal 0 -1 0
    outer loop
      vertex 15 -15 25
      vertex -15 -15 25
      vertex 15 -15 0
    endloop
  endfacet
  facet normal 0 -1 0
    outer loop
      vertex -15 -15 25
      vertex -15 -15 0
      vertex 15 -15 0
    endloop
  endfacet
  facet normal 1 0 0
    outer loop
      vertex -15 50 25
      vertex -15 15 25
      vertex -15 50 0
    endloop
  endfacet
  facet normal 1 0 0
    outer loop
      vertex -15 15 25
      vertex -15 15 0
      vertex -15 50 0
    endloop
  endfacet
  facet normal 0 1 0
    outer loop
      vertex -15 15 25
      vertex 15 15 25
      vertex -15 15 0
    endloop
  endfacet
  facet normal 0 1 0
    outer loop
      vertex 15 15 25
      vertex 15 15 0
      vertex -15 15 0
    endloop
  endfacet
  facet normal 0 1 0
    outer loop
      vertex -45 50 25
      vertex -15 50 25
      vertex -45 50 0
    endloop
  endfacet
  facet normal 0 1 0
    outer loop
      vertex -15 50 25
      vertex -15 50 0
      vertex -45 50 0
    endloop
  endfacet
  facet normal -1 0 0
    outer loop
      vertex -45 -50 25
      vertex -45 50 25
      vertex -45 -50 0
    endloop
  endfacet
  facet normal -1 0 0
    outer loop
      vertex -45 50 25
      vertex -45 50 0
      vertex -45 -50 0
    endloop
  endfacet
  facet normal 0 -1 0
    outer loop
      vertex -15 -50 25
      vertex -45 -50 25
      vertex -15 -50 0
    endloop
  endfacet
  facet normal 0 -1 0
    outer loop
      vertex -45 -50 25
      vertex -45 -50 0
      vertex -15 -50 0
    endloop
  endfacet
  facet normal 1 0 0
    outer loop
      vertex -15 -15 25
      vertex -15 -50 25
      vertex -15 -15 0
    endloop
  endfacet
  facet normal 1 0 0
    outer loop
      vertex -15 -50 25
      vertex -15 -50 0
      vertex -15 -15 0
    endloop
  endfacet
endsolid Onshape
